<svg xmlns="http://www.w3.org/2000/svg" xmlns:xlink="http://www.w3.org/1999/xlink" width="189" height="238" viewBox="0 0 189 238">
  <defs>
    <radialGradient id="radial-gradient" cx="0.076" cy="0.019" r="1.465" gradientTransform="translate(0.001)" gradientUnits="objectBoundingBox">
      <stop offset="0" stop-color="#f6f6f7"/>
      <stop offset="0.477" stop-color="#f9f9fa"/>
      <stop offset="0.715" stop-color="#fff"/>
    </radialGradient>
  </defs>
  <g id="Grupo_90286" data-name="Grupo 90286" transform="translate(-700 -5072)">
    <g id="Grupo_90283" data-name="Grupo 90283">
      <path id="Trazado_151815" data-name="Trazado 151815" d="M35,0H154a35,35,0,0,1,35,35V238H35A35,35,0,0,1,0,203V35A35,35,0,0,1,35,0Z" transform="translate(700 5072)" fill="#e6f7fe"/>
      <path id="Trazado_151816" data-name="Trazado 151816" d="M11.5,13.52,14.053,4.2H17.5L13.191,17H9.816L5.545,4.2H8.964ZM23.246,17a3.344,3.344,0,0,1-.281-.853,2.754,2.754,0,0,1-2.285,1.028,3.374,3.374,0,0,1-2.285-.813,2.588,2.588,0,0,1-.94-2.043A2.66,2.66,0,0,1,18.6,11.981a5.821,5.821,0,0,1,3.322-.791h.914v-.5q0-1.316-1.134-1.316a.927.927,0,0,0-1.055,1.042H17.683a2.655,2.655,0,0,1,1.173-2.239,4.931,4.931,0,0,1,2.993-.86,4.323,4.323,0,0,1,2.874.888A3.086,3.086,0,0,1,25.8,10.637v4.21a4.311,4.311,0,0,0,.4,2V17Zm-1.854-1.934a1.652,1.652,0,0,0,.918-.237,1.487,1.487,0,0,0,.523-.536V12.772h-.861q-1.547,0-1.547,1.389a.848.848,0,0,0,.272.655A.986.986,0,0,0,21.392,15.066ZM30.567,17H27.6V3.5h2.971Zm1.45-4.843a5.613,5.613,0,0,1,.554-2.536,3.96,3.96,0,0,1,1.591-1.709,4.791,4.791,0,0,1,2.435-.6,4.373,4.373,0,0,1,3.366,1.323,5.076,5.076,0,0,1,1.23,3.6v.105a4.925,4.925,0,0,1-1.235,3.529,4.384,4.384,0,0,1-3.344,1.305,4.434,4.434,0,0,1-3.261-1.217,4.761,4.761,0,0,1-1.327-3.3Zm2.962.185a3.538,3.538,0,0,0,.413,1.934,1.376,1.376,0,0,0,1.222.615q1.582,0,1.617-2.435v-.3Q38.231,9.6,36.6,9.6q-1.485,0-1.608,2.206Zm13.271-2.171-.976-.07a1.752,1.752,0,0,0-1.793.879V17H42.521V7.49H45.3l.1,1.222a2.294,2.294,0,0,1,2.083-1.4,2.888,2.888,0,0,1,.826.105Zm5.5,7a4.889,4.889,0,0,1-3.542-1.305,4.507,4.507,0,0,1-1.354-3.4v-.246A5.84,5.84,0,0,1,49.4,9.652a3.955,3.955,0,0,1,1.578-1.727,4.763,4.763,0,0,1,2.461-.611A4.117,4.117,0,0,1,56.6,8.558a4.887,4.887,0,0,1,1.16,3.467v1.151H51.872a2.135,2.135,0,0,0,.694,1.257,2.066,2.066,0,0,0,1.389.457,2.662,2.662,0,0,0,2.2-.984l1.354,1.6a3.784,3.784,0,0,1-1.569,1.217A5.3,5.3,0,0,1,53.753,17.176ZM53.419,9.6q-1.3,0-1.547,1.723H54.86v-.229a1.467,1.467,0,0,0-.36-1.1A1.434,1.434,0,0,0,53.419,9.6Zm10.512,4.729a.684.684,0,0,0-.4-.606,6.016,6.016,0,0,0-1.5-.475A6.853,6.853,0,0,1,60.2,12.6a3.062,3.062,0,0,1-1.1-.971,2.319,2.319,0,0,1-.378-1.31,2.628,2.628,0,0,1,1.081-2.158,4.453,4.453,0,0,1,2.83-.848,4.934,4.934,0,0,1,3.023.853A2.666,2.666,0,0,1,66.8,10.408H63.834q0-1.143-1.2-1.143a1.194,1.194,0,0,0-.782.259.8.8,0,0,0-.316.646.737.737,0,0,0,.387.642,3.654,3.654,0,0,0,1.235.4,10.671,10.671,0,0,1,1.49.378,2.706,2.706,0,0,1,2.145,2.646,2.491,2.491,0,0,1-1.156,2.118,5.068,5.068,0,0,1-2.993.817,5.172,5.172,0,0,1-2.18-.439,3.645,3.645,0,0,1-1.494-1.2,2.707,2.707,0,0,1-.536-1.591H61.2a1.145,1.145,0,0,0,.439.962,1.808,1.808,0,0,0,1.081.3,1.422,1.422,0,0,0,.91-.246A.787.787,0,0,0,63.931,14.328Zm13.324,2.848a4.889,4.889,0,0,1-3.542-1.305,4.507,4.507,0,0,1-1.354-3.4v-.246A5.84,5.84,0,0,1,72.9,9.652a3.955,3.955,0,0,1,1.578-1.727,4.763,4.763,0,0,1,2.461-.611A4.117,4.117,0,0,1,80.1,8.558a4.887,4.887,0,0,1,1.16,3.467v1.151H75.374a2.135,2.135,0,0,0,.694,1.257,2.066,2.066,0,0,0,1.389.457,2.662,2.662,0,0,0,2.2-.984l1.354,1.6a3.784,3.784,0,0,1-1.569,1.217A5.3,5.3,0,0,1,77.255,17.176ZM76.921,9.6q-1.3,0-1.547,1.723h2.988v-.229a1.467,1.467,0,0,0-.36-1.1A1.434,1.434,0,0,0,76.921,9.6Zm-.035-6.108h3.129l-2.443,2.76-2.417,0ZM85.9,5.126V7.49h1.564V9.547H85.9V13.9a1.111,1.111,0,0,0,.193.747,1.037,1.037,0,0,0,.765.211A4.345,4.345,0,0,0,87.6,14.8v2.118a5.466,5.466,0,0,1-1.67.255,3.1,3.1,0,0,1-2.259-.721,2.954,2.954,0,0,1-.729-2.188V9.547H81.729V7.49h1.213V5.126ZM91.757,17H88.786V7.49h2.971ZM88.61,5.029a1.334,1.334,0,0,1,.457-1.043,1.934,1.934,0,0,1,2.373,0A1.334,1.334,0,0,1,91.9,5.029a1.334,1.334,0,0,1-.457,1.043,1.934,1.934,0,0,1-2.373,0A1.334,1.334,0,0,1,88.61,5.029ZM97.6,14.891a1.317,1.317,0,0,0,.967-.338,1.241,1.241,0,0,0,.334-.945h2.777a3.288,3.288,0,0,1-1.121,2.566,4.168,4.168,0,0,1-2.887,1,4.22,4.22,0,0,1-3.27-1.3,5.125,5.125,0,0,1-1.2-3.6v-.123A5.792,5.792,0,0,1,93.739,9.6a3.872,3.872,0,0,1,1.534-1.7,4.573,4.573,0,0,1,2.373-.593,4.116,4.116,0,0,1,2.944,1.028,3.647,3.647,0,0,1,1.09,2.786H98.9A1.626,1.626,0,0,0,98.542,10a1.244,1.244,0,0,0-.967-.4q-1.151,0-1.345,1.468a10.357,10.357,0,0,0-.062,1.283,4.068,4.068,0,0,0,.343,1.986A1.187,1.187,0,0,0,97.6,14.891Zm4.957-2.733a5.613,5.613,0,0,1,.554-2.536A3.96,3.96,0,0,1,104.7,7.912a4.791,4.791,0,0,1,2.435-.6A4.373,4.373,0,0,1,110.5,8.637a5.076,5.076,0,0,1,1.23,3.6v.105a4.925,4.925,0,0,1-1.235,3.529,4.384,4.384,0,0,1-3.344,1.305,4.434,4.434,0,0,1-3.261-1.217,4.761,4.761,0,0,1-1.327-3.3Zm2.962.185a3.538,3.538,0,0,0,.413,1.934,1.376,1.376,0,0,0,1.222.615q1.582,0,1.617-2.435v-.3q0-2.558-1.635-2.558-1.485,0-1.608,2.206Zm12.5,1.986a.684.684,0,0,0-.4-.606,6.016,6.016,0,0,0-1.5-.475,6.853,6.853,0,0,1-1.828-.646,3.062,3.062,0,0,1-1.1-.971,2.319,2.319,0,0,1-.378-1.31A2.628,2.628,0,0,1,113.9,8.163a4.453,4.453,0,0,1,2.83-.848,4.934,4.934,0,0,1,3.023.853,2.666,2.666,0,0,1,1.143,2.241h-2.971q0-1.143-1.2-1.143a1.194,1.194,0,0,0-.782.259.8.8,0,0,0-.316.646.737.737,0,0,0,.387.642,3.654,3.654,0,0,0,1.235.4,10.671,10.671,0,0,1,1.49.378,2.706,2.706,0,0,1,2.145,2.646,2.491,2.491,0,0,1-1.156,2.118,5.068,5.068,0,0,1-2.993.817,5.172,5.172,0,0,1-2.18-.439,3.645,3.645,0,0,1-1.494-1.2,2.707,2.707,0,0,1-.536-1.591h2.769a1.145,1.145,0,0,0,.439.962,1.808,1.808,0,0,0,1.081.3,1.422,1.422,0,0,0,.91-.246A.787.787,0,0,0,118.019,14.328ZM28.383,37.852l1.582-5.361h3.173l-3.876,11.1L29.1,44a2.944,2.944,0,0,1-2.918,1.846,4.642,4.642,0,0,1-1.222-.175v-2.11h.387a2.026,2.026,0,0,0,.954-.18,1.094,1.094,0,0,0,.488-.647l.237-.633-3.3-9.605H26.88ZM41.189,32.49l.1,1.116A3.27,3.27,0,0,1,44,32.314a2.407,2.407,0,0,1,2.435,1.433,3.165,3.165,0,0,1,2.795-1.433q2.892,0,2.971,3.5V42H49.231V36a1.813,1.813,0,0,0-.246-1.063,1.048,1.048,0,0,0-.9-.334,1.4,1.4,0,0,0-1.31.782l.009.123V42H43.817V36.015a1.906,1.906,0,0,0-.237-1.081,1.045,1.045,0,0,0-.905-.334,1.42,1.42,0,0,0-1.3.782V42H38.412V32.49ZM53.52,37.157a5.613,5.613,0,0,1,.554-2.536,3.96,3.96,0,0,1,1.591-1.709,4.791,4.791,0,0,1,2.435-.6,4.373,4.373,0,0,1,3.366,1.323,5.076,5.076,0,0,1,1.23,3.6v.105a4.925,4.925,0,0,1-1.235,3.529,4.384,4.384,0,0,1-3.344,1.305,4.434,4.434,0,0,1-3.261-1.217,4.761,4.761,0,0,1-1.327-3.3Zm2.962.185a3.538,3.538,0,0,0,.413,1.934,1.376,1.376,0,0,0,1.222.615q1.582,0,1.617-2.435v-.3q0-2.558-1.635-2.558-1.485,0-1.608,2.206Zm13.271-2.171-.976-.07a1.752,1.752,0,0,0-1.793.879V42H64.023V32.49H66.8l.1,1.222a2.294,2.294,0,0,1,2.083-1.4,2.888,2.888,0,0,1,.826.105ZM75.915,42a3.344,3.344,0,0,1-.281-.853,2.754,2.754,0,0,1-2.285,1.028,3.374,3.374,0,0,1-2.285-.813,2.588,2.588,0,0,1-.94-2.043,2.66,2.66,0,0,1,1.143-2.338,5.821,5.821,0,0,1,3.322-.791H75.5v-.5q0-1.316-1.134-1.316a.927.927,0,0,0-1.055,1.042H70.351a2.655,2.655,0,0,1,1.173-2.239,4.931,4.931,0,0,1,2.993-.86,4.323,4.323,0,0,1,2.874.888,3.086,3.086,0,0,1,1.081,2.435v4.21a4.311,4.311,0,0,0,.4,2V42ZM74.06,40.066a1.652,1.652,0,0,0,.918-.237,1.487,1.487,0,0,0,.523-.536V37.772H74.64q-1.547,0-1.547,1.389a.848.848,0,0,0,.272.655A.986.986,0,0,0,74.06,40.066ZM83.236,42H80.265V28.5h2.971Zm6.425.176a4.889,4.889,0,0,1-3.542-1.305,4.507,4.507,0,0,1-1.354-3.4v-.246a5.84,5.84,0,0,1,.541-2.575,3.955,3.955,0,0,1,1.578-1.727,4.763,4.763,0,0,1,2.461-.611,4.117,4.117,0,0,1,3.164,1.244,4.887,4.887,0,0,1,1.16,3.467v1.151H87.78a2.135,2.135,0,0,0,.694,1.257,2.066,2.066,0,0,0,1.389.457,2.662,2.662,0,0,0,2.2-.984l1.354,1.6a3.784,3.784,0,0,1-1.569,1.217A5.3,5.3,0,0,1,89.661,42.176ZM89.327,34.6q-1.3,0-1.547,1.723h2.988v-.229a1.467,1.467,0,0,0-.36-1.1A1.434,1.434,0,0,0,89.327,34.6Zm10.512,4.729a.684.684,0,0,0-.4-.606,6.016,6.016,0,0,0-1.5-.475,6.853,6.853,0,0,1-1.828-.646,3.062,3.062,0,0,1-1.1-.971,2.319,2.319,0,0,1-.378-1.31,2.628,2.628,0,0,1,1.081-2.158,4.453,4.453,0,0,1,2.83-.848,4.934,4.934,0,0,1,3.023.853,2.666,2.666,0,0,1,1.143,2.241H99.742q0-1.143-1.2-1.143a1.194,1.194,0,0,0-.782.259.8.8,0,0,0-.316.646.737.737,0,0,0,.387.642,3.654,3.654,0,0,0,1.235.4,10.671,10.671,0,0,1,1.49.378,2.706,2.706,0,0,1,2.145,2.646,2.491,2.491,0,0,1-1.156,2.118,5.068,5.068,0,0,1-2.993.817,5.172,5.172,0,0,1-2.18-.439,3.645,3.645,0,0,1-1.494-1.2,2.707,2.707,0,0,1-.536-1.591H97.1a1.145,1.145,0,0,0,.439.962,1.808,1.808,0,0,0,1.081.3,1.422,1.422,0,0,0,.91-.246A.787.787,0,0,0,99.838,39.328Z" transform="translate(731 5225)" fill="#12263f"/>
      <g id="Grupo_77973" data-name="Grupo 77973" transform="translate(731 5089.309)">
        <g id="Grupo_18531" data-name="Grupo 18531" transform="translate(0 0)">
          <g id="Grupo_18423" data-name="Grupo 18423" transform="translate(0 0)">
            <g id="Grupo_18421" data-name="Grupo 18421">
              <g id="Grupo_18420" data-name="Grupo 18420">
                <g id="Grupo_18419" data-name="Grupo 18419">
                  <path id="Trazado_40936" data-name="Trazado 40936" d="M312.314,2204.565a58.846,58.846,0,1,1-58.845-58.844A58.845,58.845,0,0,1,312.314,2204.565Z" transform="translate(-194.623 -2145.721)" fill="#fff"/>
                </g>
              </g>
            </g>
            <path id="Trazado_40937" data-name="Trazado 40937" d="M311.665,2203.857A58.844,58.844,0,1,0,252.82,2262.7,58.613,58.613,0,0,0,311.665,2203.857Z" transform="translate(-193.974 -2145.013)" fill="url(#radial-gradient)"/>
            <path id="Trazado_40938" data-name="Trazado 40938" d="M291.975,2198.12a44.917,44.917,0,1,0-44.917,44.917A44.75,44.75,0,0,0,291.975,2198.12Z" transform="translate(-188.034 -2139.08)" fill="none" stroke="#00223d" stroke-miterlimit="10" stroke-width="4"/>
            <g id="Grupo_18422" data-name="Grupo 18422" transform="translate(10.425 33.038)">
              <path id="Trazado_40939" data-name="Trazado 40939" d="M301.861,2164.488a58.853,58.853,0,0,1-101.316,58.6,58.666,58.666,0,0,0,101.316-58.6Z" transform="translate(-200.545 -2164.488)" fill="#eceef0"/>
            </g>
          </g>
        </g>
      </g>
    </g>
    <g id="G1f1qg.tif" transform="translate(-258.909 5119.792)">
      <g id="Grupo_87229" data-name="Grupo 87229" transform="translate(1014.717 6.391)">
        <path id="Trazado_138743" data-name="Trazado 138743" d="M1133.7,77.383a16.647,16.647,0,0,1-.406,2.054c-.592,1.794-2.036,2.764-4.226,2.782a1.063,1.063,0,0,0-1.193.861,4.371,4.371,0,0,1-3.009,3.1,4.739,4.739,0,0,1-3.035-.373c-.427-.178-.828-.417-1.31-.664a4.97,4.97,0,0,1-3.664,2.8c-1.7.2-3.06-.672-4.464-1.622-.849,1.317-1.9,2.151-3.494,1.353a3.187,3.187,0,0,1-1.944-3.643,2.919,2.919,0,0,1-4.062,1.072c-1.638-.781-2.249-2.052-2.08-4.257a3.331,3.331,0,0,1-4.343-.256,3.4,3.4,0,0,1-1.228-4.089,3.714,3.714,0,0,1-5.942-2.279,3.264,3.264,0,0,1,.737-2.722c.67-.793,1.331-1.595,2.02-2.422-.777-.946-1.517-1.88-2.3-2.781a.812.812,0,0,1-.115-1.106c.362-.6.645-1.249.987-1.927l3.178,3.727c2.057-.853,3.468-.667,4.714.6,1.164,1.183,1.323,2.594.481,4.477a3.817,3.817,0,0,1,5.258,4.588,3.283,3.283,0,0,1,4.246.445,3.249,3.249,0,0,1,1.089,3.745,3,3,0,0,1,3.8.923,2.431,2.431,0,0,1,.494,2.811c1.223,1.049,2.555,1.257,3.56.531a2.639,2.639,0,0,0,.622-.673.687.687,0,0,0-.221-1.064c-1.838-1.346-3.658-2.716-5.476-4.089-.751-.568-.873-1.129-.419-1.731s.991-.632,1.785-.075q4.266,2.988,8.525,5.986a2.009,2.009,0,0,0,3.27-1.076,1.716,1.716,0,0,0-.728-2.081q-3.217-2.344-6.446-4.671-1.5-1.09-3.007-2.183a1.2,1.2,0,0,1-.432-1.766,1.335,1.335,0,0,1,1.841-.181c2.2,1.557,4.4,3.127,6.6,4.691,1.514,1.077,3.022,2.163,4.545,3.228a2.112,2.112,0,0,0,2.531-.047,2.032,2.032,0,0,0,.535-2.4,2.973,2.973,0,0,0-.9-.94q-4.814-3.475-9.653-6.915l-2.213-1.582c-.09-.064-.181-.128-.265-.2a1.356,1.356,0,0,1-.406-1.87,1.377,1.377,0,0,1,1.87-.112c1.112.764,2.2,1.563,3.3,2.347,3.186,2.275,6.366,4.557,9.561,6.82a2.582,2.582,0,0,0,3.657-.831,2.269,2.269,0,0,0-.538-3.117q-8.142-7.077-16.276-14.163c-.766-.668-1.49-1.386-2.207-2.106a4.117,4.117,0,0,0-6.3.764,9.478,9.478,0,0,0-.478,1.765c-.843,2.576-2.364,4.577-5.076,5.3a9.559,9.559,0,0,1-3.132.079A2.162,2.162,0,0,1,1100.2,60.9a1.688,1.688,0,0,1-.081-1.319,14.018,14.018,0,0,0,1.337-6.094,5.425,5.425,0,0,1,.764-2.564c.342-.583.662-1.179,1.053-1.88h-5.486c.526-1.044.968-1.978,1.476-2.873.087-.154.46-.2.7-.2,2.591-.012,5.182,0,7.772-.012a1.921,1.921,0,0,0,.882-.19,15.758,15.758,0,0,1,12.28-1.226,33.007,33.007,0,0,0,8.178,1.621.892.892,0,0,1,.6.471c1.31,2.68,2.592,5.374,3.882,8.064,1.615,3.37,3.223,6.743,4.853,10.106a1.245,1.245,0,0,1,.014,1.239c-.367.705-.646,1.455-1,2.165a.828.828,0,0,0,.126,1.006,4.988,4.988,0,0,1-.023,6.573,4.5,4.5,0,0,1-3.019,1.468C1134.222,77.294,1133.944,77.342,1133.7,77.383Z" transform="translate(-1079.332 -38.849)" fill="#12263f"/>
        <path id="Trazado_138744" data-name="Trazado 138744" d="M1408.71,6.87a1.506,1.506,0,0,1,1.6.913q2.159,4.552,4.326,9.1,2.81,5.895,5.627,11.786c.59,1.233.372,1.9-.874,2.508-1.271.621-2.545,1.236-3.827,1.835a1.565,1.565,0,0,1-2.431-.85q-4.984-10.439-9.953-20.885a1.468,1.468,0,0,1,.775-2.233c1.332-.648,2.664-1.3,4-1.927A5,5,0,0,1,1408.71,6.87Z" transform="translate(-1351.266 -6.805)" fill="#12263f"/>
        <path id="Trazado_138745" data-name="Trazado 138745" d="M1026.408,6.391a9.266,9.266,0,0,1,.991.34q1.981.931,3.945,1.9a1.5,1.5,0,0,1,.795,2.233q-3.889,8.172-7.79,16.338c-.742,1.555-1.478,3.114-2.227,4.665A1.458,1.458,0,0,1,1020,32.7q-2.241-1-4.428-2.113a1.437,1.437,0,0,1-.65-2.08q5.021-10.533,10.041-21.067A1.61,1.61,0,0,1,1026.408,6.391Z" transform="translate(-1014.717 -6.391)" fill="#12263f"/>
      </g>
    </g>
  </g>
</svg>
