<svg xmlns="http://www.w3.org/2000/svg" xmlns:xlink="http://www.w3.org/1999/xlink" width="189" height="238" viewBox="0 0 189 238">
  <defs>
    <radialGradient id="radial-gradient" cx="0.076" cy="0.019" r="1.465" gradientTransform="translate(0.001)" gradientUnits="objectBoundingBox">
      <stop offset="0" stop-color="#f6f6f7"/>
      <stop offset="0.477" stop-color="#f9f9fa"/>
      <stop offset="0.715" stop-color="#fff"/>
    </radialGradient>
  </defs>
  <g id="Grupo_90284" data-name="Grupo 90284" transform="translate(-903 -5072)">
    <path id="Trazado_151817" data-name="Trazado 151817" d="M35,0H154a35,35,0,0,1,35,35V238H35A35,35,0,0,1,0,203V35A35,35,0,0,1,35,0Z" transform="translate(903 5072)" fill="#e6f7fe"/>
    <path id="Trazado_151818" data-name="Trazado 151818" d="M35.625,12.474h-1.67V17H30.871V4.2h5.036a5.621,5.621,0,0,1,3.56,1.01A3.421,3.421,0,0,1,40.75,8.066a4.155,4.155,0,0,1-.541,2.213A3.837,3.837,0,0,1,38.517,11.7l2.672,5.167V17h-3.3ZM33.956,10.1h1.951a1.751,1.751,0,0,0,1.323-.463,1.788,1.788,0,0,0,.444-1.291,1.809,1.809,0,0,0-.448-1.3,1.735,1.735,0,0,0-1.318-.471H33.956Zm13.122,7.075a4.889,4.889,0,0,1-3.542-1.305,4.507,4.507,0,0,1-1.354-3.4v-.246a5.84,5.84,0,0,1,.541-2.575A3.955,3.955,0,0,1,44.3,7.925a4.763,4.763,0,0,1,2.461-.611,4.117,4.117,0,0,1,3.164,1.244,4.887,4.887,0,0,1,1.16,3.467v1.151H45.2a2.135,2.135,0,0,0,.694,1.257,2.066,2.066,0,0,0,1.389.457,2.662,2.662,0,0,0,2.2-.984l1.354,1.6a3.784,3.784,0,0,1-1.569,1.217A5.3,5.3,0,0,1,47.078,17.176ZM46.744,9.6q-1.3,0-1.547,1.723h2.988v-.229a1.467,1.467,0,0,0-.36-1.1A1.434,1.434,0,0,0,46.744,9.6ZM56.3,14.891a1.317,1.317,0,0,0,.967-.338,1.241,1.241,0,0,0,.334-.945h2.777a3.288,3.288,0,0,1-1.121,2.566,4.168,4.168,0,0,1-2.887,1,4.22,4.22,0,0,1-3.27-1.3,5.125,5.125,0,0,1-1.2-3.6v-.123A5.792,5.792,0,0,1,52.435,9.6a3.872,3.872,0,0,1,1.534-1.7,4.573,4.573,0,0,1,2.373-.593,4.116,4.116,0,0,1,2.944,1.028,3.647,3.647,0,0,1,1.09,2.786H57.6A1.626,1.626,0,0,0,57.238,10a1.244,1.244,0,0,0-.967-.4q-1.151,0-1.345,1.468a10.357,10.357,0,0,0-.062,1.283,4.068,4.068,0,0,0,.343,1.986A1.187,1.187,0,0,0,56.3,14.891Zm11,1.081a3.054,3.054,0,0,1-2.54,1.2,3,3,0,0,1-2.369-.91,3.826,3.826,0,0,1-.8-2.615V7.49h2.962v6.179a1.065,1.065,0,0,0,1.187,1.222,1.548,1.548,0,0,0,1.45-.729V7.49h2.979V17H67.38Zm10.239-5.8-.976-.07a1.752,1.752,0,0,0-1.793.879V17H71.8V7.49h2.777l.1,1.222a2.294,2.294,0,0,1,2.083-1.4,2.888,2.888,0,0,1,.826.105Zm6.047,4.157a.684.684,0,0,0-.4-.606,6.016,6.016,0,0,0-1.5-.475,6.853,6.853,0,0,1-1.828-.646,3.062,3.062,0,0,1-1.1-.971,2.319,2.319,0,0,1-.378-1.31,2.628,2.628,0,0,1,1.081-2.158,4.453,4.453,0,0,1,2.83-.848,4.934,4.934,0,0,1,3.023.853,2.666,2.666,0,0,1,1.143,2.241H83.482q0-1.143-1.2-1.143a1.194,1.194,0,0,0-.782.259.8.8,0,0,0-.316.646.737.737,0,0,0,.387.642,3.654,3.654,0,0,0,1.235.4,10.671,10.671,0,0,1,1.49.378,2.706,2.706,0,0,1,2.145,2.646,2.491,2.491,0,0,1-1.156,2.118,5.068,5.068,0,0,1-2.993.817,5.172,5.172,0,0,1-2.18-.439,3.645,3.645,0,0,1-1.494-1.2,2.707,2.707,0,0,1-.536-1.591h2.769a1.145,1.145,0,0,0,.439.962,1.808,1.808,0,0,0,1.081.3,1.422,1.422,0,0,0,.91-.246A.787.787,0,0,0,83.579,14.328Zm3.867-2.171A5.613,5.613,0,0,1,88,9.622,3.96,3.96,0,0,1,89.59,7.912a4.791,4.791,0,0,1,2.435-.6,4.373,4.373,0,0,1,3.366,1.323,5.076,5.076,0,0,1,1.23,3.6v.105a4.925,4.925,0,0,1-1.235,3.529,4.384,4.384,0,0,1-3.344,1.305,4.434,4.434,0,0,1-3.261-1.217,4.761,4.761,0,0,1-1.327-3.3Zm2.962.185a3.538,3.538,0,0,0,.413,1.934,1.376,1.376,0,0,0,1.222.615q1.582,0,1.617-2.435v-.3q0-2.558-1.635-2.558-1.485,0-1.608,2.206ZM21.7,37.175a5.809,5.809,0,0,1,.976-3.56,3.211,3.211,0,0,1,2.725-1.3,2.731,2.731,0,0,1,2.145,1V28.5h2.971V42H27.852L27.7,40.98a2.8,2.8,0,0,1-2.32,1.2,3.205,3.205,0,0,1-2.689-1.3A5.993,5.993,0,0,1,21.7,37.175Zm2.962.185q0,2.531,1.477,2.531a1.458,1.458,0,0,0,1.406-.826V35.443a1.419,1.419,0,0,0-1.389-.844q-1.371,0-1.485,2.215ZM35.322,42H32.352V32.49h2.971ZM32.176,30.029a1.334,1.334,0,0,1,.457-1.043,1.934,1.934,0,0,1,2.373,0,1.42,1.42,0,0,1,0,2.087,1.934,1.934,0,0,1-2.373,0A1.334,1.334,0,0,1,32.176,30.029Zm9.949,9.3a.684.684,0,0,0-.4-.606,6.016,6.016,0,0,0-1.5-.475A6.853,6.853,0,0,1,38.4,37.6a3.062,3.062,0,0,1-1.1-.971,2.319,2.319,0,0,1-.378-1.31A2.628,2.628,0,0,1,38,33.163a4.453,4.453,0,0,1,2.83-.848,4.934,4.934,0,0,1,3.023.853A2.666,2.666,0,0,1,45,35.408H42.028q0-1.143-1.2-1.143a1.194,1.194,0,0,0-.782.259.8.8,0,0,0-.316.646.737.737,0,0,0,.387.642,3.654,3.654,0,0,0,1.235.4,10.671,10.671,0,0,1,1.49.378,2.706,2.706,0,0,1,2.145,2.646,2.491,2.491,0,0,1-1.156,2.118,5.068,5.068,0,0,1-2.993.817,5.172,5.172,0,0,1-2.18-.439,3.645,3.645,0,0,1-1.494-1.2,2.707,2.707,0,0,1-.536-1.591h2.769a1.145,1.145,0,0,0,.439.962,1.808,1.808,0,0,0,1.081.3,1.422,1.422,0,0,0,.91-.246A.787.787,0,0,0,42.125,39.328Zm13.069-2.013a5.735,5.735,0,0,1-1,3.538A3.2,3.2,0,0,1,51.5,42.176a2.742,2.742,0,0,1-2.153-.958v4.438H46.388V32.49h2.769l.088.879a2.742,2.742,0,0,1,2.241-1.055,3.224,3.224,0,0,1,2.733,1.3,5.805,5.805,0,0,1,.976,3.564Zm-2.962-.185q0-2.531-1.477-2.531a1.394,1.394,0,0,0-1.406.756V39.1a1.439,1.439,0,0,0,1.424.791q1.415,0,1.459-2.443Zm3.894.026a5.613,5.613,0,0,1,.554-2.536,3.96,3.96,0,0,1,1.591-1.709,4.791,4.791,0,0,1,2.435-.6,4.373,4.373,0,0,1,3.366,1.323,5.076,5.076,0,0,1,1.23,3.6v.105a4.925,4.925,0,0,1-1.235,3.529,4.384,4.384,0,0,1-3.344,1.305,4.434,4.434,0,0,1-3.261-1.217,4.761,4.761,0,0,1-1.327-3.3Zm2.962.185a3.538,3.538,0,0,0,.413,1.934,1.376,1.376,0,0,0,1.222.615q1.582,0,1.617-2.435v-.3q0-2.558-1.635-2.558-1.485,0-1.608,2.206ZM69.327,32.49l.1,1.116a3.225,3.225,0,0,1,2.716-1.292,2.713,2.713,0,0,1,2.219.888,4.226,4.226,0,0,1,.76,2.672V42H72.148V36a1.6,1.6,0,0,0-.29-1.059A1.342,1.342,0,0,0,70.8,34.6a1.413,1.413,0,0,0-1.292.686V42H66.55V32.49ZM79.883,42H76.912V32.49h2.971ZM76.736,30.029a1.334,1.334,0,0,1,.457-1.043,1.934,1.934,0,0,1,2.373,0,1.42,1.42,0,0,1,0,2.087,1.934,1.934,0,0,1-2.373,0A1.334,1.334,0,0,1,76.736,30.029Zm13.8,7.295a5.8,5.8,0,0,1-.967,3.595,3.238,3.238,0,0,1-2.725,1.257,2.81,2.81,0,0,1-2.338-1.151L84.383,42H81.729V28.5H84.69v4.755a2.711,2.711,0,0,1,2.136-.94,3.239,3.239,0,0,1,2.742,1.274,5.826,5.826,0,0,1,.967,3.586Zm-2.971-.189a3.866,3.866,0,0,0-.365-1.952,1.229,1.229,0,0,0-1.121-.584,1.418,1.418,0,0,0-1.389.763v3.773a1.426,1.426,0,0,0,1.406.755,1.258,1.258,0,0,0,1.327-1.018A7.309,7.309,0,0,0,87.564,37.135ZM94.965,42H91.994V28.5h2.971Zm6.425.176a4.889,4.889,0,0,1-3.542-1.305,4.507,4.507,0,0,1-1.354-3.4v-.246a5.84,5.84,0,0,1,.541-2.575,3.955,3.955,0,0,1,1.578-1.727,4.763,4.763,0,0,1,2.461-.611,4.117,4.117,0,0,1,3.164,1.244,4.887,4.887,0,0,1,1.16,3.467v1.151H99.509a2.135,2.135,0,0,0,.694,1.257,2.066,2.066,0,0,0,1.389.457,2.662,2.662,0,0,0,2.2-.984l1.354,1.6a3.784,3.784,0,0,1-1.569,1.217A5.3,5.3,0,0,1,101.39,42.176Zm-.334-7.576q-1.3,0-1.547,1.723H102.5v-.229a1.467,1.467,0,0,0-.36-1.1A1.434,1.434,0,0,0,101.056,34.6Z" transform="translate(934 5225)" fill="#12263f"/>
    <g id="Grupo_77973" data-name="Grupo 77973" transform="translate(934 5089.309)">
      <g id="Grupo_18531" data-name="Grupo 18531" transform="translate(0 0)">
        <g id="Grupo_18423" data-name="Grupo 18423" transform="translate(0 0)">
          <g id="Grupo_18421" data-name="Grupo 18421">
            <g id="Grupo_18420" data-name="Grupo 18420">
              <g id="Grupo_18419" data-name="Grupo 18419">
                <path id="Trazado_40936" data-name="Trazado 40936" d="M312.314,2204.565a58.846,58.846,0,1,1-58.845-58.844A58.845,58.845,0,0,1,312.314,2204.565Z" transform="translate(-194.623 -2145.721)" fill="#fff"/>
              </g>
            </g>
          </g>
          <path id="Trazado_40937" data-name="Trazado 40937" d="M311.665,2203.857A58.844,58.844,0,1,0,252.82,2262.7,58.613,58.613,0,0,0,311.665,2203.857Z" transform="translate(-193.974 -2145.013)" fill="url(#radial-gradient)"/>
          <path id="Trazado_40938" data-name="Trazado 40938" d="M291.975,2198.12a44.917,44.917,0,1,0-44.917,44.917A44.75,44.75,0,0,0,291.975,2198.12Z" transform="translate(-188.034 -2139.08)" fill="none" stroke="#00223d" stroke-miterlimit="10" stroke-width="4"/>
          <g id="Grupo_18422" data-name="Grupo 18422" transform="translate(10.425 33.038)">
            <path id="Trazado_40939" data-name="Trazado 40939" d="M301.861,2164.488a58.853,58.853,0,0,1-101.316,58.6,58.666,58.666,0,0,0,101.316-58.6Z" transform="translate(-200.545 -2164.488)" fill="#eceef0"/>
          </g>
        </g>
      </g>
      <g id="BRcLaV" transform="translate(-1472.044 314.66)">
        <g id="Grupo_87230" data-name="Grupo 87230" transform="translate(1502.427 -280.66)">
          <path id="Trazado_138746" data-name="Trazado 138746" d="M1474.3-19.266c0-2.464,0-4.929,0-7.393a1.363,1.363,0,0,1,.833-1.439c2.907-1.2,5.789-2.476,8.729-3.6a14.257,14.257,0,0,1,9.4-.274,45.755,45.755,0,0,1,4.417,1.819c2.882,1.217,5.772,2.419,8.64,3.669a7.476,7.476,0,0,1,3.153,2.45,4.136,4.136,0,0,1,.708,3.073,2.42,2.42,0,0,1-3.1,1.908c-1.92-.452-3.822-1-5.7-1.6-1.846-.587-3.655-1.292-5.481-1.941a1.24,1.24,0,0,0-1.626.566A1.208,1.208,0,0,0,1495-20.3c2.86,1,5.722,2,8.6,2.943a12.418,12.418,0,0,0,4.511.809,4.68,4.68,0,0,0,4.529-4.45,11.692,11.692,0,0,0-.219-2.4c-.058-.356-.032-.54.291-.737q6.471-3.948,12.927-7.92a3.615,3.615,0,0,1,4.8.877,3.769,3.769,0,0,1-.363,4.985,22.824,22.824,0,0,1-3.85,2.9q-9.3,6.38-18.63,12.7a7.6,7.6,0,0,1-7.561.81q-5.75-2.37-11.493-4.759a7.882,7.882,0,0,0-8.17.957c-1.256.92-2.5,1.853-3.759,2.774a3.207,3.207,0,0,1-.636.388,1.157,1.157,0,0,1-1.608-.83,4.336,4.336,0,0,1-.073-.917Q1474.3-15.714,1474.3-19.266Z" transform="translate(-1474.298 64.815)" fill="#12263f"/>
          <path id="Trazado_138747" data-name="Trazado 138747" d="M1763.785-283.965c0-.894,0-1.658,0-2.421q0-11.318.017-22.636a1.218,1.218,0,0,1,.337-.789,5.011,5.011,0,0,1,3.627-1.368q5.89,0,11.78.007c1.118,0,1.577.47,1.578,1.585q0,10.827,0,21.654c0,1.054-.489,1.54-1.562,1.542-2.926,0-5.854.079-8.776-.022a10.324,10.324,0,0,0-6.645,2.192C1764.066-284.165,1763.989-284.112,1763.785-283.965Z" transform="translate(-1730.339 311.179)" fill="#12263f"/>
          <path id="Trazado_138748" data-name="Trazado 138748" d="M1609.547-284.07c-.891-.516-1.73-1.048-2.611-1.5a7.677,7.677,0,0,0-3.615-.82c-3.137.024-6.274.009-9.411.008-1.232,0-1.67-.426-1.67-1.659q-.006-10.8,0-21.592c0-1.054.459-1.537,1.5-1.539q5.976-.011,11.951,0a5.076,5.076,0,0,1,3.352,1.187,1.328,1.328,0,0,1,.538,1.125q-.024,10.305-.012,20.611c0,1.213,0,2.425,0,3.637C1609.572-284.423,1609.555-284.24,1609.547-284.07Z" transform="translate(-1578.612 311.175)" fill="#12263f"/>
        </g>
      </g>
    </g>
  </g>
</svg>
