<svg xmlns="http://www.w3.org/2000/svg" xmlns:xlink="http://www.w3.org/1999/xlink" width="189" height="238" viewBox="0 0 189 238">
  <defs>
    <radialGradient id="radial-gradient" cx="0.076" cy="0.019" r="1.465" gradientTransform="translate(0.001)" gradientUnits="objectBoundingBox">
      <stop offset="0" stop-color="#f6f6f7"/>
      <stop offset="0.477" stop-color="#f9f9fa"/>
      <stop offset="0.715" stop-color="#fff"/>
    </radialGradient>
  </defs>
  <g id="Grupo_90282" data-name="Grupo 90282" transform="translate(-497 -5072)">
    <path id="Trazado_151813" data-name="Trazado 151813" d="M35,0H154a35,35,0,0,1,35,35V238H35A35,35,0,0,1,0,203V35A35,35,0,0,1,35,0Z" transform="translate(497 5072)" fill="#e6f7fe"/>
    <path id="Trazado_151814" data-name="Trazado 151814" d="M13.758,12.667a4.673,4.673,0,0,1-.721,2.36,4.35,4.35,0,0,1-1.85,1.586,6.3,6.3,0,0,1-2.72.563,5.025,5.025,0,0,1-3.973-1.644,6.786,6.786,0,0,1-1.45-4.641v-.633A7.746,7.746,0,0,1,3.7,6.967a4.961,4.961,0,0,1,1.885-2.18,5.26,5.26,0,0,1,2.848-.769,5.516,5.516,0,0,1,3.744,1.226,4.844,4.844,0,0,1,1.608,3.379H10.708a2.292,2.292,0,0,0-.589-1.679,2.422,2.422,0,0,0-1.687-.51A1.843,1.843,0,0,0,6.745,7.3a5.536,5.536,0,0,0-.562,2.751v.905A6.125,6.125,0,0,0,6.7,13.88a1.882,1.882,0,0,0,1.771.879,2.369,2.369,0,0,0,1.626-.5,2.126,2.126,0,0,0,.6-1.591Zm.949-.51a5.613,5.613,0,0,1,.554-2.536,3.96,3.96,0,0,1,1.591-1.709,4.791,4.791,0,0,1,2.435-.6,4.373,4.373,0,0,1,3.366,1.323,5.076,5.076,0,0,1,1.23,3.6v.105a4.925,4.925,0,0,1-1.235,3.529A4.384,4.384,0,0,1,19.3,17.176a4.434,4.434,0,0,1-3.261-1.217,4.761,4.761,0,0,1-1.327-3.3Zm2.962.185a3.538,3.538,0,0,0,.413,1.934,1.376,1.376,0,0,0,1.222.615q1.582,0,1.617-2.435v-.3q0-2.558-1.635-2.558-1.485,0-1.608,2.206ZM27.909,7.49l.1,1.116a3.225,3.225,0,0,1,2.716-1.292A2.713,2.713,0,0,1,32.94,8.2a4.226,4.226,0,0,1,.76,2.672V17H30.73V11a1.6,1.6,0,0,0-.29-1.059A1.342,1.342,0,0,0,29.385,9.6a1.413,1.413,0,0,0-1.292.686V17H25.131V7.49Zm7.058,4.667a5.613,5.613,0,0,1,.554-2.536,3.96,3.96,0,0,1,1.591-1.709,4.791,4.791,0,0,1,2.435-.6,4.373,4.373,0,0,1,3.366,1.323,5.076,5.076,0,0,1,1.23,3.6v.105a4.925,4.925,0,0,1-1.235,3.529,4.384,4.384,0,0,1-3.344,1.305A4.434,4.434,0,0,1,36.3,15.958a4.761,4.761,0,0,1-1.327-3.3Zm2.962.185a3.538,3.538,0,0,0,.413,1.934,1.376,1.376,0,0,0,1.222.615q1.582,0,1.617-2.435v-.3q0-2.558-1.635-2.558-1.485,0-1.608,2.206Zm11.54,2.549a1.317,1.317,0,0,0,.967-.338,1.241,1.241,0,0,0,.334-.945h2.777a3.288,3.288,0,0,1-1.121,2.566,4.168,4.168,0,0,1-2.887,1,4.22,4.22,0,0,1-3.27-1.3,5.125,5.125,0,0,1-1.2-3.6v-.123A5.792,5.792,0,0,1,45.605,9.6a3.872,3.872,0,0,1,1.534-1.7,4.573,4.573,0,0,1,2.373-.593,4.116,4.116,0,0,1,2.944,1.028,3.647,3.647,0,0,1,1.09,2.786H50.769A1.626,1.626,0,0,0,50.409,10a1.244,1.244,0,0,0-.967-.4q-1.151,0-1.345,1.468a10.357,10.357,0,0,0-.062,1.283,4.068,4.068,0,0,0,.343,1.986A1.187,1.187,0,0,0,49.468,14.891ZM57.923,17H54.953V7.49h2.971ZM54.777,5.029a1.334,1.334,0,0,1,.457-1.043,1.934,1.934,0,0,1,2.373,0,1.334,1.334,0,0,1,.457,1.043,1.334,1.334,0,0,1-.457,1.043,1.934,1.934,0,0,1-2.373,0A1.334,1.334,0,0,1,54.777,5.029Zm7.77,2.461.1,1.116a3.27,3.27,0,0,1,2.716-1.292,2.407,2.407,0,0,1,2.435,1.433,3.165,3.165,0,0,1,2.795-1.433q2.892,0,2.971,3.5V17H70.588V11a1.813,1.813,0,0,0-.246-1.063,1.048,1.048,0,0,0-.9-.334,1.4,1.4,0,0,0-1.31.782l.009.123V17H65.174V11.015a1.906,1.906,0,0,0-.237-1.081,1.045,1.045,0,0,0-.905-.334,1.42,1.42,0,0,0-1.3.782V17H59.769V7.49ZM78.375,17H75.4V7.49h2.971ZM75.229,5.029a1.334,1.334,0,0,1,.457-1.043,1.934,1.934,0,0,1,2.373,0,1.334,1.334,0,0,1,.457,1.043,1.334,1.334,0,0,1-.457,1.043,1.934,1.934,0,0,1-2.373,0A1.334,1.334,0,0,1,75.229,5.029ZM84.8,17.176a4.889,4.889,0,0,1-3.542-1.305,4.507,4.507,0,0,1-1.354-3.4v-.246a5.84,5.84,0,0,1,.541-2.575,3.955,3.955,0,0,1,1.578-1.727,4.763,4.763,0,0,1,2.461-.611,4.117,4.117,0,0,1,3.164,1.244,4.887,4.887,0,0,1,1.16,3.467v1.151H82.919a2.135,2.135,0,0,0,.694,1.257A2.066,2.066,0,0,0,85,14.891a2.662,2.662,0,0,0,2.2-.984l1.354,1.6a3.784,3.784,0,0,1-1.569,1.217A5.3,5.3,0,0,1,84.8,17.176ZM84.466,9.6q-1.3,0-1.547,1.723h2.988v-.229a1.467,1.467,0,0,0-.36-1.1A1.434,1.434,0,0,0,84.466,9.6ZM92.719,7.49l.1,1.116a3.225,3.225,0,0,1,2.716-1.292,2.713,2.713,0,0,1,2.219.888,4.226,4.226,0,0,1,.76,2.672V17H95.541V11a1.6,1.6,0,0,0-.29-1.059A1.342,1.342,0,0,0,94.2,9.6a1.413,1.413,0,0,0-1.292.686V17H89.942V7.49ZM103.6,5.126V7.49h1.564V9.547H103.6V13.9a1.111,1.111,0,0,0,.193.747,1.037,1.037,0,0,0,.765.211,4.345,4.345,0,0,0,.738-.053v2.118a5.466,5.466,0,0,1-1.67.255,3.1,3.1,0,0,1-2.259-.721,2.954,2.954,0,0,1-.729-2.188V9.547H99.425V7.49h1.213V5.126Zm2.092,7.031a5.613,5.613,0,0,1,.554-2.536,3.96,3.96,0,0,1,1.591-1.709,4.791,4.791,0,0,1,2.435-.6,4.373,4.373,0,0,1,3.366,1.323,5.076,5.076,0,0,1,1.23,3.6v.105a4.925,4.925,0,0,1-1.235,3.529,4.384,4.384,0,0,1-3.344,1.305,4.434,4.434,0,0,1-3.261-1.217,4.761,4.761,0,0,1-1.327-3.3Zm2.962.185a3.538,3.538,0,0,0,.413,1.934,1.376,1.376,0,0,0,1.222.615q1.582,0,1.617-2.435v-.3q0-2.558-1.635-2.558-1.485,0-1.608,2.206Zm12.5,1.986a.684.684,0,0,0-.4-.606,6.016,6.016,0,0,0-1.5-.475,6.853,6.853,0,0,1-1.828-.646,3.062,3.062,0,0,1-1.1-.971,2.319,2.319,0,0,1-.378-1.31,2.628,2.628,0,0,1,1.081-2.158,4.453,4.453,0,0,1,2.83-.848,4.934,4.934,0,0,1,3.023.853,2.666,2.666,0,0,1,1.143,2.241h-2.971q0-1.143-1.2-1.143a1.194,1.194,0,0,0-.782.259.8.8,0,0,0-.316.646.737.737,0,0,0,.387.642,3.654,3.654,0,0,0,1.235.4,10.671,10.671,0,0,1,1.49.378,2.706,2.706,0,0,1,2.145,2.646,2.491,2.491,0,0,1-1.156,2.118,5.068,5.068,0,0,1-2.993.817,5.172,5.172,0,0,1-2.18-.439,3.645,3.645,0,0,1-1.494-1.2,2.707,2.707,0,0,1-.536-1.591h2.769a1.145,1.145,0,0,0,.439.962,1.808,1.808,0,0,0,1.081.3,1.422,1.422,0,0,0,.91-.246A.787.787,0,0,0,121.152,14.328ZM43.136,37.315a5.735,5.735,0,0,1-1,3.538,3.2,3.2,0,0,1-2.694,1.323,2.742,2.742,0,0,1-2.153-.958v4.438H34.329V32.49H37.1l.088.879a2.742,2.742,0,0,1,2.241-1.055,3.224,3.224,0,0,1,2.733,1.3,5.805,5.805,0,0,1,.976,3.564Zm-2.962-.185q0-2.531-1.477-2.531a1.394,1.394,0,0,0-1.406.756V39.1a1.439,1.439,0,0,0,1.424.791q1.415,0,1.459-2.443Zm10.02-1.96-.976-.07a1.752,1.752,0,0,0-1.793.879V42H44.463V32.49H47.24l.1,1.222a2.294,2.294,0,0,1,2.083-1.4,2.888,2.888,0,0,1,.826.105Zm5.5,7a4.889,4.889,0,0,1-3.542-1.305,4.507,4.507,0,0,1-1.354-3.4v-.246a5.84,5.84,0,0,1,.541-2.575,3.955,3.955,0,0,1,1.578-1.727,4.763,4.763,0,0,1,2.461-.611,4.117,4.117,0,0,1,3.164,1.244,4.887,4.887,0,0,1,1.16,3.467v1.151H53.814a2.135,2.135,0,0,0,.694,1.257,2.066,2.066,0,0,0,1.389.457,2.662,2.662,0,0,0,2.2-.984l1.354,1.6a3.784,3.784,0,0,1-1.569,1.217A5.3,5.3,0,0,1,55.7,42.176ZM55.361,34.6q-1.3,0-1.547,1.723H56.8v-.229a1.467,1.467,0,0,0-.36-1.1A1.434,1.434,0,0,0,55.361,34.6Zm9.211,3.876,1.5-5.985H69.2L66.093,42H63.069l-3.1-9.51H63.1ZM73.2,42H70.232V32.49H73.2ZM70.057,30.029a1.334,1.334,0,0,1,.457-1.043,1.934,1.934,0,0,1,2.373,0,1.42,1.42,0,0,1,0,2.087,1.934,1.934,0,0,1-2.373,0A1.334,1.334,0,0,1,70.057,30.029Zm4.6,7.128a5.613,5.613,0,0,1,.554-2.536A3.96,3.96,0,0,1,76.8,32.912a4.791,4.791,0,0,1,2.435-.6A4.373,4.373,0,0,1,82.6,33.637a5.076,5.076,0,0,1,1.23,3.6v.105a4.925,4.925,0,0,1-1.235,3.529,4.384,4.384,0,0,1-3.344,1.305,4.434,4.434,0,0,1-3.261-1.217,4.761,4.761,0,0,1-1.327-3.3Zm2.962.185a3.538,3.538,0,0,0,.413,1.934,1.376,1.376,0,0,0,1.222.615q1.582,0,1.617-2.435v-.3q0-2.558-1.635-2.558-1.485,0-1.608,2.206Zm12.5,1.986a.684.684,0,0,0-.4-.606,6.016,6.016,0,0,0-1.5-.475,6.853,6.853,0,0,1-1.828-.646,3.062,3.062,0,0,1-1.1-.971,2.319,2.319,0,0,1-.378-1.31,2.628,2.628,0,0,1,1.081-2.158,4.453,4.453,0,0,1,2.83-.848,4.934,4.934,0,0,1,3.023.853,2.666,2.666,0,0,1,1.143,2.241H90.017q0-1.143-1.2-1.143a1.194,1.194,0,0,0-.782.259.8.8,0,0,0-.316.646.737.737,0,0,0,.387.642,3.654,3.654,0,0,0,1.235.4,10.671,10.671,0,0,1,1.49.378A2.706,2.706,0,0,1,92.97,39.24a2.491,2.491,0,0,1-1.156,2.118,5.068,5.068,0,0,1-2.993.817,5.172,5.172,0,0,1-2.18-.439,3.645,3.645,0,0,1-1.494-1.2,2.707,2.707,0,0,1-.536-1.591H87.38a1.145,1.145,0,0,0,.439.962,1.808,1.808,0,0,0,1.081.3,1.422,1.422,0,0,0,.91-.246A.787.787,0,0,0,90.113,39.328Z" transform="translate(528 5225)" fill="#12263f"/>
    <g id="Grupo_77973" data-name="Grupo 77973" transform="translate(528 5089.309)">
      <g id="Grupo_18531" data-name="Grupo 18531" transform="translate(0 0)">
        <g id="Grupo_18423" data-name="Grupo 18423" transform="translate(0 0)">
          <g id="Grupo_18421" data-name="Grupo 18421">
            <g id="Grupo_18420" data-name="Grupo 18420">
              <g id="Grupo_18419" data-name="Grupo 18419">
                <path id="Trazado_40936" data-name="Trazado 40936" d="M312.314,2204.565a58.846,58.846,0,1,1-58.845-58.844A58.845,58.845,0,0,1,312.314,2204.565Z" transform="translate(-194.623 -2145.721)" fill="#fff"/>
              </g>
            </g>
          </g>
          <path id="Trazado_40937" data-name="Trazado 40937" d="M311.665,2203.857A58.844,58.844,0,1,0,252.82,2262.7,58.613,58.613,0,0,0,311.665,2203.857Z" transform="translate(-193.974 -2145.013)" fill="url(#radial-gradient)"/>
          <path id="Trazado_40938" data-name="Trazado 40938" d="M291.975,2198.12a44.917,44.917,0,1,0-44.917,44.917A44.75,44.75,0,0,0,291.975,2198.12Z" transform="translate(-188.034 -2139.08)" fill="none" stroke="#00223d" stroke-miterlimit="10" stroke-width="4"/>
          <g id="Grupo_18422" data-name="Grupo 18422" transform="translate(10.425 33.038)">
            <path id="Trazado_40939" data-name="Trazado 40939" d="M301.861,2164.488a58.853,58.853,0,0,1-101.316,58.6,58.666,58.666,0,0,0,101.316-58.6Z" transform="translate(-200.545 -2164.488)" fill="#eceef0"/>
          </g>
        </g>
      </g>
      <g id="jw7aN7" transform="translate(-415.645 8.948)">
        <g id="Grupo_87228" data-name="Grupo 87228" transform="translate(448.289 20.738)">
          <path id="Trazado_138742" data-name="Trazado 138742" d="M477.367,20.738c1.15.175,2.307.318,3.45.531A22.027,22.027,0,0,1,495.3,30.684a16.848,16.848,0,0,1,2.864,7.835c.062.6.108,1.2.128,1.8a10.223,10.223,0,0,1-.994,5.4,4.759,4.759,0,0,0,.311,4.8c.991,1.83,1.856,3.727,2.807,5.58.8,1.56-.278,2.61-1.665,2.849s-1.445.292-1.4,1.74c.021.6.027,1.2.037,1.8a1.261,1.261,0,0,1-.938,1.464c-.435.172-.554.413-.33.808a1.913,1.913,0,0,1-.2,2.048c-.143.243-.309.474-.474.7a2.812,2.812,0,0,0-.5,2.307,10.468,10.468,0,0,1,.142,1.794c.037,1.618-.578,2.29-2.237,2.73a14.437,14.437,0,0,1-5.586.06,9.91,9.91,0,0,0-4.516.076,3.853,3.853,0,0,0-2.38,2.042c-1.235,2.581-2.519,5.139-3.747,7.723-.422.887-.738,1.823-1.133,2.816-.326-.5-.647-.985-.961-1.474a55.622,55.622,0,0,0-6.171-8,31.449,31.449,0,0,0-5.486-4.728,17.327,17.327,0,0,0-5.008-2.362c-.151-.042-.3-.094-.38-.121.154-1.136.394-2.23.433-3.33a13.163,13.163,0,0,0-1.883-7.242c-1.282-2.171-2.762-4.224-4.111-6.357a28.078,28.078,0,0,1-2.9-5.762,14.423,14.423,0,0,1-.307-8.1,22.834,22.834,0,0,1,3.964-8.422,27.346,27.346,0,0,1,5.7-5.872,20.328,20.328,0,0,1,8.495-3.662c1.854-.35,3.742-.525,5.614-.78.208-.028.415-.068.623-.1ZM465.618,36.886c.258-.225.447-.409.655-.568a6.363,6.363,0,0,1,4.059-1.589,2.245,2.245,0,0,1,2.249,2.8,12.13,12.13,0,0,1-.8,2.4,16.145,16.145,0,0,0-1.579,4.532,9.193,9.193,0,0,0,.57,4.157c1.636-.393,3.213-.777,4.793-1.147.332-.078.284-.266.239-.518a16.878,16.878,0,0,1-.271-1.884,7.992,7.992,0,0,1,1.09-3.88,32.956,32.956,0,0,0,1.592-3.8,6.026,6.026,0,0,0-.425-4.542,5.739,5.739,0,0,0-5.222-3.314,12.435,12.435,0,0,0-6.045,1.337,11.119,11.119,0,0,0-3.213,2.155Zm5.337,16.368a3.509,3.509,0,0,0,3.456,3.718,3.46,3.46,0,0,0,3.646-3.509,3.521,3.521,0,0,0-3.518-3.717A3.418,3.418,0,0,0,470.956,53.255ZM486.43,40.648a3.993,3.993,0,0,1,1.8-2.7,11.813,11.813,0,0,0,1.7-1.571,3.013,3.013,0,0,0-.22-4.1c-1.208-1.257-4.035-1.633-5.59-1.124a.347.347,0,0,0-.19.264c.034.681.092,1.36.146,2.078a2.644,2.644,0,0,1,.582-.119,8.485,8.485,0,0,1,1.921.16,1.138,1.138,0,0,1,.555,1.845,4.377,4.377,0,0,1-.571.621c-.613.582-1.279,1.115-1.841,1.741a3.585,3.585,0,0,0-.886,2.34Zm-28.878,5.086a4.537,4.537,0,0,1,.919-.693,1.539,1.539,0,0,1,1.032-.089c.409.158.407.626.336,1.023-.075.417-.206.823-.278,1.24a2.5,2.5,0,0,0,.432,2.012c.385-.175.729-.358,1.092-.487.34-.121.389-.267.295-.628a3.725,3.725,0,0,1-.05-1.291c.039-.381.213-.747.287-1.127a2.074,2.074,0,0,0-1.687-2.686,3.975,3.975,0,0,0-3.305,1.671Zm26.871-4.508a1.785,1.785,0,0,0-1.781,1.894,1.748,1.748,0,0,0,1.832,1.829,1.819,1.819,0,0,0,1.8-1.891A1.79,1.79,0,0,0,484.423,41.226Zm-24.157,9.258a1.2,1.2,0,0,0,1.123,1.231,1.217,1.217,0,0,0,1.214-1.091,1.254,1.254,0,0,0-1.164-1.255A1.168,1.168,0,0,0,460.266,50.483Z" transform="translate(-448.289 -20.738)" fill="#12263f"/>
        </g>
      </g>
    </g>
  </g>
</svg>
