<svg xmlns="http://www.w3.org/2000/svg" xmlns:xlink="http://www.w3.org/1999/xlink" width="894" height="406" viewBox="0 0 894 406">
  <defs>
    <clipPath id="clip-path">
      <path id="Trazado_139719" data-name="Trazado 139719" d="M812.752,446.211v21.114c0,21.7-9.526,41.923-25.963,58.97V505.181C803.226,488.134,812.752,467.906,812.752,446.211Z" transform="translate(-786.789 -446.211)" fill="none"/>
    </clipPath>
    <clipPath id="clip-path-2">
      <path id="Trazado_139732" data-name="Trazado 139732" d="M546.745,505.181V526.3c-29.6,30.7-81.636,51.073-140.889,51.073q-5.286,0-10.476-.223c-8.252-.337-16.341-1.067-24.224-2.168a220.539,220.539,0,0,1-54.712-14.732c-29.508-12.375-52.72-30.692-65.765-52.4A78.136,78.136,0,0,1,239,467.325V446.211a78.136,78.136,0,0,0,11.675,40.519c13.045,21.709,36.257,40.026,65.765,52.4a220.56,220.56,0,0,0,54.712,14.732c7.883,1.1,15.972,1.831,24.224,2.168q5.2.215,10.476.223C465.109,556.254,517.142,535.88,546.745,505.181Z" transform="translate(-239.004 -446.211)" fill="none"/>
    </clipPath>
  </defs>
  <g id="Grupo_90289" data-name="Grupo 90289" transform="translate(-353 -815)">
    <path id="Trazado_151836" data-name="Trazado 151836" d="M0,0H885a9,9,0,0,1,9,9V386H0Z" transform="translate(353 835)" fill="#f6f6f6"/>
    <path id="Trazado_151837" data-name="Trazado 151837" d="M7,0H887a7,7,0,0,1,7,7V68a7,7,0,0,1-7,7H7a7,7,0,0,1-7-7V7A7,7,0,0,1,7,0Z" transform="translate(353 815)" fill="#12263f" opacity="0.997"/>
    <path id="Trazado_151838" data-name="Trazado 151838" d="M149.448,14.186a5.193,5.193,0,0,1-.8,2.622,4.833,4.833,0,0,1-2.056,1.763,7,7,0,0,1-3.022.625,5.584,5.584,0,0,1-4.414-1.826,7.54,7.54,0,0,1-1.611-5.156v-.7a8.607,8.607,0,0,1,.728-3.657,5.513,5.513,0,0,1,2.095-2.422,5.844,5.844,0,0,1,3.164-.854,6.129,6.129,0,0,1,4.16,1.362,5.383,5.383,0,0,1,1.787,3.755H146.06a2.547,2.547,0,0,0-.654-1.865,2.691,2.691,0,0,0-1.875-.566,2.048,2.048,0,0,0-1.875.957,6.151,6.151,0,0,0-.625,3.057v1.006a6.806,6.806,0,0,0,.571,3.252,2.091,2.091,0,0,0,1.968.977,2.632,2.632,0,0,0,1.807-.557,2.363,2.363,0,0,0,.664-1.768ZM156.87,19a3.716,3.716,0,0,1-.312-.947,3.06,3.06,0,0,1-2.539,1.143,3.749,3.749,0,0,1-2.539-.9,2.875,2.875,0,0,1-1.045-2.271,2.955,2.955,0,0,1,1.27-2.6,6.468,6.468,0,0,1,3.691-.879h1.016v-.559q0-1.462-1.26-1.462a1.03,1.03,0,0,0-1.172,1.158h-3.291a2.95,2.95,0,0,1,1.3-2.487,5.479,5.479,0,0,1,3.325-.956,4.8,4.8,0,0,1,3.193.986,3.429,3.429,0,0,1,1.2,2.705v4.678a4.79,4.79,0,0,0,.449,2.227V19Zm-2.061-2.148a1.836,1.836,0,0,0,1.021-.264,1.653,1.653,0,0,0,.581-.6V14.3h-.957q-1.719,0-1.719,1.543a.942.942,0,0,0,.3.728A1.1,1.1,0,0,0,154.81,16.852Zm13.018,1.006A3.393,3.393,0,0,1,165,19.2a3.328,3.328,0,0,1-2.632-1.011,4.251,4.251,0,0,1-.894-2.905V8.434h3.291V15.3a1.183,1.183,0,0,0,1.318,1.357,1.72,1.72,0,0,0,1.611-.811V8.434h3.311V19h-3.086Zm10.518-1.826a.76.76,0,0,0-.439-.674,6.685,6.685,0,0,0-1.67-.527,7.615,7.615,0,0,1-2.031-.718,3.4,3.4,0,0,1-1.221-1.079,2.577,2.577,0,0,1-.42-1.455,2.92,2.92,0,0,1,1.2-2.4,4.948,4.948,0,0,1,3.145-.942,5.482,5.482,0,0,1,3.359.947,2.962,2.962,0,0,1,1.27,2.49h-3.3q0-1.27-1.338-1.27a1.326,1.326,0,0,0-.869.288.892.892,0,0,0-.352.718.819.819,0,0,0,.43.713,4.06,4.06,0,0,0,1.372.449,11.857,11.857,0,0,1,1.655.42,3.007,3.007,0,0,1,2.383,2.939,2.767,2.767,0,0,1-1.284,2.354,5.632,5.632,0,0,1-3.325.908,5.747,5.747,0,0,1-2.422-.488,4.05,4.05,0,0,1-1.66-1.328,3.007,3.007,0,0,1-.6-1.768h3.076a1.272,1.272,0,0,0,.488,1.069,2.009,2.009,0,0,0,1.2.337,1.58,1.58,0,0,0,1.011-.273A.875.875,0,0,0,178.345,16.031ZM189.009,19a3.716,3.716,0,0,1-.312-.947,3.06,3.06,0,0,1-2.539,1.143,3.749,3.749,0,0,1-2.539-.9,2.875,2.875,0,0,1-1.045-2.271,2.955,2.955,0,0,1,1.27-2.6,6.468,6.468,0,0,1,3.691-.879h1.016v-.559q0-1.462-1.26-1.462a1.03,1.03,0,0,0-1.172,1.158h-3.291a2.95,2.95,0,0,1,1.3-2.487,5.479,5.479,0,0,1,3.325-.956,4.8,4.8,0,0,1,3.193.986,3.429,3.429,0,0,1,1.2,2.705v4.678a4.79,4.79,0,0,0,.449,2.227V19Zm-2.061-2.148a1.836,1.836,0,0,0,1.021-.264,1.653,1.653,0,0,0,.581-.6V14.3h-.957q-1.719,0-1.719,1.543a.942.942,0,0,0,.3.728A1.1,1.1,0,0,0,186.948,16.852Zm12.256-.82a.76.76,0,0,0-.439-.674,6.685,6.685,0,0,0-1.67-.527,7.615,7.615,0,0,1-2.031-.718,3.4,3.4,0,0,1-1.221-1.079,2.577,2.577,0,0,1-.42-1.455,2.92,2.92,0,0,1,1.2-2.4,4.948,4.948,0,0,1,3.145-.942,5.482,5.482,0,0,1,3.359.947,2.962,2.962,0,0,1,1.27,2.49h-3.3q0-1.27-1.338-1.27a1.326,1.326,0,0,0-.869.288.892.892,0,0,0-.352.718.819.819,0,0,0,.43.713,4.06,4.06,0,0,0,1.372.449,11.857,11.857,0,0,1,1.655.42,3.007,3.007,0,0,1,2.383,2.939,2.767,2.767,0,0,1-1.284,2.354,5.632,5.632,0,0,1-3.325.908,5.747,5.747,0,0,1-2.422-.488,4.05,4.05,0,0,1-1.66-1.328,3.007,3.007,0,0,1-.6-1.768h3.076a1.272,1.272,0,0,0,.488,1.069,2.009,2.009,0,0,0,1.2.337,1.58,1.58,0,0,0,1.011-.273A.875.875,0,0,0,199.2,16.031Zm9.277-2.393a6.455,6.455,0,0,1,1.084-3.955,3.568,3.568,0,0,1,3.027-1.445,3.035,3.035,0,0,1,2.383,1.113V4h3.3V19h-2.959l-.166-1.133a3.116,3.116,0,0,1-2.578,1.328,3.562,3.562,0,0,1-2.988-1.445A6.659,6.659,0,0,1,208.481,13.639Zm3.291.205q0,2.813,1.641,2.813a1.62,1.62,0,0,0,1.563-.918V11.715a1.576,1.576,0,0,0-1.543-.937q-1.523,0-1.65,2.461ZM225.259,19.2a5.432,5.432,0,0,1-3.936-1.45,5.008,5.008,0,0,1-1.5-3.774V13.7a6.489,6.489,0,0,1,.6-2.861,4.395,4.395,0,0,1,1.753-1.919,5.292,5.292,0,0,1,2.734-.679,4.574,4.574,0,0,1,3.516,1.382,5.43,5.43,0,0,1,1.289,3.853v1.279h-6.543a2.372,2.372,0,0,0,.771,1.4,2.3,2.3,0,0,0,1.543.508,2.958,2.958,0,0,0,2.441-1.094l1.5,1.777a4.2,4.2,0,0,1-1.743,1.353A5.891,5.891,0,0,1,225.259,19.2Zm-.371-8.418q-1.445,0-1.719,1.914h3.32v-.254a1.63,1.63,0,0,0-.4-1.226A1.593,1.593,0,0,0,224.888,10.777ZM239.487,19h-3.3V4h3.3Zm5.5,0h-3.3V4h3.3Zm7.979,0a3.716,3.716,0,0,1-.312-.947,3.06,3.06,0,0,1-2.539,1.143,3.749,3.749,0,0,1-2.539-.9,2.875,2.875,0,0,1-1.045-2.271,2.955,2.955,0,0,1,1.27-2.6,6.468,6.468,0,0,1,3.691-.879H252.5v-.559q0-1.462-1.26-1.462a1.03,1.03,0,0,0-1.172,1.158h-3.291a2.95,2.95,0,0,1,1.3-2.487,5.479,5.479,0,0,1,3.325-.956,4.8,4.8,0,0,1,3.193.986,3.429,3.429,0,0,1,1.2,2.705v4.678a4.79,4.79,0,0,0,.449,2.227V19ZM250.9,16.852a1.836,1.836,0,0,0,1.021-.264,1.653,1.653,0,0,0,.581-.6V14.3h-.957q-1.719,0-1.719,1.543a.942.942,0,0,0,.3.728A1.1,1.1,0,0,0,250.9,16.852Zm9.834-8.418.107,1.24a3.633,3.633,0,0,1,3.018-1.436,2.675,2.675,0,0,1,2.705,1.592,3.517,3.517,0,0,1,3.105-1.592q3.213,0,3.3,3.887V19h-3.3V12.33a2.014,2.014,0,0,0-.273-1.182,1.164,1.164,0,0,0-1-.371,1.559,1.559,0,0,0-1.455.869l.01.137V19h-3.3V12.35a2.117,2.117,0,0,0-.264-1.2,1.161,1.161,0,0,0-1.006-.371,1.578,1.578,0,0,0-1.445.869V19h-3.291V8.434ZM280.806,19a3.716,3.716,0,0,1-.312-.947,3.06,3.06,0,0,1-2.539,1.143,3.749,3.749,0,0,1-2.539-.9,2.875,2.875,0,0,1-1.045-2.271,2.955,2.955,0,0,1,1.27-2.6,6.468,6.468,0,0,1,3.691-.879h1.016v-.559q0-1.462-1.26-1.462a1.03,1.03,0,0,0-1.172,1.158h-3.291a2.95,2.95,0,0,1,1.3-2.487,5.479,5.479,0,0,1,3.325-.956,4.8,4.8,0,0,1,3.193.986,3.429,3.429,0,0,1,1.2,2.705v4.678a4.79,4.79,0,0,0,.449,2.227V19Zm-2.061-2.148a1.836,1.836,0,0,0,1.021-.264,1.653,1.653,0,0,0,.581-.6V14.3h-.957q-1.719,0-1.719,1.543a.942.942,0,0,0,.3.728A1.1,1.1,0,0,0,278.745,16.852Zm6.309-3.213a6.455,6.455,0,0,1,1.084-3.955,3.568,3.568,0,0,1,3.027-1.445,3.035,3.035,0,0,1,2.383,1.113V4h3.3V19H291.89l-.166-1.133a3.116,3.116,0,0,1-2.578,1.328,3.562,3.562,0,0,1-2.988-1.445A6.659,6.659,0,0,1,285.054,13.639Zm3.291.205q0,2.813,1.641,2.813a1.62,1.62,0,0,0,1.563-.918V11.715A1.576,1.576,0,0,0,290,10.777q-1.523,0-1.65,2.461ZM302.671,19a3.716,3.716,0,0,1-.312-.947,3.06,3.06,0,0,1-2.539,1.143,3.749,3.749,0,0,1-2.539-.9,2.875,2.875,0,0,1-1.045-2.271,2.955,2.955,0,0,1,1.27-2.6,6.468,6.468,0,0,1,3.691-.879h1.016v-.559q0-1.462-1.26-1.462a1.03,1.03,0,0,0-1.172,1.158h-3.291a2.95,2.95,0,0,1,1.3-2.487,5.479,5.479,0,0,1,3.325-.956,4.8,4.8,0,0,1,3.193.986,3.429,3.429,0,0,1,1.2,2.705v4.678a4.79,4.79,0,0,0,.449,2.227V19Zm-2.061-2.148a1.836,1.836,0,0,0,1.021-.264,1.653,1.653,0,0,0,.581-.6V14.3h-.957q-1.719,0-1.719,1.543a.942.942,0,0,0,.3.728A1.1,1.1,0,0,0,300.61,16.852Zm12.256-.82a.76.76,0,0,0-.439-.674,6.685,6.685,0,0,0-1.67-.527,7.615,7.615,0,0,1-2.031-.718,3.4,3.4,0,0,1-1.221-1.079,2.577,2.577,0,0,1-.42-1.455,2.92,2.92,0,0,1,1.2-2.4,4.948,4.948,0,0,1,3.145-.942,5.482,5.482,0,0,1,3.359.947,2.962,2.962,0,0,1,1.27,2.49h-3.3q0-1.27-1.338-1.27a1.326,1.326,0,0,0-.869.288.892.892,0,0,0-.352.718.819.819,0,0,0,.43.713,4.06,4.06,0,0,0,1.372.449,11.856,11.856,0,0,1,1.655.42,3.007,3.007,0,0,1,2.383,2.939,2.767,2.767,0,0,1-1.284,2.354,5.631,5.631,0,0,1-3.325.908,5.747,5.747,0,0,1-2.422-.488,4.05,4.05,0,0,1-1.66-1.328,3.007,3.007,0,0,1-.6-1.768h3.076a1.272,1.272,0,0,0,.488,1.069,2.009,2.009,0,0,0,1.2.337,1.58,1.58,0,0,0,1.011-.273A.875.875,0,0,0,312.866,16.031ZM328.511,19a3.716,3.716,0,0,1-.312-.947,3.06,3.06,0,0,1-2.539,1.143,3.749,3.749,0,0,1-2.539-.9,2.875,2.875,0,0,1-1.045-2.271,2.955,2.955,0,0,1,1.27-2.6,6.468,6.468,0,0,1,3.691-.879h1.016v-.559q0-1.462-1.26-1.462a1.03,1.03,0,0,0-1.172,1.158h-3.291a2.95,2.95,0,0,1,1.3-2.487,5.479,5.479,0,0,1,3.325-.956,4.8,4.8,0,0,1,3.193.986,3.429,3.429,0,0,1,1.2,2.705v4.678a4.79,4.79,0,0,0,.449,2.227V19Zm-2.061-2.148a1.836,1.836,0,0,0,1.021-.264,1.653,1.653,0,0,0,.581-.6V14.3h-.957q-1.719,0-1.719,1.543a.942.942,0,0,0,.3.728A1.1,1.1,0,0,0,326.45,16.852ZM341.626,19h-3.3V4h3.3Zm7.979,0a3.716,3.716,0,0,1-.312-.947,3.06,3.06,0,0,1-2.539,1.143,3.749,3.749,0,0,1-2.539-.9,2.875,2.875,0,0,1-1.045-2.271,2.955,2.955,0,0,1,1.27-2.6,6.468,6.468,0,0,1,3.691-.879h1.016v-.559q0-1.462-1.26-1.462a1.03,1.03,0,0,0-1.172,1.158h-3.291a2.95,2.95,0,0,1,1.3-2.487,5.479,5.479,0,0,1,3.325-.956,4.8,4.8,0,0,1,3.193.986,3.429,3.429,0,0,1,1.2,2.705v4.678a4.79,4.79,0,0,0,.449,2.227V19Zm-2.061-2.148a1.836,1.836,0,0,0,1.021-.264,1.653,1.653,0,0,0,.581-.6V14.3h-.957q-1.719,0-1.719,1.543a.942.942,0,0,0,.3.728A1.1,1.1,0,0,0,347.544,16.852Zm15.283-.488h5.967V19H359.4V4.781h3.428ZM373.677,19h-3.311V8.434h3.311Zm-1.23-14.8h3.477l-2.715,3.066-2.686,0Zm6.367,4.238.107,1.24a3.583,3.583,0,0,1,3.018-1.436,3.015,3.015,0,0,1,2.466.986,4.7,4.7,0,0,1,.845,2.969V19h-3.3V12.33a1.783,1.783,0,0,0-.322-1.177,1.491,1.491,0,0,0-1.172-.376,1.569,1.569,0,0,0-1.436.762V19h-3.291V8.434ZM392.183,19.2a5.432,5.432,0,0,1-3.936-1.45,5.008,5.008,0,0,1-1.5-3.774V13.7a6.489,6.489,0,0,1,.6-2.861A4.395,4.395,0,0,1,389.1,8.917a5.292,5.292,0,0,1,2.734-.679,4.574,4.574,0,0,1,3.516,1.382,5.43,5.43,0,0,1,1.289,3.853v1.279h-6.543a2.372,2.372,0,0,0,.771,1.4,2.3,2.3,0,0,0,1.543.508,2.958,2.958,0,0,0,2.441-1.094l1.5,1.777a4.2,4.2,0,0,1-1.743,1.353A5.891,5.891,0,0,1,392.183,19.2Zm-.371-8.418q-1.445,0-1.719,1.914h3.32v-.254a1.63,1.63,0,0,0-.4-1.226A1.593,1.593,0,0,0,391.812,10.777ZM403.911,19a3.716,3.716,0,0,1-.312-.947A3.06,3.06,0,0,1,401.06,19.2a3.749,3.749,0,0,1-2.539-.9,2.875,2.875,0,0,1-1.045-2.271,2.955,2.955,0,0,1,1.27-2.6,6.468,6.468,0,0,1,3.691-.879h1.016v-.559q0-1.462-1.26-1.462a1.03,1.03,0,0,0-1.172,1.158h-3.291a2.95,2.95,0,0,1,1.3-2.487,5.479,5.479,0,0,1,3.325-.956,4.8,4.8,0,0,1,3.193.986,3.429,3.429,0,0,1,1.2,2.705v4.678a4.79,4.79,0,0,0,.449,2.227V19Zm-2.061-2.148a1.836,1.836,0,0,0,1.021-.264,1.653,1.653,0,0,0,.581-.6V14.3H402.5q-1.719,0-1.719,1.543a.942.942,0,0,0,.3.728A1.1,1.1,0,0,0,401.851,16.852ZM420.8,19h-3.3V8.492l-3.242.947v-2.5l6.24-2.158h.3ZM435,19h-9.922V16.852l4.57-4.8q1.689-1.924,1.689-3.057a2.126,2.126,0,0,0-.4-1.4,1.43,1.43,0,0,0-1.162-.479,1.447,1.447,0,0,0-1.221.64,2.629,2.629,0,0,0-.469,1.6h-3.3a4.67,4.67,0,0,1,.654-2.417A4.588,4.588,0,0,1,427.261,5.2a5.4,5.4,0,0,1,2.6-.625,5.308,5.308,0,0,1,3.55,1.064A3.8,3.8,0,0,1,434.653,8.7a4.438,4.438,0,0,1-.312,1.636,7.174,7.174,0,0,1-.972,1.67,24.476,24.476,0,0,1-2.124,2.339l-1.836,2.119H435Zm4.668-8.486h1.553a1.614,1.614,0,0,0,1.846-1.807,1.562,1.562,0,0,0-.439-1.147,1.666,1.666,0,0,0-1.24-.444,1.784,1.784,0,0,0-1.138.381,1.162,1.162,0,0,0-.483.947h-3.291a3.369,3.369,0,0,1,.625-2,4.127,4.127,0,0,1,1.733-1.372,5.926,5.926,0,0,1,2.437-.493A5.823,5.823,0,0,1,445,5.66a3.6,3.6,0,0,1,1.357,2.979,3,3,0,0,1-.562,1.733,4,4,0,0,1-1.636,1.323,3.823,3.823,0,0,1,1.777,1.245,3.279,3.279,0,0,1,.645,2.065,3.669,3.669,0,0,1-1.465,3.047,6.08,6.08,0,0,1-3.848,1.143,6.306,6.306,0,0,1-2.593-.532,4.062,4.062,0,0,1-1.812-1.475,3.834,3.834,0,0,1-.615-2.144h3.311a1.482,1.482,0,0,0,.527,1.133,1.862,1.862,0,0,0,1.3.479,1.95,1.95,0,0,0,1.387-.483,1.616,1.616,0,0,0,.518-1.235,1.889,1.889,0,0,0-.537-1.523,2.245,2.245,0,0,0-1.484-.449h-1.6Zm13.193,3.125a6.455,6.455,0,0,1,1.084-3.955,3.568,3.568,0,0,1,3.027-1.445,3.035,3.035,0,0,1,2.383,1.113V4h3.3V19H459.7l-.166-1.133a3.116,3.116,0,0,1-2.578,1.328,3.562,3.562,0,0,1-2.988-1.445A6.659,6.659,0,0,1,452.866,13.639Zm3.291.205q0,2.813,1.641,2.813a1.62,1.62,0,0,0,1.563-.918V11.715a1.576,1.576,0,0,0-1.543-.937q-1.523,0-1.65,2.461Zm14.668,4.014A3.393,3.393,0,0,1,468,19.2a3.328,3.328,0,0,1-2.632-1.011,4.251,4.251,0,0,1-.894-2.905V8.434h3.291V15.3a1.183,1.183,0,0,0,1.318,1.357,1.72,1.72,0,0,0,1.611-.811V8.434h3.311V19h-3.086ZM482.2,11.412l-1.084-.078a1.947,1.947,0,0,0-1.992.977V19h-3.291V8.434h3.086l.107,1.357a2.548,2.548,0,0,1,2.314-1.553,3.209,3.209,0,0,1,.918.117ZM489.048,19a3.716,3.716,0,0,1-.312-.947A3.06,3.06,0,0,1,486.2,19.2a3.749,3.749,0,0,1-2.539-.9,2.875,2.875,0,0,1-1.045-2.271,2.955,2.955,0,0,1,1.27-2.6,6.468,6.468,0,0,1,3.691-.879h1.016v-.559q0-1.462-1.26-1.462a1.03,1.03,0,0,0-1.172,1.158h-3.291a2.95,2.95,0,0,1,1.3-2.487,5.479,5.479,0,0,1,3.325-.956,4.8,4.8,0,0,1,3.193.986,3.429,3.429,0,0,1,1.2,2.705v4.678a4.79,4.79,0,0,0,.449,2.227V19Zm-2.061-2.148a1.836,1.836,0,0,0,1.021-.264,1.653,1.653,0,0,0,.581-.6V14.3h-.957q-1.719,0-1.719,1.543a.942.942,0,0,0,.3.728A1.1,1.1,0,0,0,486.987,16.852Zm9.746-8.418.107,1.24a3.583,3.583,0,0,1,3.018-1.436,3.015,3.015,0,0,1,2.466.986,4.7,4.7,0,0,1,.845,2.969V19h-3.3V12.33a1.783,1.783,0,0,0-.322-1.177,1.491,1.491,0,0,0-1.172-.376,1.569,1.569,0,0,0-1.436.762V19h-3.291V8.434Zm12.09-2.627V8.434h1.738v2.285h-1.738v4.834a1.234,1.234,0,0,0,.215.83,1.152,1.152,0,0,0,.85.234,4.828,4.828,0,0,0,.82-.059v2.354a6.074,6.074,0,0,1-1.855.283,3.448,3.448,0,0,1-2.51-.8,3.282,3.282,0,0,1-.811-2.432V10.719h-1.348V8.434h1.348V5.807ZM516.968,19.2a5.432,5.432,0,0,1-3.936-1.45,5.008,5.008,0,0,1-1.5-3.774V13.7a6.489,6.489,0,0,1,.6-2.861,4.395,4.395,0,0,1,1.753-1.919,5.292,5.292,0,0,1,2.734-.679,4.574,4.574,0,0,1,3.516,1.382,5.43,5.43,0,0,1,1.289,3.853v1.279h-6.543a2.372,2.372,0,0,0,.771,1.4,2.3,2.3,0,0,0,1.543.508,2.958,2.958,0,0,0,2.441-1.094l1.5,1.777a4.2,4.2,0,0,1-1.743,1.353A5.891,5.891,0,0,1,516.968,19.2Zm-.371-8.418q-1.445,0-1.719,1.914h3.32v-.254a1.63,1.63,0,0,0-.4-1.226A1.593,1.593,0,0,0,516.6,10.777Zm21,8.223h-9.922V16.852l4.57-4.8q1.689-1.924,1.689-3.057a2.126,2.126,0,0,0-.4-1.4,1.43,1.43,0,0,0-1.162-.479,1.447,1.447,0,0,0-1.221.64,2.629,2.629,0,0,0-.469,1.6h-3.3a4.669,4.669,0,0,1,.654-2.417A4.589,4.589,0,0,1,529.849,5.2a5.4,5.4,0,0,1,2.6-.625A5.308,5.308,0,0,1,536,5.641,3.8,3.8,0,0,1,537.241,8.7a4.439,4.439,0,0,1-.312,1.636,7.173,7.173,0,0,1-.972,1.67,24.476,24.476,0,0,1-2.124,2.339L532,16.461h5.6Zm11.533-5.811a6.789,6.789,0,0,1-1.294,4.443,5.056,5.056,0,0,1-7.319-.01,6.779,6.779,0,0,1-1.3-4.434v-2.6a6.789,6.789,0,0,1,1.294-4.443,5.056,5.056,0,0,1,7.319.01,6.8,6.8,0,0,1,1.3,4.443Zm-3.291-3.018a5.072,5.072,0,0,0-.4-2.29,1.338,1.338,0,0,0-1.27-.757,1.307,1.307,0,0,0-1.235.7,4.778,4.778,0,0,0-.415,2.129V13.59a5.11,5.11,0,0,0,.4,2.329,1.343,1.343,0,0,0,1.27.737,1.325,1.325,0,0,0,1.24-.718,4.878,4.878,0,0,0,.41-2.251ZM558.13,19h-3.3V8.492l-3.242.947v-2.5l6.24-2.158h.3ZM570.366,4.576V7.164h-.146a4.941,4.941,0,0,0-3.032.884,3.732,3.732,0,0,0-1.46,2.456A3.848,3.848,0,0,1,568.54,9.41a3.59,3.59,0,0,1,2.939,1.348,5.435,5.435,0,0,1,1.094,3.535,4.977,4.977,0,0,1-.64,2.49,4.564,4.564,0,0,1-1.787,1.772,5.135,5.135,0,0,1-2.544.64,5.307,5.307,0,0,1-2.705-.688,4.733,4.733,0,0,1-1.855-1.968,6.48,6.48,0,0,1-.684-2.949V12.271a8.209,8.209,0,0,1,.942-3.95,6.832,6.832,0,0,1,2.69-2.749,7.692,7.692,0,0,1,3.877-1ZM567.4,11.949a1.889,1.889,0,0,0-1.094.3,1.917,1.917,0,0,0-.654.739v.982q0,2.684,1.865,2.684a1.515,1.515,0,0,0,1.255-.671,2.727,2.727,0,0,0,.5-1.682,2.677,2.677,0,0,0-.513-1.7A1.642,1.642,0,0,0,567.4,11.949Z" transform="translate(445 840)" fill="#fff"/>
    <g id="Grupo_87907" data-name="Grupo 87907" transform="translate(449 950.705)">
      <g id="Grupo_87906" data-name="Grupo 87906">
        <g id="Grupo_87905" data-name="Grupo 87905" style="isolation: isolate">
          <g id="Grupo_87888" data-name="Grupo 87888" transform="translate(166.852 0.22)">
            <path id="Trazado_139705" data-name="Trazado 139705" d="M546.48,250.723v21.114L536,381.661V360.547Z" transform="translate(-536.004 -250.723)" fill="#24708b"/>
          </g>
          <g id="Grupo_87889" data-name="Grupo 87889" transform="translate(166.852 2.387)">
            <path id="Trazado_139706" data-name="Trazado 139706" d="M570.7,254.582V275.7L536,383.352V362.237Z" transform="translate(-536.004 -254.582)" fill="#9d4d27"/>
          </g>
          <g id="Grupo_87890" data-name="Grupo 87890" transform="translate(166.852 17.12)">
            <path id="Trazado_139707" data-name="Trazado 139707" d="M625.411,280.806V301.92L536,394.843V373.729Z" transform="translate(-536.004 -280.806)" fill="#767675"/>
          </g>
          <g id="Grupo_87891" data-name="Grupo 87891" transform="translate(166.852)">
            <path id="Trazado_139708" data-name="Trazado 139708" d="M536,250.332c3.519,0,7.008.08,10.476.22L536,360.375Z" transform="translate(-536.004 -250.332)" fill="#36a7cf"/>
          </g>
          <g id="Grupo_87892" data-name="Grupo 87892" transform="translate(166.852 69.524)">
            <path id="Trazado_139709" data-name="Trazado 139709" d="M691.177,374.086V395.2L536,435.72V414.605Z" transform="translate(-536.004 -374.086)" fill="#b6822c"/>
          </g>
          <g id="Grupo_87893" data-name="Grupo 87893" transform="translate(166.852 0.22)">
            <path id="Trazado_139710" data-name="Trazado 139710" d="M546.48,250.723c8.247.337,16.336,1.067,24.219,2.168L536,360.547Z" transform="translate(-536.004 -250.723)" fill="#db6b36"/>
          </g>
          <g id="Grupo_87894" data-name="Grupo 87894" transform="translate(166.852 2.388)">
            <path id="Trazado_139711" data-name="Trazado 139711" d="M570.7,254.582a220.625,220.625,0,0,1,54.712,14.732L536,362.238Z" transform="translate(-536.004 -254.582)" fill="#929290"/>
          </g>
          <g id="Grupo_87895" data-name="Grupo 87895" transform="translate(166.852 17.12)">
            <path id="Trazado_139712" data-name="Trazado 139712" d="M625.411,280.806c29.508,12.378,52.72,30.7,65.765,52.4L536,373.729Z" transform="translate(-536.004 -280.806)" fill="#e2a237"/>
          </g>
          <g id="Grupo_87896" data-name="Grupo 87896" transform="translate(166.852 69.524)">
            <path id="Trazado_139713" data-name="Trazado 139713" d="M691.177,374.086c7.534,12.538,11.68,26.21,11.68,40.519,0,21.7-9.526,41.923-25.963,58.97L536,414.605Z" transform="translate(-536.004 -374.086)" fill="#16649d"/>
          </g>
          <g id="Grupo_87899" data-name="Grupo 87899" transform="translate(307.741 110.043)" style="isolation: isolate">
            <g id="Grupo_87898" data-name="Grupo 87898" clip-path="url(#clip-path)">
              <g id="Grupo_87897" data-name="Grupo 87897" style="isolation: isolate">
                <path id="Trazado_139714" data-name="Trazado 139714" d="M832.987,446.211v21.114q0,.9-.022,1.793V448q.022-.895.022-1.793" transform="translate(-807.024 -446.211)" fill="#0f4267"/>
                <path id="Trazado_139715" data-name="Trazado 139715" d="M831.774,449.4v21.114a73.947,73.947,0,0,1-1.527,13.259V462.661a73.948,73.948,0,0,0,1.527-13.259" transform="translate(-805.833 -447.609)" fill="#0f446a"/>
                <path id="Trazado_139716" data-name="Trazado 139716" d="M827.021,473v21.114a77.824,77.824,0,0,1-4.136,13.527V486.531A77.824,77.824,0,0,0,827.021,473" transform="translate(-802.606 -457.952)" fill="#10466e"/>
                <path id="Trazado_139717" data-name="Trazado 139717" d="M816.768,497.082V518.2a87.719,87.719,0,0,1-7.84,14.885V511.967a87.723,87.723,0,0,0,7.84-14.885" transform="translate(-796.49 -468.503)" fill="#104871"/>
                <path id="Trazado_139718" data-name="Trazado 139718" d="M799.227,523.577v21.114A105.42,105.42,0,0,1,786.789,560.2V539.084a105.42,105.42,0,0,0,12.438-15.507" transform="translate(-786.789 -480.113)" fill="#114b75"/>
              </g>
            </g>
          </g>
          <g id="Grupo_87900" data-name="Grupo 87900" transform="translate(166.852 110.043)">
            <path id="Trazado_139720" data-name="Trazado 139720" d="M676.893,505.181V526.3L536,467.325V446.211Z" transform="translate(-536.004 -446.211)" fill="#0e3f62"/>
          </g>
          <g id="Grupo_87901" data-name="Grupo 87901">
            <path id="Trazado_139721" data-name="Trazado 139721" d="M405.856,250.332V360.375l140.889,58.97c-29.6,30.7-81.636,51.073-140.889,51.073q-5.286,0-10.476-.223c-8.252-.337-16.341-1.067-24.224-2.168A220.563,220.563,0,0,1,316.444,453.3c-29.508-12.375-52.72-30.692-65.765-52.4A78.136,78.136,0,0,1,239,360.375c0-21.7,9.526-41.927,25.958-58.97C294.566,270.7,346.6,250.332,405.856,250.332Z" transform="translate(-239.004 -250.332)" fill="#339844"/>
          </g>
          <g id="Grupo_87904" data-name="Grupo 87904" transform="translate(0 110.043)" style="isolation: isolate">
            <g id="Grupo_87903" data-name="Grupo 87903" clip-path="url(#clip-path-2)">
              <g id="Grupo_87902" data-name="Grupo 87902" style="isolation: isolate">
                <path id="Trazado_139722" data-name="Trazado 139722" d="M783.6,551.179v21.114q-1.977,2.049-4.085,4.037V555.216q2.108-1.987,4.085-4.037" transform="translate(-475.861 -492.209)" fill="#267132"/>
                <path id="Trazado_139723" data-name="Trazado 139723" d="M738.973,558.365v21.114c-13.663,12.879-31.4,23.741-51.978,31.771V590.136c20.578-8.03,38.315-18.892,51.978-31.771" transform="translate(-435.317 -495.358)" fill="#277434"/>
                <path id="Trazado_139724" data-name="Trazado 139724" d="M663,614.918v21.114a214.939,214.939,0,0,1-30.76,9.358V624.276A215.009,215.009,0,0,0,663,614.918" transform="translate(-411.324 -520.14)" fill="#267132"/>
                <path id="Trazado_139725" data-name="Trazado 139725" d="M614.2,631.576V652.69q-11.228,2.536-23.133,4.019V635.6q11.884-1.47,23.133-4.019" transform="translate(-393.28 -527.439)" fill="#246d31"/>
                <path id="Trazado_139726" data-name="Trazado 139726" d="M574.725,638.73v21.114q-10.266,1.27-20.948,1.694V640.424q10.668-.415,20.948-1.694" transform="translate(-376.94 -530.574)" fill="#236a2f"/>
                <path id="Trazado_139727" data-name="Trazado 139727" d="M537.966,641.728v21.114q-4.955.193-9.985.194-5.189,0-10.286-.215V641.707q5.1.207,10.286.215,5.028,0,9.985-.194" transform="translate(-361.129 -531.879)" fill="#22672e"/>
                <path id="Trazado_139728" data-name="Trazado 139728" d="M501.95,640.441v21.114l-.19-.008q-10.174-.415-19.995-1.615V638.818q9.808,1.193,19.995,1.615l.19.008" transform="translate(-345.384 -530.613)" fill="#21632c"/>
                <path id="Trazado_139729" data-name="Trazado 139729" d="M465.35,636.078v21.114q-2.124-.259-4.229-.553-8.579-1.2-16.816-2.961V632.564q8.229,1.759,16.816,2.961,2.105.294,4.229.553" transform="translate(-328.969 -527.872)" fill="#20602b"/>
                <path id="Trazado_139730" data-name="Trazado 139730" d="M425.477,627.424v21.114a220.728,220.728,0,0,1-24.138-6.589V620.835a220.728,220.728,0,0,0,24.138,6.589" transform="translate(-310.141 -522.733)" fill="#1f5c29"/>
                <path id="Trazado_139731" data-name="Trazado 139731" d="M330.2,544.313v21.114q-7.08-2.38-13.759-5.183c-29.508-12.375-52.72-30.692-65.765-52.4A78.136,78.136,0,0,1,239,467.325V446.211a78.136,78.136,0,0,0,11.675,40.519c13.045,21.709,36.257,40.026,65.765,52.4q6.672,2.8,13.759,5.183" transform="translate(-239.004 -446.211)" fill="#1e5928"/>
              </g>
            </g>
          </g>
        </g>
      </g>
    </g>
    <path id="Trazado_151839" data-name="Trazado 151839" d="M5.476,0H3.5V-7.626L1.142-6.9V-8.49L5.264-9.967h.212Zm5.243-5.852h1.053a1.483,1.483,0,0,0,1.114-.376,1.378,1.378,0,0,0,.362-1,1.218,1.218,0,0,0-.359-.937A1.391,1.391,0,0,0,11.9-8.5a1.458,1.458,0,0,0-.95.311,1,1,0,0,0-.383.81H8.593a2.43,2.43,0,0,1,.42-1.4,2.8,2.8,0,0,1,1.176-.967,3.924,3.924,0,0,1,1.665-.349,3.722,3.722,0,0,1,2.475.755,2.577,2.577,0,0,1,.9,2.082A2.094,2.094,0,0,1,14.807-6a2.709,2.709,0,0,1-1.094.882,2.473,2.473,0,0,1,1.254.9,2.448,2.448,0,0,1,.414,1.422,2.62,2.62,0,0,1-.967,2.126,3.889,3.889,0,0,1-2.56.8A3.688,3.688,0,0,1,9.417-.649,2.567,2.567,0,0,1,8.47-2.728h1.976a1.145,1.145,0,0,0,.42.916,1.549,1.549,0,0,0,1.036.355,1.556,1.556,0,0,0,1.1-.373,1.286,1.286,0,0,0,.4-.988q0-1.49-1.641-1.49H10.719ZM16.926-.971a1,1,0,0,1,.318-.766,1.128,1.128,0,0,1,.8-.294,1.137,1.137,0,0,1,.8.294,1,1,0,0,1,.318.766.981.981,0,0,1-.314.755,1.142,1.142,0,0,1-.807.291,1.133,1.133,0,0,1-.8-.291A.981.981,0,0,1,16.926-.971ZM27.508-4.115a5.042,5.042,0,0,1-.854,3.158,2.983,2.983,0,0,1-2.5,1.094A3,3,0,0,1,21.663-.937a4.895,4.895,0,0,1-.882-3.076V-5.845a4.976,4.976,0,0,1,.865-3.165,3,3,0,0,1,2.492-1.08,3.008,3.008,0,0,1,2.488,1.07,4.879,4.879,0,0,1,.882,3.073ZM25.532-6.129a3.645,3.645,0,0,0-.338-1.8A1.144,1.144,0,0,0,24.138-8.5a1.123,1.123,0,0,0-1.029.537,3.411,3.411,0,0,0-.352,1.68v2.422a3.826,3.826,0,0,0,.332,1.81,1.128,1.128,0,0,0,1.063.592A1.109,1.109,0,0,0,25.2-2.024a3.734,3.734,0,0,0,.335-1.738Zm5.318.278H31.9a1.483,1.483,0,0,0,1.114-.376,1.378,1.378,0,0,0,.362-1,1.218,1.218,0,0,0-.359-.937,1.391,1.391,0,0,0-.988-.335,1.458,1.458,0,0,0-.95.311,1,1,0,0,0-.383.81H28.725a2.43,2.43,0,0,1,.42-1.4,2.8,2.8,0,0,1,1.176-.967,3.924,3.924,0,0,1,1.665-.349,3.722,3.722,0,0,1,2.475.755,2.577,2.577,0,0,1,.9,2.082A2.094,2.094,0,0,1,34.938-6a2.709,2.709,0,0,1-1.094.882,2.473,2.473,0,0,1,1.254.9,2.448,2.448,0,0,1,.414,1.422,2.62,2.62,0,0,1-.967,2.126,3.889,3.889,0,0,1-2.56.8,3.688,3.688,0,0,1-2.437-.786A2.567,2.567,0,0,1,28.6-2.728h1.976a1.145,1.145,0,0,0,.42.916,1.549,1.549,0,0,0,1.036.355,1.556,1.556,0,0,0,1.1-.373,1.286,1.286,0,0,0,.4-.988q0-1.49-1.641-1.49H30.851ZM43.7,0H36.873V-1.354l3.22-3.432a7.943,7.943,0,0,0,.981-1.265,2.032,2.032,0,0,0,.318-1.025,1.52,1.52,0,0,0-.335-1.042A1.209,1.209,0,0,0,40.1-8.5a1.3,1.3,0,0,0-1.056.461,1.828,1.828,0,0,0-.386,1.213H36.675a3.263,3.263,0,0,1,.434-1.661,3.059,3.059,0,0,1,1.227-1.179,3.73,3.73,0,0,1,1.8-.427,3.531,3.531,0,0,1,2.389.738,2.612,2.612,0,0,1,.851,2.085,3.347,3.347,0,0,1-.383,1.5,8.357,8.357,0,0,1-1.312,1.784L39.416-1.593H43.7Zm4.867-4.047a10.491,10.491,0,0,1,.417-2.98,7.865,7.865,0,0,1,1.23-2.505,4.594,4.594,0,0,1,1.764-1.514l.383,1.066A4.758,4.758,0,0,0,50.8-7.7a10.572,10.572,0,0,0-.561,3.609v.212a10.774,10.774,0,0,0,.554,3.623,4.851,4.851,0,0,0,1.565,2.317L51.974,3.11a4.6,4.6,0,0,1-1.733-1.473A7.734,7.734,0,0,1,49.014-.8a10.429,10.429,0,0,1-.451-2.885ZM58.105,0H56.13V-7.626L53.771-6.9V-8.49l4.122-1.477h.212ZM65.96-3.979a2.5,2.5,0,0,1-1.8.759,2.668,2.668,0,0,1-2.112-.906,3.579,3.579,0,0,1-.793-2.444,3.813,3.813,0,0,1,.427-1.794A3.134,3.134,0,0,1,62.87-9.635a3.31,3.31,0,0,1,1.723-.455,3.165,3.165,0,0,1,1.75.492,3.236,3.236,0,0,1,1.189,1.415,5.08,5.08,0,0,1,.431,2.112v.731a5.757,5.757,0,0,1-1.237,3.91A4.678,4.678,0,0,1,63.219.089L62.733.1V-1.552l.438-.007Q65.748-1.675,65.96-3.979ZM64.641-4.73a1.382,1.382,0,0,0,.824-.246,1.644,1.644,0,0,0,.523-.595v-.813A2.716,2.716,0,0,0,65.6-7.943,1.188,1.188,0,0,0,64.579-8.5a1.153,1.153,0,0,0-.978.543,2.311,2.311,0,0,0-.383,1.364,2.249,2.249,0,0,0,.373,1.336A1.214,1.214,0,0,0,64.641-4.73Zm4.7-3.309a1.968,1.968,0,0,1,.595-1.487A2.157,2.157,0,0,1,71.5-10.1a2.191,2.191,0,0,1,1.572.564A2.005,2.005,0,0,1,73.664-8v.492a1.943,1.943,0,0,1-.595,1.483,2.18,2.18,0,0,1-1.559.561,2.194,2.194,0,0,1-1.569-.564,1.991,1.991,0,0,1-.6-1.521Zm1.313.535a.929.929,0,0,0,.236.663.81.81,0,0,0,.619.251.772.772,0,0,0,.608-.254.989.989,0,0,0,.226-.681v-.509a.968.968,0,0,0-.226-.667.788.788,0,0,0-.622-.254.791.791,0,0,0-.608.251.988.988,0,0,0-.232.7ZM74.1-2.44a1.943,1.943,0,0,1,.6-1.487,2.187,2.187,0,0,1,1.559-.564,2.209,2.209,0,0,1,1.569.557,1.994,1.994,0,0,1,.6,1.535v.492a1.957,1.957,0,0,1-.588,1.48,2.167,2.167,0,0,1-1.565.564A2.193,2.193,0,0,1,74.7-.431a1.982,1.982,0,0,1-.595-1.5Zm1.313.542a.922.922,0,0,0,.246.646.8.8,0,0,0,.615.268q.834,0,.834-.928v-.523a.938.938,0,0,0-.232-.663.8.8,0,0,0-.615-.251.8.8,0,0,0-.615.251.968.968,0,0,0-.232.684ZM71.9-.745l-.964-.52L75.8-9.044l.964.52ZM83.193-3.89a9.955,9.955,0,0,1-.444,2.974,8.072,8.072,0,0,1-1.278,2.522,4.606,4.606,0,0,1-1.784,1.5L79.3,2.064A4.807,4.807,0,0,0,80.835-.191,10.446,10.446,0,0,0,81.416-3.7v-.362a10.682,10.682,0,0,0-.557-3.6A5.011,5.011,0,0,0,79.3-10l.383-1.046A4.607,4.607,0,0,1,81.44-9.584a7.968,7.968,0,0,1,1.278,2.468A9.884,9.884,0,0,1,83.193-4.2Z" transform="translate(705.383 1081.117)" fill="#12263f"/>
    <path id="Trazado_151840" data-name="Trazado 151840" d="M.971-4.895l.574-5.059H7.123v1.647H3.165l-.246,2.14a3.132,3.132,0,0,1,1.5-.376,2.869,2.869,0,0,1,2.229.882,3.522,3.522,0,0,1,.807,2.468,3.609,3.609,0,0,1-.407,1.726A2.871,2.871,0,0,1,5.879-.284a3.639,3.639,0,0,1-1.791.42A3.864,3.864,0,0,1,2.413-.229a2.971,2.971,0,0,1-1.22-1.029A2.8,2.8,0,0,1,.718-2.769H2.673a1.46,1.46,0,0,0,.434.967,1.376,1.376,0,0,0,.974.345,1.215,1.215,0,0,0,1.032-.482A2.233,2.233,0,0,0,5.476-3.3a1.846,1.846,0,0,0-.417-1.3,1.53,1.53,0,0,0-1.183-.451,1.71,1.71,0,0,0-1.142.369L2.543-4.5ZM8.894-.971a1,1,0,0,1,.318-.766,1.128,1.128,0,0,1,.8-.294,1.137,1.137,0,0,1,.8.294,1,1,0,0,1,.318.766.981.981,0,0,1-.314.755,1.142,1.142,0,0,1-.807.291,1.133,1.133,0,0,1-.8-.291A.981.981,0,0,1,8.894-.971Zm8.5-3.008a2.5,2.5,0,0,1-1.8.759,2.668,2.668,0,0,1-2.112-.906,3.579,3.579,0,0,1-.793-2.444,3.813,3.813,0,0,1,.427-1.794,3.134,3.134,0,0,1,1.193-1.271,3.31,3.31,0,0,1,1.723-.455,3.165,3.165,0,0,1,1.75.492A3.236,3.236,0,0,1,18.97-8.183,5.081,5.081,0,0,1,19.4-6.07v.731a5.757,5.757,0,0,1-1.237,3.91A4.678,4.678,0,0,1,14.656.089L14.171.1V-1.552l.438-.007Q17.186-1.675,17.4-3.979ZM16.078-4.73a1.382,1.382,0,0,0,.824-.246,1.644,1.644,0,0,0,.523-.595v-.813a2.716,2.716,0,0,0-.383-1.559A1.188,1.188,0,0,0,16.017-8.5a1.153,1.153,0,0,0-.978.543,2.311,2.311,0,0,0-.383,1.364,2.249,2.249,0,0,0,.373,1.336A1.214,1.214,0,0,0,16.078-4.73ZM27.3-7.308a2.315,2.315,0,0,1-.362,1.285,2.608,2.608,0,0,1-1,.9,2.886,2.886,0,0,1,1.148.96,2.464,2.464,0,0,1,.424,1.439,2.609,2.609,0,0,1-.9,2.1,3.66,3.66,0,0,1-2.454.769A3.677,3.677,0,0,1,21.69-.636a2.6,2.6,0,0,1-.909-2.092,2.48,2.48,0,0,1,.424-1.442,2.834,2.834,0,0,1,1.142-.957,2.581,2.581,0,0,1-.995-.9,2.331,2.331,0,0,1-.359-1.285,2.58,2.58,0,0,1,.848-2.027,3.337,3.337,0,0,1,2.3-.755,3.36,3.36,0,0,1,2.3.749A2.57,2.57,0,0,1,27.3-7.308ZM25.525-2.871a1.433,1.433,0,0,0-.376-1.039,1.341,1.341,0,0,0-1.012-.39,1.338,1.338,0,0,0-1,.386,1.431,1.431,0,0,0-.376,1.042,1.43,1.43,0,0,0,.369,1.025,1.345,1.345,0,0,0,1.025.39,1.341,1.341,0,0,0,1.008-.376A1.427,1.427,0,0,0,25.525-2.871ZM25.32-7.212a1.367,1.367,0,0,0-.308-.933,1.091,1.091,0,0,0-.868-.352,1.1,1.1,0,0,0-.861.342,1.359,1.359,0,0,0-.308.943,1.428,1.428,0,0,0,.308.957,1.076,1.076,0,0,0,.868.362,1.066,1.066,0,0,0,.865-.362A1.439,1.439,0,0,0,25.32-7.212Zm3.814,2.317.574-5.059h5.578v1.647H31.329l-.246,2.14a3.132,3.132,0,0,1,1.5-.376,2.869,2.869,0,0,1,2.229.882,3.522,3.522,0,0,1,.807,2.468,3.609,3.609,0,0,1-.407,1.726A2.871,2.871,0,0,1,34.043-.284a3.639,3.639,0,0,1-1.791.42,3.864,3.864,0,0,1-1.675-.366,2.971,2.971,0,0,1-1.22-1.029,2.8,2.8,0,0,1-.475-1.511h1.955a1.46,1.46,0,0,0,.434.967,1.376,1.376,0,0,0,.974.345,1.215,1.215,0,0,0,1.032-.482A2.233,2.233,0,0,0,33.64-3.3a1.846,1.846,0,0,0-.417-1.3,1.53,1.53,0,0,0-1.183-.451,1.71,1.71,0,0,0-1.142.369l-.191.178Zm11.4.848a10.491,10.491,0,0,1,.417-2.98,7.865,7.865,0,0,1,1.23-2.505,4.594,4.594,0,0,1,1.764-1.514l.383,1.066A4.758,4.758,0,0,0,42.766-7.7a10.572,10.572,0,0,0-.561,3.609v.212a10.774,10.774,0,0,0,.554,3.623,4.851,4.851,0,0,0,1.565,2.317L43.941,3.11a4.6,4.6,0,0,1-1.733-1.473A7.734,7.734,0,0,1,40.981-.8a10.429,10.429,0,0,1-.451-2.885Zm9.365.068a2.5,2.5,0,0,1-1.8.759,2.668,2.668,0,0,1-2.112-.906,3.579,3.579,0,0,1-.793-2.444,3.813,3.813,0,0,1,.427-1.794,3.134,3.134,0,0,1,1.193-1.271,3.31,3.31,0,0,1,1.723-.455,3.165,3.165,0,0,1,1.75.492,3.236,3.236,0,0,1,1.189,1.415A5.081,5.081,0,0,1,51.9-6.07v.731a5.757,5.757,0,0,1-1.237,3.91A4.678,4.678,0,0,1,47.154.089L46.669.1V-1.552l.438-.007Q49.684-1.675,49.9-3.979ZM48.576-4.73a1.382,1.382,0,0,0,.824-.246,1.644,1.644,0,0,0,.523-.595v-.813a2.717,2.717,0,0,0-.383-1.559A1.188,1.188,0,0,0,48.515-8.5a1.153,1.153,0,0,0-.978.543,2.311,2.311,0,0,0-.383,1.364,2.249,2.249,0,0,0,.373,1.336A1.214,1.214,0,0,0,48.576-4.73Zm4.7-3.309a1.968,1.968,0,0,1,.595-1.487,2.157,2.157,0,0,1,1.559-.571A2.191,2.191,0,0,1,57-9.533,2.005,2.005,0,0,1,57.6-8v.492A1.943,1.943,0,0,1,57-6.029a2.18,2.18,0,0,1-1.559.561,2.194,2.194,0,0,1-1.569-.564,1.991,1.991,0,0,1-.6-1.521Zm1.313.535a.929.929,0,0,0,.236.663.81.81,0,0,0,.619.251.772.772,0,0,0,.608-.254.989.989,0,0,0,.226-.681v-.509a.968.968,0,0,0-.226-.667.788.788,0,0,0-.622-.254.791.791,0,0,0-.608.251.988.988,0,0,0-.232.7ZM58.037-2.44a1.943,1.943,0,0,1,.6-1.487A2.187,2.187,0,0,1,60.2-4.491a2.209,2.209,0,0,1,1.569.557,1.994,1.994,0,0,1,.6,1.535v.492a1.957,1.957,0,0,1-.588,1.48,2.167,2.167,0,0,1-1.565.564,2.193,2.193,0,0,1-1.579-.567,1.982,1.982,0,0,1-.595-1.5ZM59.35-1.9a.922.922,0,0,0,.246.646.8.8,0,0,0,.615.268q.834,0,.834-.928v-.523a.938.938,0,0,0-.232-.663A.8.8,0,0,0,60.2-3.35a.8.8,0,0,0-.615.251.968.968,0,0,0-.232.684ZM55.836-.745l-.964-.52,4.86-7.779.964.52ZM67.129-3.89a9.955,9.955,0,0,1-.444,2.974,8.072,8.072,0,0,1-1.278,2.522,4.606,4.606,0,0,1-1.784,1.5l-.383-1.046A4.807,4.807,0,0,0,64.771-.191,10.446,10.446,0,0,0,65.352-3.7v-.362a10.682,10.682,0,0,0-.557-3.6A5.011,5.011,0,0,0,63.239-10l.383-1.046a4.607,4.607,0,0,1,1.753,1.463,7.968,7.968,0,0,1,1.278,2.468A9.884,9.884,0,0,1,67.129-4.2Z" transform="translate(729.54 1009.208)" fill="#12263f"/>
    <path id="Trazado_151841" data-name="Trazado 151841" d="M7.5,0H.677V-1.354L3.9-4.785A7.943,7.943,0,0,0,4.877-6.05,2.032,2.032,0,0,0,5.2-7.075,1.52,1.52,0,0,0,4.86-8.118,1.209,1.209,0,0,0,3.9-8.5a1.3,1.3,0,0,0-1.056.461,1.828,1.828,0,0,0-.386,1.213H.479A3.263,3.263,0,0,1,.913-8.483,3.059,3.059,0,0,1,2.14-9.663a3.73,3.73,0,0,1,1.8-.427,3.531,3.531,0,0,1,2.389.738,2.612,2.612,0,0,1,.851,2.085,3.347,3.347,0,0,1-.383,1.5A8.357,8.357,0,0,1,5.482-3.979L3.22-1.593H7.5ZM8.894-.971a1,1,0,0,1,.318-.766,1.128,1.128,0,0,1,.8-.294,1.137,1.137,0,0,1,.8.294,1,1,0,0,1,.318.766.981.981,0,0,1-.314.755,1.142,1.142,0,0,1-.807.291,1.133,1.133,0,0,1-.8-.291A.981.981,0,0,1,8.894-.971Zm8.5-3.008a2.5,2.5,0,0,1-1.8.759,2.668,2.668,0,0,1-2.112-.906,3.579,3.579,0,0,1-.793-2.444,3.813,3.813,0,0,1,.427-1.794,3.134,3.134,0,0,1,1.193-1.271,3.31,3.31,0,0,1,1.723-.455,3.165,3.165,0,0,1,1.75.492A3.236,3.236,0,0,1,18.97-8.183,5.081,5.081,0,0,1,19.4-6.07v.731a5.757,5.757,0,0,1-1.237,3.91A4.678,4.678,0,0,1,14.656.089L14.171.1V-1.552l.438-.007Q17.186-1.675,17.4-3.979ZM16.078-4.73a1.382,1.382,0,0,0,.824-.246,1.644,1.644,0,0,0,.523-.595v-.813a2.716,2.716,0,0,0-.383-1.559A1.188,1.188,0,0,0,16.017-8.5a1.153,1.153,0,0,0-.978.543,2.311,2.311,0,0,0-.383,1.364,2.249,2.249,0,0,0,.373,1.336A1.214,1.214,0,0,0,16.078-4.73Zm10.575.984h1.128v1.593H26.653V0H24.678V-2.153H20.6L20.508-3.4l4.149-6.556h2Zm-4.177,0h2.2V-7.26l-.13.226Zm10.985-.232a2.5,2.5,0,0,1-1.8.759,2.668,2.668,0,0,1-2.112-.906,3.579,3.579,0,0,1-.793-2.444,3.813,3.813,0,0,1,.427-1.794,3.134,3.134,0,0,1,1.193-1.271,3.31,3.31,0,0,1,1.723-.455,3.165,3.165,0,0,1,1.75.492,3.236,3.236,0,0,1,1.189,1.415,5.081,5.081,0,0,1,.431,2.112v.731a5.757,5.757,0,0,1-1.237,3.91A4.678,4.678,0,0,1,30.721.089L30.235.1V-1.552l.438-.007Q33.25-1.675,33.462-3.979ZM32.143-4.73a1.382,1.382,0,0,0,.824-.246,1.644,1.644,0,0,0,.523-.595v-.813a2.717,2.717,0,0,0-.383-1.559A1.188,1.188,0,0,0,32.081-8.5a1.153,1.153,0,0,0-.978.543,2.311,2.311,0,0,0-.383,1.364,2.249,2.249,0,0,0,.373,1.336A1.214,1.214,0,0,0,32.143-4.73Zm8.388.684a10.491,10.491,0,0,1,.417-2.98,7.865,7.865,0,0,1,1.23-2.505,4.594,4.594,0,0,1,1.764-1.514l.383,1.066A4.758,4.758,0,0,0,42.766-7.7a10.572,10.572,0,0,0-.561,3.609v.212a10.774,10.774,0,0,0,.554,3.623,4.851,4.851,0,0,0,1.565,2.317L43.941,3.11a4.6,4.6,0,0,1-1.733-1.473A7.734,7.734,0,0,1,40.981-.8a10.429,10.429,0,0,1-.451-2.885Zm10.589.3h1.128v1.593H51.119V0H49.144V-2.153H45.063L44.974-3.4l4.149-6.556h2Zm-4.177,0h2.2V-7.26l-.13.226Zm6.337-4.293a1.968,1.968,0,0,1,.595-1.487,2.157,2.157,0,0,1,1.559-.571A2.191,2.191,0,0,1,57-9.533,2.005,2.005,0,0,1,57.6-8v.492A1.943,1.943,0,0,1,57-6.029a2.18,2.18,0,0,1-1.559.561,2.194,2.194,0,0,1-1.569-.564,1.991,1.991,0,0,1-.6-1.521Zm1.313.535a.929.929,0,0,0,.236.663.81.81,0,0,0,.619.251.772.772,0,0,0,.608-.254.989.989,0,0,0,.226-.681v-.509a.968.968,0,0,0-.226-.667.788.788,0,0,0-.622-.254.791.791,0,0,0-.608.251.988.988,0,0,0-.232.7ZM58.037-2.44a1.943,1.943,0,0,1,.6-1.487A2.187,2.187,0,0,1,60.2-4.491a2.209,2.209,0,0,1,1.569.557,1.994,1.994,0,0,1,.6,1.535v.492a1.957,1.957,0,0,1-.588,1.48,2.167,2.167,0,0,1-1.565.564,2.193,2.193,0,0,1-1.579-.567,1.982,1.982,0,0,1-.595-1.5ZM59.35-1.9a.922.922,0,0,0,.246.646.8.8,0,0,0,.615.268q.834,0,.834-.928v-.523a.938.938,0,0,0-.232-.663A.8.8,0,0,0,60.2-3.35a.8.8,0,0,0-.615.251.968.968,0,0,0-.232.684ZM55.836-.745l-.964-.52,4.86-7.779.964.52ZM67.129-3.89a9.955,9.955,0,0,1-.444,2.974,8.072,8.072,0,0,1-1.278,2.522,4.606,4.606,0,0,1-1.784,1.5l-.383-1.046A4.807,4.807,0,0,0,64.771-.191,10.446,10.446,0,0,0,65.352-3.7v-.362a10.682,10.682,0,0,0-.557-3.6A5.011,5.011,0,0,0,63.239-10l.383-1.046a4.607,4.607,0,0,1,1.753,1.463,7.968,7.968,0,0,1,1.278,2.468A9.884,9.884,0,0,1,67.129-4.2Z" transform="translate(680.103 964.826)" fill="#12263f"/>
    <path id="Trazado_151842" data-name="Trazado 151842" d="M6.036-10.056v1.627H5.845a3.356,3.356,0,0,0-2.157.7,2.833,2.833,0,0,0-.981,1.88,2.691,2.691,0,0,1,2-.807,2.535,2.535,0,0,1,2.064.93A3.727,3.727,0,0,1,7.54-3.281a3.666,3.666,0,0,1-.42,1.757A3.015,3.015,0,0,1,5.93-.3,3.456,3.456,0,0,1,4.19.137,3.227,3.227,0,0,1,1.651-.957,4.246,4.246,0,0,1,.684-3.876v-.711A6.389,6.389,0,0,1,1.3-7.448,4.486,4.486,0,0,1,3.052-9.369a5.148,5.148,0,0,1,2.656-.687ZM4.108-5.065a1.578,1.578,0,0,0-.868.249,1.5,1.5,0,0,0-.574.658v.6a2.66,2.66,0,0,0,.39,1.545,1.259,1.259,0,0,0,1.094.556,1.245,1.245,0,0,0,1.029-.5,2.045,2.045,0,0,0,.393-1.3,2.041,2.041,0,0,0-.4-1.31A1.292,1.292,0,0,0,4.108-5.065ZM14.554-3.746h1.128v1.593H14.554V0H12.578V-2.153H8.5L8.408-3.4l4.149-6.556h2Zm-4.177,0h2.2V-7.26l-.13.226Zm8.374-2.105H19.8a1.483,1.483,0,0,0,1.114-.376,1.378,1.378,0,0,0,.362-1,1.218,1.218,0,0,0-.359-.937,1.391,1.391,0,0,0-.988-.335,1.458,1.458,0,0,0-.95.311,1,1,0,0,0-.383.81H16.625a2.43,2.43,0,0,1,.42-1.4,2.8,2.8,0,0,1,1.176-.967,3.924,3.924,0,0,1,1.665-.349,3.722,3.722,0,0,1,2.475.755,2.577,2.577,0,0,1,.9,2.082A2.094,2.094,0,0,1,22.839-6a2.709,2.709,0,0,1-1.094.882,2.473,2.473,0,0,1,1.254.9,2.448,2.448,0,0,1,.414,1.422,2.62,2.62,0,0,1-.967,2.126,3.889,3.889,0,0,1-2.56.8,3.688,3.688,0,0,1-2.437-.786A2.567,2.567,0,0,1,16.5-2.728h1.976a1.145,1.145,0,0,0,.42.916,1.549,1.549,0,0,0,1.036.355,1.556,1.556,0,0,0,1.1-.373,1.286,1.286,0,0,0,.4-.988q0-1.49-1.641-1.49H18.751Zm9.68,1.8a10.491,10.491,0,0,1,.417-2.98,7.865,7.865,0,0,1,1.23-2.505,4.6,4.6,0,0,1,1.764-1.514l.383,1.066A4.758,4.758,0,0,0,30.666-7.7a10.572,10.572,0,0,0-.561,3.609v.212a10.774,10.774,0,0,0,.554,3.623,4.851,4.851,0,0,0,1.565,2.317L31.842,3.11a4.6,4.6,0,0,1-1.733-1.473A7.734,7.734,0,0,1,28.882-.8a10.428,10.428,0,0,1-.451-2.885ZM37.974,0H36V-7.626L33.64-6.9V-8.49l4.122-1.477h.212ZM41.18-8.039a1.968,1.968,0,0,1,.595-1.487,2.157,2.157,0,0,1,1.559-.571,2.191,2.191,0,0,1,1.572.564A2.005,2.005,0,0,1,45.5-8v.492a1.943,1.943,0,0,1-.595,1.483,2.18,2.18,0,0,1-1.559.561,2.194,2.194,0,0,1-1.569-.564,1.991,1.991,0,0,1-.6-1.521Zm1.313.535a.929.929,0,0,0,.236.663.81.81,0,0,0,.619.251.772.772,0,0,0,.608-.254.989.989,0,0,0,.226-.681v-.509a.968.968,0,0,0-.226-.667.788.788,0,0,0-.622-.254.791.791,0,0,0-.608.251.988.988,0,0,0-.232.7ZM45.938-2.44a1.943,1.943,0,0,1,.6-1.487A2.187,2.187,0,0,1,48.1-4.491a2.209,2.209,0,0,1,1.569.557,1.994,1.994,0,0,1,.6,1.535v.492a1.957,1.957,0,0,1-.588,1.48,2.167,2.167,0,0,1-1.565.564,2.193,2.193,0,0,1-1.579-.567,1.982,1.982,0,0,1-.595-1.5ZM47.25-1.9a.922.922,0,0,0,.246.646.8.8,0,0,0,.615.268q.834,0,.834-.928v-.523a.938.938,0,0,0-.232-.663A.8.8,0,0,0,48.1-3.35a.8.8,0,0,0-.615.251.968.968,0,0,0-.232.684ZM43.736-.745l-.964-.52,4.86-7.779.964.52ZM55.029-3.89a9.955,9.955,0,0,1-.444,2.974,8.072,8.072,0,0,1-1.278,2.522,4.606,4.606,0,0,1-1.784,1.5L51.14,2.064A4.807,4.807,0,0,0,52.671-.191,10.446,10.446,0,0,0,53.252-3.7v-.362a10.682,10.682,0,0,0-.557-3.6A5.011,5.011,0,0,0,51.14-10l.383-1.046a4.607,4.607,0,0,1,1.753,1.463,7.968,7.968,0,0,1,1.278,2.468A9.884,9.884,0,0,1,55.029-4.2Z" transform="translate(643.586 940.669)" fill="#12263f"/>
    <path id="Trazado_151843" data-name="Trazado 151843" d="M2.687-5.852H3.739a1.483,1.483,0,0,0,1.114-.376,1.378,1.378,0,0,0,.362-1,1.218,1.218,0,0,0-.359-.937A1.391,1.391,0,0,0,3.869-8.5a1.458,1.458,0,0,0-.95.311,1,1,0,0,0-.383.81H.561a2.43,2.43,0,0,1,.42-1.4,2.8,2.8,0,0,1,1.176-.967,3.924,3.924,0,0,1,1.665-.349A3.722,3.722,0,0,1,6.3-9.334a2.577,2.577,0,0,1,.9,2.082A2.094,2.094,0,0,1,6.774-6a2.709,2.709,0,0,1-1.094.882,2.473,2.473,0,0,1,1.254.9,2.448,2.448,0,0,1,.414,1.422A2.62,2.62,0,0,1,6.381-.663a3.889,3.889,0,0,1-2.56.8A3.688,3.688,0,0,1,1.384-.649,2.567,2.567,0,0,1,.438-2.728H2.413a1.145,1.145,0,0,0,.42.916,1.549,1.549,0,0,0,1.036.355,1.556,1.556,0,0,0,1.1-.373,1.286,1.286,0,0,0,.4-.988q0-1.49-1.641-1.49H2.687ZM13.508,0H11.532V-7.626L9.174-6.9V-8.49L13.3-9.967h.212Zm5.243-5.852H19.8a1.483,1.483,0,0,0,1.114-.376,1.378,1.378,0,0,0,.362-1,1.218,1.218,0,0,0-.359-.937,1.391,1.391,0,0,0-.988-.335,1.458,1.458,0,0,0-.95.311,1,1,0,0,0-.383.81H16.625a2.43,2.43,0,0,1,.42-1.4,2.8,2.8,0,0,1,1.176-.967,3.924,3.924,0,0,1,1.665-.349,3.722,3.722,0,0,1,2.475.755,2.577,2.577,0,0,1,.9,2.082A2.094,2.094,0,0,1,22.839-6a2.709,2.709,0,0,1-1.094.882,2.473,2.473,0,0,1,1.254.9,2.448,2.448,0,0,1,.414,1.422,2.62,2.62,0,0,1-.967,2.126,3.889,3.889,0,0,1-2.56.8,3.688,3.688,0,0,1-2.437-.786A2.567,2.567,0,0,1,16.5-2.728h1.976a1.145,1.145,0,0,0,.42.916,1.549,1.549,0,0,0,1.036.355,1.556,1.556,0,0,0,1.1-.373,1.286,1.286,0,0,0,.4-.988q0-1.49-1.641-1.49H18.751Zm9.68,1.8a10.491,10.491,0,0,1,.417-2.98,7.865,7.865,0,0,1,1.23-2.505,4.6,4.6,0,0,1,1.764-1.514l.383,1.066A4.758,4.758,0,0,0,30.666-7.7a10.572,10.572,0,0,0-.561,3.609v.212a10.774,10.774,0,0,0,.554,3.623,4.851,4.851,0,0,0,1.565,2.317L31.842,3.11a4.6,4.6,0,0,1-1.733-1.473A7.734,7.734,0,0,1,28.882-.8a10.428,10.428,0,0,1-.451-2.885Zm11.443-.068A5.042,5.042,0,0,1,39.02-.957a2.983,2.983,0,0,1-2.5,1.094A3,3,0,0,1,34.029-.937a4.895,4.895,0,0,1-.882-3.076V-5.845a4.976,4.976,0,0,1,.865-3.165A3,3,0,0,1,36.5-10.09a3.008,3.008,0,0,1,2.488,1.07,4.879,4.879,0,0,1,.882,3.073ZM37.9-6.129a3.645,3.645,0,0,0-.338-1.8A1.144,1.144,0,0,0,36.5-8.5a1.123,1.123,0,0,0-1.029.537,3.411,3.411,0,0,0-.352,1.68v2.422a3.826,3.826,0,0,0,.332,1.81,1.128,1.128,0,0,0,1.063.592,1.109,1.109,0,0,0,1.046-.568A3.734,3.734,0,0,0,37.9-3.762Zm3.281-1.91a1.968,1.968,0,0,1,.595-1.487,2.157,2.157,0,0,1,1.559-.571,2.191,2.191,0,0,1,1.572.564A2.005,2.005,0,0,1,45.5-8v.492a1.943,1.943,0,0,1-.595,1.483,2.18,2.18,0,0,1-1.559.561,2.194,2.194,0,0,1-1.569-.564,1.991,1.991,0,0,1-.6-1.521Zm1.313.535a.929.929,0,0,0,.236.663.81.81,0,0,0,.619.251.772.772,0,0,0,.608-.254.989.989,0,0,0,.226-.681v-.509a.968.968,0,0,0-.226-.667.788.788,0,0,0-.622-.254.791.791,0,0,0-.608.251.988.988,0,0,0-.232.7ZM45.938-2.44a1.943,1.943,0,0,1,.6-1.487A2.187,2.187,0,0,1,48.1-4.491a2.209,2.209,0,0,1,1.569.557,1.994,1.994,0,0,1,.6,1.535v.492a1.957,1.957,0,0,1-.588,1.48,2.167,2.167,0,0,1-1.565.564,2.193,2.193,0,0,1-1.579-.567,1.982,1.982,0,0,1-.595-1.5ZM47.25-1.9a.922.922,0,0,0,.246.646.8.8,0,0,0,.615.268q.834,0,.834-.928v-.523a.938.938,0,0,0-.232-.663A.8.8,0,0,0,48.1-3.35a.8.8,0,0,0-.615.251.968.968,0,0,0-.232.684ZM43.736-.745l-.964-.52,4.86-7.779.964.52ZM55.029-3.89a9.955,9.955,0,0,1-.444,2.974,8.072,8.072,0,0,1-1.278,2.522,4.606,4.606,0,0,1-1.784,1.5L51.14,2.064A4.807,4.807,0,0,0,52.671-.191,10.446,10.446,0,0,0,53.252-3.7v-.362a10.682,10.682,0,0,0-.557-3.6A5.011,5.011,0,0,0,51.14-10l.383-1.046a4.607,4.607,0,0,1,1.753,1.463,7.968,7.968,0,0,1,1.278,2.468A9.884,9.884,0,0,1,55.029-4.2Z" transform="translate(568.699 936.175)" fill="#12263f"/>
    <path id="Trazado_151844" data-name="Trazado 151844" d="M6.521-3.746H7.649v1.593H6.521V0H4.546V-2.153H.465L.376-3.4,4.525-9.953h2Zm-4.177,0h2.2V-7.26l-.13.226Zm12.209,0h1.128v1.593H14.554V0H12.578V-2.153H8.5L8.408-3.4l4.149-6.556h2Zm-4.177,0h2.2V-7.26l-.13.226ZM16.926-.971a1,1,0,0,1,.318-.766,1.128,1.128,0,0,1,.8-.294,1.137,1.137,0,0,1,.8.294,1,1,0,0,1,.318.766.981.981,0,0,1-.314.755,1.142,1.142,0,0,1-.807.291,1.133,1.133,0,0,1-.8-.291A.981.981,0,0,1,16.926-.971Zm5.893-4.881h1.053a1.483,1.483,0,0,0,1.114-.376,1.378,1.378,0,0,0,.362-1,1.218,1.218,0,0,0-.359-.937A1.391,1.391,0,0,0,24-8.5a1.458,1.458,0,0,0-.95.311,1,1,0,0,0-.383.81H20.692a2.43,2.43,0,0,1,.42-1.4,2.8,2.8,0,0,1,1.176-.967,3.924,3.924,0,0,1,1.665-.349,3.722,3.722,0,0,1,2.475.755,2.577,2.577,0,0,1,.9,2.082A2.094,2.094,0,0,1,26.906-6a2.709,2.709,0,0,1-1.094.882,2.473,2.473,0,0,1,1.254.9,2.448,2.448,0,0,1,.414,1.422,2.62,2.62,0,0,1-.967,2.126,3.889,3.889,0,0,1-2.56.8,3.688,3.688,0,0,1-2.437-.786,2.567,2.567,0,0,1-.947-2.078h1.976a1.145,1.145,0,0,0,.42.916A1.549,1.549,0,0,0,24-1.456a1.556,1.556,0,0,0,1.1-.373,1.286,1.286,0,0,0,.4-.988q0-1.49-1.641-1.49H22.818Zm12.51-1.456a2.315,2.315,0,0,1-.362,1.285,2.608,2.608,0,0,1-1,.9,2.886,2.886,0,0,1,1.148.96,2.464,2.464,0,0,1,.424,1.439,2.609,2.609,0,0,1-.9,2.1,3.66,3.66,0,0,1-2.454.769,3.677,3.677,0,0,1-2.461-.772,2.6,2.6,0,0,1-.909-2.092,2.48,2.48,0,0,1,.424-1.442,2.834,2.834,0,0,1,1.142-.957,2.581,2.581,0,0,1-.995-.9,2.331,2.331,0,0,1-.359-1.285,2.58,2.58,0,0,1,.848-2.027,3.337,3.337,0,0,1,2.3-.755,3.36,3.36,0,0,1,2.3.749A2.57,2.57,0,0,1,35.328-7.308ZM33.558-2.871a1.433,1.433,0,0,0-.376-1.039A1.341,1.341,0,0,0,32.17-4.3a1.338,1.338,0,0,0-1,.386,1.431,1.431,0,0,0-.376,1.042,1.43,1.43,0,0,0,.369,1.025,1.345,1.345,0,0,0,1.025.39,1.341,1.341,0,0,0,1.008-.376A1.427,1.427,0,0,0,33.558-2.871Zm-.205-4.341a1.367,1.367,0,0,0-.308-.933,1.091,1.091,0,0,0-.868-.352,1.1,1.1,0,0,0-.861.342,1.359,1.359,0,0,0-.308.943,1.428,1.428,0,0,0,.308.957,1.076,1.076,0,0,0,.868.362,1.066,1.066,0,0,0,.865-.362A1.439,1.439,0,0,0,33.353-7.212ZM43.641-8.85,39.792,0H37.707l3.855-8.36H36.613V-9.953h7.027Zm4.922,4.8a10.491,10.491,0,0,1,.417-2.98,7.865,7.865,0,0,1,1.23-2.505,4.594,4.594,0,0,1,1.764-1.514l.383,1.066A4.758,4.758,0,0,0,50.8-7.7a10.572,10.572,0,0,0-.561,3.609v.212a10.774,10.774,0,0,0,.554,3.623,4.851,4.851,0,0,0,1.565,2.317L51.974,3.11a4.6,4.6,0,0,1-1.733-1.473A7.734,7.734,0,0,1,49.014-.8a10.429,10.429,0,0,1-.451-2.885Zm10.1-6.009v1.627h-.191a3.356,3.356,0,0,0-2.157.7,2.833,2.833,0,0,0-.981,1.88,2.691,2.691,0,0,1,2-.807,2.535,2.535,0,0,1,2.064.93,3.727,3.727,0,0,1,.766,2.447,3.666,3.666,0,0,1-.42,1.757A3.015,3.015,0,0,1,58.56-.3a3.456,3.456,0,0,1-1.74.438,3.227,3.227,0,0,1-2.54-1.094,4.246,4.246,0,0,1-.967-2.919v-.711a6.389,6.389,0,0,1,.612-2.861,4.486,4.486,0,0,1,1.757-1.921,5.148,5.148,0,0,1,2.656-.687Zm-1.928,4.99a1.578,1.578,0,0,0-.868.249,1.5,1.5,0,0,0-.574.658v.6a2.66,2.66,0,0,0,.39,1.545,1.259,1.259,0,0,0,1.094.556,1.245,1.245,0,0,0,1.029-.5,2.045,2.045,0,0,0,.393-1.3,2.041,2.041,0,0,0-.4-1.31A1.292,1.292,0,0,0,56.738-5.065Zm9.96-4.99v1.627h-.191a3.356,3.356,0,0,0-2.157.7,2.833,2.833,0,0,0-.981,1.88,2.691,2.691,0,0,1,2-.807,2.535,2.535,0,0,1,2.064.93A3.727,3.727,0,0,1,68.2-3.281a3.666,3.666,0,0,1-.42,1.757A3.015,3.015,0,0,1,66.592-.3a3.456,3.456,0,0,1-1.74.438,3.227,3.227,0,0,1-2.54-1.094,4.246,4.246,0,0,1-.967-2.919v-.711a6.389,6.389,0,0,1,.612-2.861,4.486,4.486,0,0,1,1.757-1.921,5.148,5.148,0,0,1,2.656-.687Zm-1.928,4.99a1.578,1.578,0,0,0-.868.249,1.5,1.5,0,0,0-.574.658v.6a2.66,2.66,0,0,0,.39,1.545,1.259,1.259,0,0,0,1.094.556,1.245,1.245,0,0,0,1.029-.5,2.045,2.045,0,0,0,.393-1.3,2.041,2.041,0,0,0-.4-1.31A1.292,1.292,0,0,0,64.771-5.065Zm4.573-2.974a1.968,1.968,0,0,1,.595-1.487A2.157,2.157,0,0,1,71.5-10.1a2.191,2.191,0,0,1,1.572.564A2.005,2.005,0,0,1,73.664-8v.492a1.943,1.943,0,0,1-.595,1.483,2.18,2.18,0,0,1-1.559.561,2.194,2.194,0,0,1-1.569-.564,1.991,1.991,0,0,1-.6-1.521Zm1.313.535a.929.929,0,0,0,.236.663.81.81,0,0,0,.619.251.772.772,0,0,0,.608-.254.989.989,0,0,0,.226-.681v-.509a.968.968,0,0,0-.226-.667.788.788,0,0,0-.622-.254.791.791,0,0,0-.608.251.988.988,0,0,0-.232.7ZM74.1-2.44a1.943,1.943,0,0,1,.6-1.487,2.187,2.187,0,0,1,1.559-.564,2.209,2.209,0,0,1,1.569.557,1.994,1.994,0,0,1,.6,1.535v.492a1.957,1.957,0,0,1-.588,1.48,2.167,2.167,0,0,1-1.565.564A2.193,2.193,0,0,1,74.7-.431a1.982,1.982,0,0,1-.595-1.5Zm1.313.542a.922.922,0,0,0,.246.646.8.8,0,0,0,.615.268q.834,0,.834-.928v-.523a.938.938,0,0,0-.232-.663.8.8,0,0,0-.615-.251.8.8,0,0,0-.615.251.968.968,0,0,0-.232.684ZM71.9-.745l-.964-.52L75.8-9.044l.964.52ZM83.193-3.89a9.955,9.955,0,0,1-.444,2.974,8.072,8.072,0,0,1-1.278,2.522,4.606,4.606,0,0,1-1.784,1.5L79.3,2.064A4.807,4.807,0,0,0,80.835-.191,10.446,10.446,0,0,0,81.416-3.7v-.362a10.682,10.682,0,0,0-.557-3.6A5.011,5.011,0,0,0,79.3-10l.383-1.046A4.607,4.607,0,0,1,81.44-9.584a7.968,7.968,0,0,1,1.278,2.468A9.884,9.884,0,0,1,83.193-4.2Z" transform="translate(560.699 1145.175)" fill="#12263f"/>
    <path id="Trazado_151845" data-name="Trazado 151845" d="M0,0H20V20H0Z" transform="translate(897 924.094)" fill="#3dbce9"/>
    <path id="Trazado_151846" data-name="Trazado 151846" d="M0,0H20V20H0Z" transform="translate(897 973.894)" fill="#f6783d"/>
    <path id="Trazado_151847" data-name="Trazado 151847" d="M0,0H20V20H0Z" transform="translate(897 1023.693)" fill="#a4a4a2"/>
    <path id="Trazado_151848" data-name="Trazado 151848" d="M0,0H20V20H0Z" transform="translate(897 1073.494)" fill="#feb63e"/>
    <path id="Trazado_151849" data-name="Trazado 151849" d="M0,0H20V20H0Z" transform="translate(897 1123.294)" fill="#1971b1"/>
    <path id="Trazado_151850" data-name="Trazado 151850" d="M0,0H20V20H0Z" transform="translate(897 1173.094)" fill="#39ab4c"/>
    <path id="Trazado_151851" data-name="Trazado 151851" d="M9.578,5.523H6.094V15H3.75V5.523H.313v-1.9H9.578Zm5.43,3.141A6.134,6.134,0,0,0,14.2,8.6a1.654,1.654,0,0,0-1.68.867V15H10.258V6.547h2.133l.063,1.008a2.092,2.092,0,0,1,1.883-1.164,2.366,2.366,0,0,1,.7.1ZM20.758,15a2.507,2.507,0,0,1-.227-.758,2.732,2.732,0,0,1-2.133.914,3,3,0,0,1-2.059-.719,2.312,2.312,0,0,1-.816-1.812,2.389,2.389,0,0,1,1-2.062A4.915,4.915,0,0,1,19.4,9.836h1.039V9.352a1.393,1.393,0,0,0-.3-.937,1.183,1.183,0,0,0-.949-.352,1.345,1.345,0,0,0-.895.273.929.929,0,0,0-.324.75H15.711a2.268,2.268,0,0,1,.453-1.359,3,3,0,0,1,1.281-.98A4.669,4.669,0,0,1,19.3,6.391a3.689,3.689,0,0,1,2.48.785A2.747,2.747,0,0,1,22.7,9.383v3.664a4.041,4.041,0,0,0,.336,1.82V15Zm-1.867-1.57a1.945,1.945,0,0,0,.922-.223,1.462,1.462,0,0,0,.625-.6V11.156h-.844q-1.7,0-1.8,1.172l-.008.133a.9.9,0,0,0,.3.7A1.153,1.153,0,0,0,18.891,13.43Zm10.609.711a2.831,2.831,0,0,1-2.312,1.016,2.67,2.67,0,0,1-2.074-.781,3.335,3.335,0,0,1-.73-2.289V6.547h2.258v5.467q0,1.322,1.2,1.322a1.63,1.63,0,0,0,1.578-.8V6.547h2.266V15H29.563Zm6.008-7.594.07.945a2.971,2.971,0,0,1,2.43-1.1A2.255,2.255,0,0,1,40.25,7.68a2.9,2.9,0,0,1,2.539-1.289,2.521,2.521,0,0,1,2.047.8,3.681,3.681,0,0,1,.672,2.41V15H43.242V9.6a1.616,1.616,0,0,0-.281-1.053,1.245,1.245,0,0,0-.992-.333,1.409,1.409,0,0,0-1.406.971L40.57,15H38.313V9.6a1.6,1.6,0,0,0-.289-1.065,1.257,1.257,0,0,0-.984-.329,1.463,1.463,0,0,0-1.391.8V15H33.391V6.547ZM52.141,15a2.507,2.507,0,0,1-.227-.758,2.732,2.732,0,0,1-2.133.914,3,3,0,0,1-2.059-.719,2.312,2.312,0,0,1-.816-1.812,2.389,2.389,0,0,1,1-2.062,4.915,4.915,0,0,1,2.879-.727H51.82V9.352a1.393,1.393,0,0,0-.3-.937,1.183,1.183,0,0,0-.949-.352,1.345,1.345,0,0,0-.895.273.929.929,0,0,0-.324.75H47.094a2.268,2.268,0,0,1,.453-1.359,3,3,0,0,1,1.281-.98,4.669,4.669,0,0,1,1.859-.355,3.689,3.689,0,0,1,2.48.785,2.747,2.747,0,0,1,.918,2.207v3.664a4.041,4.041,0,0,0,.336,1.82V15Zm-1.867-1.57a1.945,1.945,0,0,0,.922-.223,1.462,1.462,0,0,0,.625-.6V11.156h-.844q-1.7,0-1.8,1.172l-.008.133a.9.9,0,0,0,.3.7A1.153,1.153,0,0,0,50.273,13.43Zm17.141-2.578a5.07,5.07,0,0,1-.887,3.129,2.843,2.843,0,0,1-2.395,1.176,2.633,2.633,0,0,1-2.07-.891V18.25H59.8V6.547H61.9l.078.828a2.654,2.654,0,0,1,2.141-.984,2.862,2.862,0,0,1,2.43,1.156,5.207,5.207,0,0,1,.867,3.188Zm-2.258-.172a3.345,3.345,0,0,0-.418-1.826,1.36,1.36,0,0,0-1.215-.643,1.478,1.478,0,0,0-1.461.815V12.5a1.5,1.5,0,0,0,1.477.839Q65.156,13.336,65.156,10.679Zm3.3.016a5.013,5.013,0,0,1,.484-2.242A3.546,3.546,0,0,1,70.34,6.93a4.069,4.069,0,0,1,2.113-.539,3.849,3.849,0,0,1,2.793,1.047,4.2,4.2,0,0,1,1.207,2.844l.016.578a4.418,4.418,0,0,1-1.086,3.121,4.209,4.209,0,0,1-5.832,0,4.5,4.5,0,0,1-1.09-3.187Zm2.258.16a3.16,3.16,0,0,0,.453,1.843,1.628,1.628,0,0,0,2.578.008,3.457,3.457,0,0,0,.461-2.015A3.128,3.128,0,0,0,73.75,8.86a1.5,1.5,0,0,0-1.3-.649,1.474,1.474,0,0,0-1.281.646A3.516,3.516,0,0,0,70.719,10.856ZM82.609,8.664A6.134,6.134,0,0,0,81.8,8.6a1.654,1.654,0,0,0-1.68.867V15H77.859V6.547h2.133l.063,1.008a2.092,2.092,0,0,1,1.883-1.164,2.366,2.366,0,0,1,.7.1Zm8.234,3.578,1.57-5.7h2.359L91.922,15H89.766L86.914,6.547h2.359ZM98.148,15H95.883V6.547h2.266ZM95.75,4.359a1.112,1.112,0,0,1,.34-.836,1.465,1.465,0,0,1,1.848,0,1.105,1.105,0,0,1,.344.836,1.108,1.108,0,0,1-.348.844,1.448,1.448,0,0,1-1.836,0A1.108,1.108,0,0,1,95.75,4.359ZM99.656,10.7a5.013,5.013,0,0,1,.484-2.242,3.546,3.546,0,0,1,1.395-1.523,4.069,4.069,0,0,1,2.113-.539,3.849,3.849,0,0,1,2.793,1.047,4.2,4.2,0,0,1,1.207,2.844l.016.578a4.418,4.418,0,0,1-1.086,3.121,4.209,4.209,0,0,1-5.832,0,4.5,4.5,0,0,1-1.09-3.187Zm2.258.16a3.16,3.16,0,0,0,.453,1.843,1.628,1.628,0,0,0,2.578.008,3.457,3.457,0,0,0,.461-2.015,3.128,3.128,0,0,0-.461-1.831,1.5,1.5,0,0,0-1.3-.649,1.474,1.474,0,0,0-1.281.646A3.516,3.516,0,0,0,101.914,10.856ZM111.438,15h-2.266V3h2.266Zm5.75.156a4.15,4.15,0,0,1-3.027-1.141,4.054,4.054,0,0,1-1.168-3.039v-.219a5.106,5.106,0,0,1,.492-2.277,3.612,3.612,0,0,1,1.395-1.547,3.914,3.914,0,0,1,2.059-.543,3.508,3.508,0,0,1,2.73,1.094,4.444,4.444,0,0,1,1,3.1v.922h-5.383a2.1,2.1,0,0,0,.66,1.328,2,2,0,0,0,1.395.5,2.437,2.437,0,0,0,2.039-.945l1.109,1.242a3.389,3.389,0,0,1-1.375,1.121A4.511,4.511,0,0,1,117.188,15.156Zm-.258-6.945a1.411,1.411,0,0,0-1.09.455,2.357,2.357,0,0,0-.535,1.3h3.141V9.788a1.681,1.681,0,0,0-.406-1.165A1.456,1.456,0,0,0,116.93,8.211Zm7.094-1.664.07.977a2.951,2.951,0,0,1,2.43-1.133,2.453,2.453,0,0,1,2,.789,3.682,3.682,0,0,1,.672,2.359V15h-2.258V9.581a1.47,1.47,0,0,0-.312-1.045,1.4,1.4,0,0,0-1.039-.325,1.553,1.553,0,0,0-1.43.814V15H121.9V6.547Zm10.4,6.789a1.481,1.481,0,0,0,1.016-.344,1.2,1.2,0,0,0,.406-.914h2.117a2.9,2.9,0,0,1-.469,1.574,3.093,3.093,0,0,1-1.262,1.109,3.949,3.949,0,0,1-1.77.395A3.67,3.67,0,0,1,131.6,14a4.56,4.56,0,0,1-1.047-3.184v-.148a4.508,4.508,0,0,1,1.039-3.117,3.627,3.627,0,0,1,2.852-1.164,3.555,3.555,0,0,1,2.543.9,3.2,3.2,0,0,1,.973,2.4h-2.117a1.551,1.551,0,0,0-.406-1.072,1.51,1.51,0,0,0-2.223.163,3.333,3.333,0,0,0-.4,1.866v.235a3.375,3.375,0,0,0,.4,1.878A1.377,1.377,0,0,0,134.422,13.336ZM141.633,15h-2.266V6.547h2.266Zm-2.4-10.641a1.112,1.112,0,0,1,.34-.836,1.465,1.465,0,0,1,1.848,0,1.105,1.105,0,0,1,.344.836,1.109,1.109,0,0,1-.348.844,1.448,1.448,0,0,1-1.836,0A1.109,1.109,0,0,1,139.234,4.359ZM148.391,15a2.507,2.507,0,0,1-.227-.758,2.732,2.732,0,0,1-2.133.914,3,3,0,0,1-2.059-.719,2.312,2.312,0,0,1-.816-1.812,2.389,2.389,0,0,1,1-2.062,4.915,4.915,0,0,1,2.879-.727h1.039V9.352a1.393,1.393,0,0,0-.3-.937,1.183,1.183,0,0,0-.949-.352,1.345,1.345,0,0,0-.895.273.929.929,0,0,0-.324.75h-2.258a2.268,2.268,0,0,1,.453-1.359,3,3,0,0,1,1.281-.98,4.669,4.669,0,0,1,1.859-.355,3.689,3.689,0,0,1,2.48.785,2.747,2.747,0,0,1,.918,2.207v3.664a4.041,4.041,0,0,0,.336,1.82V15Zm-1.867-1.57a1.945,1.945,0,0,0,.922-.223,1.462,1.462,0,0,0,.625-.6V11.156h-.844q-1.7,0-1.8,1.172l-.008.133a.9.9,0,0,0,.3.7A1.153,1.153,0,0,0,146.523,13.43ZM7.438,62.656H3.328L2.547,65H.055L4.289,53.625H6.461L10.719,65H8.227Zm-3.477-1.9H6.8L5.375,56.5Zm11.188,2.578a1.481,1.481,0,0,0,1.016-.344,1.2,1.2,0,0,0,.406-.914h2.117a2.9,2.9,0,0,1-.469,1.574,3.093,3.093,0,0,1-1.262,1.109,3.949,3.949,0,0,1-1.77.395A3.67,3.67,0,0,1,12.328,64a4.56,4.56,0,0,1-1.047-3.184v-.148a4.508,4.508,0,0,1,1.039-3.117,3.627,3.627,0,0,1,2.852-1.164,3.555,3.555,0,0,1,2.543.9,3.2,3.2,0,0,1,.973,2.4H16.57a1.551,1.551,0,0,0-.406-1.072,1.51,1.51,0,0,0-2.223.163,3.333,3.333,0,0,0-.4,1.866v.235a3.375,3.375,0,0,0,.4,1.878A1.377,1.377,0,0,0,15.148,63.336Zm8.344,0a1.481,1.481,0,0,0,1.016-.344,1.2,1.2,0,0,0,.406-.914h2.117a2.9,2.9,0,0,1-.469,1.574A3.093,3.093,0,0,1,25.3,64.762a3.949,3.949,0,0,1-1.77.395A3.67,3.67,0,0,1,20.672,64a4.56,4.56,0,0,1-1.047-3.184v-.148a4.508,4.508,0,0,1,1.039-3.117,3.627,3.627,0,0,1,2.852-1.164,3.555,3.555,0,0,1,2.543.9,3.2,3.2,0,0,1,.973,2.4H24.914a1.551,1.551,0,0,0-.406-1.072,1.51,1.51,0,0,0-2.223.163,3.333,3.333,0,0,0-.4,1.866v.235a3.375,3.375,0,0,0,.4,1.878A1.377,1.377,0,0,0,23.492,63.336ZM30.7,65H28.438V56.547H30.7ZM28.3,54.359a1.112,1.112,0,0,1,.34-.836,1.465,1.465,0,0,1,1.848,0,1.193,1.193,0,0,1,0,1.68,1.448,1.448,0,0,1-1.836,0A1.108,1.108,0,0,1,28.3,54.359Zm3.906,6.352a5.094,5.094,0,0,1,.887-3.148,2.877,2.877,0,0,1,2.426-1.172,2.589,2.589,0,0,1,2.039.922V53h2.266V65H37.789l-.109-.9a2.657,2.657,0,0,1-2.172,1.055,2.869,2.869,0,0,1-2.395-1.176A5.258,5.258,0,0,1,32.211,60.711Zm2.258.161a3.355,3.355,0,0,0,.414,1.829,1.348,1.348,0,0,0,1.2.636,1.51,1.51,0,0,0,1.477-.887V59.1a1.489,1.489,0,0,0-1.461-.887Q34.469,58.211,34.469,60.872Zm11,4.285a4.15,4.15,0,0,1-3.027-1.141,4.054,4.054,0,0,1-1.168-3.039v-.219a5.106,5.106,0,0,1,.492-2.277,3.612,3.612,0,0,1,1.395-1.547,3.914,3.914,0,0,1,2.059-.543,3.508,3.508,0,0,1,2.73,1.094,4.444,4.444,0,0,1,1,3.1v.922H43.563a2.1,2.1,0,0,0,.66,1.328,2,2,0,0,0,1.395.5,2.437,2.437,0,0,0,2.039-.945l1.109,1.242a3.389,3.389,0,0,1-1.375,1.121A4.511,4.511,0,0,1,45.469,65.156Zm-.258-6.945a1.411,1.411,0,0,0-1.09.455,2.357,2.357,0,0,0-.535,1.3h3.141v-.181a1.681,1.681,0,0,0-.406-1.165A1.456,1.456,0,0,0,45.211,58.211ZM52.3,56.547l.07.977a2.951,2.951,0,0,1,2.43-1.133,2.453,2.453,0,0,1,2,.789,3.682,3.682,0,0,1,.672,2.359V65H55.219V59.581a1.47,1.47,0,0,0-.312-1.045,1.4,1.4,0,0,0-1.039-.325,1.553,1.553,0,0,0-1.43.814V65H50.18V56.547Zm9.586-2.078v2.078h1.445V58.2H61.891v4.219a1.007,1.007,0,0,0,.18.672.9.9,0,0,0,.688.2,3.6,3.6,0,0,0,.664-.055v1.711a4.648,4.648,0,0,1-1.367.2,2.156,2.156,0,0,1-2.422-2.4V58.2H58.4V56.547h1.234V54.469Zm6.594,10.688a4.15,4.15,0,0,1-3.027-1.141,4.054,4.054,0,0,1-1.168-3.039v-.219a5.106,5.106,0,0,1,.492-2.277,3.612,3.612,0,0,1,1.395-1.547,3.914,3.914,0,0,1,2.059-.543,3.508,3.508,0,0,1,2.73,1.094,4.444,4.444,0,0,1,1,3.1v.922H66.578a2.1,2.1,0,0,0,.66,1.328,2,2,0,0,0,1.395.5,2.437,2.437,0,0,0,2.039-.945l1.109,1.242a3.389,3.389,0,0,1-1.375,1.121A4.511,4.511,0,0,1,68.484,65.156Zm-.258-6.945a1.411,1.411,0,0,0-1.09.455,2.357,2.357,0,0,0-.535,1.3h3.141v-.181a1.681,1.681,0,0,0-.406-1.165A1.456,1.456,0,0,0,68.227,58.211Zm9.594,4.453a.727.727,0,0,0-.41-.652,4.659,4.659,0,0,0-1.316-.426q-3.016-.633-3.016-2.562a2.323,2.323,0,0,1,.934-1.879,3.766,3.766,0,0,1,2.441-.754,4.053,4.053,0,0,1,2.574.758,2.388,2.388,0,0,1,.965,1.969H77.734a1.092,1.092,0,0,0-.312-.8A1.322,1.322,0,0,0,76.445,58a1.351,1.351,0,0,0-.883.258.814.814,0,0,0-.312.656.7.7,0,0,0,.355.605,3.657,3.657,0,0,0,1.2.4,9.8,9.8,0,0,1,1.422.379,2.336,2.336,0,0,1,1.789,2.273,2.2,2.2,0,0,1-.992,1.871,4.28,4.28,0,0,1-2.562.715,4.47,4.47,0,0,1-1.887-.379,3.166,3.166,0,0,1-1.293-1.039,2.414,2.414,0,0,1-.469-1.426h2.141a1.179,1.179,0,0,0,.445.922,1.766,1.766,0,0,0,1.109.32,1.635,1.635,0,0,0,.98-.246A.766.766,0,0,0,77.82,62.664ZM87.836,65H85.57V53h2.266Zm6.758,0a2.507,2.507,0,0,1-.227-.758,2.732,2.732,0,0,1-2.133.914,3,3,0,0,1-2.059-.719,2.312,2.312,0,0,1-.816-1.812,2.389,2.389,0,0,1,1-2.062,4.915,4.915,0,0,1,2.879-.727h1.039v-.484a1.393,1.393,0,0,0-.3-.937,1.183,1.183,0,0,0-.949-.352,1.345,1.345,0,0,0-.895.273.929.929,0,0,0-.324.75H89.547A2.268,2.268,0,0,1,90,57.727a3,3,0,0,1,1.281-.98,4.669,4.669,0,0,1,1.859-.355,3.689,3.689,0,0,1,2.48.785,2.747,2.747,0,0,1,.918,2.207v3.664a4.041,4.041,0,0,0,.336,1.82V65Zm-1.867-1.57a1.945,1.945,0,0,0,.922-.223,1.462,1.462,0,0,0,.625-.6V61.156H93.43q-1.7,0-1.8,1.172l-.008.133a.9.9,0,0,0,.3.7A1.153,1.153,0,0,0,92.727,63.43Zm13.164-2.578a5.119,5.119,0,0,1-.867,3.168,2.872,2.872,0,0,1-2.422,1.137,2.639,2.639,0,0,1-2.2-1.055l-.1.9H98.273V53h2.258v4.3a2.571,2.571,0,0,1,2.055-.914,2.9,2.9,0,0,1,2.426,1.137,5.126,5.126,0,0,1,.879,3.2Zm-2.258-.172a3.381,3.381,0,0,0-.406-1.877,1.372,1.372,0,0,0-1.211-.592,1.489,1.489,0,0,0-1.484.885v3.346a1.509,1.509,0,0,0,1.5.893,1.4,1.4,0,0,0,1.438-1.081A5.6,5.6,0,0,0,103.633,60.679Zm3.3.016a5.013,5.013,0,0,1,.484-2.242,3.546,3.546,0,0,1,1.395-1.523,4.069,4.069,0,0,1,2.113-.539,3.849,3.849,0,0,1,2.793,1.047,4.2,4.2,0,0,1,1.207,2.844l.016.578a4.418,4.418,0,0,1-1.086,3.121,4.209,4.209,0,0,1-5.832,0,4.5,4.5,0,0,1-1.09-3.187Zm2.258.16a3.16,3.16,0,0,0,.453,1.843,1.628,1.628,0,0,0,2.578.008,3.457,3.457,0,0,0,.461-2.015,3.128,3.128,0,0,0-.461-1.831,1.5,1.5,0,0,0-1.3-.649,1.474,1.474,0,0,0-1.281.646A3.516,3.516,0,0,0,109.188,60.856Zm11.891-2.192a6.134,6.134,0,0,0-.812-.062,1.654,1.654,0,0,0-1.68.867V65h-2.258V56.547h2.133l.063,1.008a2.092,2.092,0,0,1,1.883-1.164,2.366,2.366,0,0,1,.7.1ZM126.828,65a2.507,2.507,0,0,1-.227-.758,2.732,2.732,0,0,1-2.133.914,3,3,0,0,1-2.059-.719,2.312,2.312,0,0,1-.816-1.812,2.389,2.389,0,0,1,1-2.062,4.915,4.915,0,0,1,2.879-.727h1.039v-.484a1.393,1.393,0,0,0-.3-.937,1.183,1.183,0,0,0-.949-.352,1.345,1.345,0,0,0-.895.273.929.929,0,0,0-.324.75h-2.258a2.268,2.268,0,0,1,.453-1.359,3,3,0,0,1,1.281-.98,4.669,4.669,0,0,1,1.859-.355,3.689,3.689,0,0,1,2.48.785,2.747,2.747,0,0,1,.918,2.207v3.664a4.041,4.041,0,0,0,.336,1.82V65Zm-1.867-1.57a1.945,1.945,0,0,0,.922-.223,1.462,1.462,0,0,0,.625-.6V61.156h-.844q-1.7,0-1.8,1.172l-.008.133a.9.9,0,0,0,.3.7A1.153,1.153,0,0,0,124.961,63.43Zm7.93,1.57h-2.266V53h2.266Zm5.75.156a4.15,4.15,0,0,1-3.027-1.141,4.054,4.054,0,0,1-1.168-3.039v-.219a5.106,5.106,0,0,1,.492-2.277,3.612,3.612,0,0,1,1.395-1.547,3.914,3.914,0,0,1,2.059-.543,3.508,3.508,0,0,1,2.73,1.094,4.444,4.444,0,0,1,1,3.1v.922h-5.383a2.1,2.1,0,0,0,.66,1.328,2,2,0,0,0,1.395.5,2.437,2.437,0,0,0,2.039-.945l1.109,1.242a3.389,3.389,0,0,1-1.375,1.121A4.511,4.511,0,0,1,138.641,65.156Zm-.258-6.945a1.411,1.411,0,0,0-1.09.455,2.357,2.357,0,0,0-.535,1.3H139.9v-.181a1.681,1.681,0,0,0-.406-1.165A1.456,1.456,0,0,0,138.383,58.211Zm9.594,4.453a.727.727,0,0,0-.41-.652,4.659,4.659,0,0,0-1.316-.426q-3.016-.633-3.016-2.562a2.323,2.323,0,0,1,.934-1.879,3.766,3.766,0,0,1,2.441-.754,4.053,4.053,0,0,1,2.574.758,2.388,2.388,0,0,1,.965,1.969h-2.258a1.092,1.092,0,0,0-.312-.8A1.322,1.322,0,0,0,146.6,58a1.351,1.351,0,0,0-.883.258.814.814,0,0,0-.312.656.7.7,0,0,0,.355.605,3.657,3.657,0,0,0,1.2.4,9.8,9.8,0,0,1,1.422.379,2.336,2.336,0,0,1,1.789,2.273,2.205,2.205,0,0,1-.992,1.871,4.28,4.28,0,0,1-2.562.715,4.47,4.47,0,0,1-1.887-.379,3.166,3.166,0,0,1-1.293-1.039,2.414,2.414,0,0,1-.469-1.426h2.141a1.179,1.179,0,0,0,.445.922,1.766,1.766,0,0,0,1.109.32,1.635,1.635,0,0,0,.98-.246A.766.766,0,0,0,147.977,62.664ZM7.438,112.656H3.328L2.547,115H.055l4.234-11.375H6.461L10.719,115H8.227Zm-3.477-1.9H6.8L5.375,106.5Zm11.188,2.578a1.481,1.481,0,0,0,1.016-.344,1.2,1.2,0,0,0,.406-.914h2.117a2.9,2.9,0,0,1-.469,1.574,3.093,3.093,0,0,1-1.262,1.109,3.949,3.949,0,0,1-1.77.395A3.67,3.67,0,0,1,12.328,114a4.56,4.56,0,0,1-1.047-3.184v-.148a4.508,4.508,0,0,1,1.039-3.117,3.627,3.627,0,0,1,2.852-1.164,3.555,3.555,0,0,1,2.543.9,3.2,3.2,0,0,1,.973,2.4H16.57a1.551,1.551,0,0,0-.406-1.072,1.51,1.51,0,0,0-2.223.163,3.333,3.333,0,0,0-.4,1.866v.235a3.375,3.375,0,0,0,.4,1.878A1.377,1.377,0,0,0,15.148,113.336Zm8.344,0a1.481,1.481,0,0,0,1.016-.344,1.2,1.2,0,0,0,.406-.914h2.117a2.9,2.9,0,0,1-.469,1.574,3.093,3.093,0,0,1-1.262,1.109,3.949,3.949,0,0,1-1.77.395A3.67,3.67,0,0,1,20.672,114a4.56,4.56,0,0,1-1.047-3.184v-.148a4.508,4.508,0,0,1,1.039-3.117,3.627,3.627,0,0,1,2.852-1.164,3.555,3.555,0,0,1,2.543.9,3.2,3.2,0,0,1,.973,2.4H24.914a1.551,1.551,0,0,0-.406-1.072,1.51,1.51,0,0,0-2.223.163,3.333,3.333,0,0,0-.4,1.866v.235a3.375,3.375,0,0,0,.4,1.878A1.377,1.377,0,0,0,23.492,113.336ZM30.7,115H28.438v-8.453H30.7Zm-2.4-10.641a1.112,1.112,0,0,1,.34-.836,1.465,1.465,0,0,1,1.848,0,1.193,1.193,0,0,1,0,1.68,1.448,1.448,0,0,1-1.836,0A1.108,1.108,0,0,1,28.3,104.359Zm3.906,6.352a5.094,5.094,0,0,1,.887-3.148,2.877,2.877,0,0,1,2.426-1.172,2.589,2.589,0,0,1,2.039.922V103h2.266v12H37.789l-.109-.9a2.657,2.657,0,0,1-2.172,1.055,2.869,2.869,0,0,1-2.395-1.176A5.258,5.258,0,0,1,32.211,110.711Zm2.258.161a3.355,3.355,0,0,0,.414,1.829,1.348,1.348,0,0,0,1.2.636,1.51,1.51,0,0,0,1.477-.887V109.1a1.489,1.489,0,0,0-1.461-.887Q34.469,108.211,34.469,110.872Zm11,4.285a4.15,4.15,0,0,1-3.027-1.141,4.054,4.054,0,0,1-1.168-3.039v-.219a5.106,5.106,0,0,1,.492-2.277,3.612,3.612,0,0,1,1.395-1.547,3.914,3.914,0,0,1,2.059-.543,3.508,3.508,0,0,1,2.73,1.094,4.444,4.444,0,0,1,1,3.1v.922H43.563a2.1,2.1,0,0,0,.66,1.328,2,2,0,0,0,1.395.5,2.437,2.437,0,0,0,2.039-.945l1.109,1.242a3.389,3.389,0,0,1-1.375,1.121A4.511,4.511,0,0,1,45.469,115.156Zm-.258-6.945a1.411,1.411,0,0,0-1.09.455,2.357,2.357,0,0,0-.535,1.3h3.141v-.181a1.681,1.681,0,0,0-.406-1.165A1.456,1.456,0,0,0,45.211,108.211Zm7.094-1.664.07.977a2.951,2.951,0,0,1,2.43-1.133,2.453,2.453,0,0,1,2,.789,3.682,3.682,0,0,1,.672,2.359V115H55.219v-5.419a1.47,1.47,0,0,0-.312-1.045,1.4,1.4,0,0,0-1.039-.325,1.553,1.553,0,0,0-1.43.814V115H50.18v-8.453Zm9.586-2.078v2.078h1.445V108.2H61.891v4.219a1.007,1.007,0,0,0,.18.672.9.9,0,0,0,.688.2,3.6,3.6,0,0,0,.664-.055v1.711a4.648,4.648,0,0,1-1.367.2,2.156,2.156,0,0,1-2.422-2.4V108.2H58.4v-1.656h1.234v-2.078Zm6.594,10.688a4.15,4.15,0,0,1-3.027-1.141,4.054,4.054,0,0,1-1.168-3.039v-.219a5.106,5.106,0,0,1,.492-2.277,3.612,3.612,0,0,1,1.395-1.547,3.914,3.914,0,0,1,2.059-.543,3.508,3.508,0,0,1,2.73,1.094,4.444,4.444,0,0,1,1,3.1v.922H66.578a2.1,2.1,0,0,0,.66,1.328,2,2,0,0,0,1.395.5,2.437,2.437,0,0,0,2.039-.945l1.109,1.242a3.389,3.389,0,0,1-1.375,1.121A4.511,4.511,0,0,1,68.484,115.156Zm-.258-6.945a1.411,1.411,0,0,0-1.09.455,2.357,2.357,0,0,0-.535,1.3h3.141v-.181a1.681,1.681,0,0,0-.406-1.165A1.456,1.456,0,0,0,68.227,108.211Zm9.594,4.453a.727.727,0,0,0-.41-.652,4.659,4.659,0,0,0-1.316-.426q-3.016-.633-3.016-2.562a2.323,2.323,0,0,1,.934-1.879,3.766,3.766,0,0,1,2.441-.754,4.053,4.053,0,0,1,2.574.758,2.388,2.388,0,0,1,.965,1.969H77.734a1.092,1.092,0,0,0-.312-.8,1.322,1.322,0,0,0-.977-.316,1.351,1.351,0,0,0-.883.258.814.814,0,0,0-.312.656.7.7,0,0,0,.355.605,3.657,3.657,0,0,0,1.2.4,9.8,9.8,0,0,1,1.422.379,2.336,2.336,0,0,1,1.789,2.273,2.2,2.2,0,0,1-.992,1.871,4.28,4.28,0,0,1-2.562.715,4.47,4.47,0,0,1-1.887-.379,3.166,3.166,0,0,1-1.293-1.039,2.414,2.414,0,0,1-.469-1.426h2.141a1.179,1.179,0,0,0,.445.922,1.766,1.766,0,0,0,1.109.32,1.635,1.635,0,0,0,.98-.246A.766.766,0,0,0,77.82,112.664Zm9.836-5.2a2.818,2.818,0,0,1,2.258-1.078q2.75,0,2.789,3.2V115H90.445v-5.364a1.577,1.577,0,0,0-.312-1.077,1.338,1.338,0,0,0-1.039-.348,1.536,1.536,0,0,0-1.437.767V115H85.4V103h2.258Zm6.4,3.227a5.013,5.013,0,0,1,.484-2.242,3.546,3.546,0,0,1,1.395-1.523,4.069,4.069,0,0,1,2.113-.539,3.849,3.849,0,0,1,2.793,1.047,4.2,4.2,0,0,1,1.207,2.844l.016.578a4.418,4.418,0,0,1-1.086,3.121,4.209,4.209,0,0,1-5.832,0,4.5,4.5,0,0,1-1.09-3.187Zm2.258.16a3.16,3.16,0,0,0,.453,1.843,1.628,1.628,0,0,0,2.578.008,3.457,3.457,0,0,0,.461-2.015,3.128,3.128,0,0,0-.461-1.831,1.5,1.5,0,0,0-1.3-.649,1.474,1.474,0,0,0-1.281.646A3.516,3.516,0,0,0,96.313,110.856Zm6.813-.145a4.954,4.954,0,0,1,.926-3.133,3,3,0,0,1,2.5-1.187,2.631,2.631,0,0,1,2.164.953l.094-.8h2.047v8.172a3.613,3.613,0,0,1-.5,1.93,3.236,3.236,0,0,1-1.418,1.25,4.985,4.985,0,0,1-2.141.43,4.635,4.635,0,0,1-1.812-.371,3.217,3.217,0,0,1-1.336-.957l1-1.375a2.645,2.645,0,0,0,2.047.945,1.936,1.936,0,0,0,1.4-.48,1.8,1.8,0,0,0,.5-1.363v-.453a2.612,2.612,0,0,1-2.055.883,2.992,2.992,0,0,1-2.465-1.191,4.953,4.953,0,0,1-.941-3.16Zm2.258.161a3.1,3.1,0,0,0,.461,1.809,1.465,1.465,0,0,0,1.266.655,1.567,1.567,0,0,0,1.477-.777v-3.571a1.563,1.563,0,0,0-1.461-.777,1.474,1.474,0,0,0-1.277.667A3.5,3.5,0,0,0,105.383,110.872Zm12.1,4.128a2.507,2.507,0,0,1-.227-.758,2.732,2.732,0,0,1-2.133.914,3,3,0,0,1-2.059-.719,2.312,2.312,0,0,1-.816-1.812,2.389,2.389,0,0,1,1-2.062,4.915,4.915,0,0,1,2.879-.727h1.039v-.484a1.393,1.393,0,0,0-.3-.937,1.183,1.183,0,0,0-.949-.352,1.345,1.345,0,0,0-.895.273.929.929,0,0,0-.324.75h-2.258a2.268,2.268,0,0,1,.453-1.359,3,3,0,0,1,1.281-.98,4.669,4.669,0,0,1,1.859-.355,3.689,3.689,0,0,1,2.48.785,2.747,2.747,0,0,1,.918,2.207v3.664a4.041,4.041,0,0,0,.336,1.82V115Zm-1.867-1.57a1.945,1.945,0,0,0,.922-.223,1.462,1.462,0,0,0,.625-.6v-1.453h-.844q-1.7,0-1.8,1.172l-.008.133a.9.9,0,0,0,.3.7A1.153,1.153,0,0,0,115.617,113.43Zm10.3-4.766a6.134,6.134,0,0,0-.812-.062,1.654,1.654,0,0,0-1.68.867V115h-2.258v-8.453H123.3l.063,1.008a2.092,2.092,0,0,1,1.883-1.164,2.366,2.366,0,0,1,.7.1ZM7.438,162.656H3.328L2.547,165H.055l4.234-11.375H6.461L10.719,165H8.227Zm-3.477-1.9H6.8L5.375,156.5Zm11.188,2.578a1.481,1.481,0,0,0,1.016-.344,1.2,1.2,0,0,0,.406-.914h2.117a2.9,2.9,0,0,1-.469,1.574,3.093,3.093,0,0,1-1.262,1.109,3.949,3.949,0,0,1-1.77.395A3.67,3.67,0,0,1,12.328,164a4.56,4.56,0,0,1-1.047-3.184v-.148a4.508,4.508,0,0,1,1.039-3.117,3.627,3.627,0,0,1,2.852-1.164,3.555,3.555,0,0,1,2.543.9,3.2,3.2,0,0,1,.973,2.4H16.57a1.551,1.551,0,0,0-.406-1.072,1.51,1.51,0,0,0-2.223.163,3.333,3.333,0,0,0-.4,1.866v.235a3.375,3.375,0,0,0,.4,1.878A1.377,1.377,0,0,0,15.148,163.336Zm8.344,0a1.481,1.481,0,0,0,1.016-.344,1.2,1.2,0,0,0,.406-.914h2.117a2.9,2.9,0,0,1-.469,1.574,3.093,3.093,0,0,1-1.262,1.109,3.949,3.949,0,0,1-1.77.395A3.67,3.67,0,0,1,20.672,164a4.56,4.56,0,0,1-1.047-3.184v-.148a4.508,4.508,0,0,1,1.039-3.117,3.627,3.627,0,0,1,2.852-1.164,3.555,3.555,0,0,1,2.543.9,3.2,3.2,0,0,1,.973,2.4H24.914a1.551,1.551,0,0,0-.406-1.072,1.51,1.51,0,0,0-2.223.163,3.333,3.333,0,0,0-.4,1.866v.235a3.375,3.375,0,0,0,.4,1.878A1.377,1.377,0,0,0,23.492,163.336ZM30.7,165H28.438v-8.453H30.7Zm-2.4-10.641a1.112,1.112,0,0,1,.34-.836,1.465,1.465,0,0,1,1.848,0,1.193,1.193,0,0,1,0,1.68,1.448,1.448,0,0,1-1.836,0A1.108,1.108,0,0,1,28.3,154.359Zm3.906,6.352a5.094,5.094,0,0,1,.887-3.148,2.877,2.877,0,0,1,2.426-1.172,2.589,2.589,0,0,1,2.039.922V153h2.266v12H37.789l-.109-.9a2.657,2.657,0,0,1-2.172,1.055,2.869,2.869,0,0,1-2.395-1.176A5.258,5.258,0,0,1,32.211,160.711Zm2.258.161a3.355,3.355,0,0,0,.414,1.829,1.348,1.348,0,0,0,1.2.636,1.51,1.51,0,0,0,1.477-.887V159.1a1.489,1.489,0,0,0-1.461-.887Q34.469,158.211,34.469,160.872Zm11,4.285a4.15,4.15,0,0,1-3.027-1.141,4.054,4.054,0,0,1-1.168-3.039v-.219a5.106,5.106,0,0,1,.492-2.277,3.612,3.612,0,0,1,1.395-1.547,3.914,3.914,0,0,1,2.059-.543,3.508,3.508,0,0,1,2.73,1.094,4.444,4.444,0,0,1,1,3.1v.922H43.563a2.1,2.1,0,0,0,.66,1.328,2,2,0,0,0,1.395.5,2.437,2.437,0,0,0,2.039-.945l1.109,1.242a3.389,3.389,0,0,1-1.375,1.121A4.511,4.511,0,0,1,45.469,165.156Zm-.258-6.945a1.411,1.411,0,0,0-1.09.455,2.357,2.357,0,0,0-.535,1.3h3.141v-.181a1.681,1.681,0,0,0-.406-1.165A1.456,1.456,0,0,0,45.211,158.211Zm7.094-1.664.07.977a2.951,2.951,0,0,1,2.43-1.133,2.453,2.453,0,0,1,2,.789,3.682,3.682,0,0,1,.672,2.359V165H55.219v-5.419a1.47,1.47,0,0,0-.312-1.045,1.4,1.4,0,0,0-1.039-.325,1.553,1.553,0,0,0-1.43.814V165H50.18v-8.453Zm9.586-2.078v2.078h1.445V158.2H61.891v4.219a1.007,1.007,0,0,0,.18.672.9.9,0,0,0,.688.2,3.6,3.6,0,0,0,.664-.055v1.711a4.648,4.648,0,0,1-1.367.2,2.156,2.156,0,0,1-2.422-2.4V158.2H58.4v-1.656h1.234v-2.078Zm6.594,10.688a4.15,4.15,0,0,1-3.027-1.141,4.054,4.054,0,0,1-1.168-3.039v-.219a5.106,5.106,0,0,1,.492-2.277,3.612,3.612,0,0,1,1.395-1.547,3.914,3.914,0,0,1,2.059-.543,3.508,3.508,0,0,1,2.73,1.094,4.444,4.444,0,0,1,1,3.1v.922H66.578a2.1,2.1,0,0,0,.66,1.328,2,2,0,0,0,1.395.5,2.437,2.437,0,0,0,2.039-.945l1.109,1.242a3.389,3.389,0,0,1-1.375,1.121A4.511,4.511,0,0,1,68.484,165.156Zm-.258-6.945a1.411,1.411,0,0,0-1.09.455,2.357,2.357,0,0,0-.535,1.3h3.141v-.181a1.681,1.681,0,0,0-.406-1.165A1.456,1.456,0,0,0,68.227,158.211Zm9.594,4.453a.727.727,0,0,0-.41-.652,4.659,4.659,0,0,0-1.316-.426q-3.016-.633-3.016-2.562a2.323,2.323,0,0,1,.934-1.879,3.766,3.766,0,0,1,2.441-.754,4.053,4.053,0,0,1,2.574.758,2.388,2.388,0,0,1,.965,1.969H77.734a1.092,1.092,0,0,0-.312-.8,1.322,1.322,0,0,0-.977-.316,1.351,1.351,0,0,0-.883.258.814.814,0,0,0-.312.656.7.7,0,0,0,.355.605,3.657,3.657,0,0,0,1.2.4,9.8,9.8,0,0,1,1.422.379,2.336,2.336,0,0,1,1.789,2.273,2.2,2.2,0,0,1-.992,1.871,4.28,4.28,0,0,1-2.562.715,4.47,4.47,0,0,1-1.887-.379,3.166,3.166,0,0,1-1.293-1.039,2.414,2.414,0,0,1-.469-1.426h2.141a1.179,1.179,0,0,0,.445.922,1.766,1.766,0,0,0,1.109.32,1.635,1.635,0,0,0,.98-.246A.766.766,0,0,0,77.82,162.664Zm10.8-.422,1.57-5.7h2.359L89.7,165H87.539l-2.852-8.453h2.359ZM95.977,165H93.719v-8.453h2.258Zm-.664-11.883h2.461l-2.164,2.422H93.773ZM102.82,165a2.507,2.507,0,0,1-.227-.758,2.732,2.732,0,0,1-2.133.914,3,3,0,0,1-2.059-.719,2.312,2.312,0,0,1-.816-1.812,2.389,2.389,0,0,1,1-2.062,4.915,4.915,0,0,1,2.879-.727H102.5v-.484a1.393,1.393,0,0,0-.3-.937,1.183,1.183,0,0,0-.949-.352,1.345,1.345,0,0,0-.895.273.929.929,0,0,0-.324.75H97.773a2.268,2.268,0,0,1,.453-1.359,3,3,0,0,1,1.281-.98,4.669,4.669,0,0,1,1.859-.355,3.689,3.689,0,0,1,2.48.785,2.747,2.747,0,0,1,.918,2.207v3.664a4.041,4.041,0,0,0,.336,1.82V165Zm-1.867-1.57a1.945,1.945,0,0,0,.922-.223,1.462,1.462,0,0,0,.625-.6v-1.453h-.844q-1.7,0-1.8,1.172l-.008.133a.9.9,0,0,0,.3.7A1.153,1.153,0,0,0,100.953,163.43Zm17.141-2.578a5.07,5.07,0,0,1-.887,3.129,2.843,2.843,0,0,1-2.395,1.176,2.633,2.633,0,0,1-2.07-.891v3.984h-2.258v-11.7h2.094l.078.828a2.654,2.654,0,0,1,2.141-.984,2.862,2.862,0,0,1,2.43,1.156,5.207,5.207,0,0,1,.867,3.188Zm-2.258-.172a3.345,3.345,0,0,0-.418-1.826,1.36,1.36,0,0,0-1.215-.643,1.478,1.478,0,0,0-1.461.815V162.5a1.5,1.5,0,0,0,1.477.839Q115.836,163.336,115.836,160.679Zm8.719,3.461a2.831,2.831,0,0,1-2.312,1.016,2.67,2.67,0,0,1-2.074-.781,3.335,3.335,0,0,1-.73-2.289v-5.539H121.7v5.467q0,1.322,1.2,1.322a1.63,1.63,0,0,0,1.578-.8v-5.991h2.266V165h-2.125ZM123.547,153h2.461l-2.164,2.422h-1.836Zm12.516,7.852a5.119,5.119,0,0,1-.867,3.168,2.872,2.872,0,0,1-2.422,1.137,2.639,2.639,0,0,1-2.2-1.055l-.1.9h-2.031V153H130.7v4.3a2.571,2.571,0,0,1,2.055-.914,2.9,2.9,0,0,1,2.426,1.137,5.126,5.126,0,0,1,.879,3.2Zm-2.258-.172a3.381,3.381,0,0,0-.406-1.877,1.372,1.372,0,0,0-1.211-.592,1.489,1.489,0,0,0-1.484.885v3.346a1.509,1.509,0,0,0,1.5.893,1.4,1.4,0,0,0,1.438-1.081A5.6,5.6,0,0,0,133.8,160.679ZM139.836,165H137.57V153h2.266Zm4.242,0h-2.266v-8.453h2.266Zm-2.4-10.641a1.112,1.112,0,0,1,.34-.836,1.465,1.465,0,0,1,1.848,0,1.193,1.193,0,0,1,0,1.68,1.448,1.448,0,0,1-1.836,0A1.109,1.109,0,0,1,141.68,154.359Zm7.773,8.977a1.481,1.481,0,0,0,1.016-.344,1.2,1.2,0,0,0,.406-.914h2.117a2.9,2.9,0,0,1-.469,1.574,3.093,3.093,0,0,1-1.262,1.109,3.949,3.949,0,0,1-1.77.395A3.67,3.67,0,0,1,146.633,164a4.56,4.56,0,0,1-1.047-3.184v-.148a4.508,4.508,0,0,1,1.039-3.117,3.627,3.627,0,0,1,2.852-1.164,3.555,3.555,0,0,1,2.543.9,3.2,3.2,0,0,1,.973,2.4h-2.117a1.551,1.551,0,0,0-.406-1.072,1.51,1.51,0,0,0-2.223.163,3.333,3.333,0,0,0-.4,1.866v.235a3.375,3.375,0,0,0,.4,1.878A1.377,1.377,0,0,0,149.453,163.336ZM159.18,165a2.507,2.507,0,0,1-.227-.758,2.732,2.732,0,0,1-2.133.914,3,3,0,0,1-2.059-.719,2.312,2.312,0,0,1-.816-1.812,2.389,2.389,0,0,1,1-2.062,4.915,4.915,0,0,1,2.879-.727h1.039v-.484a1.393,1.393,0,0,0-.3-.937,1.183,1.183,0,0,0-.949-.352,1.345,1.345,0,0,0-.895.273.929.929,0,0,0-.324.75h-2.258a2.268,2.268,0,0,1,.453-1.359,3,3,0,0,1,1.281-.98,4.669,4.669,0,0,1,1.859-.355,3.689,3.689,0,0,1,2.48.785,2.747,2.747,0,0,1,.918,2.207v3.664a4.041,4.041,0,0,0,.336,1.82V165Zm-1.867-1.57a1.945,1.945,0,0,0,.922-.223,1.462,1.462,0,0,0,.625-.6v-1.453h-.844q-1.7,0-1.8,1.172l-.008.133a.9.9,0,0,0,.3.7A1.153,1.153,0,0,0,157.313,163.43ZM7.438,212.656H3.328L2.547,215H.055l4.234-11.375H6.461L10.719,215H8.227Zm-3.477-1.9H6.8L5.375,206.5Zm11.188,2.578a1.481,1.481,0,0,0,1.016-.344,1.2,1.2,0,0,0,.406-.914h2.117a2.9,2.9,0,0,1-.469,1.574,3.093,3.093,0,0,1-1.262,1.109,3.949,3.949,0,0,1-1.77.395A3.67,3.67,0,0,1,12.328,214a4.56,4.56,0,0,1-1.047-3.184v-.148a4.508,4.508,0,0,1,1.039-3.117,3.627,3.627,0,0,1,2.852-1.164,3.555,3.555,0,0,1,2.543.9,3.2,3.2,0,0,1,.973,2.4H16.57a1.551,1.551,0,0,0-.406-1.072,1.51,1.51,0,0,0-2.223.163,3.333,3.333,0,0,0-.4,1.866v.235a3.375,3.375,0,0,0,.4,1.878A1.377,1.377,0,0,0,15.148,213.336Zm8.344,0a1.481,1.481,0,0,0,1.016-.344,1.2,1.2,0,0,0,.406-.914h2.117a2.9,2.9,0,0,1-.469,1.574,3.093,3.093,0,0,1-1.262,1.109,3.949,3.949,0,0,1-1.77.395A3.67,3.67,0,0,1,20.672,214a4.56,4.56,0,0,1-1.047-3.184v-.148a4.508,4.508,0,0,1,1.039-3.117,3.627,3.627,0,0,1,2.852-1.164,3.555,3.555,0,0,1,2.543.9,3.2,3.2,0,0,1,.973,2.4H24.914a1.551,1.551,0,0,0-.406-1.072,1.51,1.51,0,0,0-2.223.163,3.333,3.333,0,0,0-.4,1.866v.235a3.375,3.375,0,0,0,.4,1.878A1.377,1.377,0,0,0,23.492,213.336ZM30.7,215H28.438v-8.453H30.7Zm-2.4-10.641a1.112,1.112,0,0,1,.34-.836,1.465,1.465,0,0,1,1.848,0,1.193,1.193,0,0,1,0,1.68,1.448,1.448,0,0,1-1.836,0A1.108,1.108,0,0,1,28.3,204.359Zm3.906,6.352a5.094,5.094,0,0,1,.887-3.148,2.877,2.877,0,0,1,2.426-1.172,2.589,2.589,0,0,1,2.039.922V203h2.266v12H37.789l-.109-.9a2.657,2.657,0,0,1-2.172,1.055,2.869,2.869,0,0,1-2.395-1.176A5.258,5.258,0,0,1,32.211,210.711Zm2.258.161a3.355,3.355,0,0,0,.414,1.829,1.348,1.348,0,0,0,1.2.636,1.51,1.51,0,0,0,1.477-.887V209.1a1.489,1.489,0,0,0-1.461-.887Q34.469,208.211,34.469,210.872Zm11,4.285a4.15,4.15,0,0,1-3.027-1.141,4.054,4.054,0,0,1-1.168-3.039v-.219a5.106,5.106,0,0,1,.492-2.277,3.612,3.612,0,0,1,1.395-1.547,3.914,3.914,0,0,1,2.059-.543,3.508,3.508,0,0,1,2.73,1.094,4.444,4.444,0,0,1,1,3.1v.922H43.563a2.1,2.1,0,0,0,.66,1.328,2,2,0,0,0,1.395.5,2.437,2.437,0,0,0,2.039-.945l1.109,1.242a3.389,3.389,0,0,1-1.375,1.121A4.511,4.511,0,0,1,45.469,215.156Zm-.258-6.945a1.411,1.411,0,0,0-1.09.455,2.357,2.357,0,0,0-.535,1.3h3.141v-.181a1.681,1.681,0,0,0-.406-1.165A1.456,1.456,0,0,0,45.211,208.211Zm7.094-1.664.07.977a2.951,2.951,0,0,1,2.43-1.133,2.453,2.453,0,0,1,2,.789,3.682,3.682,0,0,1,.672,2.359V215H55.219v-5.419a1.47,1.47,0,0,0-.312-1.045,1.4,1.4,0,0,0-1.039-.325,1.553,1.553,0,0,0-1.43.814V215H50.18v-8.453Zm9.586-2.078v2.078h1.445V208.2H61.891v4.219a1.007,1.007,0,0,0,.18.672.9.9,0,0,0,.688.2,3.6,3.6,0,0,0,.664-.055v1.711a4.648,4.648,0,0,1-1.367.2,2.156,2.156,0,0,1-2.422-2.4V208.2H58.4v-1.656h1.234v-2.078Zm6.594,10.688a4.15,4.15,0,0,1-3.027-1.141,4.054,4.054,0,0,1-1.168-3.039v-.219a5.106,5.106,0,0,1,.492-2.277,3.612,3.612,0,0,1,1.395-1.547,3.914,3.914,0,0,1,2.059-.543,3.508,3.508,0,0,1,2.73,1.094,4.444,4.444,0,0,1,1,3.1v.922H66.578a2.1,2.1,0,0,0,.66,1.328,2,2,0,0,0,1.395.5,2.437,2.437,0,0,0,2.039-.945l1.109,1.242a3.389,3.389,0,0,1-1.375,1.121A4.511,4.511,0,0,1,68.484,215.156Zm-.258-6.945a1.411,1.411,0,0,0-1.09.455,2.357,2.357,0,0,0-.535,1.3h3.141v-.181a1.681,1.681,0,0,0-.406-1.165A1.456,1.456,0,0,0,68.227,208.211Zm9.594,4.453a.727.727,0,0,0-.41-.652,4.659,4.659,0,0,0-1.316-.426q-3.016-.633-3.016-2.562a2.323,2.323,0,0,1,.934-1.879,3.766,3.766,0,0,1,2.441-.754,4.053,4.053,0,0,1,2.574.758,2.388,2.388,0,0,1,.965,1.969H77.734a1.092,1.092,0,0,0-.312-.8,1.322,1.322,0,0,0-.977-.316,1.351,1.351,0,0,0-.883.258.814.814,0,0,0-.312.656.7.7,0,0,0,.355.605,3.657,3.657,0,0,0,1.2.4,9.8,9.8,0,0,1,1.422.379,2.336,2.336,0,0,1,1.789,2.273,2.2,2.2,0,0,1-.992,1.871,4.28,4.28,0,0,1-2.562.715,4.47,4.47,0,0,1-1.887-.379,3.166,3.166,0,0,1-1.293-1.039,2.414,2.414,0,0,1-.469-1.426h2.141a1.179,1.179,0,0,0,.445.922,1.766,1.766,0,0,0,1.109.32,1.635,1.635,0,0,0,.98-.246A.766.766,0,0,0,77.82,212.664Zm10.336-8.2v2.078H89.6V208.2H88.156v4.219a1.007,1.007,0,0,0,.18.672.9.9,0,0,0,.688.2,3.6,3.6,0,0,0,.664-.055v1.711a4.648,4.648,0,0,1-1.367.2,2.156,2.156,0,0,1-2.422-2.4V208.2H84.664v-1.656H85.9v-2.078Zm7.453,4.2a6.133,6.133,0,0,0-.812-.062,1.654,1.654,0,0,0-1.68.867V215H90.859v-8.453h2.133l.063,1.008a2.092,2.092,0,0,1,1.883-1.164,2.366,2.366,0,0,1,.7.1Zm5.75,6.336a2.507,2.507,0,0,1-.227-.758,2.732,2.732,0,0,1-2.133.914,3,3,0,0,1-2.059-.719,2.312,2.312,0,0,1-.816-1.812,2.389,2.389,0,0,1,1-2.062,4.915,4.915,0,0,1,2.879-.727h1.039v-.484a1.393,1.393,0,0,0-.3-.937,1.183,1.183,0,0,0-.949-.352,1.345,1.345,0,0,0-.895.273.929.929,0,0,0-.324.75H96.313a2.268,2.268,0,0,1,.453-1.359,3,3,0,0,1,1.281-.98,4.669,4.669,0,0,1,1.859-.355,3.689,3.689,0,0,1,2.48.785,2.747,2.747,0,0,1,.918,2.207v3.664a4.041,4.041,0,0,0,.336,1.82V215Zm-1.867-1.57a1.945,1.945,0,0,0,.922-.223,1.462,1.462,0,0,0,.625-.6v-1.453H100.2q-1.7,0-1.8,1.172l-.008.133a.9.9,0,0,0,.3.7A1.153,1.153,0,0,0,99.492,213.43Zm.859-10.43h2.461l-2.164,2.422H98.813Zm6.766,3.547.07.977a2.951,2.951,0,0,1,2.43-1.133,2.453,2.453,0,0,1,2,.789,3.682,3.682,0,0,1,.672,2.359V215h-2.258v-5.419a1.47,1.47,0,0,0-.312-1.045,1.4,1.4,0,0,0-1.039-.325,1.553,1.553,0,0,0-1.43.814V215h-2.258v-8.453Zm11.461,6.117a.727.727,0,0,0-.41-.652,4.659,4.659,0,0,0-1.316-.426q-3.016-.633-3.016-2.562a2.323,2.323,0,0,1,.934-1.879,3.766,3.766,0,0,1,2.441-.754,4.053,4.053,0,0,1,2.574.758,2.388,2.388,0,0,1,.965,1.969h-2.258a1.092,1.092,0,0,0-.312-.8A1.322,1.322,0,0,0,117.2,208a1.351,1.351,0,0,0-.883.258.814.814,0,0,0-.312.656.7.7,0,0,0,.355.605,3.657,3.657,0,0,0,1.2.4,9.8,9.8,0,0,1,1.422.379,2.336,2.336,0,0,1,1.789,2.273,2.2,2.2,0,0,1-.992,1.871,4.28,4.28,0,0,1-2.562.715,4.47,4.47,0,0,1-1.887-.379,3.166,3.166,0,0,1-1.293-1.039,2.414,2.414,0,0,1-.469-1.426h2.141a1.179,1.179,0,0,0,.445.922,1.766,1.766,0,0,0,1.109.32,1.635,1.635,0,0,0,.98-.246A.766.766,0,0,0,118.578,212.664ZM124.609,215h-2.266v-8.453h2.266Zm-2.4-10.641a1.112,1.112,0,0,1,.34-.836,1.465,1.465,0,0,1,1.848,0,1.193,1.193,0,0,1,0,1.68,1.448,1.448,0,0,1-1.836,0A1.108,1.108,0,0,1,122.211,204.359Zm6.961.109v2.078h1.445V208.2h-1.445v4.219a1.007,1.007,0,0,0,.18.672.9.9,0,0,0,.688.2,3.6,3.6,0,0,0,.664-.055v1.711a4.648,4.648,0,0,1-1.367.2,2.156,2.156,0,0,1-2.422-2.4V208.2H125.68v-1.656h1.234v-2.078Zm2.117,6.227a5.013,5.013,0,0,1,.484-2.242,3.546,3.546,0,0,1,1.395-1.523,4.069,4.069,0,0,1,2.113-.539,3.849,3.849,0,0,1,2.793,1.047,4.2,4.2,0,0,1,1.207,2.844l.016.578a4.418,4.418,0,0,1-1.086,3.121,4.209,4.209,0,0,1-5.832,0,4.5,4.5,0,0,1-1.09-3.187Zm2.258.16A3.16,3.16,0,0,0,134,212.7a1.628,1.628,0,0,0,2.578.008,3.457,3.457,0,0,0,.461-2.015,3.128,3.128,0,0,0-.461-1.831,1.5,1.5,0,0,0-1.3-.649,1.474,1.474,0,0,0-1.281.646A3.516,3.516,0,0,0,133.547,210.856ZM7.859,260.055h-4.5v3.063H8.641V265H1.016V253.625H8.625v1.9H3.359v2.711h4.5Zm4.086-3.508.07.977a2.951,2.951,0,0,1,2.43-1.133,2.453,2.453,0,0,1,2,.789,3.682,3.682,0,0,1,.672,2.359V265H14.859v-5.419a1.47,1.47,0,0,0-.312-1.045,1.4,1.4,0,0,0-1.039-.325,1.553,1.553,0,0,0-1.43.814V265H9.82v-8.453Zm7.5,8.453v-6.8H18.188v-1.656h1.258v-.719a2.918,2.918,0,0,1,.816-2.207,3.162,3.162,0,0,1,2.285-.785,5.321,5.321,0,0,1,1.148.155l-.023,1.736a2.878,2.878,0,0,0-.687-.07q-1.273,0-1.273,1.205v.685h1.68V258.2h-1.68V265Zm8.82.156a4.15,4.15,0,0,1-3.027-1.141,4.054,4.054,0,0,1-1.168-3.039v-.219a5.106,5.106,0,0,1,.492-2.277,3.612,3.612,0,0,1,1.395-1.547,3.914,3.914,0,0,1,2.059-.543,3.508,3.508,0,0,1,2.73,1.094,4.444,4.444,0,0,1,1,3.1v.922H26.359a2.1,2.1,0,0,0,.66,1.328,2,2,0,0,0,1.395.5,2.437,2.437,0,0,0,2.039-.945l1.109,1.242a3.389,3.389,0,0,1-1.375,1.121A4.511,4.511,0,0,1,28.266,265.156Zm-.258-6.945a1.411,1.411,0,0,0-1.09.455,2.357,2.357,0,0,0-.535,1.3h3.141v-.181a1.681,1.681,0,0,0-.406-1.165A1.456,1.456,0,0,0,28.008,258.211Zm9.766.453a6.136,6.136,0,0,0-.812-.062,1.654,1.654,0,0,0-1.68.867V265H33.023v-8.453h2.133l.063,1.008a2.092,2.092,0,0,1,1.883-1.164,2.365,2.365,0,0,1,.7.1Zm3.2-2.117.07.945a2.971,2.971,0,0,1,2.43-1.1,2.255,2.255,0,0,1,2.242,1.289,2.9,2.9,0,0,1,2.539-1.289,2.521,2.521,0,0,1,2.047.8,3.681,3.681,0,0,1,.672,2.41V265H48.711v-5.4a1.616,1.616,0,0,0-.281-1.053,1.245,1.245,0,0,0-.992-.333,1.409,1.409,0,0,0-1.406.971L46.039,265H43.781v-5.4a1.6,1.6,0,0,0-.289-1.065,1.257,1.257,0,0,0-.984-.329,1.463,1.463,0,0,0-1.391.8V265H38.859v-8.453ZM56.6,265.156a4.15,4.15,0,0,1-3.027-1.141,4.054,4.054,0,0,1-1.168-3.039v-.219a5.106,5.106,0,0,1,.492-2.277,3.612,3.612,0,0,1,1.395-1.547,3.914,3.914,0,0,1,2.059-.543,3.508,3.508,0,0,1,2.73,1.094,4.444,4.444,0,0,1,1,3.1v.922H54.7a2.1,2.1,0,0,0,.66,1.328,2,2,0,0,0,1.395.5,2.437,2.437,0,0,0,2.039-.945l1.109,1.242a3.389,3.389,0,0,1-1.375,1.121A4.511,4.511,0,0,1,56.6,265.156Zm-.258-6.945a1.411,1.411,0,0,0-1.09.455,2.357,2.357,0,0,0-.535,1.3h3.141v-.181a1.681,1.681,0,0,0-.406-1.165A1.456,1.456,0,0,0,56.344,258.211Zm4.664,2.5a5.094,5.094,0,0,1,.887-3.148,2.877,2.877,0,0,1,2.426-1.172,2.589,2.589,0,0,1,2.039.922V253h2.266v12H66.586l-.109-.9a2.657,2.657,0,0,1-2.172,1.055,2.869,2.869,0,0,1-2.395-1.176A5.258,5.258,0,0,1,61.008,260.711Zm2.258.161a3.355,3.355,0,0,0,.414,1.829,1.348,1.348,0,0,0,1.2.636,1.51,1.51,0,0,0,1.477-.887V259.1a1.489,1.489,0,0,0-1.461-.887Q63.266,258.211,63.266,260.872ZM75.273,265a2.507,2.507,0,0,1-.227-.758,2.732,2.732,0,0,1-2.133.914,3,3,0,0,1-2.059-.719,2.312,2.312,0,0,1-.816-1.812,2.389,2.389,0,0,1,1-2.062,4.915,4.915,0,0,1,2.879-.727h1.039v-.484a1.393,1.393,0,0,0-.3-.937,1.183,1.183,0,0,0-.949-.352,1.345,1.345,0,0,0-.895.273.929.929,0,0,0-.324.75H70.227a2.268,2.268,0,0,1,.453-1.359,3,3,0,0,1,1.281-.98,4.67,4.67,0,0,1,1.859-.355,3.689,3.689,0,0,1,2.48.785,2.747,2.747,0,0,1,.918,2.207v3.664a4.041,4.041,0,0,0,.336,1.82V265Zm-1.867-1.57a1.945,1.945,0,0,0,.922-.223,1.462,1.462,0,0,0,.625-.6v-1.453h-.844q-1.7,0-1.8,1.172l-.008.133a.9.9,0,0,0,.3.7A1.153,1.153,0,0,0,73.406,263.43Zm5.2-2.719a5.094,5.094,0,0,1,.887-3.148,2.877,2.877,0,0,1,2.426-1.172,2.589,2.589,0,0,1,2.039.922V253h2.266v12H84.18l-.109-.9a2.657,2.657,0,0,1-2.172,1.055A2.869,2.869,0,0,1,79.5,263.98,5.258,5.258,0,0,1,78.6,260.711Zm2.258.161a3.355,3.355,0,0,0,.414,1.829,1.348,1.348,0,0,0,1.2.636,1.51,1.51,0,0,0,1.477-.887V259.1a1.489,1.489,0,0,0-1.461-.887Q80.859,258.211,80.859,260.872Zm11,4.285a4.15,4.15,0,0,1-3.027-1.141,4.054,4.054,0,0,1-1.168-3.039v-.219a5.106,5.106,0,0,1,.492-2.277,3.612,3.612,0,0,1,1.395-1.547,3.914,3.914,0,0,1,2.059-.543,3.508,3.508,0,0,1,2.73,1.094,4.444,4.444,0,0,1,1,3.1v.922H89.953a2.1,2.1,0,0,0,.66,1.328,2,2,0,0,0,1.395.5,2.437,2.437,0,0,0,2.039-.945l1.109,1.242a3.389,3.389,0,0,1-1.375,1.121A4.511,4.511,0,0,1,91.859,265.156Zm-.258-6.945a1.411,1.411,0,0,0-1.09.455,2.357,2.357,0,0,0-.535,1.3h3.141v-.181a1.681,1.681,0,0,0-.406-1.165A1.456,1.456,0,0,0,91.6,258.211Zm9.594,4.453a.727.727,0,0,0-.41-.652,4.659,4.659,0,0,0-1.316-.426q-3.016-.633-3.016-2.562a2.323,2.323,0,0,1,.934-1.879,3.766,3.766,0,0,1,2.441-.754,4.053,4.053,0,0,1,2.574.758,2.388,2.388,0,0,1,.965,1.969h-2.258a1.092,1.092,0,0,0-.312-.8A1.322,1.322,0,0,0,99.82,258a1.351,1.351,0,0,0-.883.258.814.814,0,0,0-.312.656.7.7,0,0,0,.355.605,3.656,3.656,0,0,0,1.2.4,9.794,9.794,0,0,1,1.422.379,2.336,2.336,0,0,1,1.789,2.273,2.2,2.2,0,0,1-.992,1.871,4.28,4.28,0,0,1-2.562.715,4.471,4.471,0,0,1-1.887-.379,3.166,3.166,0,0,1-1.293-1.039,2.414,2.414,0,0,1-.469-1.426h2.141a1.179,1.179,0,0,0,.445.922,1.766,1.766,0,0,0,1.109.32,1.635,1.635,0,0,0,.98-.246A.766.766,0,0,0,101.2,262.664Zm11.148.672a1.481,1.481,0,0,0,1.016-.344,1.2,1.2,0,0,0,.406-.914h2.117a2.9,2.9,0,0,1-.469,1.574,3.093,3.093,0,0,1-1.262,1.109,3.949,3.949,0,0,1-1.77.395A3.67,3.67,0,0,1,109.523,264a4.56,4.56,0,0,1-1.047-3.184v-.148a4.508,4.508,0,0,1,1.039-3.117,3.627,3.627,0,0,1,2.852-1.164,3.555,3.555,0,0,1,2.543.9,3.2,3.2,0,0,1,.973,2.4h-2.117a1.551,1.551,0,0,0-.406-1.072,1.51,1.51,0,0,0-2.223.163,3.333,3.333,0,0,0-.4,1.866v.235a3.375,3.375,0,0,0,.4,1.878A1.377,1.377,0,0,0,112.344,263.336Zm4.477-2.641a5.013,5.013,0,0,1,.484-2.242,3.546,3.546,0,0,1,1.395-1.523,4.069,4.069,0,0,1,2.113-.539,3.849,3.849,0,0,1,2.793,1.047,4.2,4.2,0,0,1,1.207,2.844l.016.578a4.418,4.418,0,0,1-1.086,3.121,4.209,4.209,0,0,1-5.832,0,4.5,4.5,0,0,1-1.09-3.187Zm2.258.16a3.16,3.16,0,0,0,.453,1.843,1.628,1.628,0,0,0,2.578.008,3.458,3.458,0,0,0,.461-2.015,3.128,3.128,0,0,0-.461-1.831,1.5,1.5,0,0,0-1.3-.649,1.474,1.474,0,0,0-1.281.646A3.516,3.516,0,0,0,119.078,260.856Zm9.258-4.309.07.945a2.971,2.971,0,0,1,2.43-1.1,2.255,2.255,0,0,1,2.242,1.289,2.9,2.9,0,0,1,2.539-1.289,2.521,2.521,0,0,1,2.047.8,3.681,3.681,0,0,1,.672,2.41V265H136.07v-5.4a1.616,1.616,0,0,0-.281-1.053,1.245,1.245,0,0,0-.992-.333,1.409,1.409,0,0,0-1.406.971L133.4,265h-2.258v-5.4a1.6,1.6,0,0,0-.289-1.065,1.257,1.257,0,0,0-.984-.329,1.463,1.463,0,0,0-1.391.8V265h-2.258v-8.453Zm16.8,7.594a2.831,2.831,0,0,1-2.312,1.016,2.67,2.67,0,0,1-2.074-.781,3.335,3.335,0,0,1-.73-2.289v-5.539h2.258v5.467q0,1.322,1.2,1.322a1.63,1.63,0,0,0,1.578-.8v-5.991h2.266V265H145.2Zm5.969-7.594.07.977a2.951,2.951,0,0,1,2.43-1.133,2.453,2.453,0,0,1,2,.789,3.682,3.682,0,0,1,.672,2.359V265h-2.258v-5.419a1.47,1.47,0,0,0-.312-1.045,1.4,1.4,0,0,0-1.039-.325,1.553,1.553,0,0,0-1.43.814V265h-2.258v-8.453Zm10.773,8.609a4.15,4.15,0,0,1-3.027-1.141,4.054,4.054,0,0,1-1.168-3.039v-.219a5.106,5.106,0,0,1,.492-2.277,3.612,3.612,0,0,1,1.395-1.547,3.914,3.914,0,0,1,2.059-.543,3.508,3.508,0,0,1,2.73,1.094,4.444,4.444,0,0,1,1,3.1v.922h-5.383a2.1,2.1,0,0,0,.66,1.328,2,2,0,0,0,1.395.5,2.437,2.437,0,0,0,2.039-.945l1.109,1.242a3.389,3.389,0,0,1-1.375,1.121A4.511,4.511,0,0,1,161.875,265.156Zm-.258-6.945a1.411,1.411,0,0,0-1.09.455,2.357,2.357,0,0,0-.535,1.3h3.141v-.181a1.681,1.681,0,0,0-.406-1.165A1.456,1.456,0,0,0,161.617,258.211Zm9.594,4.453a.727.727,0,0,0-.41-.652,4.659,4.659,0,0,0-1.316-.426q-3.016-.633-3.016-2.562a2.323,2.323,0,0,1,.934-1.879,3.766,3.766,0,0,1,2.441-.754,4.053,4.053,0,0,1,2.574.758,2.388,2.388,0,0,1,.965,1.969h-2.258a1.093,1.093,0,0,0-.312-.8,1.322,1.322,0,0,0-.977-.316,1.351,1.351,0,0,0-.883.258.814.814,0,0,0-.312.656.7.7,0,0,0,.355.605,3.656,3.656,0,0,0,1.2.4,9.794,9.794,0,0,1,1.422.379,2.336,2.336,0,0,1,1.789,2.273,2.2,2.2,0,0,1-.992,1.871,4.28,4.28,0,0,1-2.562.715,4.471,4.471,0,0,1-1.887-.379,3.166,3.166,0,0,1-1.293-1.039,2.414,2.414,0,0,1-.469-1.426h2.141a1.179,1.179,0,0,0,.445.922,1.766,1.766,0,0,0,1.109.32,1.635,1.635,0,0,0,.98-.246A.766.766,0,0,0,171.211,262.664Z" transform="translate(934.118 925.445)"/>
  </g>
</svg>
