<svg xmlns="http://www.w3.org/2000/svg" xmlns:xlink="http://www.w3.org/1999/xlink" width="117.692" height="117.691" viewBox="0 0 117.692 117.691">
  <defs>
    <radialGradient id="radial-gradient" cx="0.076" cy="0.019" r="1.465" gradientTransform="translate(0.001)" gradientUnits="objectBoundingBox">
      <stop offset="0" stop-color="#f6f6f7"/>
      <stop offset="0.477" stop-color="#f9f9fa"/>
      <stop offset="0.715" stop-color="#fff"/>
    </radialGradient>
  </defs>
  <g id="Grupo_77985" data-name="Grupo 77985" transform="translate(-333 -4270.309)">
    <g id="Grupo_77973" data-name="Grupo 77973" transform="translate(333 4270.309)">
      <g id="Grupo_18531" data-name="Grupo 18531" transform="translate(0 0)">
        <g id="Grupo_18423" data-name="Grupo 18423" transform="translate(0 0)">
          <g id="Grupo_18421" data-name="Grupo 18421">
            <g id="Grupo_18420" data-name="Grupo 18420">
              <g id="Grupo_18419" data-name="Grupo 18419">
                <path id="Trazado_40936" data-name="Trazado 40936" d="M312.314,2204.565a58.846,58.846,0,1,1-58.845-58.844A58.845,58.845,0,0,1,312.314,2204.565Z" transform="translate(-194.623 -2145.721)" fill="#fff"/>
              </g>
            </g>
          </g>
          <path id="Trazado_40937" data-name="Trazado 40937" d="M311.665,2203.857A58.844,58.844,0,1,0,252.82,2262.7,58.613,58.613,0,0,0,311.665,2203.857Z" transform="translate(-193.974 -2145.013)" fill="url(#radial-gradient)"/>
          <path id="Trazado_40938" data-name="Trazado 40938" d="M291.975,2198.12a44.917,44.917,0,1,0-44.917,44.917A44.75,44.75,0,0,0,291.975,2198.12Z" transform="translate(-188.034 -2139.08)" fill="none" stroke="#00223d" stroke-miterlimit="10" stroke-width="4"/>
          <g id="Grupo_18422" data-name="Grupo 18422" transform="translate(10.425 33.038)">
            <path id="Trazado_40939" data-name="Trazado 40939" d="M301.861,2164.488a58.853,58.853,0,0,1-101.316,58.6,58.666,58.666,0,0,0,101.316-58.6Z" transform="translate(-200.545 -2164.488)" fill="#eceef0"/>
          </g>
        </g>
      </g>
      <g id="jw7aN7" transform="translate(-415.645 8.948)">
        <g id="Grupo_87228" data-name="Grupo 87228" transform="translate(448.289 20.738)">
          <path id="Trazado_138742" data-name="Trazado 138742" d="M477.367,20.738c1.15.175,2.307.318,3.45.531A22.027,22.027,0,0,1,495.3,30.684a16.848,16.848,0,0,1,2.864,7.835c.062.6.108,1.2.128,1.8a10.223,10.223,0,0,1-.994,5.4,4.759,4.759,0,0,0,.311,4.8c.991,1.83,1.856,3.727,2.807,5.58.8,1.56-.278,2.61-1.665,2.849s-1.445.292-1.4,1.74c.021.6.027,1.2.037,1.8a1.261,1.261,0,0,1-.938,1.464c-.435.172-.554.413-.33.808a1.913,1.913,0,0,1-.2,2.048c-.143.243-.309.474-.474.7a2.812,2.812,0,0,0-.5,2.307,10.468,10.468,0,0,1,.142,1.794c.037,1.618-.578,2.29-2.237,2.73a14.437,14.437,0,0,1-5.586.06,9.91,9.91,0,0,0-4.516.076,3.853,3.853,0,0,0-2.38,2.042c-1.235,2.581-2.519,5.139-3.747,7.723-.422.887-.738,1.823-1.133,2.816-.326-.5-.647-.985-.961-1.474a55.622,55.622,0,0,0-6.171-8,31.449,31.449,0,0,0-5.486-4.728,17.327,17.327,0,0,0-5.008-2.362c-.151-.042-.3-.094-.38-.121.154-1.136.394-2.23.433-3.33a13.163,13.163,0,0,0-1.883-7.242c-1.282-2.171-2.762-4.224-4.111-6.357a28.078,28.078,0,0,1-2.9-5.762,14.423,14.423,0,0,1-.307-8.1,22.834,22.834,0,0,1,3.964-8.422,27.346,27.346,0,0,1,5.7-5.872,20.328,20.328,0,0,1,8.495-3.662c1.854-.35,3.742-.525,5.614-.78.208-.028.415-.068.623-.1ZM465.618,36.886c.258-.225.447-.409.655-.568a6.363,6.363,0,0,1,4.059-1.589,2.245,2.245,0,0,1,2.249,2.8,12.13,12.13,0,0,1-.8,2.4,16.145,16.145,0,0,0-1.579,4.532,9.193,9.193,0,0,0,.57,4.157c1.636-.393,3.213-.777,4.793-1.147.332-.078.284-.266.239-.518a16.878,16.878,0,0,1-.271-1.884,7.992,7.992,0,0,1,1.09-3.88,32.956,32.956,0,0,0,1.592-3.8,6.026,6.026,0,0,0-.425-4.542,5.739,5.739,0,0,0-5.222-3.314,12.435,12.435,0,0,0-6.045,1.337,11.119,11.119,0,0,0-3.213,2.155Zm5.337,16.368a3.509,3.509,0,0,0,3.456,3.718,3.46,3.46,0,0,0,3.646-3.509,3.521,3.521,0,0,0-3.518-3.717A3.418,3.418,0,0,0,470.956,53.255ZM486.43,40.648a3.993,3.993,0,0,1,1.8-2.7,11.813,11.813,0,0,0,1.7-1.571,3.013,3.013,0,0,0-.22-4.1c-1.208-1.257-4.035-1.633-5.59-1.124a.347.347,0,0,0-.19.264c.034.681.092,1.36.146,2.078a2.644,2.644,0,0,1,.582-.119,8.485,8.485,0,0,1,1.921.16,1.138,1.138,0,0,1,.555,1.845,4.377,4.377,0,0,1-.571.621c-.613.582-1.279,1.115-1.841,1.741a3.585,3.585,0,0,0-.886,2.34Zm-28.878,5.086a4.537,4.537,0,0,1,.919-.693,1.539,1.539,0,0,1,1.032-.089c.409.158.407.626.336,1.023-.075.417-.206.823-.278,1.24a2.5,2.5,0,0,0,.432,2.012c.385-.175.729-.358,1.092-.487.34-.121.389-.267.295-.628a3.725,3.725,0,0,1-.05-1.291c.039-.381.213-.747.287-1.127a2.074,2.074,0,0,0-1.687-2.686,3.975,3.975,0,0,0-3.305,1.671Zm26.871-4.508a1.785,1.785,0,0,0-1.781,1.894,1.748,1.748,0,0,0,1.832,1.829,1.819,1.819,0,0,0,1.8-1.891A1.79,1.79,0,0,0,484.423,41.226Zm-24.157,9.258a1.2,1.2,0,0,0,1.123,1.231,1.217,1.217,0,0,0,1.214-1.091,1.254,1.254,0,0,0-1.164-1.255A1.168,1.168,0,0,0,460.266,50.483Z" transform="translate(-448.289 -20.738)" fill="#12263f"/>
        </g>
      </g>
    </g>
  </g>
</svg>
