<svg xmlns="http://www.w3.org/2000/svg" xmlns:xlink="http://www.w3.org/1999/xlink" width="117.692" height="117.691" viewBox="0 0 117.692 117.691">
  <defs>
    <radialGradient id="radial-gradient" cx="0.076" cy="0.019" r="1.465" gradientTransform="translate(0.001)" gradientUnits="objectBoundingBox">
      <stop offset="0" stop-color="#f6f6f7"/>
      <stop offset="0.477" stop-color="#f9f9fa"/>
      <stop offset="0.715" stop-color="#fff"/>
    </radialGradient>
  </defs>
  <g id="Grupo_90282" data-name="Grupo 90282" transform="translate(-731 -5089.309)">
    <g id="Grupo_77987" data-name="Grupo 77987" transform="translate(398 819)">
      <g id="Grupo_77973" data-name="Grupo 77973" transform="translate(333 4270.309)">
        <g id="Grupo_18531" data-name="Grupo 18531" transform="translate(0 0)">
          <g id="Grupo_18423" data-name="Grupo 18423" transform="translate(0 0)">
            <g id="Grupo_18421" data-name="Grupo 18421">
              <g id="Grupo_18420" data-name="Grupo 18420">
                <g id="Grupo_18419" data-name="Grupo 18419">
                  <path id="Trazado_40936" data-name="Trazado 40936" d="M312.314,2204.565a58.846,58.846,0,1,1-58.845-58.844A58.845,58.845,0,0,1,312.314,2204.565Z" transform="translate(-194.623 -2145.721)" fill="#fff"/>
                </g>
              </g>
            </g>
            <path id="Trazado_40937" data-name="Trazado 40937" d="M311.665,2203.857A58.844,58.844,0,1,0,252.82,2262.7,58.613,58.613,0,0,0,311.665,2203.857Z" transform="translate(-193.974 -2145.013)" fill="url(#radial-gradient)"/>
            <path id="Trazado_40938" data-name="Trazado 40938" d="M291.975,2198.12a44.917,44.917,0,1,0-44.917,44.917A44.75,44.75,0,0,0,291.975,2198.12Z" transform="translate(-188.034 -2139.08)" fill="none" stroke="#00223d" stroke-miterlimit="10" stroke-width="4"/>
            <g id="Grupo_18422" data-name="Grupo 18422" transform="translate(10.425 33.038)">
              <path id="Trazado_40939" data-name="Trazado 40939" d="M301.861,2164.488a58.853,58.853,0,0,1-101.316,58.6,58.666,58.666,0,0,0,101.316-58.6Z" transform="translate(-200.545 -2164.488)" fill="#eceef0"/>
            </g>
          </g>
        </g>
      </g>
    </g>
    <g id="G1f1qg.tif" transform="translate(-258.909 5119.792)">
      <g id="Grupo_87229" data-name="Grupo 87229" transform="translate(1014.717 6.391)">
        <path id="Trazado_138743" data-name="Trazado 138743" d="M1133.7,77.383a16.647,16.647,0,0,1-.406,2.054c-.592,1.794-2.036,2.764-4.226,2.782a1.063,1.063,0,0,0-1.193.861,4.371,4.371,0,0,1-3.009,3.1,4.739,4.739,0,0,1-3.035-.373c-.427-.178-.828-.417-1.31-.664a4.97,4.97,0,0,1-3.664,2.8c-1.7.2-3.06-.672-4.464-1.622-.849,1.317-1.9,2.151-3.494,1.353a3.187,3.187,0,0,1-1.944-3.643,2.919,2.919,0,0,1-4.062,1.072c-1.638-.781-2.249-2.052-2.08-4.257a3.331,3.331,0,0,1-4.343-.256,3.4,3.4,0,0,1-1.228-4.089,3.714,3.714,0,0,1-5.942-2.279,3.264,3.264,0,0,1,.737-2.722c.67-.793,1.331-1.595,2.02-2.422-.777-.946-1.517-1.88-2.3-2.781a.812.812,0,0,1-.115-1.106c.362-.6.645-1.249.987-1.927l3.178,3.727c2.057-.853,3.468-.667,4.714.6,1.164,1.183,1.323,2.594.481,4.477a3.817,3.817,0,0,1,5.258,4.588,3.283,3.283,0,0,1,4.246.445,3.249,3.249,0,0,1,1.089,3.745,3,3,0,0,1,3.8.923,2.431,2.431,0,0,1,.494,2.811c1.223,1.049,2.555,1.257,3.56.531a2.639,2.639,0,0,0,.622-.673.687.687,0,0,0-.221-1.064c-1.838-1.346-3.658-2.716-5.476-4.089-.751-.568-.873-1.129-.419-1.731s.991-.632,1.785-.075q4.266,2.988,8.525,5.986a2.009,2.009,0,0,0,3.27-1.076,1.716,1.716,0,0,0-.728-2.081q-3.217-2.344-6.446-4.671-1.5-1.09-3.007-2.183a1.2,1.2,0,0,1-.432-1.766,1.335,1.335,0,0,1,1.841-.181c2.2,1.557,4.4,3.127,6.6,4.691,1.514,1.077,3.022,2.163,4.545,3.228a2.112,2.112,0,0,0,2.531-.047,2.032,2.032,0,0,0,.535-2.4,2.973,2.973,0,0,0-.9-.94q-4.814-3.475-9.653-6.915l-2.213-1.582c-.09-.064-.181-.128-.265-.2a1.356,1.356,0,0,1-.406-1.87,1.377,1.377,0,0,1,1.87-.112c1.112.764,2.2,1.563,3.3,2.347,3.186,2.275,6.366,4.557,9.561,6.82a2.582,2.582,0,0,0,3.657-.831,2.269,2.269,0,0,0-.538-3.117q-8.142-7.077-16.276-14.163c-.766-.668-1.49-1.386-2.207-2.106a4.117,4.117,0,0,0-6.3.764,9.478,9.478,0,0,0-.478,1.765c-.843,2.576-2.364,4.577-5.076,5.3a9.559,9.559,0,0,1-3.132.079A2.162,2.162,0,0,1,1100.2,60.9a1.688,1.688,0,0,1-.081-1.319,14.018,14.018,0,0,0,1.337-6.094,5.425,5.425,0,0,1,.764-2.564c.342-.583.662-1.179,1.053-1.88h-5.486c.526-1.044.968-1.978,1.476-2.873.087-.154.46-.2.7-.2,2.591-.012,5.182,0,7.772-.012a1.921,1.921,0,0,0,.882-.19,15.758,15.758,0,0,1,12.28-1.226,33.007,33.007,0,0,0,8.178,1.621.892.892,0,0,1,.6.471c1.31,2.68,2.592,5.374,3.882,8.064,1.615,3.37,3.223,6.743,4.853,10.106a1.245,1.245,0,0,1,.014,1.239c-.367.705-.646,1.455-1,2.165a.828.828,0,0,0,.126,1.006,4.988,4.988,0,0,1-.023,6.573,4.5,4.5,0,0,1-3.019,1.468C1134.222,77.294,1133.944,77.342,1133.7,77.383Z" transform="translate(-1079.332 -38.849)" fill="#12263f"/>
        <path id="Trazado_138744" data-name="Trazado 138744" d="M1408.71,6.87a1.506,1.506,0,0,1,1.6.913q2.159,4.552,4.326,9.1,2.81,5.895,5.627,11.786c.59,1.233.372,1.9-.874,2.508-1.271.621-2.545,1.236-3.827,1.835a1.565,1.565,0,0,1-2.431-.85q-4.984-10.439-9.953-20.885a1.468,1.468,0,0,1,.775-2.233c1.332-.648,2.664-1.3,4-1.927A5,5,0,0,1,1408.71,6.87Z" transform="translate(-1351.266 -6.805)" fill="#12263f"/>
        <path id="Trazado_138745" data-name="Trazado 138745" d="M1026.408,6.391a9.266,9.266,0,0,1,.991.34q1.981.931,3.945,1.9a1.5,1.5,0,0,1,.795,2.233q-3.889,8.172-7.79,16.338c-.742,1.555-1.478,3.114-2.227,4.665A1.458,1.458,0,0,1,1020,32.7q-2.241-1-4.428-2.113a1.437,1.437,0,0,1-.65-2.08q5.021-10.533,10.041-21.067A1.61,1.61,0,0,1,1026.408,6.391Z" transform="translate(-1014.717 -6.391)" fill="#12263f"/>
      </g>
    </g>
  </g>
</svg>
