<svg xmlns="http://www.w3.org/2000/svg" xmlns:xlink="http://www.w3.org/1999/xlink" width="117.692" height="117.691" viewBox="0 0 117.692 117.691">
  <defs>
    <radialGradient id="radial-gradient" cx="0.076" cy="0.019" r="1.465" gradientTransform="translate(0.001)" gradientUnits="objectBoundingBox">
      <stop offset="0" stop-color="#f6f6f7"/>
      <stop offset="0.477" stop-color="#f9f9fa"/>
      <stop offset="0.715" stop-color="#fff"/>
    </radialGradient>
  </defs>
  <g id="Grupo_90283" data-name="Grupo 90283" transform="translate(-934 -5089.309)">
    <g id="Grupo_77986" data-name="Grupo 77986" transform="translate(601 819)">
      <g id="Grupo_77973" data-name="Grupo 77973" transform="translate(333 4270.309)">
        <g id="Grupo_18531" data-name="Grupo 18531" transform="translate(0 0)">
          <g id="Grupo_18423" data-name="Grupo 18423" transform="translate(0 0)">
            <g id="Grupo_18421" data-name="Grupo 18421">
              <g id="Grupo_18420" data-name="Grupo 18420">
                <g id="Grupo_18419" data-name="Grupo 18419">
                  <path id="Trazado_40936" data-name="Trazado 40936" d="M312.314,2204.565a58.846,58.846,0,1,1-58.845-58.844A58.845,58.845,0,0,1,312.314,2204.565Z" transform="translate(-194.623 -2145.721)" fill="#fff"/>
                </g>
              </g>
            </g>
            <path id="Trazado_40937" data-name="Trazado 40937" d="M311.665,2203.857A58.844,58.844,0,1,0,252.82,2262.7,58.613,58.613,0,0,0,311.665,2203.857Z" transform="translate(-193.974 -2145.013)" fill="url(#radial-gradient)"/>
            <path id="Trazado_40938" data-name="Trazado 40938" d="M291.975,2198.12a44.917,44.917,0,1,0-44.917,44.917A44.75,44.75,0,0,0,291.975,2198.12Z" transform="translate(-188.034 -2139.08)" fill="none" stroke="#00223d" stroke-miterlimit="10" stroke-width="4"/>
            <g id="Grupo_18422" data-name="Grupo 18422" transform="translate(10.425 33.038)">
              <path id="Trazado_40939" data-name="Trazado 40939" d="M301.861,2164.488a58.853,58.853,0,0,1-101.316,58.6,58.666,58.666,0,0,0,101.316-58.6Z" transform="translate(-200.545 -2164.488)" fill="#eceef0"/>
            </g>
          </g>
        </g>
        <g id="BRcLaV" transform="translate(-1472.044 314.66)">
          <g id="Grupo_87230" data-name="Grupo 87230" transform="translate(1502.427 -280.66)">
            <path id="Trazado_138746" data-name="Trazado 138746" d="M1474.3-19.266c0-2.464,0-4.929,0-7.393a1.363,1.363,0,0,1,.833-1.439c2.907-1.2,5.789-2.476,8.729-3.6a14.257,14.257,0,0,1,9.4-.274,45.755,45.755,0,0,1,4.417,1.819c2.882,1.217,5.772,2.419,8.64,3.669a7.476,7.476,0,0,1,3.153,2.45,4.136,4.136,0,0,1,.708,3.073,2.42,2.42,0,0,1-3.1,1.908c-1.92-.452-3.822-1-5.7-1.6-1.846-.587-3.655-1.292-5.481-1.941a1.24,1.24,0,0,0-1.626.566A1.208,1.208,0,0,0,1495-20.3c2.86,1,5.722,2,8.6,2.943a12.418,12.418,0,0,0,4.511.809,4.68,4.68,0,0,0,4.529-4.45,11.692,11.692,0,0,0-.219-2.4c-.058-.356-.032-.54.291-.737q6.471-3.948,12.927-7.92a3.615,3.615,0,0,1,4.8.877,3.769,3.769,0,0,1-.363,4.985,22.824,22.824,0,0,1-3.85,2.9q-9.3,6.38-18.63,12.7a7.6,7.6,0,0,1-7.561.81q-5.75-2.37-11.493-4.759a7.882,7.882,0,0,0-8.17.957c-1.256.92-2.5,1.853-3.759,2.774a3.207,3.207,0,0,1-.636.388,1.157,1.157,0,0,1-1.608-.83,4.336,4.336,0,0,1-.073-.917Q1474.3-15.714,1474.3-19.266Z" transform="translate(-1474.298 64.815)" fill="#12263f"/>
            <path id="Trazado_138747" data-name="Trazado 138747" d="M1763.785-283.965c0-.894,0-1.658,0-2.421q0-11.318.017-22.636a1.218,1.218,0,0,1,.337-.789,5.011,5.011,0,0,1,3.627-1.368q5.89,0,11.78.007c1.118,0,1.577.47,1.578,1.585q0,10.827,0,21.654c0,1.054-.489,1.54-1.562,1.542-2.926,0-5.854.079-8.776-.022a10.324,10.324,0,0,0-6.645,2.192C1764.066-284.165,1763.989-284.112,1763.785-283.965Z" transform="translate(-1730.339 311.179)" fill="#12263f"/>
            <path id="Trazado_138748" data-name="Trazado 138748" d="M1609.547-284.07c-.891-.516-1.73-1.048-2.611-1.5a7.677,7.677,0,0,0-3.615-.82c-3.137.024-6.274.009-9.411.008-1.232,0-1.67-.426-1.67-1.659q-.006-10.8,0-21.592c0-1.054.459-1.537,1.5-1.539q5.976-.011,11.951,0a5.076,5.076,0,0,1,3.352,1.187,1.328,1.328,0,0,1,.538,1.125q-.024,10.305-.012,20.611c0,1.213,0,2.425,0,3.637C1609.572-284.423,1609.555-284.24,1609.547-284.07Z" transform="translate(-1578.612 311.175)" fill="#12263f"/>
          </g>
        </g>
      </g>
    </g>
  </g>
</svg>
