<svg xmlns="http://www.w3.org/2000/svg" xmlns:xlink="http://www.w3.org/1999/xlink" width="117.692" height="117.691" viewBox="0 0 117.692 117.691">
  <defs>
    <radialGradient id="radial-gradient" cx="0.076" cy="0.019" r="1.465" gradientTransform="translate(0.001)" gradientUnits="objectBoundingBox">
      <stop offset="0" stop-color="#f6f6f7"/>
      <stop offset="0.477" stop-color="#f9f9fa"/>
      <stop offset="0.715" stop-color="#fff"/>
    </radialGradient>
  </defs>
  <g id="Grupo_90281" data-name="Grupo 90281" transform="translate(-325 -5089.309)">
    <g id="Grupo_77984" data-name="Grupo 77984" transform="translate(-8 819)">
      <g id="Grupo_77973" data-name="Grupo 77973" transform="translate(333 4270.309)">
        <g id="Grupo_18531" data-name="Grupo 18531" transform="translate(0 0)">
          <g id="Grupo_18423" data-name="Grupo 18423" transform="translate(0 0)">
            <g id="Grupo_18421" data-name="Grupo 18421">
              <g id="Grupo_18420" data-name="Grupo 18420">
                <g id="Grupo_18419" data-name="Grupo 18419">
                  <path id="Trazado_40936" data-name="Trazado 40936" d="M312.314,2204.565a58.846,58.846,0,1,1-58.845-58.844A58.845,58.845,0,0,1,312.314,2204.565Z" transform="translate(-194.623 -2145.721)" fill="#fff"/>
                </g>
              </g>
            </g>
            <path id="Trazado_40937" data-name="Trazado 40937" d="M311.665,2203.857A58.844,58.844,0,1,0,252.82,2262.7,58.613,58.613,0,0,0,311.665,2203.857Z" transform="translate(-193.974 -2145.013)" fill="url(#radial-gradient)"/>
            <path id="Trazado_40938" data-name="Trazado 40938" d="M291.975,2198.12a44.917,44.917,0,1,0-44.917,44.917A44.75,44.75,0,0,0,291.975,2198.12Z" transform="translate(-188.034 -2139.08)" fill="none" stroke="#00223d" stroke-miterlimit="10" stroke-width="4"/>
            <g id="Grupo_18422" data-name="Grupo 18422" transform="translate(10.425 33.038)">
              <path id="Trazado_40939" data-name="Trazado 40939" d="M301.861,2164.488a58.853,58.853,0,0,1-101.316,58.6,58.666,58.666,0,0,0,101.316-58.6Z" transform="translate(-200.545 -2164.488)" fill="#eceef0"/>
            </g>
          </g>
        </g>
        <g id="ILxOAW" transform="translate(-404.36 -126.717)">
          <g id="Grupo_87227" data-name="Grupo 87227" transform="translate(428.665 168.277)">
            <path id="Trazado_138740" data-name="Trazado 138740" d="M511.5,190.207a19.061,19.061,0,1,1,38.122.171,19.061,19.061,0,0,1-38.122-.171Zm28.8,9.368a16.226,16.226,0,0,0-.97-1.356c-4.314-4.893-13.008-5.164-17.614-.5-.409.414-.421,1.222-.617,1.847a5.3,5.3,0,0,0,1.871-.585,10.844,10.844,0,0,1,9.2-2.551,10.5,10.5,0,0,1,6.172,3.439,2.366,2.366,0,0,0,1.35.543C539.834,200.431,540.057,199.92,540.3,199.576Zm-2.832-12.918a2.94,2.94,0,0,0,3.025-2.936,3.03,3.03,0,0,0-2.865-2.917,2.91,2.91,0,0,0-2.984,2.962A2.834,2.834,0,0,0,537.467,186.658ZM526.448,183.8a3.031,3.031,0,0,0-2.783-2.993,2.925,2.925,0,0,0-3.064,2.883,2.842,2.842,0,0,0,2.75,2.964A2.929,2.929,0,0,0,526.448,183.8Z" transform="translate(-477.235 -170.002)" fill="#12263f"/>
            <path id="Trazado_138741" data-name="Trazado 138741" d="M463.236,198.246a18.722,18.722,0,0,1-18.264,7.978c-8.067-1.432-14.2-7.084-15.851-14.612a19.093,19.093,0,0,1,33.782-15.84,2.742,2.742,0,0,1,.275,3.59C459.68,185.612,459.942,191.967,463.236,198.246Zm-15.772.813a12.052,12.052,0,0,0,8.842-3.293c.435-.422.476-1.249.7-1.889-.631.158-1.421.126-1.869.5-4.807,4.036-10.788,3.795-15.231-.63a4.957,4.957,0,0,0-1.65-.695c.1.636-.031,1.462.323,1.877A11.55,11.55,0,0,0,447.464,199.06Zm10.088-16.847a3.044,3.044,0,0,0-2.911-2.891,3,3,0,0,0-3.019,2.974,3.052,3.052,0,0,0,2.892,2.92A3.1,3.1,0,0,0,457.553,182.213Zm-14.048.055a2.959,2.959,0,0,0-5.917-.033,3.046,3.046,0,0,0,2.827,2.977A3.1,3.1,0,0,0,443.5,182.268Z" transform="translate(-428.665 -168.277)" fill="#12263f"/>
          </g>
        </g>
      </g>
    </g>
  </g>
</svg>
