<svg xmlns="http://www.w3.org/2000/svg" xmlns:xlink="http://www.w3.org/1999/xlink" width="283" height="132" viewBox="0 0 283 132">
  <defs>
    <radialGradient id="radial-gradient" cx="0.076" cy="0.019" r="1.465" gradientTransform="translate(0.001)" gradientUnits="objectBoundingBox">
      <stop offset="0" stop-color="#f6f6f7"/>
      <stop offset="0.477" stop-color="#f9f9fa"/>
      <stop offset="0.715" stop-color="#fff"/>
    </radialGradient>
  </defs>
  <g id="Grupo_90285" data-name="Grupo 90285" transform="translate(-224 -6581)">
    <g id="Grupo_90281" data-name="Grupo 90281">
      <rect id="Rect치ngulo_353111" data-name="Rect치ngulo 353111" width="283" height="132" transform="translate(224 6581)" fill="#fff"/>
      <rect id="Rect치ngulo_32727" data-name="Rect치ngulo 32727" width="283" height="81" transform="translate(224 6582)" fill="#e8e8e8"/>
      <g id="Grupo_87331" data-name="Grupo 87331" transform="translate(306.654 6595.309)">
        <g id="Grupo_18531" data-name="Grupo 18531" transform="translate(0 0)">
          <g id="Grupo_18423" data-name="Grupo 18423" transform="translate(0 0)">
            <g id="Grupo_18421" data-name="Grupo 18421">
              <g id="Grupo_18420" data-name="Grupo 18420">
                <g id="Grupo_18419" data-name="Grupo 18419">
                  <path id="Trazado_40936" data-name="Trazado 40936" d="M312.314,2204.565a58.846,58.846,0,1,1-58.845-58.844A58.845,58.845,0,0,1,312.314,2204.565Z" transform="translate(-194.623 -2145.721)" fill="#fff"/>
                </g>
              </g>
            </g>
            <path id="Trazado_40937" data-name="Trazado 40937" d="M311.665,2203.857A58.844,58.844,0,1,0,252.82,2262.7,58.613,58.613,0,0,0,311.665,2203.857Z" transform="translate(-193.974 -2145.013)" fill="url(#radial-gradient)"/>
            <path id="Trazado_40938" data-name="Trazado 40938" d="M291.975,2198.12a44.917,44.917,0,1,0-44.917,44.917A44.75,44.75,0,0,0,291.975,2198.12Z" transform="translate(-188.034 -2139.08)" fill="none" stroke="#00223d" stroke-miterlimit="10" stroke-width="4"/>
            <g id="Grupo_18422" data-name="Grupo 18422" transform="translate(10.425 33.038)">
              <path id="Trazado_40939" data-name="Trazado 40939" d="M301.861,2164.488a58.853,58.853,0,0,1-101.316,58.6,58.666,58.666,0,0,0,101.316-58.6Z" transform="translate(-200.545 -2164.488)" fill="#eceef0"/>
            </g>
          </g>
        </g>
        <g id="UcD47R" transform="translate(493.923 -142.15)">
          <g id="Grupo_87337" data-name="Grupo 87337" transform="translate(-467.426 183.751)">
            <path id="Trazado_138910" data-name="Trazado 138910" d="M-463.973,211.911c-1.049-.368-2.04-.688-3-1.075a.849.849,0,0,1-.445-.624q-.017-10.737.018-21.474a1.091,1.091,0,0,1,.07-.191c.292.084.6.156.894.26,1.912.667,3.821,1.346,5.734,2.012a6.482,6.482,0,0,0,5.974-.671,41.205,41.205,0,0,1,8.824-4.489,8.041,8.041,0,0,1,6.582.426,20.468,20.468,0,0,1,1.9,1.287l-.95.555c-2.6,1.513-5.271,2.921-7.784,4.568a6,6,0,0,0-2.655,6.71,6.117,6.117,0,0,0,4.916,4.876,7.038,7.038,0,0,0,4.651-.881c1.922-.883,3.823-1.814,5.747-2.691a3.758,3.758,0,0,1,4.725.864q6,5.954,11.988,11.928a2.864,2.864,0,0,1,.189,4.215c-1.154,1.154-2.793,1.072-4.132-.2q-1.82-1.721-3.657-3.424c-.293-.27-.631-.49-.949-.733l-.163.153c.214.3.406.62.646.9,1.19,1.376,2.4,2.731,3.588,4.112a2.881,2.881,0,0,1,.353,3.405,2.678,2.678,0,0,1-3.015,1.219,4.079,4.079,0,0,1-1.573-.943c-1.44-1.341-2.816-2.75-4.231-4.118-.352-.34-.759-.621-1.141-.929l-.174.154c.233.321.443.662.7.96q1.668,1.928,3.362,3.834c1.225,1.38,1.262,3.018.079,4.147s-2.819,1.008-4.129-.292-2.644-2.585-3.982-3.861a11.577,11.577,0,0,0-1.025-.786l-.177.151a6.263,6.263,0,0,0,.535.834c.968,1.094,1.941,2.185,2.941,3.249a2.875,2.875,0,0,1,.1,4.285,2.919,2.919,0,0,1-4.217-.354A3.471,3.471,0,0,1-438,226.649a5.935,5.935,0,0,0-3.817-5.743,1.9,1.9,0,0,1-.889-.952,6.629,6.629,0,0,0-3.442-3.7,1.805,1.805,0,0,1-.789-.843,6.233,6.233,0,0,0-3.373-3.4,1.406,1.406,0,0,1-.725-.666,6.084,6.084,0,0,0-5.967-4.18,6.749,6.749,0,0,0-6.544,3.861C-463.684,211.282-463.8,211.553-463.973,211.911Z" transform="translate(467.426 -184.902)" fill="#12263f"/>
            <path id="Trazado_138911" data-name="Trazado 138911" d="M-306.79,189.534v19.5c-2.475.387-4.933.833-7.409,1.132a4.036,4.036,0,0,1-3.348-1.4q-6.374-6.339-12.771-12.655a4.045,4.045,0,0,0-5.339-.835c-2.972,1.516-5.919,3.081-8.9,4.585a3.671,3.671,0,0,1-4.645-1.075,3.719,3.719,0,0,1,.157-4.633,4.55,4.55,0,0,1,1.178-.938q7.507-4.248,15.036-8.457c2.662-1.482,4.16-1.341,6.527.6,2.1,1.722,4.16,3.483,6.212,5.259a4.05,4.05,0,0,0,3.8.985c2.871-.667,5.755-1.281,8.635-1.914C-307.4,189.627-307.135,189.593-306.79,189.534Z" transform="translate(370.951 -183.751)" fill="#12263f"/>
            <path id="Trazado_138912" data-name="Trazado 138912" d="M-427.576,336.321c-1.522.318-2.916,1.119-4.172-.2-1.236-1.3-.608-2.644.013-4.128-.723.182-1.279.347-1.845.46a2.5,2.5,0,0,1-3.015-1.857c-.8-2.788,2.172-6.358,5.054-6.061a3.226,3.226,0,0,1,2.977,3.654l-.067.689c3.448.191,4.5,1.293,4.161,4.391a3.819,3.819,0,0,1,3.513,1.053,3.923,3.923,0,0,1,.6,3.6c.272-.013.472-.015.671-.032a3.425,3.425,0,0,1,3.6,4.875,5.473,5.473,0,0,1-5.858,2.944,2.527,2.527,0,0,1-1.9-3.358c.172-.555.411-1.089.657-1.732-1.525.307-2.993,1.1-4.325-.12C-428.889,339.228-428.144,337.824-427.576,336.321Z" transform="translate(442.22 -299.339)" fill="#12263f"/>
          </g>
        </g>
      </g>
    </g>
  </g>
</svg>
