<svg xmlns="http://www.w3.org/2000/svg" xmlns:xlink="http://www.w3.org/1999/xlink" width="283" height="132" viewBox="0 0 283 132">
  <defs>
    <radialGradient id="radial-gradient" cx="0.076" cy="0.019" r="1.465" gradientTransform="translate(0.001)" gradientUnits="objectBoundingBox">
      <stop offset="0" stop-color="#f6f6f7"/>
      <stop offset="0.477" stop-color="#f9f9fa"/>
      <stop offset="0.715" stop-color="#fff"/>
    </radialGradient>
  </defs>
  <g id="Grupo_90284" data-name="Grupo 90284" transform="translate(-1081 -6582)">
    <rect id="Rect치ngulo_353114" data-name="Rect치ngulo 353114" width="283" height="132" transform="translate(1081 6582)" fill="#fff"/>
    <rect id="Rect치ngulo_32729" data-name="Rect치ngulo 32729" width="283" height="81" transform="translate(1081 6582)" fill="#dee4f0"/>
    <g id="Grupo_87334" data-name="Grupo 87334" transform="translate(1163.654 6595.309)">
      <g id="Grupo_18531" data-name="Grupo 18531" transform="translate(0 0)">
        <g id="Grupo_18423" data-name="Grupo 18423" transform="translate(0 0)">
          <g id="Grupo_18421" data-name="Grupo 18421">
            <g id="Grupo_18420" data-name="Grupo 18420">
              <g id="Grupo_18419" data-name="Grupo 18419">
                <path id="Trazado_40936" data-name="Trazado 40936" d="M312.314,2204.565a58.846,58.846,0,1,1-58.845-58.844A58.845,58.845,0,0,1,312.314,2204.565Z" transform="translate(-194.623 -2145.721)" fill="#fff"/>
              </g>
            </g>
          </g>
          <path id="Trazado_40937" data-name="Trazado 40937" d="M311.665,2203.857A58.844,58.844,0,1,0,252.82,2262.7,58.613,58.613,0,0,0,311.665,2203.857Z" transform="translate(-193.974 -2145.013)" fill="url(#radial-gradient)"/>
          <path id="Trazado_40938" data-name="Trazado 40938" d="M291.975,2198.12a44.917,44.917,0,1,0-44.917,44.917A44.75,44.75,0,0,0,291.975,2198.12Z" transform="translate(-188.034 -2139.08)" fill="none" stroke="#00223d" stroke-miterlimit="10" stroke-width="4"/>
          <g id="Grupo_18422" data-name="Grupo 18422" transform="translate(10.425 33.038)">
            <path id="Trazado_40939" data-name="Trazado 40939" d="M301.861,2164.488a58.853,58.853,0,0,1-101.316,58.6,58.666,58.666,0,0,0,101.316-58.6Z" transform="translate(-200.545 -2164.488)" fill="#eceef0"/>
          </g>
        </g>
      </g>
      <g id="ICqfZp.tif" transform="translate(963.229 -12.512)">
        <g id="Grupo_87339" data-name="Grupo 87339" transform="translate(-932.118 41.502)">
          <path id="Trazado_138916" data-name="Trazado 138916" d="M-897.689,73.893c1.4,1.444,2.777,2.834,4.114,4.26a2.342,2.342,0,0,1,.587,1.1,1.258,1.258,0,0,1-1.147,1.44,3.006,3.006,0,0,1-.387.013c-6.234,0-12.469.048-18.7-.023a19.589,19.589,0,0,1-18.61-16.09,19.565,19.565,0,0,1,12.305-21.778A19.621,19.621,0,0,1-893.52,56.508a19.3,19.3,0,0,1-3.851,16.975C-897.463,73.6-897.553,73.717-897.689,73.893ZM-912.56,59.287c2.236,0,4.472,0,6.707,0a1.342,1.342,0,0,0,1.388-.84c.408-.986-.288-1.886-1.475-1.887q-6.579-.009-13.157,0c-1.059,0-1.653.5-1.647,1.38s.577,1.345,1.669,1.347Q-915.817,59.293-912.56,59.287Zm-4.5,6.834H-915c.043,0,.086,0,.129,0a1.3,1.3,0,0,0,1.382-1.3,1.3,1.3,0,0,0-1.334-1.415q-2.283-.041-4.567,0a1.308,1.308,0,0,0-1.354,1.4,1.3,1.3,0,0,0,1.37,1.31C-918.6,66.133-917.83,66.119-917.058,66.121Zm10.42,0c.3,0,.6.01.9,0a1.339,1.339,0,0,0,1.381-1.315,1.338,1.338,0,0,0-1.306-1.394,18.643,18.643,0,0,0-1.929,0,1.3,1.3,0,0,0-1.3,1.384,1.3,1.3,0,0,0,1.353,1.325C-907.238,66.129-906.937,66.119-906.637,66.12Z" transform="translate(932.118 -41.502)" fill="#12263f"/>
          <path id="Trazado_138917" data-name="Trazado 138917" d="M-786.72,220.54a19.572,19.572,0,0,1-3.8-6.822,1.333,1.333,0,0,1,.409-1.516,1.2,1.2,0,0,1,1.438-.2,1.74,1.74,0,0,1,.747.83,18.41,18.41,0,0,0,4.061,6.736,1.387,1.387,0,0,1-.084,2.118c-.9.947-1.811,1.875-2.8,2.895.277.021.437.043.6.043,4.773,0,9.547.022,14.32,0a16.807,16.807,0,0,0,16.48-13.261,16.8,16.8,0,0,0-11.022-19.532c-.1-.034-.2-.069-.3-.106a1.4,1.4,0,0,1-1.024-1.789,1.372,1.372,0,0,1,1.887-.823c7,2.453,11.525,7.245,13.114,14.5a19.468,19.468,0,0,1-15.235,23.353,20.438,20.438,0,0,1-4.031.392c-5.913.041-11.826.02-17.738.016-1.187,0-1.866-.617-1.676-1.573a2.043,2.043,0,0,1,.525-.926C-789.5,223.426-788.127,222.007-786.72,220.54Z" transform="translate(809.605 -169.928)" fill="#12263f"/>
        </g>
      </g>
    </g>
  </g>
</svg>
