<svg xmlns="http://www.w3.org/2000/svg" xmlns:xlink="http://www.w3.org/1999/xlink" width="117.692" height="117.691" viewBox="0 0 117.692 117.691">
  <defs>
    <radialGradient id="radial-gradient" cx="0.076" cy="0.019" r="1.465" gradientTransform="translate(0.001)" gradientUnits="objectBoundingBox">
      <stop offset="0" stop-color="#f6f6f7"/>
      <stop offset="0.477" stop-color="#f9f9fa"/>
      <stop offset="0.715" stop-color="#fff"/>
    </radialGradient>
  </defs>
  <g id="Grupo_87880" data-name="Grupo 87880" transform="translate(-333 -4270.309)">
    <g id="Grupo_77973" data-name="Grupo 77973" transform="translate(333 4270.309)">
      <g id="Grupo_18531" data-name="Grupo 18531" transform="translate(0 0)">
        <g id="Grupo_18423" data-name="Grupo 18423" transform="translate(0 0)">
          <g id="Grupo_18421" data-name="Grupo 18421">
            <g id="Grupo_18420" data-name="Grupo 18420">
              <g id="Grupo_18419" data-name="Grupo 18419">
                <path id="Trazado_40936" data-name="Trazado 40936" d="M312.314,2204.565a58.846,58.846,0,1,1-58.845-58.844A58.845,58.845,0,0,1,312.314,2204.565Z" transform="translate(-194.623 -2145.721)" fill="#fff"/>
              </g>
            </g>
          </g>
          <path id="Trazado_40937" data-name="Trazado 40937" d="M311.665,2203.857A58.844,58.844,0,1,0,252.82,2262.7,58.613,58.613,0,0,0,311.665,2203.857Z" transform="translate(-193.974 -2145.013)" fill="url(#radial-gradient)"/>
          <path id="Trazado_40938" data-name="Trazado 40938" d="M291.975,2198.12a44.917,44.917,0,1,0-44.917,44.917A44.75,44.75,0,0,0,291.975,2198.12Z" transform="translate(-188.034 -2139.08)" fill="none" stroke="#00223d" stroke-miterlimit="10" stroke-width="4"/>
          <g id="Grupo_18422" data-name="Grupo 18422" transform="translate(10.425 33.038)">
            <path id="Trazado_40939" data-name="Trazado 40939" d="M301.861,2164.488a58.853,58.853,0,0,1-101.316,58.6,58.666,58.666,0,0,0,101.316-58.6Z" transform="translate(-200.545 -2164.488)" fill="#eceef0"/>
          </g>
        </g>
      </g>
      <g id="_1o7J4U.tif" data-name="1o7J4U.tif" transform="translate(-3693.943 -731.213)">
        <g id="Grupo_77978" data-name="Grupo 77978" transform="translate(3720.292 769.682)">
          <path id="Trazado_138585" data-name="Trazado 138585" d="M3720.292,837.325a3.766,3.766,0,0,1,2.37-2.673c.142-.051.259-.376.261-.576.019-1.884-.1-3.777.045-5.651a33.759,33.759,0,0,1,.816-4.56c.629-2.9,1.3-5.788,1.963-8.681a1.654,1.654,0,0,1,1.9-1.536q12.888,0,25.775-.01a1.95,1.95,0,0,1,1.861,1.134c2.283,4.1,4.6,8.193,6.872,12.3a.984.984,0,0,0,1.039.6c.948-.04,1.9-.012,2.99-.012-.207-.293-.337-.484-.474-.671q-3.277-4.443-6.555-8.886c-1.161-1.575-.973-2.828.59-3.987.98-.727,1.958-1.456,2.946-2.171a2.445,2.445,0,0,1,3.711.568c.985,1.312,1.952,2.638,2.924,3.959.1.136.18.286.27.429l-.132.2-4.576-2.542-.077.063a3.641,3.641,0,0,0,.283.352c1.158,1.133,2.334,2.247,3.471,3.4a1.008,1.008,0,0,0,1.067.287c1.644-.369,3.292-.718,4.939-1.069a1.791,1.791,0,0,1,2.333,1.27,1.771,1.771,0,0,1-1.615,2.1c-1.993.431-3.992.838-5.977,1.3a2.337,2.337,0,0,1-2.408-.691c-1.447-1.466-2.946-2.88-4.5-4.266.087.163.163.332.262.487q1.482,2.327,2.972,4.65a3.3,3.3,0,0,0,3.554,1.521c2.214-.457,4.422-.944,6.632-1.425a3.56,3.56,0,0,0,2.315-1.6,2.681,2.681,0,0,1,.291.164q4.53,3.387,9.058,6.777a2.089,2.089,0,0,1,.963,2.177,1.986,1.986,0,0,1-1.5,1.614,2.249,2.249,0,0,1-2.04-.53c-2.534-1.908-5.089-3.788-7.6-5.72a1.126,1.126,0,0,0-1.468-.158,11.243,11.243,0,0,1-1.179.547c1.212.265,2.231.506,3.258.708a2.262,2.262,0,0,1,1.852,1.689c1.127,3.659,2.275,7.313,3.4,10.973a2.079,2.079,0,1,1-3.966,1.2q-1.483-4.72-2.93-9.45a.834.834,0,0,0-.74-.7c-1.369-.249-2.726-.568-4.2-.884.259.384.462.665.645.959a6.661,6.661,0,0,1,.781,3.847.678.678,0,0,0,.4.733,3.333,3.333,0,0,1,1.708,4.044,3.428,3.428,0,0,1-3.776,2.346,8.251,8.251,0,0,0-3.469-6.614,8.02,8.02,0,0,0-5-1.537,8.279,8.279,0,0,0-8.028,8.139h-12.649a8.183,8.183,0,0,0-3.17-6.39,7.982,7.982,0,0,0-5.191-1.753,8.314,8.314,0,0,0-8.145,8.163c-1.628.093-3.275.23-4.408-1.3a9.373,9.373,0,0,1-.739-1.469ZM3743,817.147v6.974h13.418a1.024,1.024,0,0,0-.055-.227c-1.189-2.127-2.369-4.258-3.59-6.366a1,1,0,0,0-.741-.364c-1.909-.03-3.817-.017-5.727-.017Zm-3.575,0h-9.159c-1.356,0-1.363,0-1.662,1.342-.416,1.869-.819,3.741-1.233,5.634h12.054Z" transform="translate(-3720.292 -805.774)" fill="#12263f"/>
          <path id="Trazado_138586" data-name="Trazado 138586" d="M4005.165,1007.5a5.2,5.2,0,1,1,5.176-5.219A5.233,5.233,0,0,1,4005.165,1007.5Z" transform="translate(-3962.592 -966.744)" fill="#12263f"/>
          <path id="Trazado_138587" data-name="Trazado 138587" d="M3781.922,1002.3a5.206,5.206,0,1,1,5.192,5.2A5.214,5.214,0,0,1,3781.922,1002.3Z" transform="translate(-3773.695 -966.742)" fill="#12263f"/>
          <path id="Trazado_138588" data-name="Trazado 138588" d="M3982.362,776.8a3.559,3.559,0,1,1,3.67-3.51A3.582,3.582,0,0,1,3982.362,776.8Z" transform="translate(-3944.347 -769.682)" fill="#12263f"/>
        </g>
      </g>
    </g>
  </g>
</svg>
