<svg xmlns="http://www.w3.org/2000/svg" xmlns:xlink="http://www.w3.org/1999/xlink" width="117.692" height="117.691" viewBox="0 0 117.692 117.691">
  <defs>
    <radialGradient id="radial-gradient" cx="0.076" cy="0.019" r="1.465" gradientTransform="translate(0.001)" gradientUnits="objectBoundingBox">
      <stop offset="0" stop-color="#f6f6f7"/>
      <stop offset="0.477" stop-color="#f9f9fa"/>
      <stop offset="0.715" stop-color="#fff"/>
    </radialGradient>
  </defs>
  <g id="Grupo_77971" data-name="Grupo 77971" transform="translate(-333 -4270.309)">
    <g id="Grupo_77973" data-name="Grupo 77973" transform="translate(333 4270.309)">
      <g id="Grupo_18531" data-name="Grupo 18531" transform="translate(0 0)">
        <g id="Grupo_18423" data-name="Grupo 18423" transform="translate(0 0)">
          <g id="Grupo_18421" data-name="Grupo 18421">
            <g id="Grupo_18420" data-name="Grupo 18420">
              <g id="Grupo_18419" data-name="Grupo 18419">
                <path id="Trazado_40936" data-name="Trazado 40936" d="M312.314,2204.565a58.846,58.846,0,1,1-58.845-58.844A58.845,58.845,0,0,1,312.314,2204.565Z" transform="translate(-194.623 -2145.721)" fill="#fff"/>
              </g>
            </g>
          </g>
          <path id="Trazado_40937" data-name="Trazado 40937" d="M311.665,2203.857A58.844,58.844,0,1,0,252.82,2262.7,58.613,58.613,0,0,0,311.665,2203.857Z" transform="translate(-193.974 -2145.013)" fill="url(#radial-gradient)"/>
          <path id="Trazado_40938" data-name="Trazado 40938" d="M291.975,2198.12a44.917,44.917,0,1,0-44.917,44.917A44.75,44.75,0,0,0,291.975,2198.12Z" transform="translate(-188.034 -2139.08)" fill="none" stroke="#00223d" stroke-miterlimit="10" stroke-width="4"/>
          <g id="Grupo_18422" data-name="Grupo 18422" transform="translate(10.425 33.038)">
            <path id="Trazado_40939" data-name="Trazado 40939" d="M301.861,2164.488a58.853,58.853,0,0,1-101.316,58.6,58.666,58.666,0,0,0,101.316-58.6Z" transform="translate(-200.545 -2164.488)" fill="#eceef0"/>
          </g>
        </g>
      </g>
      <g id="fOw690" transform="translate(4400.558 -1279.002)">
        <g id="Grupo_87882" data-name="Grupo 87882" transform="translate(-4380.125 1315.28)">
          <path id="Trazado_139667" data-name="Trazado 139667" d="M-4335.368,1544.628h-23.624a8.02,8.02,0,0,0-1.946-7.612,7.394,7.394,0,0,0-5.7-2.44,7.991,7.991,0,0,0-7.424,10.063,5.323,5.323,0,0,1-3-.63,5.544,5.544,0,0,1-3.026-4.987,31.878,31.878,0,0,1,.025-3.628,5.39,5.39,0,0,1,4.493-4.788,8.164,8.164,0,0,1,1.67-.182c4.908-.014,9.816-.009,14.724-.009l16.46,0c3.042,0,6.084-.043,9.125.021a33.974,33.974,0,0,1,3.953.439,1.475,1.475,0,0,0,1.151-.256c.4-.29.8-.572,1.2-.862a.678.678,0,0,1,1,.11,9.97,9.97,0,0,1,.9,1.041,3.586,3.586,0,0,0,2.068,1.36,1.429,1.429,0,0,0,1.888-.635c.3-.47.694-.883,1.036-1.33.153-.2.281-.421.421-.633l.217.132c.114.22.247.433.337.662.372.933.756,1.862,1.084,2.811a1.043,1.043,0,0,0,1.215.821c.1-.011.2,0,.387,0v.607q0,4.525,0,9.049c0,.665-.09.828-.758.868-.914.055-1.833.014-2.8.014a8.046,8.046,0,0,0-2.339-7.994,7.34,7.34,0,0,0-5.5-2.055A8,8,0,0,0-4335.368,1544.628Zm-18.6-10.913c-.493,0-.987-.013-1.479,0a.978.978,0,0,0-1,1.005.963.963,0,0,0,.977,1.022q1.479.034,2.959,0a.969.969,0,0,0,.973-1.028.982.982,0,0,0-1.005-1C-4353.015,1533.7-4353.492,1533.715-4353.969,1533.715Z" transform="translate(4380.125 -1507.671)" fill="#12263f"/>
          <path id="Trazado_139668" data-name="Trazado 139668" d="M-3739.931,1325.057h6.056V1364.8h-6.056Z" transform="translate(3805.398 -1324.057)" fill="#12263f"/>
          <path id="Trazado_139669" data-name="Trazado 139669" d="M-4151.562,1455.2h-22.215v-6.7c1.607-.131,3.194-.349,4.783-.367,1.955-.023,3.914.093,5.868.2a12.188,12.188,0,0,1,6.079,2.184A28.971,28.971,0,0,1-4151.562,1455.2Z" transform="translate(4194.878 -1434.543)" fill="#12263f"/>
          <path id="Trazado_139670" data-name="Trazado 139670" d="M-3941.789,1325.268l-2.011,2.357c-.866-.836-1.713-1.644-2.549-2.463s-1.662-1.647-2.6-2.574l1.032,7.661-4.36-.582c.59,1.032,1.113,1.941,1.629,2.855a3.33,3.33,0,0,1,.338.682,1.286,1.286,0,0,1-.7,1.535,1.243,1.243,0,0,1-1.619-.571c-.937-1.6-1.857-3.214-2.784-4.822l-1.71-2.974,6.242.857-1.611-11.949,8.494,8.609,4.862-5.744v.522q0,4.908,0,9.816a1.233,1.233,0,0,1-.745,1.231,1.1,1.1,0,0,1-1.361-.237,1.9,1.9,0,0,1-.4-1.049c-.052-1.034-.019-2.073-.019-3.109Z" transform="translate(4000.38 -1315.28)" fill="#12263f"/>
          <path id="Trazado_139671" data-name="Trazado 139671" d="M-3926.276,1604.449a5.9,5.9,0,0,1,5.768-5.955,5.889,5.889,0,0,1,6.015,5.806,5.884,5.884,0,0,1-5.815,6A5.887,5.887,0,0,1-3926.276,1604.449Zm3.142-.092a2.764,2.764,0,0,0,2.709,2.812,2.773,2.773,0,0,0,2.8-2.727,2.764,2.764,0,0,0-2.713-2.811A2.762,2.762,0,0,0-3923.134,1604.357Z" transform="translate(3972.688 -1569.531)" fill="#12263f"/>
          <path id="Trazado_139672" data-name="Trazado 139672" d="M-4292.99,1604.441a5.906,5.906,0,0,1-5.887,5.88,5.913,5.913,0,0,1-5.919-5.9,5.919,5.919,0,0,1,5.918-5.906A5.9,5.9,0,0,1-4292.99,1604.441Zm-5.922-2.792a2.8,2.8,0,0,0-2.751,2.79,2.8,2.8,0,0,0,2.795,2.75,2.794,2.794,0,0,0,2.747-2.793A2.791,2.791,0,0,0-4298.912,1601.649Z" transform="translate(4312.5 -1569.548)" fill="#12263f"/>
          <path id="Trazado_139673" data-name="Trazado 139673" d="M-4283.923,1457.991v4.958c0,1.133,0,1.133-1.13,1.133q-4.345,0-8.69,0c-.115,0-.23-.016-.437-.031A24.4,24.4,0,0,1-4283.923,1457.991Z" transform="translate(4302.97 -1443.397)" fill="#12263f"/>
        </g>
      </g>
    </g>
  </g>
</svg>
