<svg xmlns="http://www.w3.org/2000/svg" xmlns:xlink="http://www.w3.org/1999/xlink" width="117.692" height="117.691" viewBox="0 0 117.692 117.691">
  <defs>
    <radialGradient id="radial-gradient" cx="0.076" cy="0.019" r="1.465" gradientTransform="translate(0.001)" gradientUnits="objectBoundingBox">
      <stop offset="0" stop-color="#f6f6f7"/>
      <stop offset="0.477" stop-color="#f9f9fa"/>
      <stop offset="0.715" stop-color="#fff"/>
    </radialGradient>
  </defs>
  <g id="Grupo_87881" data-name="Grupo 87881" transform="translate(-333 -4270.309)">
    <g id="Grupo_77973" data-name="Grupo 77973" transform="translate(333 4270.309)">
      <g id="Grupo_18531" data-name="Grupo 18531" transform="translate(0 0)">
        <g id="Grupo_18423" data-name="Grupo 18423" transform="translate(0 0)">
          <g id="Grupo_18421" data-name="Grupo 18421">
            <g id="Grupo_18420" data-name="Grupo 18420">
              <g id="Grupo_18419" data-name="Grupo 18419">
                <path id="Trazado_40936" data-name="Trazado 40936" d="M312.314,2204.565a58.846,58.846,0,1,1-58.845-58.844A58.845,58.845,0,0,1,312.314,2204.565Z" transform="translate(-194.623 -2145.721)" fill="#fff"/>
              </g>
            </g>
          </g>
          <path id="Trazado_40937" data-name="Trazado 40937" d="M311.665,2203.857A58.844,58.844,0,1,0,252.82,2262.7,58.613,58.613,0,0,0,311.665,2203.857Z" transform="translate(-193.974 -2145.013)" fill="url(#radial-gradient)"/>
          <path id="Trazado_40938" data-name="Trazado 40938" d="M291.975,2198.12a44.917,44.917,0,1,0-44.917,44.917A44.75,44.75,0,0,0,291.975,2198.12Z" transform="translate(-188.034 -2139.08)" fill="none" stroke="#00223d" stroke-miterlimit="10" stroke-width="4"/>
          <g id="Grupo_18422" data-name="Grupo 18422" transform="translate(10.425 33.038)">
            <path id="Trazado_40939" data-name="Trazado 40939" d="M301.861,2164.488a58.853,58.853,0,0,1-101.316,58.6,58.666,58.666,0,0,0,101.316-58.6Z" transform="translate(-200.545 -2164.488)" fill="#eceef0"/>
          </g>
        </g>
      </g>
      <g id="Grupo_87884" data-name="Grupo 87884" transform="translate(6453.219 -841.234)">
        <g id="PjyoDT" transform="translate(-6425.817 871.373)">
          <g id="Grupo_87883" data-name="Grupo 87883" transform="translate(0 0)">
            <path id="Trazado_139675" data-name="Trazado 139675" d="M-6375.96,1157.76c-.568.7-1.094,1.328-1.6,1.97q-1.872,2.356-3.734,4.721a.718.718,0,0,0,.206,1.2c1.377.866,2.756,1.727,4.093,2.565-.425.454-.837.921-1.277,1.36q-.945.943-1.926,1.847a.733.733,0,0,1-.451.18c-2.225.011-4.449.007-6.675.009a5.437,5.437,0,0,0-5.272,3.573q-.939,2.338-1.873,4.678c-.008.02-.021.038-.052.092-.1-.028-.211-.055-.318-.09l-3.619-1.173c-.671-.218-1.006-.039-1.162.656a3.578,3.578,0,0,0,.85,3.3c.064.073.129.145.192.218,0,.006,0,.02,0,.057h-26.312c0-.1-.015-.208-.016-.312,0-.705.01-1.411,0-2.116-.021-1.093-.076-2.185-.079-3.277a6.4,6.4,0,0,1,6.178-6.316c.521-.012,1.042,0,1.563,0s.843-.274.85-.7c.006-.442-.322-.72-.856-.721h-1.694c.3-.761.584-1.485.871-2.207q.618-1.557,1.24-3.112a3.717,3.717,0,0,1,3.646-2.483c2.137-.007,4.275-.008,6.413-.024a.572.572,0,0,1,.512.253c.744.959,1.5,1.908,2.275,2.888-.108.073-.2.141-.3.2q-3.861,2.383-7.725,4.762a.763.763,0,0,0-.459.817c.069.389.356.53.715.6q4.523.931,9.043,1.874c.052.011.1.026.183.046-.271.825-.538,1.637-.807,2.448-.048.144-.1.287-.144.432a.708.708,0,0,0,.438.948.706.706,0,0,0,.909-.511c.269-.8.529-1.605.794-2.408.119-.36.24-.719.357-1.08.2-.607-.01-.97-.624-1.1l-5.447-1.121c-.922-.19-1.844-.384-2.84-.591l1.463-.906q2.851-1.761,5.7-3.522c.585-.362.652-.748.231-1.281q-2.481-3.14-4.962-6.281c-.066-.083-.128-.17-.234-.311.165.013.275.015.384.031q3.929.573,7.855,1.147c.784.114,1.041-.116,1.063-.9.033-1.2.078-2.4.115-3.6.047-1.549.092-3.1.14-4.728.11.11.183.174.247.246q2.651,2.978,5.3,5.957c.537.6.9.592,1.438-.015q2.666-3.007,5.345-6c.041-.047.087-.092.181-.191.011.175.021.287.024.4q.111,3.97.221,7.94c.021.751.293,1,1.034.9,1.6-.227,3.2-.468,4.795-.7Zm-43.259,21.631v0c.619,0,1.237.012,1.855,0a4.636,4.636,0,0,0,4.5-4.981.657.657,0,0,0-.573-.65,8.022,8.022,0,0,0-1-.044c-.7,0-1.4,0-2.106.016a10.978,10.978,0,0,0-1.711.086,4.585,4.585,0,0,0-3.807,4.635c0,.731.217.943.953.944Zm28.333-14.182c-.161.009-.264.018-.367.019-.91,0-1.821,0-2.732,0a1.045,1.045,0,0,0-.41.066c-.5.224-.55.789-.109,1.231q2.131,2.139,4.272,4.271a1.441,1.441,0,0,0,.194.171.679.679,0,0,0,1.091-.491,1,1,0,0,0-.278-.65c-.971-1.006-1.968-1.987-2.955-2.978a2.775,2.775,0,0,1-.173-.221h1.67c.523,0,1.047-.009,1.569,0a.61.61,0,0,0,.634-.495.808.808,0,0,0-.246-.829c-.211-.216-.451-.4-.665-.617q-1.7-1.7-3.4-3.405a.791.791,0,0,0-.742-.313.687.687,0,0,0-.552.494.749.749,0,0,0,.258.787q1.348,1.344,2.691,2.69C-6391.066,1165.012-6391,1165.089-6390.886,1165.208Z" transform="translate(6424.988 -1149.758)" fill="#12263f"/>
            <path id="Trazado_139676" data-name="Trazado 139676" d="M-6042.95,1672.812v-.367c0-1.158-.018-2.316-.01-3.473.008-1.126-.021-2.257.071-3.377a7.008,7.008,0,0,1,5.9-6.157,8.138,8.138,0,0,1,1.07-.076q11.424-.007,22.85,0h4.654a6.456,6.456,0,0,1,6.572,6.607c-.011,2.148,0,4.3,0,6.445v.4Zm6.627-4.955v-.007c.726,0,1.453.025,2.18,0a4.929,4.929,0,0,0,4.66-4.791c.01-.568-.257-.861-.813-.863-1.4-.005-2.8-.032-4.2.007a4.832,4.832,0,0,0-4.41,2.781,5.465,5.465,0,0,0-.5,1.863c-.076.6.212,1.011.807,1.014C-6037.843,1667.86-6037.084,1667.857-6036.323,1667.857Zm27.81.042,0-.042c.792,0,1.583.006,2.375,0a.693.693,0,0,0,.746-.757c0-.108,0-.217-.011-.325a4.869,4.869,0,0,0-4.555-4.544c-1.536-.088-3.08-.038-4.62-.032a.692.692,0,0,0-.725.781,4.876,4.876,0,0,0,3.967,4.773A26.1,26.1,0,0,0-6008.514,1667.9Z" transform="translate(6067.838 -1626.175)" fill="#12263f"/>
            <path id="Trazado_139677" data-name="Trazado 139677" d="M-5943.007,1515.317c.32-.8.631-1.588.944-2.371.467-1.167.932-2.336,1.4-3.5a4.048,4.048,0,0,1,3.9-2.623q8.087,0,16.177,0a4.052,4.052,0,0,1,3.908,2.657q1.11,2.812,2.214,5.628c.023.059.043.119.077.21Z" transform="translate(5974.391 -1483.571)" fill="#12263f"/>
            <path id="Trazado_139679" data-name="Trazado 139679" d="M-6401.892,1681.389H-6396c0,.845.005,1.676,0,2.506,0,.258-.2.308-.413.309-.584,0-1.17,0-1.754,0h-3.121c-.555,0-.6-.045-.6-.583v-2.233Z" transform="translate(6403.396 -1646.772)" fill="#12263f"/>
            <path id="Trazado_139680" data-name="Trazado 139680" d="M-5988.267,1882.231h5.892c0,.845.006,1.676,0,2.507,0,.258-.2.308-.412.309-.585,0-1.17,0-1.755,0h-3.121c-.555,0-.6-.045-.6-.583v-2.233Z" transform="translate(6016.703 -1834.537)" fill="#12263f"/>
            <path id="Trazado_139681" data-name="Trazado 139681" d="M-5572.117,1882.231h5.892c0,.845.005,1.676,0,2.507,0,.258-.2.308-.413.309-.585,0-1.17,0-1.755,0h-3.121c-.555,0-.6-.045-.6-.583v-2.233Z" transform="translate(5627.651 -1834.537)" fill="#12263f"/>
            <path id="Trazado_139682" data-name="Trazado 139682" d="M-5479.433,1616.791c-.081-.027-.194-.059-.3-.1-.525-.2-1.045-.421-1.574-.615-.214-.078-.377-.185-.387-.422-.01-.259.161-.379.388-.452,1.3-.417,2.6-.845,3.9-1.249a.593.593,0,0,1,.5.079.57.57,0,0,1,.1.49,3.061,3.061,0,0,1-2.324,2.222C-5479.222,1616.764-5479.309,1616.771-5479.433,1616.791Z" transform="translate(5543.118 -1583.707)" fill="#12263f"/>
            <path id="Trazado_139683" data-name="Trazado 139683" d="M-6015.525,1618.836a1.42,1.42,0,0,1-.36.319c-.464.2-.944.374-1.424.541a.546.546,0,0,1-.341-.011,2.613,2.613,0,0,1-1.653-1.668.613.613,0,0,1,.078-.525.609.609,0,0,1,.519-.1c.933.278,1.854.593,2.782.887C-6015.687,1618.352-6015.562,1618.5-6015.525,1618.836Z" transform="translate(6045.744 -1586.923)" fill="#12263f"/>
            <path id="Trazado_139684" data-name="Trazado 139684" d="M-6407.68,1436.477a4.43,4.43,0,0,1-.931-.555,5.079,5.079,0,0,1-.763-1.067.466.466,0,0,1,.063-.434.5.5,0,0,1,.43-.1q1.336.4,2.654.858a.555.555,0,0,1,.29.371.43.43,0,0,1-.212.351c-.446.193-.91.344-1.368.507a.6.6,0,0,1-.128.017Z" transform="translate(6410.419 -1415.775)" fill="#12263f"/>
            <path id="Trazado_139685" data-name="Trazado 139685" d="M-6358.735,1542.372a6.1,6.1,0,0,1,.512-1.262,4.455,4.455,0,0,1,1.081-1.082,3.211,3.211,0,0,1,2.05-.44c.669.026,1.342-.018,2.013-.03.227,0,.454,0,.719,0a3.089,3.089,0,0,1-.963,1.949,2.8,2.8,0,0,1-1.852.855C-6356.333,1542.4-6357.493,1542.372-6358.735,1542.372Z" transform="translate(6363.049 -1514.175)" fill="#12263f"/>
            <path id="Trazado_139686" data-name="Trazado 139686" d="M-5965.232,1727.386a3.14,3.14,0,0,1,.789-1.615,3.434,3.434,0,0,1,2.638-1.2c1.073-.011,2.146,0,3.218,0,.085,0,.17.009.29.016a3.5,3.5,0,0,1-1.62,2.31,3.3,3.3,0,0,1-1.724.513c-1.149.015-2.3.006-3.445.006A.84.84,0,0,1-5965.232,1727.386Z" transform="translate(5995.168 -1687.138)" fill="#12263f"/>
            <path id="Trazado_139687" data-name="Trazado 139687" d="M-5588.181,1727.4c-.15,0-.288,0-.424,0-1.191-.015-2.388.029-3.573-.062a3.408,3.408,0,0,1-2.887-2.557,2.279,2.279,0,0,1-.024-.229h.815c.911,0,1.822-.01,2.732,0a3.527,3.527,0,0,1,3.352,2.682A1.118,1.118,0,0,1-5588.181,1727.4Z" transform="translate(5649.126 -1687.126)" fill="#12263f"/>
          </g>
        </g>
        <path id="Trazado_139688" data-name="Trazado 139688" d="M-6178.046,1806.819c-1.09-.607-1.979-.463-2.464.385s-.163,1.689.923,2.329c.766.451,1.536.9,2.292,1.339-.825,1.657-1.211,1.782-2.615.974-1.129-.65-2.278-1.27-3.386-1.956-1.193-.738-2.945-1.016-2.48-3.219l-.341.073c-.761,1.243-1.522,2.486-2.318,3.784l-1-.692c.568-.99,1.093-1.914,1.627-2.833a2.438,2.438,0,0,0,.434-2.069,2.247,2.247,0,0,1,1.614-2.671,2.7,2.7,0,0,0,1.205-.95c.713-1.078,1.317-2.228,2-3.414l1.027.663-2.194,4.061.3.3c.7-.718,1.422-1.183,2.26-.287-.084.311-.171.631-.266.984.439-.217.892-.629,1.148-.531a8.56,8.56,0,0,1,2.143,1.235c.221.171.066.76.247,1.061a3.412,3.412,0,0,0,1.04,1.157,7.032,7.032,0,0,0,1.568.51c.049.016.073.11.128.2l-.537.916C-6176.544,1807.675-6177.292,1807.24-6178.046,1806.819Zm-5.856-2.311a1.7,1.7,0,0,0-1.173-1.12,1.008,1.008,0,0,0-1.158,1.258c.1.5.613.915.94,1.368l.546-.012C-6184.439,1805.5-6183.862,1804.977-6183.9,1804.507Z" transform="translate(-221.048 -884.322)" fill="#12263f"/>
        <path id="Trazado_139689" data-name="Trazado 139689" d="M-6323.736,1678.852c-2.6.353-3.06-.073-2.979-2.794a3.112,3.112,0,0,0,.025-1.171,1.543,1.543,0,0,0-.869-.872c-.24-.054-.874.448-.867.689a18.223,18.223,0,0,0,.4,4.423c.423,1.5,1.932,2.08,3.592,1.719.725-.158,1.42-.451,2.258-.724,1.217,1.961,3.232,3.413,4.12,6.021a7.788,7.788,0,0,0,.369-2.053,2.8,2.8,0,0,1,1.9-3.264c1.257-.5,1.368-.9.531-1.957a24.692,24.692,0,0,0-1.79-2.21,2.178,2.178,0,0,1-.386-2.812,40.708,40.708,0,0,1,2.289-3.574c.372-.539.875-1.043.229-1.641-.724-.672-1.216-.076-1.663.447a11.324,11.324,0,0,0-2.977,5.569,5.424,5.424,0,0,0,.051,1.113,2.768,2.768,0,0,1-1.042,3.242A2.537,2.537,0,0,1-6323.736,1678.852Z" transform="translate(-91.104 -763.193)" fill="#12263f"/>
        <path id="Trazado_139690" data-name="Trazado 139690" d="M-6267.64,1762.284a2.537,2.537,0,0,0,3.185.15,2.767,2.767,0,0,0,1.042-3.242c-1.056-1.607-2.542-2.057-3.881-1.167-1.317.876-1.492,2.377-.466,3.935A1.553,1.553,0,0,1-6267.64,1762.284Z" transform="translate(-147.2 -846.625)" fill="#12263f"/>
        <path id="Trazado_139691" data-name="Trazado 139691" d="M-6158.895,1952.184c-1.551,2.3-1.525,2.625.775,4.345a19.067,19.067,0,0,0,2.748,1.623,1.262,1.262,0,0,0,1.819-.591,1.363,1.363,0,0,0-.594-1.931c-1.11-.68-2.224-1.355-3.292-2.1A13.751,13.751,0,0,1-6158.895,1952.184Z" transform="translate(-248.594 -1028.562)" fill="#12263f"/>
        <path id="Trazado_139692" data-name="Trazado 139692" d="M-6053.772,1939.446c.4.182.811.336,1.189.552,1.882,1.073,3.754,2.161,5.629,3.247.6.346,1.222.524,1.657-.172s.026-1.174-.592-1.529c-1.913-1.1-3.812-2.219-5.738-3.293-.9-.505-1.752-.094-1.716.767Z" transform="translate(-347.874 -1015.33)" fill="#12263f"/>
        <path id="Trazado_139693" data-name="Trazado 139693" d="M-6294.326,1676.189c-.248-.427-.463-.8-.7-1.211l1.132.142v-1.37l.987.8.687-1.138c.146.431.259.762.406,1.2l.949-.338c.018.239.033.471.057.8l1.084-.133c-.138.275-.259.514-.38.752l.194.136,1.227-1.5-1.609.263c-.029-.358-.06-.716-.1-1.192l-1.131.711c-.178-.558-.34-1.069-.579-1.819l-.9,1.642-1.343-1.1c.031.687.053,1.161.079,1.749l-1.6-.226,1.027,1.688-1.143.655,1.37.649.123-.143-.454-.523Z" transform="translate(-121.431 -766.899)" fill="#12263f"/>
        <path id="Trazado_139694" data-name="Trazado 139694" d="M-6001.214,1997.573c.1.6.062,1.051.208,1.121a10.576,10.576,0,0,0,1.615.511q.083-.211.167-.423Z" transform="translate(-397.01 -1070.996)" fill="#12263f"/>
      </g>
    </g>
  </g>
</svg>
