<svg xmlns="http://www.w3.org/2000/svg" xmlns:xlink="http://www.w3.org/1999/xlink" width="283" height="175" viewBox="0 0 283 175">
  <defs>
    <radialGradient id="radial-gradient" cx="0.076" cy="0.019" r="1.465" gradientTransform="translate(0.001)" gradientUnits="objectBoundingBox">
      <stop offset="0" stop-color="#f6f6f7"/>
      <stop offset="0.477" stop-color="#f9f9fa"/>
      <stop offset="0.715" stop-color="#fff"/>
    </radialGradient>
  </defs>
  <g id="Grupo_90288" data-name="Grupo 90288" transform="translate(-802 -3266)">
    <rect id="Rect치ngulo_353118" data-name="Rect치ngulo 353118" width="283" height="175" transform="translate(802 3266)" fill="#fff"/>
    <rect id="Rect치ngulo_32730" data-name="Rect치ngulo 32730" width="283" height="81" transform="translate(802 3266)" fill="#e8e8e8"/>
    <g id="Grupo_87333" data-name="Grupo 87333" transform="translate(884.654 3309.309)">
      <g id="Grupo_18531" data-name="Grupo 18531" transform="translate(0 0)">
        <g id="Grupo_18423" data-name="Grupo 18423" transform="translate(0 0)">
          <g id="Grupo_18421" data-name="Grupo 18421">
            <g id="Grupo_18420" data-name="Grupo 18420">
              <g id="Grupo_18419" data-name="Grupo 18419">
                <path id="Trazado_40936" data-name="Trazado 40936" d="M312.314,2204.565a58.846,58.846,0,1,1-58.845-58.844A58.845,58.845,0,0,1,312.314,2204.565Z" transform="translate(-194.623 -2145.721)" fill="#fff"/>
              </g>
            </g>
          </g>
          <path id="Trazado_40937" data-name="Trazado 40937" d="M311.665,2203.857A58.844,58.844,0,1,0,252.82,2262.7,58.613,58.613,0,0,0,311.665,2203.857Z" transform="translate(-193.974 -2145.013)" fill="url(#radial-gradient)"/>
          <path id="Trazado_40938" data-name="Trazado 40938" d="M291.975,2198.12a44.917,44.917,0,1,0-44.917,44.917A44.75,44.75,0,0,0,291.975,2198.12Z" transform="translate(-188.034 -2139.08)" fill="none" stroke="#00223d" stroke-miterlimit="10" stroke-width="4"/>
          <g id="Grupo_18422" data-name="Grupo 18422" transform="translate(10.425 33.038)">
            <path id="Trazado_40939" data-name="Trazado 40939" d="M301.861,2164.488a58.853,58.853,0,0,1-101.316,58.6,58.666,58.666,0,0,0,101.316-58.6Z" transform="translate(-200.545 -2164.488)" fill="#eceef0"/>
          </g>
        </g>
      </g>
      <g id="AjL3r1" transform="translate(443.407 -386.028)">
        <g id="Grupo_87682" data-name="Grupo 87682" transform="translate(-412.204 418.747)">
          <path id="Trazado_139492" data-name="Trazado 139492" d="M-399.937,466.663h0c0,1.1-.012,2.2,0,3.3.015,1.062-.219.86.886,1.191a37.678,37.678,0,0,0,17,1.428,20.661,20.661,0,0,0,5.562-1.624.559.559,0,0,0,.4-.573c-.018-2.361.029-4.723-.027-7.083a8.838,8.838,0,0,0-8.385-8.684,67.451,67.451,0,0,0-6.787-.013,8.888,8.888,0,0,0-8.639,8.857C-399.967,464.528-399.937,465.6-399.937,466.663Zm-1.627-.911c-.139-2.756.038-5.327,1.474-7.653a10.914,10.914,0,0,1,6.079-4.751,8.754,8.754,0,0,1-2.645-5.946c-.221-.016-.4-.039-.571-.039-2.053,0-4.105-.015-6.158.011a8.2,8.2,0,0,0-1.775.208,8.922,8.922,0,0,0-7.033,8.919c0,2.215.011,4.43-.011,6.644,0,.418.118.6.524.692,2.283.5,4.555,1.063,6.846,1.53C-403.8,465.578-402.729,465.621-401.564,465.752Zm22.195-18.4a8.768,8.768,0,0,1-2.637,5.989c.221.082.385.141.547.2a10.568,10.568,0,0,1,6.538,6.822,13.432,13.432,0,0,1,.495,4.508c0,.285,0,.571,0,.961,1.5-.187,2.933-.325,4.349-.552a19.4,19.4,0,0,0,5.136-1.536.621.621,0,0,0,.413-.662c-.019-1.73,0-3.461-.011-5.191a22.715,22.715,0,0,0-.052-2.569,8.9,8.9,0,0,0-8.616-7.951c-1.76-.063-3.524-.019-5.286-.023Zm9.1-1.082a26.326,26.326,0,0,1,2.937,1.642,10.364,10.364,0,0,1,4.424,8.729c.006.674,0,1.348,0,2.1,1.014-.091,1.961-.149,2.9-.266a23.23,23.23,0,0,0,6.357-1.65.9.9,0,0,0,.659-.993c-.048-1.486,0-2.975-.021-4.463a32.9,32.9,0,0,0-.126-3.484,8.9,8.9,0,0,0-8.276-7.538c-2.052-.054-4.107-.019-6.16-.021-.077,0-.154.023-.11.016a23.965,23.965,0,0,1-.929,3.208A22.029,22.029,0,0,1-370.272,446.273Zm-25.667-19.988a7.584,7.584,0,0,0,7.532,7.645,7.615,7.615,0,0,0,7.633-7.508,7.624,7.624,0,0,0-7.521-7.673A7.6,7.6,0,0,0-395.939,426.285Zm14.915,20.8a7.009,7.009,0,0,0-6.98-6.977,7,7,0,0,0-6.991,7.008,7,7,0,0,0,7.022,6.977A7.009,7.009,0,0,0-381.024,447.089Zm-18.66-.235a6.252,6.252,0,0,0,2.8-.891.864.864,0,0,0,.384-.494,7.886,7.886,0,0,1,2.474-4.508,1.877,1.877,0,0,0,.667-1.989c-.022-.111-.027-.225-.048-.336a6.972,6.972,0,0,0-7.521-5.7,6.962,6.962,0,0,0-6.325,6.8A7.085,7.085,0,0,0-399.684,446.854Zm41.771-14.019c-.051-.432-.077-.869-.156-1.3a7.015,7.015,0,0,0-7.427-5.659,7.027,7.027,0,0,0-6.381,6.41.737.737,0,0,0,.368.751,8.39,8.39,0,0,1,3.555,5.719.656.656,0,0,0,.466.585A7.012,7.012,0,0,0-357.913,432.835ZM-376.45,447l.03-.126a6.755,6.755,0,0,0,2.865-.625,6.983,6.983,0,0,0,4.015-7.424,6.994,6.994,0,0,0-5.87-5.842,7.012,7.012,0,0,0-7.995,6.33.768.768,0,0,0,.361.759,8.505,8.505,0,0,1,3.585,5.758.743.743,0,0,0,.4.511C-378.2,446.589-377.322,446.782-376.45,447Zm-17.031-12.346a9.383,9.383,0,0,1,1.488,4.79,8.6,8.6,0,0,1,3.608-1,8.676,8.676,0,0,1,3.6.623,21.653,21.653,0,0,1,.546-2.292,22.662,22.662,0,0,1,1.034-2.189A70.9,70.9,0,0,0-393.482,434.65Z" transform="translate(412.204 -418.747)" fill="#12263f"/>
          <path id="Trazado_139493" data-name="Trazado 139493" d="M-285.869,799.675c0-1.067-.03-2.136.005-3.2a8.888,8.888,0,0,1,8.639-8.857,67.361,67.361,0,0,1,6.787.013,8.838,8.838,0,0,1,8.385,8.684c.056,2.36.008,4.722.027,7.083a.559.559,0,0,1-.4.573,20.659,20.659,0,0,1-5.562,1.624,37.677,37.677,0,0,1-17-1.428c-1.105-.331-.871-.129-.886-1.191-.016-1.1,0-2.2,0-3.3Z" transform="translate(298.136 -751.759)" fill="#12263f"/>
          <path id="Trazado_139494" data-name="Trazado 139494" d="M-401.564,732.05c-1.164-.131-2.234-.173-3.27-.385-2.291-.467-4.562-1.026-6.846-1.53-.406-.09-.528-.275-.524-.692.023-2.214.007-4.429.011-6.644a8.922,8.922,0,0,1,7.033-8.919,8.2,8.2,0,0,1,1.775-.208c2.052-.026,4.105-.012,6.158-.011.175,0,.349.023.571.039a8.753,8.753,0,0,0,2.645,5.946,10.914,10.914,0,0,0-6.079,4.751C-401.527,726.724-401.7,729.294-401.564,732.05Z" transform="translate(412.204 -685.046)" fill="#12263f"/>
          <path id="Trazado_139495" data-name="Trazado 139495" d="M-98.3,713.54h.874c1.762,0,3.526-.039,5.286.023a8.9,8.9,0,0,1,8.616,7.951,22.7,22.7,0,0,1,.052,2.569c.006,1.73-.008,3.461.011,5.191a.621.621,0,0,1-.413.662,19.4,19.4,0,0,1-5.136,1.536c-1.416.227-2.845.365-4.349.552,0-.39,0-.676,0-.961a13.431,13.431,0,0,0-.495-4.508,10.567,10.567,0,0,0-6.538-6.822c-.163-.063-.327-.122-.547-.2A8.769,8.769,0,0,0-98.3,713.54Z" transform="translate(131.134 -684.931)" fill="#12263f"/>
          <path id="Trazado_139496" data-name="Trazado 139496" d="M20.025,647.1a22.034,22.034,0,0,0,1.658-2.717,23.959,23.959,0,0,0,.929-3.208c-.044.007.033-.016.11-.016,2.053,0,4.108-.033,6.16.021a8.9,8.9,0,0,1,8.276,7.538,32.918,32.918,0,0,1,.126,3.484c.019,1.488-.027,2.977.021,4.463a.9.9,0,0,1-.659.993,23.231,23.231,0,0,1-6.357,1.65c-.94.117-1.888.175-2.9.266,0-.757.005-1.431,0-2.1a10.363,10.363,0,0,0-4.424-8.729A26.351,26.351,0,0,0,20.025,647.1Z" transform="translate(21.908 -619.578)" fill="#12263f"/>
          <path id="Trazado_139497" data-name="Trazado 139497" d="M-244.56,426.285a7.6,7.6,0,0,1,7.645-7.536,7.624,7.624,0,0,1,7.521,7.673,7.615,7.615,0,0,1-7.633,7.508A7.584,7.584,0,0,1-244.56,426.285Z" transform="translate(260.825 -418.747)" fill="#12263f"/>
          <path id="Trazado_139498" data-name="Trazado 139498" d="M-220.844,645.952a7.008,7.008,0,0,1-6.948,7.008,7,7,0,0,1-7.022-6.977,7,7,0,0,1,6.991-7.008A7.009,7.009,0,0,1-220.844,645.952Z" transform="translate(252.024 -617.609)" fill="#12263f"/>
          <path id="Trazado_139499" data-name="Trazado 139499" d="M-353.619,578.678a7.084,7.084,0,0,1-7.569-7.117,6.962,6.962,0,0,1,6.325-6.8,6.972,6.972,0,0,1,7.521,5.7c.021.111.026.225.048.336a1.877,1.877,0,0,1-.668,1.989,7.886,7.886,0,0,0-2.474,4.508.864.864,0,0,1-.384.494A6.252,6.252,0,0,1-353.619,578.678Z" transform="translate(366.139 -550.571)" fill="#12263f"/>
          <path id="Trazado_139500" data-name="Trazado 139500" d="M17.413,499.074a7.013,7.013,0,0,1-9.576,6.509A.656.656,0,0,1,7.372,505a8.39,8.39,0,0,0-3.555-5.719.737.737,0,0,1-.368-.752,6.975,6.975,0,0,1,13.808-.751C17.336,498.2,17.362,498.642,17.413,499.074Z" transform="translate(36.879 -484.986)" fill="#12263f"/>
          <path id="Trazado_139501" data-name="Trazado 139501" d="M-108.416,578.65c-.872-.214-1.749-.407-2.609-.66a.743.743,0,0,1-.4-.511,8.5,8.5,0,0,0-3.585-5.758.768.768,0,0,1-.361-.759,7.012,7.012,0,0,1,7.995-6.33,6.994,6.994,0,0,1,5.87,5.842,6.983,6.983,0,0,1-4.015,7.424,6.752,6.752,0,0,1-2.864.625Z" transform="translate(144.17 -550.402)" fill="#12263f"/>
          <path id="Trazado_139502" data-name="Trazado 139502" d="M-219.216,580.6a70.9,70.9,0,0,1,10.277-.069,22.636,22.636,0,0,0-1.034,2.189,21.644,21.644,0,0,0-.546,2.292,8.678,8.678,0,0,0-3.6-.623,8.6,8.6,0,0,0-3.608,1A9.382,9.382,0,0,0-219.216,580.6Z" transform="translate(237.939 -564.694)" fill="#12263f"/>
        </g>
      </g>
    </g>
  </g>
</svg>
