<svg xmlns="http://www.w3.org/2000/svg" xmlns:xlink="http://www.w3.org/1999/xlink" width="283" height="175" viewBox="0 0 283 175">
  <defs>
    <radialGradient id="radial-gradient" cx="0.076" cy="0.019" r="1.465" gradientTransform="translate(0.001)" gradientUnits="objectBoundingBox">
      <stop offset="0" stop-color="#f6f6f7"/>
      <stop offset="0.477" stop-color="#f9f9fa"/>
      <stop offset="0.715" stop-color="#fff"/>
    </radialGradient>
  </defs>
  <g id="Grupo_90287" data-name="Grupo 90287" transform="translate(-515 -3266)">
    <rect id="Rect치ngulo_353117" data-name="Rect치ngulo 353117" width="283" height="175" transform="translate(515 3266)" fill="#fff"/>
    <rect id="Rect치ngulo_32728" data-name="Rect치ngulo 32728" width="283" height="81" transform="translate(515 3266)" fill="#dee4f0"/>
    <g id="Grupo_87336" data-name="Grupo 87336" transform="translate(595.654 3309.309)">
      <g id="Grupo_18531" data-name="Grupo 18531" transform="translate(0 0)">
        <g id="Grupo_18423" data-name="Grupo 18423" transform="translate(0 0)">
          <g id="Grupo_18421" data-name="Grupo 18421">
            <g id="Grupo_18420" data-name="Grupo 18420">
              <g id="Grupo_18419" data-name="Grupo 18419">
                <path id="Trazado_40936" data-name="Trazado 40936" d="M312.314,2204.565a58.846,58.846,0,1,1-58.845-58.844A58.845,58.845,0,0,1,312.314,2204.565Z" transform="translate(-194.623 -2145.721)" fill="#fff"/>
              </g>
            </g>
          </g>
          <path id="Trazado_40937" data-name="Trazado 40937" d="M311.665,2203.857A58.844,58.844,0,1,0,252.82,2262.7,58.613,58.613,0,0,0,311.665,2203.857Z" transform="translate(-193.974 -2145.013)" fill="url(#radial-gradient)"/>
          <path id="Trazado_40938" data-name="Trazado 40938" d="M291.975,2198.12a44.917,44.917,0,1,0-44.917,44.917A44.75,44.75,0,0,0,291.975,2198.12Z" transform="translate(-188.034 -2139.08)" fill="none" stroke="#00223d" stroke-miterlimit="10" stroke-width="4"/>
          <g id="Grupo_18422" data-name="Grupo 18422" transform="translate(10.425 33.038)">
            <path id="Trazado_40939" data-name="Trazado 40939" d="M301.861,2164.488a58.853,58.853,0,0,1-101.316,58.6,58.666,58.666,0,0,0,101.316-58.6Z" transform="translate(-200.545 -2164.488)" fill="#eceef0"/>
          </g>
        </g>
      </g>
      <g id="jVQxQ1" transform="translate(1809.939 -1200.684)">
        <g id="Grupo_87850" data-name="Grupo 87850" transform="translate(-1778.721 1232.375)">
          <path id="Trazado_139631" data-name="Trazado 139631" d="M-1765.472,1247.916c1.576-12.028,11.242-16.262,18.279-15.443,9.921,1.154,15.5,8.907,14.613,20.3.912.09,1.833.152,2.746.275a8.178,8.178,0,0,1,6.806,6.848c.439,4.041-1.846,6.695-5.92,6.734-5.275.05-10.551.013-15.826.014h-25.247c-6.942,0-10.5-5.474-7.793-11.994C-1775.832,1249.874-1771.544,1247.509-1765.472,1247.916Z" transform="translate(1778.721 -1232.375)" fill="#12263f"/>
          <path id="Trazado_139632" data-name="Trazado 139632" d="M-1705.911,1335.688c-4.454,0-8.907-.013-13.361.008-1.231.006-2.465-.179-2.491-1.628s1.168-1.717,2.418-1.715q13.455.016,26.91,0c1.226,0,2.464.183,2.477,1.644.014,1.616-1.322,1.7-2.592,1.7C-1697,1335.679-1701.458,1335.688-1705.911,1335.688Z" transform="translate(1743.229 -1294.674)" fill="#12263f"/>
          <path id="Trazado_139633" data-name="Trazado 139633" d="M-1688.208,1348.2h6.767c1.123,0,2.062.342,2.064,1.636s-.977,1.649-2.069,1.653q-6.861.027-13.721,0c-1.1-.006-2.194-.441-1.874-1.716a2.6,2.6,0,0,1,1.884-1.5C-1692.854,1348.082-1690.526,1348.2-1688.208,1348.2Z" transform="translate(1727.859 -1304.525)" fill="#12263f"/>
          <path id="Trazado_139634" data-name="Trazado 139634" d="M-1716.934,1364.38c2.194,0,4.389-.014,6.584.005,1.163.01,2.18.3,2.139,1.755-.039,1.365-1.037,1.567-2.111,1.57q-6.772.014-13.544,0c-1.113,0-2.075-.343-2.076-1.633,0-1.263.935-1.68,2.049-1.691C-1721.574,1364.365-1719.254,1364.381-1716.934,1364.38Z" transform="translate(1745.833 -1314.628)" fill="#12263f"/>
          <path id="Trazado_139635" data-name="Trazado 139635" d="M-1741.489,1351.544c-2.254,0-4.508.007-6.761,0-1.081-.005-2.1-.237-2.124-1.564-.028-1.393.931-1.743,2.149-1.739q6.668.021,13.335,0c1.193,0,2.25.288,2.245,1.656s-1.108,1.651-2.27,1.652Z" transform="translate(1761.058 -1304.571)" fill="#12263f"/>
          <path id="Trazado_139636" data-name="Trazado 139636" d="M-1761.019,1332.368c1.937,0,3.875-.011,5.812,0,1.109.009,2.055.387,2.077,1.649.022,1.282-.916,1.665-2.034,1.667-3.875.01-7.75,0-11.625,0-1.128,0-2.079-.394-2.09-1.632s.917-1.681,2.047-1.689C-1764.894,1332.359-1762.957,1332.369-1761.019,1332.368Z" transform="translate(1772.588 -1294.681)" fill="#12263f"/>
        </g>
      </g>
    </g>
  </g>
</svg>
