<svg xmlns="http://www.w3.org/2000/svg" xmlns:xlink="http://www.w3.org/1999/xlink" width="283" height="175" viewBox="0 0 283 175">
  <defs>
    <radialGradient id="radial-gradient" cx="0.076" cy="0.019" r="1.465" gradientTransform="translate(0.001)" gradientUnits="objectBoundingBox">
      <stop offset="0" stop-color="#f6f6f7"/>
      <stop offset="0.477" stop-color="#f9f9fa"/>
      <stop offset="0.715" stop-color="#fff"/>
    </radialGradient>
  </defs>
  <g id="Grupo_90289" data-name="Grupo 90289" transform="translate(-1087 -3266)">
    <rect id="Rect치ngulo_353119" data-name="Rect치ngulo 353119" width="283" height="175" transform="translate(1087 3266)" fill="#fff"/>
    <rect id="Rect치ngulo_32729" data-name="Rect치ngulo 32729" width="283" height="81" transform="translate(1087 3266)" fill="#dee4f0"/>
    <g id="Grupo_87334" data-name="Grupo 87334" transform="translate(1169.654 3309.309)">
      <g id="Grupo_18531" data-name="Grupo 18531" transform="translate(0 0)">
        <g id="Grupo_18423" data-name="Grupo 18423" transform="translate(0 0)">
          <g id="Grupo_18421" data-name="Grupo 18421">
            <g id="Grupo_18420" data-name="Grupo 18420">
              <g id="Grupo_18419" data-name="Grupo 18419">
                <path id="Trazado_40936" data-name="Trazado 40936" d="M312.314,2204.565a58.846,58.846,0,1,1-58.845-58.844A58.845,58.845,0,0,1,312.314,2204.565Z" transform="translate(-194.623 -2145.721)" fill="#fff"/>
              </g>
            </g>
          </g>
          <path id="Trazado_40937" data-name="Trazado 40937" d="M311.665,2203.857A58.844,58.844,0,1,0,252.82,2262.7,58.613,58.613,0,0,0,311.665,2203.857Z" transform="translate(-193.974 -2145.013)" fill="url(#radial-gradient)"/>
          <path id="Trazado_40938" data-name="Trazado 40938" d="M291.975,2198.12a44.917,44.917,0,1,0-44.917,44.917A44.75,44.75,0,0,0,291.975,2198.12Z" transform="translate(-188.034 -2139.08)" fill="none" stroke="#00223d" stroke-miterlimit="10" stroke-width="4"/>
          <g id="Grupo_18422" data-name="Grupo 18422" transform="translate(10.425 33.038)">
            <path id="Trazado_40939" data-name="Trazado 40939" d="M301.861,2164.488a58.853,58.853,0,0,1-101.316,58.6,58.666,58.666,0,0,0,101.316-58.6Z" transform="translate(-200.545 -2164.488)" fill="#eceef0"/>
          </g>
        </g>
      </g>
      <g id="Grupo_87849" data-name="Grupo 87849" transform="translate(1403.06 -926.169)">
        <path id="Trazado_139628" data-name="Trazado 139628" d="M-1227.822,1006.355v-35.5h.384c1.2,0,2.4-.012,3.605.007.337.005.456-.064.449-.433-.025-1.34-.011-2.681-.01-4.021a2.62,2.62,0,0,1,2.768-2.8q7.87-.01,15.74,0a2.61,2.61,0,0,1,2.791,2.8q0,1.993,0,3.987v.45h4.422v35.5Zm18.647-14.167h5.957c.865,0,1.153-.282,1.154-1.134q0-2.27,0-4.541a6.11,6.11,0,0,0-.03-.76.783.783,0,0,0-.889-.713c-.656.011-1.313-.011-1.969-.01-.863,0-1.727.013-2.59.017-.537,0-1.074,0-1.635,0v-.47q0-2.79,0-5.581c0-.746-.3-1.052-1.053-1.053q-2.478,0-4.957,0c-.839,0-1.119.286-1.121,1.13,0,1.86-.009,3.72.005,5.581,0,.321-.089.407-.406.4q-2.839-.022-5.677,0c-.831.006-1.026.226-1.028,1.069q0,2.459,0,4.918c0,.855.286,1.143,1.141,1.144,1.872,0,3.744.006,5.615,0,.272,0,.357.075.354.35-.013,1.155-.006,2.311-.005,3.466,0,.8-.018,1.591.008,2.386a.9.9,0,0,0,1.028.954c.413,0,.826,0,1.239,0h2.834l1.065,0a.913.913,0,0,0,.949-.848c.023-.308.012-.619.012-.929C-1209.175,995.792-1209.175,994.025-1209.175,992.188Zm3.533-25.025c-.139-.007-.251-.016-.364-.017-.508,0-1.016,0-1.524,0h-11.884c-.448,0-.449,0-.449.454q0,1.4,0,2.806v.445h14.222Z" transform="translate(-131.467)" fill="#12263f"/>
        <path id="Trazado_139629" data-name="Trazado 139629" d="M-753.7,1103.289v-35.6a16.9,16.9,0,0,1,2.109.173,5.867,5.867,0,0,1,2.871,1.438,6.092,6.092,0,0,1,2.021,3.686,7.283,7.283,0,0,1,.062,1q.005,10.053,0,20.106c0,1.081,0,2.162-.023,3.243a6.184,6.184,0,0,1-4.979,5.787C-752.3,1103.235-752.985,1103.234-753.7,1103.289Z" transform="translate(-572.712 -96.865)" fill="#12263f"/>
        <path id="Trazado_139630" data-name="Trazado 139630" d="M-1362.014,1066.975v35.583a6.293,6.293,0,0,1-4.5-1.174,6.21,6.21,0,0,1-2.551-5.645c.049-.757-.01-1.521-.01-2.282,0-6.643.01-13.286-.008-19.93a6.18,6.18,0,0,1,1.907-4.7,5.427,5.427,0,0,1,2.929-1.581C-1363.526,1067.134-1362.8,1067.069-1362.014,1066.975Z" transform="translate(0 -96.202)" fill="#12263f"/>
      </g>
    </g>
  </g>
</svg>
