<svg xmlns="http://www.w3.org/2000/svg" xmlns:xlink="http://www.w3.org/1999/xlink" width="117.692" height="117.691" viewBox="0 0 117.692 117.691">
  <defs>
    <radialGradient id="radial-gradient" cx="0.076" cy="0.019" r="1.465" gradientTransform="translate(0.001)" gradientUnits="objectBoundingBox">
      <stop offset="0" stop-color="#f6f6f7"/>
      <stop offset="0.477" stop-color="#f9f9fa"/>
      <stop offset="0.715" stop-color="#fff"/>
    </radialGradient>
  </defs>
  <g id="Grupo_90282" data-name="Grupo 90282" transform="translate(-735.654 -4260.309)">
    <g id="Grupo_77974" data-name="Grupo 77974" transform="translate(735.654 4260.309)">
      <g id="Grupo_18531" data-name="Grupo 18531" transform="translate(0 0)">
        <g id="Grupo_18423" data-name="Grupo 18423" transform="translate(0 0)">
          <g id="Grupo_18421" data-name="Grupo 18421">
            <g id="Grupo_18420" data-name="Grupo 18420">
              <g id="Grupo_18419" data-name="Grupo 18419">
                <path id="Trazado_40936" data-name="Trazado 40936" d="M312.314,2204.565a58.846,58.846,0,1,1-58.845-58.844A58.845,58.845,0,0,1,312.314,2204.565Z" transform="translate(-194.623 -2145.721)" fill="#fff"/>
              </g>
            </g>
          </g>
          <path id="Trazado_40937" data-name="Trazado 40937" d="M311.665,2203.857A58.844,58.844,0,1,0,252.82,2262.7,58.613,58.613,0,0,0,311.665,2203.857Z" transform="translate(-193.974 -2145.013)" fill="url(#radial-gradient)"/>
          <path id="Trazado_40938" data-name="Trazado 40938" d="M291.975,2198.12a44.917,44.917,0,1,0-44.917,44.917A44.75,44.75,0,0,0,291.975,2198.12Z" transform="translate(-188.034 -2139.08)" fill="none" stroke="#00223d" stroke-miterlimit="10" stroke-width="4"/>
          <g id="Grupo_18422" data-name="Grupo 18422" transform="translate(10.425 33.038)">
            <path id="Trazado_40939" data-name="Trazado 40939" d="M301.861,2164.488a58.853,58.853,0,0,1-101.316,58.6,58.666,58.666,0,0,0,101.316-58.6Z" transform="translate(-200.545 -2164.488)" fill="#eceef0"/>
          </g>
        </g>
      </g>
      <g id="D94Iow.tif" transform="translate(-4363.728 -673.331)">
        <g id="Grupo_77979" data-name="Grupo 77979" transform="translate(4391.028 704.634)">
          <path id="Trazado_138589" data-name="Trazado 138589" d="M4391.028,782.916a14.543,14.543,0,0,1,2.592-4.027,11.3,11.3,0,0,1,9.447-3.382c.732.06,1.475,0,2.205.071a4.14,4.14,0,0,1,2.435,1.379,6.366,6.366,0,0,1,1.512,3.033,8.352,8.352,0,0,0,3.857,5.3,14.938,14.938,0,0,0,2.8,1.037,2.938,2.938,0,0,1,2.051,1.243v-2.135h.8v1.587c1.1.074,2.115.144,3.134.21,1.806.116,3.613.216,5.417.347a2.833,2.833,0,0,1,2.412,1.252,2.207,2.207,0,0,1-.45.341c-1,.416-1.032,1.214-.839,2.1.111.51.235,1.018.363,1.525.105.416.029.748-.422.879a.694.694,0,0,1-.912-.514c-.083-.224-.135-.459-.206-.688-.031-.1-.059-.286-.111-.295-1.224-.2-1.04-1.412-1.537-2.129-.013-.018-.026-.034-.083-.108l-6.738.257v1.577h-.812v-2.305a2.669,2.669,0,0,0-.6.385,2.421,2.421,0,0,1-2.569.864,11.824,11.824,0,0,1-7.567-4.731c-.073-.1-.168-.184-.309-.335-.546,2.363-1.075,4.647-1.6,6.932-.187.806-.333,1.623-.565,2.415-.129.438.021.611.375.808a14.137,14.137,0,0,1,4.536,3.784,11.208,11.208,0,0,1,1.714,10.175,23.933,23.933,0,0,1-2.437,5.615c-.785,1.385-1.839,1.791-3.078,1.183a2.714,2.714,0,0,1-1.4-3.514c.292-.655.715-1.253.984-1.916a26.246,26.246,0,0,0,1.282-3.546,5.723,5.723,0,0,0-1.59-5.407,12.076,12.076,0,0,0-4.62-2.931c-.72,2.715-1.428,5.385-2.136,8.054q-1.037,3.913-2.077,7.825a2.379,2.379,0,0,1-3.067,1.86,2.433,2.433,0,0,1-1.822-3.211c1.619-6.078,3.289-12.143,4.838-18.239,1.252-4.926,2.359-9.889,3.527-14.836a2.048,2.048,0,0,0,0-.414,6.987,6.987,0,0,0-4.269,3.735c-.122.231-.224.472-.341.706a1.9,1.9,0,0,1-3.253.587,7.028,7.028,0,0,1-.874-1.35Z" transform="translate(-4391.028 -766.171)" fill="#12263f"/>
          <path id="Trazado_138590" data-name="Trazado 138590" d="M4615.454,883.2c-.761,1.956-1.468,3.842-2.23,5.706a20.519,20.519,0,0,1-1.3,2.693,2.715,2.715,0,0,1-2.507,1.272q-12.466,0-24.932-.006a2.722,2.722,0,0,1-2.892-2.46,2.808,2.808,0,0,1,1.888-3.2,5.262,5.262,0,0,1,1.356-.153q2.585-.025,5.17,0a.861.861,0,0,0,.814-.477c1.91-2.782,3.8-5.582,5.81-8.288,1.117-1.5,2.981-1.486,4.414-.173q2.726,2.5,5.458,4.985c.158.144.331.272.619.508.752-2.457,1.448-4.831,2.216-7.18.247-.754.03-1.1-.627-1.455-2.895-1.56-5.75-3.191-8.646-4.749-1.432-.77-1.875-1.581-1.343-2.78a2.466,2.466,0,0,1,3.376-1.313c1.628.781,3.224,1.633,4.809,2.5,1.2.659,2.362,1.4,3.558,2.074a.711.711,0,0,0,.648,0c1.633-1.773,5.486-.873,6.545,2.041a31.074,31.074,0,0,1,1.045,4.877,27.33,27.33,0,0,0,3.859,9.573c.176.276.361.545.535.822a1.975,1.975,0,0,1-.442,2.972,2.333,2.333,0,0,1-3.321-.433c-.865-1.278-1.643-2.62-2.377-3.978-.485-.9-.824-1.871-1.231-2.809C4615.649,883.605,4615.564,883.437,4615.454,883.2Zm-18.123,3.808h4.8l-2.912-2.594Z" transform="translate(-4556.581 -844.741)" fill="#12263f"/>
          <path id="Trazado_138591" data-name="Trazado 138591" d="M4472.935,713.184a4.275,4.275,0,1,1,4.277-4.282A4.259,4.259,0,0,1,4472.935,713.184Z" transform="translate(-4458.492 -704.634)" fill="#12263f"/>
          <path id="Trazado_138592" data-name="Trazado 138592" d="M4787.308,831.8a4.055,4.055,0,0,1,.028-8.11,4.055,4.055,0,1,1-.028,8.11Z" transform="translate(-4731.841 -808.084)" fill="#12263f"/>
          <path id="Trazado_138593" data-name="Trazado 138593" d="M4766.442,1081.162a4.311,4.311,0,0,1,.8-.42c1.275-.358,2.551-.726,3.845-1.009a3.013,3.013,0,0,1,2.432.492,1.378,1.378,0,0,1,.034,2.394,2.367,2.367,0,0,1-3.2-.105,4.928,4.928,0,0,0-3.194-1.115,5.663,5.663,0,0,1-.576-.087C4766.55,1081.307,4766.525,1081.253,4766.442,1081.162Z" transform="translate(-4717.22 -1030.487)" fill="#12263f"/>
          <path id="Trazado_138594" data-name="Trazado 138594" d="M4843.393,1064.6a12.771,12.771,0,0,1,1.8.774c.478.295.429.75,0,1.141a3.155,3.155,0,0,1-3.637-.007c-.42-.388-.462-.848.018-1.14A12.972,12.972,0,0,1,4843.393,1064.6Z" transform="translate(-4782.206 -1017.402)" fill="#12263f"/>
          <path id="Trazado_138595" data-name="Trazado 138595" d="M4847.789,1104.334a3.994,3.994,0,0,1-.949.272c-.167.008-.347-.235-.521-.365.167-.133.335-.378.5-.375a4.272,4.272,0,0,1,.971.235Z" transform="translate(-4786.623 -1051.52)" fill="#12263f"/>
          <path id="Trazado_138596" data-name="Trazado 138596" d="M4869.592,1090.778a4.283,4.283,0,0,1-.971.252c-.163.006-.334-.239-.5-.371.17-.134.348-.386.51-.376a4.066,4.066,0,0,1,.959.284C4869.589,1090.637,4869.591,1090.708,4869.592,1090.778Z" transform="translate(-4805.565 -1039.718)" fill="#12263f"/>
          <path id="Trazado_138597" data-name="Trazado 138597" d="M4655.137,904.364q.045.441.089.881l-.509.032v-.89Z" transform="translate(-4620.144 -878.176)" fill="#12263f"/>
          <path id="Trazado_138598" data-name="Trazado 138598" d="M4706.631,1027.019h-4.8" transform="translate(-4661.077 -984.749)" fill="#12263f"/>
        </g>
      </g>
    </g>
  </g>
</svg>
