<svg xmlns="http://www.w3.org/2000/svg" xmlns:xlink="http://www.w3.org/1999/xlink" width="117.692" height="117.691" viewBox="0 0 117.692 117.691">
  <defs>
    <radialGradient id="radial-gradient" cx="0.076" cy="0.019" r="1.465" gradientTransform="translate(0.001)" gradientUnits="objectBoundingBox">
      <stop offset="0" stop-color="#f6f6f7"/>
      <stop offset="0.477" stop-color="#f9f9fa"/>
      <stop offset="0.715" stop-color="#fff"/>
    </radialGradient>
  </defs>
  <g id="Grupo_90283" data-name="Grupo 90283" transform="translate(-1061.654 -4260.309)">
    <g id="Grupo_77975" data-name="Grupo 77975" transform="translate(1061.654 4260.309)">
      <g id="Grupo_18531" data-name="Grupo 18531" transform="translate(0 0)">
        <g id="Grupo_18423" data-name="Grupo 18423" transform="translate(0 0)">
          <g id="Grupo_18421" data-name="Grupo 18421">
            <g id="Grupo_18420" data-name="Grupo 18420">
              <g id="Grupo_18419" data-name="Grupo 18419">
                <path id="Trazado_40936" data-name="Trazado 40936" d="M312.314,2204.565a58.846,58.846,0,1,1-58.845-58.844A58.845,58.845,0,0,1,312.314,2204.565Z" transform="translate(-194.623 -2145.721)" fill="#fff"/>
              </g>
            </g>
          </g>
          <path id="Trazado_40937" data-name="Trazado 40937" d="M311.665,2203.857A58.844,58.844,0,1,0,252.82,2262.7,58.613,58.613,0,0,0,311.665,2203.857Z" transform="translate(-193.974 -2145.013)" fill="url(#radial-gradient)"/>
          <path id="Trazado_40938" data-name="Trazado 40938" d="M291.975,2198.12a44.917,44.917,0,1,0-44.917,44.917A44.75,44.75,0,0,0,291.975,2198.12Z" transform="translate(-188.034 -2139.08)" fill="none" stroke="#00223d" stroke-miterlimit="10" stroke-width="4"/>
          <g id="Grupo_18422" data-name="Grupo 18422" transform="translate(10.425 33.038)">
            <path id="Trazado_40939" data-name="Trazado 40939" d="M301.861,2164.488a58.853,58.853,0,0,1-101.316,58.6,58.666,58.666,0,0,0,101.316-58.6Z" transform="translate(-200.545 -2164.488)" fill="#eceef0"/>
          </g>
        </g>
      </g>
      <g id="Grupo_77980" data-name="Grupo 77980" transform="translate(-3773.35 -95.056)">
        <path id="Trazado_138599" data-name="Trazado 138599" d="M3835.243,253.506c-1.649-1.272-1.833-1.9-1.092-3.87,1.148-3.048,2.342-6.08,3.427-9.15a2.277,2.277,0,0,0-.228-1.694c-4.017-6.766-10.342-11.223-16.249-16.091a1.8,1.8,0,0,0-1.37-.214c-2.187.507-4.363,1.074-6.53,1.664a2.945,2.945,0,0,1-2.93-.669c-2.115-1.841-4.283-3.619-6.4-5.463a10.486,10.486,0,0,1-1.189-1.484v-1.1c1.214-2.085,2.471-2.313,4.324-.759,1.655,1.388,3.268,2.83,4.961,4.169a2.191,2.191,0,0,0,1.57.422c4.247-.82,8.392-1.871,12.108-4.3a91.087,91.087,0,0,1,8.3-4.615,2.966,2.966,0,0,1,2.214-.054c3.222,1.333,6.4,2.781,9.569,4.23a2.312,2.312,0,0,1,1.306,3.166,2.352,2.352,0,0,1-3.188,1.009c-2.191-.944-4.392-1.876-6.521-2.947a3.16,3.16,0,0,0-3.575.114,16.167,16.167,0,0,1-1.959,1,66.559,66.559,0,0,0,5.482,4.4c4,2.589,8.166,4.934,12.192,7.491a3.5,3.5,0,0,1,1.428,2.156c.57,3.719.965,7.464,1.4,11.2a2.345,2.345,0,0,1-1.941,2.842c-1.389.182-2.431-.716-2.641-2.356-.373-2.917-.729-5.836-1.041-8.76a1.577,1.577,0,0,0-1.156-1.473c-2.3-.9-4.574-1.866-7.249-2.968,1.043,1.839,1.929,3.355,2.772,4.895,2.709,4.95,2.654,3.206.617,8.582-1.056,2.789-2.064,5.6-3.233,8.34a10.974,10.974,0,0,1-1.8,2.284Z" transform="translate(0 -62.534)" fill="#12263f"/>
        <path id="Trazado_138600" data-name="Trazado 138600" d="M3910.21,138.5l-.41-7.486-4.3,6.6-3.458-4.536-.958,7.566-5.438-3.779V143.8l-.246.006c-.322-3.231-.644-6.462-1-10.036l5.519,4.551c.206-3.461.4-6.706.615-10.353l4.589,6.855,6.669-11.074c.174,4.084.329,7.725.5,11.66l8.151-4.584-4.209,10.183,9.729-2.506-5.281,8.306,5.434.54-8.257,6.925-.212-.173,3.438-4.877-3.13-.623,3.518-6.843-7.246.857c.581-2.316,1.127-4.494,1.747-6.965Z" transform="translate(-66.411 0)" fill="#12263f"/>
        <path id="Trazado_138601" data-name="Trazado 138601" d="M3848.555,200.6a5.1,5.1,0,0,1,5.106-5.192,5.172,5.172,0,0,1,5.146,5.186,5.106,5.106,0,0,1-5.07,5.1A5.035,5.035,0,0,1,3848.555,200.6Z" transform="translate(-33.213 -51.888)" fill="#12263f"/>
      </g>
    </g>
  </g>
</svg>
