<svg xmlns="http://www.w3.org/2000/svg" xmlns:xlink="http://www.w3.org/1999/xlink" width="117.692" height="117.691" viewBox="0 0 117.692 117.691">
  <defs>
    <radialGradient id="radial-gradient" cx="0.076" cy="0.019" r="1.465" gradientTransform="translate(0.001)" gradientUnits="objectBoundingBox">
      <stop offset="0" stop-color="#f6f6f7"/>
      <stop offset="0.477" stop-color="#f9f9fa"/>
      <stop offset="0.715" stop-color="#fff"/>
    </radialGradient>
  </defs>
  <g id="Grupo_90284" data-name="Grupo 90284" transform="translate(-1137 -5089.309)">
    <g id="Grupo_77988" data-name="Grupo 77988" transform="translate(804 819)">
      <g id="Grupo_77973" data-name="Grupo 77973" transform="translate(333 4270.309)">
        <g id="Grupo_18531" data-name="Grupo 18531" transform="translate(0 0)">
          <g id="Grupo_18423" data-name="Grupo 18423" transform="translate(0 0)">
            <g id="Grupo_18421" data-name="Grupo 18421">
              <g id="Grupo_18420" data-name="Grupo 18420">
                <g id="Grupo_18419" data-name="Grupo 18419">
                  <path id="Trazado_40936" data-name="Trazado 40936" d="M312.314,2204.565a58.846,58.846,0,1,1-58.845-58.844A58.845,58.845,0,0,1,312.314,2204.565Z" transform="translate(-194.623 -2145.721)" fill="#fff"/>
                </g>
              </g>
            </g>
            <path id="Trazado_40937" data-name="Trazado 40937" d="M311.665,2203.857A58.844,58.844,0,1,0,252.82,2262.7,58.613,58.613,0,0,0,311.665,2203.857Z" transform="translate(-193.974 -2145.013)" fill="url(#radial-gradient)"/>
            <path id="Trazado_40938" data-name="Trazado 40938" d="M291.975,2198.12a44.917,44.917,0,1,0-44.917,44.917A44.75,44.75,0,0,0,291.975,2198.12Z" transform="translate(-188.034 -2139.08)" fill="none" stroke="#00223d" stroke-miterlimit="10" stroke-width="4"/>
            <g id="Grupo_18422" data-name="Grupo 18422" transform="translate(10.425 33.038)">
              <path id="Trazado_40939" data-name="Trazado 40939" d="M301.861,2164.488a58.853,58.853,0,0,1-101.316,58.6,58.666,58.666,0,0,0,101.316-58.6Z" transform="translate(-200.545 -2164.488)" fill="#eceef0"/>
            </g>
          </g>
        </g>
      </g>
    </g>
    <g id="yFR3A3" transform="translate(-882.772 5463.571)">
      <g id="Grupo_87231" data-name="Grupo 87231" transform="translate(2051.621 -346.803)">
        <path id="Trazado_138749" data-name="Trazado 138749" d="M2116.044-303.74a21.585,21.585,0,0,1-21.49-21.678,21.555,21.555,0,0,1,21.64-21.384,21.558,21.558,0,0,1,21.459,21.693A21.6,21.6,0,0,1,2116.044-303.74Zm-7.714-17.551a41.711,41.711,0,0,1,15.467-.021,1.577,1.577,0,0,0,.123-.305,32.652,32.652,0,0,0,.026-7.229c-.037-.363-.22-.4-.521-.357-1.31.183-2.618.392-3.933.521a37.8,37.8,0,0,1-9.835-.36c-.43-.07-.863-.128-1.346-.2A31.9,31.9,0,0,0,2108.331-321.29Zm14.855-11.571c-.151-.514-.26-.947-.405-1.367a14.724,14.724,0,0,0-3.6-6.128c-1.93-1.826-4.057-1.931-5.982-.1a15.6,15.6,0,0,0-2.412,3.128,14.886,14.886,0,0,0-1.741,4.473A36.349,36.349,0,0,0,2123.186-332.861Zm-14.23,15.175c.432,1.166.778,2.263,1.241,3.309a11.208,11.208,0,0,0,3.465,4.693,3.642,3.642,0,0,0,4.787.031,12.079,12.079,0,0,0,2.266-2.41,16.562,16.562,0,0,0,2.462-5.634A36.691,36.691,0,0,0,2108.956-317.686Zm-9.458-14.286a17.869,17.869,0,0,0,.007,13.38c1.605-.567,3.123-1.135,4.664-1.629.483-.155.569-.385.522-.826a25.319,25.319,0,0,1-.233-2.938c.024-1.857.145-3.714.226-5.57.013-.289.109-.559-.322-.7C2102.764-330.794,2101.181-331.375,2099.5-331.973Zm33.208,13.38a17.839,17.839,0,0,0,0-13.379c-1.572.559-3.064,1.132-4.586,1.608-.577.18-.625.46-.589.97.112,1.6.227,3.2.233,4.8,0,1.215-.152,2.43-.244,3.644-.024.314-.032.533.375.666C2129.47-319.763,2131.031-319.185,2132.706-318.592Zm-27.264,1.716-4.205,1.558a17.435,17.435,0,0,0,7.941,6.469A23.2,23.2,0,0,1,2105.442-316.876Zm0-16.809a23.646,23.646,0,0,1,3.719-8.014,17.352,17.352,0,0,0-7.914,6.473Zm17.6,24.834a17.343,17.343,0,0,0,7.929-6.478l-4.2-1.543A23.105,23.105,0,0,1,2123.036-308.85Zm.014-32.836a23.79,23.79,0,0,1,3.729,8l4.193-1.551A17.427,17.427,0,0,0,2123.05-341.687Z" transform="translate(-2089.041 346.803)" fill="#12263f"/>
        <path id="Trazado_138750" data-name="Trazado 138750" d="M2066.586-48.4c-1.212-1.172-2.438-2.331-3.628-3.525a2.773,2.773,0,0,1-.675-1.058,1.885,1.885,0,0,1,.83-2.171,1.958,1.958,0,0,1,2.374.24c1.512,1.325,3.008,2.668,4.512,4,.688.61,1.35,1.254,2.075,1.817a5.551,5.551,0,0,1,2.105,3.678c.308,1.874.717,3.731,1.1,5.592a3.955,3.955,0,0,1-2.421,4.576,3.924,3.924,0,0,1-4.83-1.7.972.972,0,0,1-.1-.164,7.817,7.817,0,0,0-3.333-3.734c-2.843-1.939-5.607-3.993-8.419-5.977a3.806,3.806,0,0,1-1.595-2.238c-.948-3.7-1.92-7.4-2.873-11.1a1.9,1.9,0,0,1,1.237-2.461,1.937,1.937,0,0,1,2.462,1.169c1.394,3.1,2.767,6.2,4.176,9.292a1.746,1.746,0,0,0,.713.749c1.82.99,3.661,1.942,5.5,2.9.2.106.413.2.62.294Z" transform="translate(-2051.621 99.208)" fill="#12263f"/>
        <path id="Trazado_138751" data-name="Trazado 138751" d="M2297.159-48.165c1.833-.955,3.651-1.938,5.505-2.85a3.226,3.226,0,0,0,1.639-1.746c1.246-2.9,2.556-5.781,3.854-8.663a1.943,1.943,0,0,1,2.033-1.256,1.863,1.863,0,0,1,1.669,1.377,2.252,2.252,0,0,1,.018,1.067c-.959,3.764-1.947,7.521-2.92,11.282a3.668,3.668,0,0,1-1.533,2.132q-5.078,3.595-10.122,7.237a3.6,3.6,0,0,0-.859.993c-.332.52-.577,1.1-.89,1.63a3.914,3.914,0,0,1-4.8,1.775,3.922,3.922,0,0,1-2.487-4.481c.425-2.222.84-4.45,1.378-6.646a4.274,4.274,0,0,1,1.126-2.019c2.406-2.247,4.888-4.414,7.365-6.584a1.916,1.916,0,0,1,2.714.136,1.963,1.963,0,0,1-.067,2.725c-1.041,1.076-2.113,2.122-3.169,3.183-.193.194-.378.4-.566.6Z" transform="translate(-2257.812 99.169)" fill="#12263f"/>
      </g>
    </g>
  </g>
</svg>
