<svg xmlns="http://www.w3.org/2000/svg" xmlns:xlink="http://www.w3.org/1999/xlink" width="283" height="175" viewBox="0 0 283 175">
  <defs>
    <radialGradient id="radial-gradient" cx="0.076" cy="0.019" r="1.465" gradientTransform="translate(0.001)" gradientUnits="objectBoundingBox">
      <stop offset="0" stop-color="#f6f6f7"/>
      <stop offset="0.477" stop-color="#f9f9fa"/>
      <stop offset="0.715" stop-color="#fff"/>
    </radialGradient>
  </defs>
  <g id="Grupo_90286" data-name="Grupo 90286" transform="translate(-230 -3266)">
    <rect id="Rect치ngulo_353116" data-name="Rect치ngulo 353116" width="283" height="175" transform="translate(230 3266)" fill="#fff"/>
    <path id="Trazado_151811" data-name="Trazado 151811" d="M283,175h0Z" transform="translate(230 3266)" fill="#fff"/>
    <rect id="Rect치ngulo_32727" data-name="Rect치ngulo 32727" width="283" height="81" transform="translate(230 3266)" fill="#e8e8e8"/>
    <g id="Grupo_87331" data-name="Grupo 87331" transform="translate(312.654 3309.309)">
      <g id="Grupo_18531" data-name="Grupo 18531" transform="translate(0 0)">
        <g id="Grupo_18423" data-name="Grupo 18423" transform="translate(0 0)">
          <g id="Grupo_18421" data-name="Grupo 18421">
            <g id="Grupo_18420" data-name="Grupo 18420">
              <g id="Grupo_18419" data-name="Grupo 18419">
                <path id="Trazado_40936" data-name="Trazado 40936" d="M312.314,2204.565a58.846,58.846,0,1,1-58.845-58.844A58.845,58.845,0,0,1,312.314,2204.565Z" transform="translate(-194.623 -2145.721)" fill="#fff"/>
              </g>
            </g>
          </g>
          <path id="Trazado_40937" data-name="Trazado 40937" d="M311.665,2203.857A58.844,58.844,0,1,0,252.82,2262.7,58.613,58.613,0,0,0,311.665,2203.857Z" transform="translate(-193.974 -2145.013)" fill="url(#radial-gradient)"/>
          <path id="Trazado_40938" data-name="Trazado 40938" d="M291.975,2198.12a44.917,44.917,0,1,0-44.917,44.917A44.75,44.75,0,0,0,291.975,2198.12Z" transform="translate(-188.034 -2139.08)" fill="none" stroke="#00223d" stroke-miterlimit="10" stroke-width="4"/>
          <g id="Grupo_18422" data-name="Grupo 18422" transform="translate(10.425 33.038)">
            <path id="Trazado_40939" data-name="Trazado 40939" d="M301.861,2164.488a58.853,58.853,0,0,1-101.316,58.6,58.666,58.666,0,0,0,101.316-58.6Z" transform="translate(-200.545 -2164.488)" fill="#eceef0"/>
          </g>
        </g>
      </g>
      <g id="ECCmyn.tif" transform="translate(258.101 -1100.397)">
        <g id="Grupo_87847" data-name="Grupo 87847" transform="translate(-218.998 1135.552)">
          <path id="Trazado_139623" data-name="Trazado 139623" d="M-182.78,1182.967h-32.691c-.031-.028-.058-.072-.095-.083a3.985,3.985,0,0,1-3.272-4.326q0-10.6-.007-21.191a4.544,4.544,0,0,1,1.423-3.45c1.657-1.609,3.272-3.261,4.9-4.9q6.007-6.012,12.009-12.029a4.154,4.154,0,0,1,3-1.38c3.463-.014,6.927-.046,10.39.008a7.832,7.832,0,0,1,7.479,6.091c.1.4.173.8.26,1.207v36.515a15.607,15.607,0,0,1-.933,2.02A4.191,4.191,0,0,1-182.78,1182.967Zm-16.184-27.577-.247.054a49.861,49.861,0,0,0-5.5,10.043,5.32,5.32,0,0,0-.172,3.022,5.934,5.934,0,0,0,7.342,4.356,5.756,5.756,0,0,0,3.952-7.444,20.246,20.246,0,0,0-1.381-3.164C-196.254,1159.942-197.627,1157.676-198.965,1155.39Zm7.72-9.911c1.242,0,2.484.011,3.726,0a1.982,1.982,0,0,0,2.171-1.944,1.983,1.983,0,0,0-2.176-2.005q-3.726-.018-7.451,0a2.011,2.011,0,0,0-2.181,1.946,2.005,2.005,0,0,0,2.186,2C-193.729,1145.489-192.487,1145.478-191.245,1145.479Z" transform="translate(218.865 -1135.586)" fill="#12263f"/>
          <path id="Trazado_139624" data-name="Trazado 139624" d="M-207.1,1137.81a2.133,2.133,0,0,0-1.189-2.069,1.919,1.919,0,0,0-2.268.477q-3.911,3.892-7.8,7.807a1.935,1.935,0,0,0-.079,2.808,1.929,1.929,0,0,0,2.853-.024q3.942-3.907,7.837-7.861A4.375,4.375,0,0,0-207.1,1137.81Z" transform="translate(218.998 -1135.552)" fill="#12263f"/>
          <path id="Trazado_139625" data-name="Trazado 139625" d="M-207.1,1137.81a4.375,4.375,0,0,1-.645,1.138q-3.886,3.963-7.837,7.861a1.929,1.929,0,0,1-2.853.024,1.935,1.935,0,0,1,.079-2.808q3.884-3.918,7.8-7.807a1.919,1.919,0,0,1,2.268-.477A2.133,2.133,0,0,1-207.1,1137.81Z" transform="translate(218.998 -1135.552)" fill="#12263f"/>
        </g>
      </g>
    </g>
  </g>
</svg>
