<svg xmlns="http://www.w3.org/2000/svg" xmlns:xlink="http://www.w3.org/1999/xlink" width="283" height="132" viewBox="0 0 283 132">
  <defs>
    <radialGradient id="radial-gradient" cx="0.076" cy="0.019" r="1.465" gradientTransform="translate(0.001)" gradientUnits="objectBoundingBox">
      <stop offset="0" stop-color="#f6f6f7"/>
      <stop offset="0.477" stop-color="#f9f9fa"/>
      <stop offset="0.715" stop-color="#fff"/>
    </radialGradient>
  </defs>
  <g id="Grupo_90283" data-name="Grupo 90283" transform="translate(-796 -6581)">
    <rect id="Rect치ngulo_353113" data-name="Rect치ngulo 353113" width="283" height="132" transform="translate(796 6581)" fill="#fff"/>
    <rect id="Rect치ngulo_32730" data-name="Rect치ngulo 32730" width="283" height="81" transform="translate(796 6582)" fill="#e8e8e8"/>
    <g id="Grupo_87333" data-name="Grupo 87333" transform="translate(878.654 6595.309)">
      <g id="Grupo_18531" data-name="Grupo 18531" transform="translate(0 0)">
        <g id="Grupo_18423" data-name="Grupo 18423" transform="translate(0 0)">
          <g id="Grupo_18421" data-name="Grupo 18421">
            <g id="Grupo_18420" data-name="Grupo 18420">
              <g id="Grupo_18419" data-name="Grupo 18419">
                <path id="Trazado_40936" data-name="Trazado 40936" d="M312.314,2204.565a58.846,58.846,0,1,1-58.845-58.844A58.845,58.845,0,0,1,312.314,2204.565Z" transform="translate(-194.623 -2145.721)" fill="#fff"/>
              </g>
            </g>
          </g>
          <path id="Trazado_40937" data-name="Trazado 40937" d="M311.665,2203.857A58.844,58.844,0,1,0,252.82,2262.7,58.613,58.613,0,0,0,311.665,2203.857Z" transform="translate(-193.974 -2145.013)" fill="url(#radial-gradient)"/>
          <path id="Trazado_40938" data-name="Trazado 40938" d="M291.975,2198.12a44.917,44.917,0,1,0-44.917,44.917A44.75,44.75,0,0,0,291.975,2198.12Z" transform="translate(-188.034 -2139.08)" fill="none" stroke="#00223d" stroke-miterlimit="10" stroke-width="4"/>
          <g id="Grupo_18422" data-name="Grupo 18422" transform="translate(10.425 33.038)">
            <path id="Trazado_40939" data-name="Trazado 40939" d="M301.861,2164.488a58.853,58.853,0,0,1-101.316,58.6,58.666,58.666,0,0,0,101.316-58.6Z" transform="translate(-200.545 -2164.488)" fill="#eceef0"/>
          </g>
        </g>
      </g>
      <g id="_9qOHtY" data-name="9qOHtY" transform="translate(718.703 -138.607)">
        <g id="Grupo_87338" data-name="Grupo 87338" transform="translate(-682.358 167.799)">
          <path id="Trazado_138913" data-name="Trazado 138913" d="M-656.742,249.894c-.99-.216-1.991-.39-2.967-.657A16.23,16.23,0,0,1-669.1,242c-4.049-6.214-7.978-12.506-11.922-18.787a11.531,11.531,0,0,1-1.2-2.657c-.548-1.743.683-3.15,2.327-2.448a27.315,27.315,0,0,1,5.412,3.266,56.082,56.082,0,0,1,4.376,4v-1.654c0-6.181-.014-12.363.008-18.544.009-2.45,2.215-3.994,4.239-2.988a3.091,3.091,0,0,1,1.712,3.065c-.022,5.648-.009,11.3-.009,16.943,0,.487,0,.975,0,1.631l2.066.094v-1.588c0-7.071-.013-14.142.009-21.212.007-2.438,2.26-3.96,4.275-2.913a3.032,3.032,0,0,1,1.659,2.957c-.024,6.359-.01,12.718-.01,19.078v1.54h2.082c0-1.446-.007-2.941,0-4.437.012-2,1.214-3.423,2.919-3.462,1.764-.04,3,1.371,3.009,3.484s0,4.247,0,6.463h2.068c0-1.546-.013-3.044,0-4.542.023-2.045,1.2-3.344,3-3.342a3.236,3.236,0,0,1,3.163,3.412c.018,5.247.036,10.5-.006,15.742a15.039,15.039,0,0,1-12.746,14.58,3.133,3.133,0,0,0-.6.222Z" transform="translate(682.358 -189.84)" fill="#12263f"/>
          <path id="Trazado_138914" data-name="Trazado 138914" d="M-646.065,167.8a11.927,11.927,0,0,1,7.784,4.888,11,11,0,0,1-3,15.276,9.35,9.35,0,0,1-.932.468,2.881,2.881,0,0,1,1.019-3.2,8.8,8.8,0,0,0,.2-12.84,8.934,8.934,0,0,0-12.966.4,2.731,2.731,0,0,1-2,1.041,8.559,8.559,0,0,0-7.939,6.108c-1.285,3.809-.108,7.024,2.761,9.777a4.146,4.146,0,0,1,.726,2.535,9.513,9.513,0,0,1-5.644-7.007,10.932,10.932,0,0,1,9.081-13.329,4.267,4.267,0,0,0,2.017-1.036,13.742,13.742,0,0,1,6.226-3.09Z" transform="translate(670.613 -167.799)" fill="#12263f"/>
          <path id="Trazado_138915" data-name="Trazado 138915" d="M-631.371,194.669c0-1.672.018-3.092,0-4.51a4.93,4.93,0,0,0-4.492-5.206c-2.678-.31-4.763,1.272-5.461,4.14-.041.169-.11.332-.185.552a15.053,15.053,0,0,0-1.977-.641,4.956,4.956,0,0,0-5.948,4.894c-.067,1.442-.011,2.89-.011,4.477-2.733-2.441-2.51-6.981.314-9.573a6.655,6.655,0,0,1,5.115-1.865,1.74,1.74,0,0,0,1.88-.928,6.885,6.885,0,0,1,10.059-1.561A6.944,6.944,0,0,1-631.371,194.669Z" transform="translate(659.648 -178.891)" fill="#12263f"/>
        </g>
      </g>
    </g>
  </g>
</svg>
