<svg id="Grupo_87597" data-name="Grupo 87597" xmlns="http://www.w3.org/2000/svg" xmlns:xlink="http://www.w3.org/1999/xlink" width="104.624" height="104.624" viewBox="0 0 104.624 104.624">
  <defs>
    <radialGradient id="radial-gradient" cx="0.076" cy="0.019" r="1.465" gradientTransform="translate(0.001)" gradientUnits="objectBoundingBox">
      <stop offset="0" stop-color="#f6f6f7"/>
      <stop offset="0.477" stop-color="#f9f9fa"/>
      <stop offset="0.715" stop-color="#fff"/>
    </radialGradient>
  </defs>
  <g id="Grupo_18531" data-name="Grupo 18531" transform="translate(0 0)">
    <g id="Grupo_18423" data-name="Grupo 18423" transform="translate(0 0)">
      <g id="Grupo_18421" data-name="Grupo 18421">
        <g id="Grupo_18420" data-name="Grupo 18420">
          <g id="Grupo_18419" data-name="Grupo 18419">
            <path id="Trazado_40936" data-name="Trazado 40936" d="M299.247,2198.031a52.312,52.312,0,1,1-52.311-52.31A52.311,52.311,0,0,1,299.247,2198.031Z" transform="translate(-194.623 -2145.721)" fill="#fff"/>
          </g>
        </g>
      </g>
      <path id="Trazado_40937" data-name="Trazado 40937" d="M298.764,2197.505a52.311,52.311,0,1,0-52.311,52.313A52.1,52.1,0,0,0,298.764,2197.505Z" transform="translate(-194.14 -2145.195)" fill="url(#radial-gradient)"/>
      <path id="Trazado_40938" data-name="Trazado 40938" d="M282.128,2193.272A39.93,39.93,0,1,0,242.2,2233.2,39.781,39.781,0,0,0,282.128,2193.272Z" transform="translate(-189.728 -2140.787)" fill="none" stroke="#00223d" stroke-miterlimit="10" stroke-width="4"/>
      <g id="Grupo_18422" data-name="Grupo 18422" transform="translate(9.268 29.369)">
        <path id="Trazado_40939" data-name="Trazado 40939" d="M290.612,2164.488a52.318,52.318,0,0,1-90.067,52.1,52.152,52.152,0,0,0,90.067-52.1Z" transform="translate(-200.545 -2164.488)" fill="#eceef0"/>
      </g>
    </g>
  </g>
  <g id="Grupo_87600" data-name="Grupo 87600" transform="translate(287.799 -1073.209)">
    <path id="Trazado_139386" data-name="Trazado 139386" d="M-224.687,1187.7h-41.386v-.685c0-2.258.009-4.516-.008-6.774,0-.438.047-.721.572-.778a1.756,1.756,0,0,0,1.517-1.369c1.406-3.895,2.887-7.763,4.306-11.653a1.491,1.491,0,0,1,1.419-1.142c3.076-.377,6.136-.878,9.205-1.314a28.5,28.5,0,0,1,8.074.076q4.543.65,9.079,1.346a.8.8,0,0,1,.536.415c1.591,4.186,3.179,8.374,4.712,12.581a1.5,1.5,0,0,0,1.329,1.015c.522.1.7.335.69.892-.038,2.257-.015,4.516-.017,6.774C-224.66,1187.285-224.677,1187.482-224.687,1187.7Zm-35.832-9.814.1.222a71.958,71.958,0,0,1,30.206.014c-.074-.307-.089-.425-.13-.533-1.116-2.973-2.226-5.948-3.37-8.91a.9.9,0,0,0-.618-.42q-2.741-.446-5.493-.826a28.182,28.182,0,0,0-7.282-.425c-3.077.373-6.144.823-9.219,1.216a.926.926,0,0,0-.856.692c-.766,2.1-1.561,4.182-2.343,6.272C-259.857,1176.089-260.187,1176.99-260.519,1177.889Zm30.325,8.036a2.6,2.6,0,0,0,2.606-2.6,2.7,2.7,0,0,0-2.647-2.6,2.725,2.725,0,0,0-2.614,2.642A2.612,2.612,0,0,0-230.195,1185.925Zm-30.344,0a2.556,2.556,0,0,0,2.616-2.634,2.653,2.653,0,0,0-2.6-2.569,2.6,2.6,0,0,0-2.6,2.609A2.5,2.5,0,0,0-260.538,1185.925Z" transform="translate(0 -54.573)" fill="#12263f"/>
    <path id="Trazado_139387" data-name="Trazado 139387" d="M-224.23,1369.536v3.171h-1.561c0,1.494,0,2.923,0,4.352,0,1.444-.566,2.006-2.016,2.009-.887,0-1.774.009-2.661,0a1.59,1.59,0,0,1-1.709-1.695c-.019-1.33-.007-2.661-.008-3.992,0-.2,0-.392,0-.638h-25.488c0,1.023,0,2.005,0,2.987,0,.6.012,1.21-.005,1.814a1.473,1.473,0,0,1-1.479,1.513q-1.662.044-3.326,0a1.533,1.533,0,0,1-1.53-1.612c-.02-1.35-.006-2.7-.007-4.052,0-.2,0-.395,0-.65h-1.534v-3.206Z" transform="translate(-0.463 -235.467)" fill="#12263f"/>
    <path id="Trazado_139388" data-name="Trazado 139388" d="M146.466,1299.573h-.8c0,.265,0,.5,0,.736q0,6.047,0,12.094c0,.483-.023.966-.042,1.449a2,2,0,0,1-1.994,2,2.058,2.058,0,0,1-2.131-1.891,3.413,3.413,0,0,1-.01-.362q0-7.621,0-15.241c0-.136.023-.272.037-.433h5.876v1.842h1.065v-1.781c.463-.014.463-.014.463.686,0,.358,0,.717,0,1.106h1.084c0-.49-.009-.968,0-1.445.01-.408.021-.407.517-.378a.554.554,0,0,1,.053.163c0,2.8-.014,5.6-.013,8.406q0,3.536.026,7.072a2.012,2.012,0,0,1-1.243,2.085,2.061,2.061,0,0,1-2.9-1.95c-.01-4.435,0-8.871,0-13.306C146.466,1300.165,146.466,1299.9,146.466,1299.573Z" transform="translate(-358.253 -172.522)" fill="#12263f"/>
    <path id="Trazado_139389" data-name="Trazado 139389" d="M143.28,1111.967a3.832,3.832,0,0,1-3.79-4.232,1.187,1.187,0,0,0-.326-.811c-1.045-1.126-.991-1.091-.475-2.545a2.276,2.276,0,0,1,1.553-1.477c.9-.33,1.764-.778,2.653-1.153a.891.891,0,0,1,.607-.07c1.242.519,2.473,1.065,3.7,1.625a.875.875,0,0,1,.387.413,17.39,17.39,0,0,1,.694,1.734.778.778,0,0,1-.122.613c-.252.334-.606.593-.855.929a1.2,1.2,0,0,0-.241.733A3.828,3.828,0,0,1,143.28,1111.967Zm3.652-5.44c.087-.43-.233-.586-.538-.737a7.327,7.327,0,0,0-4.016-.507,10.706,10.706,0,0,0-2.264.543c-.234.075-.391.39-.584.595A9.99,9.99,0,0,1,146.932,1106.527Zm-2.832-3c-.429-.756-1-.9-1.422-.414a5.049,5.049,0,0,1-.638.534c1.023.885,1.412.886,2.636-.12Z" transform="translate(-355.47)" fill="#12263f"/>
    <path id="Trazado_139390" data-name="Trazado 139390" d="M184.534,1191.13l-.71-1.257-.121.047-.048.813a8.376,8.376,0,0,1-1.313-.154c-.153-.041-.311-.336-.336-.532-.178-1.4-.322-2.795-.477-4.2a3.66,3.66,0,0,1,3.782,1.444,17.193,17.193,0,0,1,2.706,5.091,1.351,1.351,0,0,1-1.531,1.74c-1.523-.149-3.042-.345-4.562-.522-.5-.058-1-.122-1.5-.178a1.345,1.345,0,0,1-1.294-1.435,1.32,1.32,0,0,1,1.507-1.228c.984.073,1.963.2,2.945.3C183.839,1191.085,184.1,1191.1,184.534,1191.13Z" transform="translate(-391.327 -73.93)" fill="#12263f"/>
    <path id="Trazado_139391" data-name="Trazado 139391" d="M154.319,1197.071l-5.859.767-1.014-8.1,5.893-.734.59,4.352c-.335-.034-.6-.054-.873-.089a1.783,1.783,0,0,0-2.1,1.432,1.725,1.725,0,0,0,1.7,1.933c.564.062,1.126.144,1.689.216Z" transform="translate(-363.484 -76.78)" fill="#12263f"/>
    <path id="Trazado_139392" data-name="Trazado 139392" d="M142.532,1239.561c.136,1,.272,1.991.417,3.051.87-.114,1.7-.229,2.529-.329,1.14-.137,2.284-.245,3.42-.407a2.6,2.6,0,0,0,.738-.374l-.059-.193,1.034.148v2.279c0,.625.011,1.251-.01,1.875,0,.125-.131.245-.2.368-.122-.07-.242-.144-.366-.211-.2-.106-.394-.283-.594-.288-.166,0-.338.194-.505.306-.088.059-.17.126-.254.19l-.283-.5h-.9l-.128.511h-5.83c-.014-.239-.035-.431-.035-.624q0-2.329,0-4.658C141.5,1239.8,141.573,1239.72,142.532,1239.561Z" transform="translate(-358.255 -121.221)" fill="#12263f"/>
    <path id="Trazado_139393" data-name="Trazado 139393" d="M109.268,1186.079l-3.148.362a14.306,14.306,0,0,0,.206,1.537c.1.431-.06.621-.422.772-.427.178-.839.392-1.257.59l.106.231,1.685-.671c.108.856.224,1.666.3,2.48a.513.513,0,0,1-.252.4c-1.26.577-2.522,1.153-3.805,1.678a1.347,1.347,0,0,1-1.716-1.748,12.274,12.274,0,0,1,3.594-5.126,4.846,4.846,0,0,1,4.7-.669Z" transform="translate(-322.53 -73.786)" fill="#12263f"/>
    <path id="Trazado_139399" data-name="Trazado 139399" d="M-70.471,1208.707a3.8,3.8,0,0,1,3.763-3.7,3.767,3.767,0,0,1,3.685,3.71,3.746,3.746,0,0,1-3.778,3.732A3.78,3.78,0,0,1-70.471,1208.707Z" transform="translate(-171.938 -90.844)" fill="#12263f"/>
  </g>
</svg>
