<svg id="Grupo_87595" data-name="Grupo 87595" xmlns="http://www.w3.org/2000/svg" xmlns:xlink="http://www.w3.org/1999/xlink" width="104.624" height="104.624" viewBox="0 0 104.624 104.624">
  <defs>
    <radialGradient id="radial-gradient" cx="0.076" cy="0.019" r="1.465" gradientTransform="translate(0.001)" gradientUnits="objectBoundingBox">
      <stop offset="0" stop-color="#f6f6f7"/>
      <stop offset="0.477" stop-color="#f9f9fa"/>
      <stop offset="0.715" stop-color="#fff"/>
    </radialGradient>
  </defs>
  <g id="Grupo_18531" data-name="Grupo 18531" transform="translate(0 0)">
    <g id="Grupo_18423" data-name="Grupo 18423" transform="translate(0 0)">
      <g id="Grupo_18421" data-name="Grupo 18421">
        <g id="Grupo_18420" data-name="Grupo 18420">
          <g id="Grupo_18419" data-name="Grupo 18419">
            <path id="Trazado_40936" data-name="Trazado 40936" d="M299.247,2198.031a52.312,52.312,0,1,1-52.311-52.31A52.311,52.311,0,0,1,299.247,2198.031Z" transform="translate(-194.623 -2145.721)" fill="#fff"/>
          </g>
        </g>
      </g>
      <path id="Trazado_40937" data-name="Trazado 40937" d="M298.764,2197.505a52.311,52.311,0,1,0-52.311,52.313A52.1,52.1,0,0,0,298.764,2197.505Z" transform="translate(-194.14 -2145.195)" fill="url(#radial-gradient)"/>
      <path id="Trazado_40938" data-name="Trazado 40938" d="M282.128,2193.272A39.93,39.93,0,1,0,242.2,2233.2,39.781,39.781,0,0,0,282.128,2193.272Z" transform="translate(-189.728 -2140.787)" fill="none" stroke="#00223d" stroke-miterlimit="10" stroke-width="4"/>
      <g id="Grupo_18422" data-name="Grupo 18422" transform="translate(9.268 29.369)">
        <path id="Trazado_40939" data-name="Trazado 40939" d="M290.612,2164.488a52.318,52.318,0,0,1-90.067,52.1,52.152,52.152,0,0,0,90.067-52.1Z" transform="translate(-200.545 -2164.488)" fill="#eceef0"/>
      </g>
    </g>
  </g>
  <g id="JuGuCu.tif" transform="translate(296.094 -581.4)">
    <g id="Grupo_87599" data-name="Grupo 87599" transform="translate(-265.76 605.573)">
      <path id="Trazado_139380" data-name="Trazado 139380" d="M-249.316,868.135h-16.442v-.717q0-4.947,0-9.894a5.853,5.853,0,0,1,2.712-5.142,35.2,35.2,0,0,1,10.032-4.8.738.738,0,0,1,.646.124,5.834,5.834,0,0,0,2.611,2,.677.677,0,0,1,.49.721q-.022,8.616-.012,17.233C-249.281,867.811-249.3,867.959-249.316,868.135Zm-14.333-3.481h6.1v-1.993h-6.1Z" transform="translate(265.76 -815.858)" fill="#12263f"/>
      <path id="Trazado_139381" data-name="Trazado 139381" d="M-39.725,867.884H-56.207v-.678q0-8.449-.014-16.9a.8.8,0,0,1,.562-.87,5.5,5.5,0,0,0,2.54-1.984.593.593,0,0,1,.526-.164,30.407,30.407,0,0,1,10.413,5,6.047,6.047,0,0,1,2.461,5.089c-.028,3.231-.007,6.462-.007,9.694ZM-53.43,853.861l.2.039a6.945,6.945,0,0,1-.017,1.5,2.892,2.892,0,0,0,1.457,3.493,2.2,2.2,0,0,0,1.128.421,3.182,3.182,0,0,0,2.523-3.517c-.148-.673-.325-1.307.094-1.819l-.812-.974a1.5,1.5,0,0,1-1.714.118.336.336,0,0,0-.29-.014,1.5,1.5,0,0,1-1.7-.072Zm11.587,10.558V862.46h-6.089v1.959Z" transform="translate(83.673 -815.611)" fill="#12263f"/>
      <path id="Trazado_139382" data-name="Trazado 139382" d="M-219.856,626.308a9.039,9.039,0,0,1-3.553-2.4,2.4,2.4,0,0,1-.024-3.239,10.406,10.406,0,0,1,4.246-2.84.971.971,0,0,0,.719-.9,10.832,10.832,0,0,1,4.956-8.156c.214-.143.443-.264.722-.428.362,1.9.713,3.741,1.063,5.58.016.086.024.173.043.258.1.467.368.769.873.653.475-.109.573-.483.489-.923q-.4-2.121-.808-4.242-.177-.932-.349-1.865a1.744,1.744,0,0,1,1.63-2.181c1.545-.062,3.1-.063,4.64,0a1.719,1.719,0,0,1,1.6,2.139q-.556,2.991-1.132,5.979c-.094.49-.114.942.486,1.1.469.123.772-.188.9-.868.35-1.859.7-3.718,1.066-5.646a11.019,11.019,0,0,1,5.47,7.246,1.481,1.481,0,0,1,.092.447c-.112,1.25.594,1.77,1.661,2.215a11.067,11.067,0,0,1,2.745,1.741c1.707,1.421,1.708,3.129,0,4.54a28.479,28.479,0,0,1-2.764,1.815l-.174-.144c.051-.211.1-.424.153-.633a10.378,10.378,0,0,0,.41-4.2.911.911,0,0,0-.6-.815,24.428,24.428,0,0,0-7.3-1.9,37.8,37.8,0,0,0-13.442.636c-1.263.3-2.475.819-3.716,1.217a1.029,1.029,0,0,0-.741,1.074,11.442,11.442,0,0,0,.436,4.013C-220.007,625.755-219.958,625.941-219.856,626.308Z" transform="translate(229.515 -605.573)" fill="#12263f"/>
      <path id="Trazado_139383" data-name="Trazado 139383" d="M-170.873,731.376a11.02,11.02,0,0,1-10.986-10.26.807.807,0,0,1,.618-.993,28.3,28.3,0,0,1,8.2-1.493,32.969,32.969,0,0,1,11.824,1.273c1.57.51,1.44.182,1.213,1.908A10.936,10.936,0,0,1-170.873,731.376Z" transform="translate(192.856 -703.767)" fill="#12263f"/>
      <path id="Trazado_139384" data-name="Trazado 139384" d="M-129.248,887.03v-17.7a16.384,16.384,0,0,0,8.175-.013V887.03Z" transform="translate(147.133 -834.767)" fill="#12263f"/>
      <path id="Trazado_139385" data-name="Trazado 139385" d="M-155.95,811.49c2.942,3.337,11.993,3.531,15.117,0a32.768,32.768,0,0,1-.046,3.7,2.328,2.328,0,0,1-.972,1.3,9.272,9.272,0,0,1-4.181,1.546,13.783,13.783,0,0,1-7.677-.852,8.562,8.562,0,0,1-.98-.517,2.245,2.245,0,0,1-1.277-2.3C-155.887,813.465-155.95,812.547-155.95,811.49Z" transform="translate(170.361 -784.512)" fill="#12263f"/>
    </g>
  </g>
</svg>
