<svg id="Grupo_87596" data-name="Grupo 87596" xmlns="http://www.w3.org/2000/svg" xmlns:xlink="http://www.w3.org/1999/xlink" width="104.624" height="104.624" viewBox="0 0 104.624 104.624">
  <defs>
    <radialGradient id="radial-gradient" cx="0.076" cy="0.019" r="1.465" gradientTransform="translate(0.001)" gradientUnits="objectBoundingBox">
      <stop offset="0" stop-color="#f6f6f7"/>
      <stop offset="0.477" stop-color="#f9f9fa"/>
      <stop offset="0.715" stop-color="#fff"/>
    </radialGradient>
  </defs>
  <g id="Grupo_18531" data-name="Grupo 18531" transform="translate(0 0)">
    <g id="Grupo_18423" data-name="Grupo 18423" transform="translate(0 0)">
      <g id="Grupo_18421" data-name="Grupo 18421">
        <g id="Grupo_18420" data-name="Grupo 18420">
          <g id="Grupo_18419" data-name="Grupo 18419">
            <path id="Trazado_40936" data-name="Trazado 40936" d="M299.247,2198.031a52.312,52.312,0,1,1-52.311-52.31A52.311,52.311,0,0,1,299.247,2198.031Z" transform="translate(-194.623 -2145.721)" fill="#fff"/>
          </g>
        </g>
      </g>
      <path id="Trazado_40937" data-name="Trazado 40937" d="M298.764,2197.505a52.311,52.311,0,1,0-52.311,52.313A52.1,52.1,0,0,0,298.764,2197.505Z" transform="translate(-194.14 -2145.195)" fill="url(#radial-gradient)"/>
      <path id="Trazado_40938" data-name="Trazado 40938" d="M282.128,2193.272A39.93,39.93,0,1,0,242.2,2233.2,39.781,39.781,0,0,0,282.128,2193.272Z" transform="translate(-189.728 -2140.787)" fill="none" stroke="#00223d" stroke-miterlimit="10" stroke-width="4"/>
      <g id="Grupo_18422" data-name="Grupo 18422" transform="translate(9.268 29.369)">
        <path id="Trazado_40939" data-name="Trazado 40939" d="M290.612,2164.488a52.318,52.318,0,0,1-90.067,52.1,52.152,52.152,0,0,0,90.067-52.1Z" transform="translate(-200.545 -2164.488)" fill="#eceef0"/>
      </g>
    </g>
  </g>
  <g id="yiuctu" transform="translate(-228.717 -947.026)">
    <g id="Grupo_87601" data-name="Grupo 87601" transform="translate(258.924 971)">
      <path id="Trazado_139400" data-name="Trazado 139400" d="M418.98,971a1.588,1.588,0,0,1,.989,1.683c-.02,2.7-.009,5.4-.01,8.107a1.107,1.107,0,1,0,2.2-.013q0-3.5,0-7.006v-.362c.551.232,1.071.407,1.549.661a9.016,9.016,0,0,1,4.03,4.563,11.846,11.846,0,0,1,.99,4.141.462.462,0,0,0,.33.469,2.86,2.86,0,0,1,1.641,2.009,9.748,9.748,0,0,1,.26,2.974c0,.076-.155.2-.254.216-1.159.232-2.314.494-3.482.661a70.533,70.533,0,0,1-13.429.52,55.783,55.783,0,0,1-7.381-.815c-.561-.1-1.116-.24-1.67-.377-.081-.02-.2-.129-.2-.2A9.02,9.02,0,0,1,404.9,985a2.791,2.791,0,0,1,1.643-1.783c.215-.083.221-.233.232-.408a11.918,11.918,0,0,1,1.323-4.862,8.492,8.492,0,0,1,4.851-4.369c.115-.039.233-.068.383-.112.007.117.018.212.018.308q0,3.5,0,7.006a1.107,1.107,0,1,0,2.2.013c0-2.7.011-5.405-.009-8.107a1.59,1.59,0,0,1,.989-1.682Z" transform="translate(-395.631 -971)" fill="#12263f"/>
      <path id="Trazado_139401" data-name="Trazado 139401" d="M303.107,1332.4H258.924c.085-.839.123-1.663.259-2.471a9.421,9.421,0,0,1,4.323-6.465,26.611,26.611,0,0,1,4.723-2.359q2.105-.866,4.182-1.8a4.891,4.891,0,0,0,1.808-1.382,1.633,1.633,0,0,0,.4-1.058c0-1.06.038-2.12.048-3.18a.581.581,0,0,0-.122-.354,11.385,11.385,0,0,1-2.248-4.635,1.041,1.041,0,0,0-.288-.423,4.767,4.767,0,0,1-1.719-5.1,5.192,5.192,0,0,1,.393-.988c.07-.171.194-.2.369-.178,1.683.177,3.362.416,5.05.5,2.279.112,4.566.169,6.847.124,2.077-.041,4.151-.243,6.225-.39a15.854,15.854,0,0,0,1.7-.218c.327-.059.544.012.635.329a6.616,6.616,0,0,1,.387,1.556,5.684,5.684,0,0,1-.894,3.376,8.514,8.514,0,0,1-.968,1,.939.939,0,0,0-.237.392,10.956,10.956,0,0,1-1.842,4.164,2.23,2.23,0,0,0-.483,1.588c.044.814.06,1.63.059,2.445a1.625,1.625,0,0,0,.411,1.055,4.843,4.843,0,0,0,1.809,1.381c1.524.684,3.065,1.33,4.605,1.977a21.616,21.616,0,0,1,4.911,2.649,9.493,9.493,0,0,1,3.807,7.322q.031.534.059,1.068C303.136,1332.346,303.122,1332.365,303.107,1332.4Z" transform="translate(-258.924 -1281.752)" fill="#12263f"/>
    </g>
  </g>
</svg>
