<svg id="Grupo_87594" data-name="Grupo 87594" xmlns="http://www.w3.org/2000/svg" xmlns:xlink="http://www.w3.org/1999/xlink" width="104.624" height="104.624" viewBox="0 0 104.624 104.624">
  <defs>
    <radialGradient id="radial-gradient" cx="0.076" cy="0.019" r="1.465" gradientTransform="translate(0.001)" gradientUnits="objectBoundingBox">
      <stop offset="0" stop-color="#f6f6f7"/>
      <stop offset="0.477" stop-color="#f9f9fa"/>
      <stop offset="0.715" stop-color="#fff"/>
    </radialGradient>
  </defs>
  <g id="Grupo_18531" data-name="Grupo 18531" transform="translate(0 0)">
    <g id="Grupo_18423" data-name="Grupo 18423" transform="translate(0 0)">
      <g id="Grupo_18421" data-name="Grupo 18421">
        <g id="Grupo_18420" data-name="Grupo 18420">
          <g id="Grupo_18419" data-name="Grupo 18419">
            <path id="Trazado_40936" data-name="Trazado 40936" d="M299.247,2198.031a52.312,52.312,0,1,1-52.311-52.31A52.311,52.311,0,0,1,299.247,2198.031Z" transform="translate(-194.623 -2145.721)" fill="#fff"/>
          </g>
        </g>
      </g>
      <path id="Trazado_40937" data-name="Trazado 40937" d="M298.764,2197.505a52.311,52.311,0,1,0-52.311,52.313A52.1,52.1,0,0,0,298.764,2197.505Z" transform="translate(-194.14 -2145.195)" fill="url(#radial-gradient)"/>
      <path id="Trazado_40938" data-name="Trazado 40938" d="M282.128,2193.272A39.93,39.93,0,1,0,242.2,2233.2,39.781,39.781,0,0,0,282.128,2193.272Z" transform="translate(-189.728 -2140.787)" fill="none" stroke="#00223d" stroke-miterlimit="10" stroke-width="4"/>
      <g id="Grupo_18422" data-name="Grupo 18422" transform="translate(9.268 29.369)">
        <path id="Trazado_40939" data-name="Trazado 40939" d="M290.612,2164.488a52.318,52.318,0,0,1-90.067,52.1,52.152,52.152,0,0,0,90.067-52.1Z" transform="translate(-200.545 -2164.488)" fill="#eceef0"/>
      </g>
    </g>
  </g>
  <g id="OhjwJj.tif" transform="translate(-78.106 -508.931)">
    <g id="Grupo_87598" data-name="Grupo 87598" transform="translate(109.283 536)">
      <path id="Trazado_139373" data-name="Trazado 139373" d="M109.283,873.9c.1-.927.165-1.858.3-2.779a13.739,13.739,0,0,1,3.285-7.6,8.711,8.711,0,0,1,3.319-2.227c2.032-.78,4.076-1.527,6.108-2.307a.927.927,0,0,1,.959.11c1.265.88,2.545,1.738,3.815,2.609.587.4.6.649.09,1.164-.635.636-1.272,1.27-1.945,1.942.747.746,1.466,1.461,2.182,2.179.5.5.51.658.086,1.209-.57.741-1.127,1.494-1.723,2.213a.61.61,0,0,0-.062.779c.915,1.833,1.809,3.678,2.723,5.512a.669.669,0,0,1-.053.845H109.677a3.258,3.258,0,0,1-.277-.682c-.071-.424-.081-.859-.116-1.29Z" transform="translate(-109.283 -827.061)" fill="#12263f"/>
      <path id="Trazado_139374" data-name="Trazado 139374" d="M343.2,878.691c-.372-.22-.324-.5-.154-.835.894-1.771,1.761-3.556,2.673-5.318a.8.8,0,0,0-.113-1.029c-.571-.676-1.094-1.394-1.634-2.1-.441-.573-.435-.655.062-1.155l2.214-2.222c-.674-.672-1.324-1.316-1.969-1.965-.453-.457-.43-.752.091-1.109,1.285-.88,2.563-1.771,3.868-2.619a1.1,1.1,0,0,1,.848-.137c2.169.787,4.335,1.584,6.477,2.442a9.5,9.5,0,0,1,5.325,5.748,22.16,22.16,0,0,1,1.178,9.744,1.691,1.691,0,0,1-.269.55Z" transform="translate(-319.877 -828.205)" fill="#12263f"/>
      <path id="Trazado_139375" data-name="Trazado 139375" d="M193.946,536a17.717,17.717,0,0,1,2.243,1.468,11.031,11.031,0,0,0,6.47,2.668c.407.04.815.065,1.223.1,1.067.09,1.477.516,1.713,1.556a19.936,19.936,0,0,0,.84,2.806,5.923,5.923,0,0,0,.9,1.221c.369.5.355.678-.085,1.087-.6.558-1.214,1.1-1.806,1.671a.585.585,0,0,1-.739.123,27.363,27.363,0,0,0-22.266-.062.76.76,0,0,1-.936-.145c-.635-.594-1.271-1.187-1.919-1.766a.559.559,0,0,1-.06-.923,7.487,7.487,0,0,0,1.873-4.039c.2-1.07.847-1.477,2.076-1.546a12.326,12.326,0,0,0,4.9-1.09,23.389,23.389,0,0,0,2.3-1.485q1.243-.818,2.483-1.641Z" transform="translate(-172.398 -536)" fill="#12263f"/>
      <path id="Trazado_139376" data-name="Trazado 139376" d="M225.2,733.447a10.986,10.986,0,0,1-10.611-9.214,19.055,19.055,0,0,1-.121-2.6.676.676,0,0,1,.277-.509.577.577,0,0,1,.514.13,10.612,10.612,0,0,0,6.276,2.656,28.717,28.717,0,0,0,7.942-.058,11.622,11.622,0,0,0,5.442-2.1,6.5,6.5,0,0,1,.6-.5.868.868,0,0,1,.58-.115c.1.024.194.287.2.446a11.141,11.141,0,0,1-8.068,11.32A29.622,29.622,0,0,1,225.2,733.447Z" transform="translate(-204.092 -702.845)" fill="#12263f"/>
      <path id="Trazado_139377" data-name="Trazado 139377" d="M235.369,687.68a17.754,17.754,0,0,1-6.077-.723,6.521,6.521,0,0,1-3.445-2.317c-.322-.45-.265-.671.232-.919a18.843,18.843,0,0,1,6.655-1.76,23.922,23.922,0,0,1,8.864.674,28.051,28.051,0,0,1,3.161,1.189c.525.218.539.406.2.856a6.634,6.634,0,0,1-3.3,2.2A17.577,17.577,0,0,1,235.369,687.68Z" transform="translate(-214.173 -667.445)" fill="#12263f"/>
      <path id="Trazado_139378" data-name="Trazado 139378" d="M296.317,892.9c.8,1.016,1.553,1.989,2.332,2.938a.829.829,0,0,1,.123,1.013c-.822,1.75-1.6,3.523-2.417,5.274-.109.232-.391.533-.589.53s-.471-.308-.581-.542c-.841-1.8-1.643-3.61-2.476-5.409a.843.843,0,0,1,.124-.992c.763-.942,1.507-1.9,2.3-2.9-.713-.712-1.418-1.414-2.12-2.117-.527-.527-.526-.628,0-1.156.753-.755,1.513-1.5,2.257-2.267a.547.547,0,0,1,.915,0c.767.787,1.553,1.556,2.324,2.338a.682.682,0,0,1,.005,1.106C297.8,891.437,297.073,892.151,296.317,892.9Z" transform="translate(-274.526 -852.413)" fill="#12263f"/>
      <path id="Trazado_139379" data-name="Trazado 139379" d="M224.319,651.17a30.135,30.135,0,0,1,10.94,2.181.691.691,0,0,1,.332.51,2.415,2.415,0,0,1-.153.865c-.106.326-.3.456-.679.291a25.675,25.675,0,0,0-12.267-1.821,21.547,21.547,0,0,0-7.969,1.927c-.343.164-.53-.062-.63-.337a5.542,5.542,0,0,1-.16-.769.572.572,0,0,1,.425-.716,29.246,29.246,0,0,1,7.835-1.953C222.872,651.257,223.756,651.212,224.319,651.17Z" transform="translate(-203.416 -639.814)" fill="#12263f"/>
    </g>
  </g>
</svg>
