<svg xmlns="http://www.w3.org/2000/svg" xmlns:xlink="http://www.w3.org/1999/xlink" width="291" height="275" viewBox="0 0 291 275">
  <defs>
    <clipPath id="clip-path">
      <rect id="Rectángulo_32668" data-name="Rectángulo 32668" width="291" height="275" rx="20" transform="translate(226 499)" fill="#fff" stroke="#707070" stroke-width="1"/>
    </clipPath>
  </defs>
  <g id="Grupo_71889" data-name="Grupo 71889" transform="translate(-982 -499)">
    <g id="Enmascarar_grupo_91" data-name="Enmascarar grupo 91" transform="translate(756)" clip-path="url(#clip-path)">
      <g id="Grupo_71888" data-name="Grupo 71888" transform="translate(-571.788 445.85)">
        <g id="Grupo_71886" data-name="Grupo 71886">
          <path id="Trazado_110942" data-name="Trazado 110942" d="M1092.595,48.5V44.489a15.456,15.456,0,0,1-2.454,3.965Z" fill="#ffe3ec"/>
          <path id="Trazado_110943" data-name="Trazado 110943" d="M984.659,35.859l-10.567-.2V45.984l10.543.1Z" fill="#efb6c8"/>
          <path id="Trazado_110944" data-name="Trazado 110944" d="M828.554,35.736l-4.039-.077V45.984l2.026.018q-.024-.509-.024-1.023A21.865,21.865,0,0,1,828.554,35.736Z" fill="#efb6c8"/>
          <path id="Trazado_110945" data-name="Trazado 110945" d="M971.07,36.163,951.2,35.788l-.178,10.257,20.8.191Z" fill="#efb6c8"/>
          <path id="Trazado_110946" data-name="Trazado 110946" d="M822.249,46.236l-.755-10.072-5.21-.1-.157,10.115Z" fill="#efb6c8"/>
          <path id="Trazado_110947" data-name="Trazado 110947" d="M959.487,48.25V58.575l25.118.23.024-10.08Z" fill="#e8e8e8"/>
          <path id="Trazado_110948" data-name="Trazado 110948" d="M1085.375,52.222l-.112,6.407,7.332.067V48.5l-2.454-.046A15.524,15.524,0,0,1,1085.375,52.222Z" fill="#efb6c8"/>
          <path id="Trazado_110949" data-name="Trazado 110949" d="M816.092,48.367l-.159,10.263,15.462.142a21.843,21.843,0,0,1-4.584-10.2Z" fill="#e8e8e8"/>
          <path id="Trazado_110950" data-name="Trazado 110950" d="M956.465,48.754l-5.487-.1L950.8,58.767l6.419.059Z" fill="#e8e8e8"/>
          <path id="Trazado_110951" data-name="Trazado 110951" d="M984.6,61.353v-.3l-11.515-.217v7.786A21.956,21.956,0,0,1,984.6,61.353Z" fill="#e8e8e8"/>
          <path id="Trazado_110952" data-name="Trazado 110952" d="M1089.674,61.345l-4.456-.085-.133,7.651a15.505,15.505,0,0,1,2.718,2.482l2.626.024Z" fill="#e8e8e8"/>
          <path id="Trazado_110953" data-name="Trazado 110953" d="M841.2,65.687a21.917,21.917,0,0,1-7.7-4.658l-9.993-.188V71.165l12.527.115A22.049,22.049,0,0,1,841.2,65.687Z" fill="#e8e8e8"/>
          <path id="Trazado_110954" data-name="Trazado 110954" d="M970.063,61.345l-19.3-.364-.178,10.251,20.233.186Z" fill="#e8e8e8"/>
          <path id="Trazado_110955" data-name="Trazado 110955" d="M821.241,71.417l-.755-10.072-4.593-.087-.157,10.109Z" fill="#e8e8e8"/>
          <path id="Trazado_110956" data-name="Trazado 110956" d="M969.548,74.61l-9.054-.171V84.763l7.652.07a22.046,22.046,0,0,1,1.4-10.223Z" fill="#e8e8e8"/>
          <path id="Trazado_110957" data-name="Trazado 110957" d="M1091.559,81.5a15.49,15.49,0,0,1-.369,3.367l1.405.013V74.67l-2.646-.05A15.394,15.394,0,0,1,1091.559,81.5Z" fill="#efb6c8"/>
          <path id="Trazado_110958" data-name="Trazado 110958" d="M834.168,74.877l-18.481-.348-.159,10.276,17.109.157q-.075-.9-.076-1.83A21.872,21.872,0,0,1,834.168,74.877Z" fill="#e8e8e8"/>
          <path id="Trazado_110959" data-name="Trazado 110959" d="M957.472,74.942l-6.949-.131-.176,10.131,7.88.072Z" fill="#e8e8e8"/>
          <path id="Trazado_110960" data-name="Trazado 110960" d="M1084.642,94.385l-.055,3.158,6.849.062-.755-10.072-.342-.007A15.522,15.522,0,0,1,1084.642,94.385Z" fill="#e8e8e8"/>
          <path id="Trazado_110961" data-name="Trazado 110961" d="M824.515,87.029V97.354l13.384.122a21.857,21.857,0,0,1-4.963-10.288Z" fill="#e8e8e8"/>
          <path id="Trazado_110962" data-name="Trazado 110962" d="M950.309,87.141l-.178,10.266,21.694.2L971.6,94.62a21.811,21.811,0,0,1-3.025-7.134Z" fill="#e8e8e8"/>
          <path id="Trazado_110963" data-name="Trazado 110963" d="M822.249,97.605l-.755-10.073-6.006-.113-.157,10.122Z" fill="#e8e8e8"/>
          <path id="Trazado_110964" data-name="Trazado 110964" d="M961.5,100.627v10.325l22.98.21.017-7.283a21.8,21.8,0,0,1-6.615-2.943Z" fill="#e8e8e8"/>
          <path id="Trazado_110965" data-name="Trazado 110965" d="M1084.354,110.979l8.241.076V100.839l-8.062-.152Z" fill="#e8e8e8"/>
          <path id="Trazado_110966" data-name="Trazado 110966" d="M815.122,110.981l24.25.222-.755-10.073-23.335-.44Z" fill="#e8e8e8"/>
          <path id="Trazado_110967" data-name="Trazado 110967" d="M841.89,110.952l8.124.074.015-6.41a21.825,21.825,0,0,1-8.139-3.529Z" fill="#e8e8e8"/>
          <path id="Trazado_110968" data-name="Trazado 110968" d="M959.235,111.2l-.756-10.072-8.41-.159-.146,8.374q.276.873.566,1.777Z" fill="#e8e8e8"/>
          <path id="Trazado_110969" data-name="Trazado 110969" d="M984.475,113.395l-9.376-.177v10.324l9.352.086Z" fill="#e8e8e8"/>
          <path id="Trazado_110970" data-name="Trazado 110970" d="M1091.688,113.721l-7.38-.139-.176,10.135,8.311.076Z" fill="#e8e8e8"/>
          <path id="Trazado_110971" data-name="Trazado 110971" d="M825.522,123.542l24.462.224.024-10.087-24.485-.462Z" fill="#e8e8e8"/>
          <path id="Trazado_110972" data-name="Trazado 110972" d="M949.684,123.1l-.008.48,23.157.212-.756-10.073-20.968-.4A16.736,16.736,0,0,1,949.684,123.1Z" fill="#e8e8e8"/>
          <path id="Trazado_110973" data-name="Trazado 110973" d="M822.5,113.721l-7.419-.14-.157,10.136,8.331.076Z" fill="#e8e8e8"/>
          <path id="Trazado_110974" data-name="Trazado 110974" d="M984.443,127.23l-21.934-.414V137.14l21.91.2Z" fill="#e8e8e8"/>
          <path id="Trazado_110975" data-name="Trazado 110975" d="M1083.9,137.154l8.7.08V127.009l-8.517-.161Z" fill="#e8e8e8"/>
          <path id="Trazado_110976" data-name="Trazado 110976" d="M814.876,126.852l-.16,10.3,25.663.235-.755-10.073Z" fill="#e8e8e8"/>
          <path id="Trazado_110977" data-name="Trazado 110977" d="M842.9,137.14l7.055.065.024-10.256-7.079-.133Z" fill="#e8e8e8"/>
          <path id="Trazado_110978" data-name="Trazado 110978" d="M960.242,137.392l-.755-10.073-9.872-.186-.177,10.16Z" fill="#e8e8e8"/>
          <path id="Trazado_110979" data-name="Trazado 110979" d="M976.106,149.731l27.448.252-.755-10.073-26.692-.5Z" fill="#e8e8e8"/>
          <path id="Trazado_110980" data-name="Trazado 110980" d="M1032.764,139.91l-26.692-.5v10.324l27.448.252Z" fill="#e8e8e8"/>
          <path id="Trazado_110981" data-name="Trazado 110981" d="M1062.73,139.91l-26.692-.5v10.324l27.448.252Z" fill="#e8e8e8"/>
          <path id="Trazado_110982" data-name="Trazado 110982" d="M1066,149.731l26.592.244V139.908l-26.592-.5Z" fill="#e8e8e8"/>
          <path id="Trazado_110983" data-name="Trazado 110983" d="M826.529,149.731l27.448.252-.755-10.073-26.692-.5Z" fill="#e8e8e8"/>
          <path id="Trazado_110984" data-name="Trazado 110984" d="M883.187,139.91l-26.692-.5v10.324l27.448.252Z" fill="#e8e8e8"/>
          <path id="Trazado_110985" data-name="Trazado 110985" d="M913.153,139.91l-26.692-.5v10.324l27.448.252Z" fill="#e8e8e8"/>
          <path id="Trazado_110986" data-name="Trazado 110986" d="M943.119,139.91l-26.692-.5v10.324l27.448.252Z" fill="#e8e8e8"/>
          <path id="Trazado_110987" data-name="Trazado 110987" d="M946.392,139.406v10.324l27.448.252-.755-10.073Z" fill="#e8e8e8"/>
          <path id="Trazado_110988" data-name="Trazado 110988" d="M823.508,139.91l-8.831-.167-.157,10.15,9.744.09Z" fill="#e8e8e8"/>
          <path id="Trazado_110989" data-name="Trazado 110989" d="M963.516,163.329l27.448.252-.755-10.073-26.692-.5Z" fill="#e8e8e8"/>
          <path id="Trazado_110990" data-name="Trazado 110990" d="M1020.174,153.508l-26.692-.5v10.324l27.448.252Z" fill="#e8e8e8"/>
          <path id="Trazado_110991" data-name="Trazado 110991" d="M1023.447,153v10.324l27.448.252-.755-10.073Z" fill="#e8e8e8"/>
          <path id="Trazado_110992" data-name="Trazado 110992" d="M1053.413,163.329l27.448.252-.755-10.073-26.692-.5Z" fill="#e8e8e8"/>
          <path id="Trazado_110993" data-name="Trazado 110993" d="M1083.379,163.329l9.217.085V153.178l-9.217-.174Z" fill="#e8e8e8"/>
          <path id="Trazado_110994" data-name="Trazado 110994" d="M840.631,153.508l-26.16-.494-.16,10.318,27.075.249Z" fill="#e8e8e8"/>
          <path id="Trazado_110995" data-name="Trazado 110995" d="M870.6,153.508,843.9,153v10.324l27.448.252Z" fill="#e8e8e8"/>
          <path id="Trazado_110996" data-name="Trazado 110996" d="M900.563,153.508,873.87,153v10.324l27.448.252Z" fill="#e8e8e8"/>
          <path id="Trazado_110997" data-name="Trazado 110997" d="M930.528,153.508l-26.692-.5v10.324l27.448.252Z" fill="#efb6c8"/>
          <path id="Trazado_110998" data-name="Trazado 110998" d="M960.494,153.508,933.8,153v10.324l27.448.252Z" fill="#e8e8e8"/>
          <path id="Trazado_110999" data-name="Trazado 110999" d="M977.114,175.919l27.448.252-.755-10.072-26.692-.5Z" fill="#e8e8e8"/>
          <path id="Trazado_111000" data-name="Trazado 111000" d="M1033.771,166.1l-26.692-.5v10.324l27.448.252Z" fill="#efb6c8"/>
          <path id="Trazado_111001" data-name="Trazado 111001" d="M1064.493,176.171l-.755-10.072-26.692-.5v10.324Z" fill="#e8e8e8"/>
          <path id="Trazado_111002" data-name="Trazado 111002" d="M1067.011,175.919l25.584.235V166.078l-25.584-.483Z" fill="#e8e8e8"/>
          <path id="Trazado_111003" data-name="Trazado 111003" d="M854.229,166.1l-26.692-.5v10.324l27.448.252Z" fill="#e8e8e8"/>
          <path id="Trazado_111004" data-name="Trazado 111004" d="M884.195,166.1l-26.692-.5v10.324l27.448.252Z" fill="#e8e8e8"/>
          <path id="Trazado_111005" data-name="Trazado 111005" d="M914.16,166.1l-26.692-.5v10.324l27.448.252Z" fill="#efb6c8"/>
          <path id="Trazado_111006" data-name="Trazado 111006" d="M944.126,166.1l-26.692-.5v10.324l27.448.252Z" fill="#e8e8e8"/>
          <path id="Trazado_111007" data-name="Trazado 111007" d="M974.092,166.1l-26.692-.5v10.324l27.448.252Z" fill="#e8e8e8"/>
          <path id="Trazado_111008" data-name="Trazado 111008" d="M824.515,166.1l-10.244-.193-.157,10.163,11.157.1Z" fill="#e8e8e8"/>
          <path id="Trazado_111009" data-name="Trazado 111009" d="M1085.375,52.222a15.362,15.362,0,0,1-4.487,1.473l-.338,12.987a15.409,15.409,0,0,1,4.535,2.229l.133-7.651,4.456.085.755,10.072-2.626-.024a15.474,15.474,0,0,1,2.146,3.227l2.646.05V58.7l-7.332-.067Z" fill="#afafaf"/>
          <path id="Trazado_111010" data-name="Trazado 111010" d="M809.843,201.387h282.752V176.154l-25.584-.235V165.6l25.584.483v-2.665l-9.216-.084V153l9.216.174v-3.2L1066,149.731V139.406l26.592.5v-2.674l-8.7-.08.179-10.306,8.517.161V111.055l-8.241-.076.179-10.292,8.062.152V84.875l-1.405-.013a15.432,15.432,0,0,1-.851,2.664l.342.007.755,10.072-6.849-.062.055-3.158a15.38,15.38,0,0,1-4.869,2.135l-.927,35.584h-4.461c-.046.082-.072.126-.072.126s-16.88-.042-36.779-.053l-.048-3.79-.009-.73-.076-6.041-.465-37.156a30.111,30.111,0,0,1-4.977-1.427l.329,34.388.14,14.754c-13.273,0-27.334.007-38.317.055.018-.043.034-.084.051-.126h-3.954l-.072-13.646a13.906,13.906,0,0,1-2.7-4.862,6.936,6.936,0,0,1,1.477-6.746,21.768,21.768,0,0,1-.365-2.329,21.882,21.882,0,0,1-4.052-.642l-.017,7.283-22.98-.21V100.627l16.382.309A22.037,22.037,0,0,1,971.6,94.62l.223,2.985-21.694-.2.178-10.266,18.268.345a21.828,21.828,0,0,1-.431-2.653l-7.652-.07V74.439l9.054.171a21.916,21.916,0,0,1,3.536-5.983V60.841l11.515.217v.3a21.9,21.9,0,0,1,4.077-.625,21.829,21.829,0,0,1,1.136-4.4L989.7,35.911l29.367-.161q.162-.2.328-.407H950.467a22.071,22.071,0,0,1-4.709,5.588l-1.295,49.717a10.234,10.234,0,0,1,3.119-1.451c-1.832,5.236-.329,11.664,2.341,20.149l.146-8.374,8.41.159.756,10.072-8.746-.08c.085.265.171.53.257.8a12.12,12.12,0,0,1,.363,1.4l20.968.4.756,10.073-23.157-.212.008-.48a34.555,34.555,0,0,1-6.129,9.243.79.79,0,0,1-.178.033l-.006.229H938.3c-4.622.1-13.295.165-29.556.026l.042-.026h-6.232l-.187-16.823-.7-62.791a22.04,22.04,0,0,1-5.057,4.014l.748,67.538.089,8.062H854.733l-.145-27.535H854.5a22.04,22.04,0,0,1-4.472-.457l-.015,6.41-8.124-.074v-9.865a22.019,22.019,0,0,1-3.991-3.611l-13.384-.122V87.029l8.421.159a21.974,21.974,0,0,1-.3-2.226l-17.109-.157.159-10.276,18.481.348a21.85,21.85,0,0,1,1.867-3.6l-12.527-.115V60.841l9.993.188a22.04,22.04,0,0,1-2.106-2.257l-15.462-.142.159-10.263,10.719.2a21.878,21.878,0,0,1-.27-2.567l-2.026-.018V35.659l4.039.077c.062-.132.124-.263.187-.393H807.912ZM959.487,58.574V48.25l25.141.475-.024,10.08Zm14.6-22.915,10.567.2-.025,10.222-10.542-.1Zm-22.891.129,19.869.375.755,10.073-20.8-.191Zm-.224,12.862,5.488.1.755,10.072-6.418-.059Zm-.214,12.33,19.3.365.755,10.072-20.233-.186Zm-.24,13.831,6.949.131.756,10.073-7.881-.072ZM815.082,113.582l7.418.139.756,10.073-8.331-.076Zm208.365,49.747V153l26.692.5.756,10.073Zm40.29,2.77.756,10.072-27.448-.252V165.6Zm-70.256-2.77V153l26.692.5.756,10.073Zm11.08,12.842-27.448-.252V165.6l26.693.5Zm1.511-26.44V139.406l26.692.5.756,10.073Zm1.007,15.864,26.692.5.756,10.072-27.448-.252Zm28.959-15.864V139.406l26.692.5.755,10.073Zm-33.24-9.821.756,10.073-27.448-.252V139.406Zm-12.59,13.6.755,10.073-27.447-.252V153Zm-175.737-.494,26.16.494.755,10.073-27.075-.249ZM827.537,165.6l26.692.5.755,10.072-27.447-.252Zm16.367-2.266V153l26.693.5.755,10.073Zm12.591-13.6V139.406l26.692.5.756,10.073ZM857.5,165.6l26.693.5.755,10.072-27.448-.252Zm16.368-2.266V153l26.692.5.756,10.073Zm12.591-13.6V139.406l26.692.5.756,10.073Zm1.007,15.864,26.692.5.756,10.072-27.448-.252Zm16.368-2.266V153l26.692.5.756,10.073Zm12.591-13.6V139.406l26.692.5.755,10.073Zm1.007,15.864,26.692.5.755,10.072-27.447-.252Zm16.368-2.266V153l26.692.5.755,10.073Zm13.6,2.266,26.692.5.755,10.072-27.447-.252Zm-1.008-15.864V139.406l26.692.5.756,10.073Zm-93.17-9.821.755,10.073-27.448-.252V139.406Zm-38.505-2.753.159-10.305,24.748.467.755,10.073Zm-.04,2.586,8.831.167.755,10.073-9.744-.09Zm-.406,26.162,10.244.194.755,10.072-11.156-.1Zm265.834-12.4.755,10.073-27.447-.252V153Zm4.2-39.926,7.379.139.756,10.073-8.311-.076Zm-109.21-.364,9.376.177-.024,10.233-9.352-.086Zm-12.591,13.6,21.935.414-.024,10.111-21.911-.2Zm-3.021.5.755,10.073-10.8-.1.176-10.16Zm-109.535,9.886-7.055-.065V126.816l7.079.133Zm.056-23.525-.024,10.087-24.462-.225V113.218Zm-11.392-12.549.756,10.072-24.25-.222.16-10.29Zm-17.123-13.6.756,10.072-6.919-.063.157-10.122Zm-1.007-26.188.755,10.072-5.505-.051.157-10.108Zm1.007-25.182.756,10.073-6.123-.056.157-10.115Z" fill="#afafaf"/>
          <path id="Trazado_111011" data-name="Trazado 111011" d="M809.843,201.387,807.912,35.343H793.981V201.387Z" fill="#e8e8e8"/>
          <path id="Trazado_111012" data-name="Trazado 111012" d="M793.981,304.038v29.92H1092.6V304.1Z" fill="#cecece"/>
          <path id="Trazado_111013" data-name="Trazado 111013" d="M1092.595,201.387H793.981v20.991a19.127,19.127,0,0,0,2.421-1.707c3.357-2.767,6.434-6.261,10.836-7.31,7.749-1.848,16.329-.167,23.631,2.709,6.128,2.413,11.119,6.762,17.1,9.447a77,77,0,0,0,18.526,5.352c8.537,1.488,17.188,1.937,25.74,3.219,4.214.632,9.729,1.389,12.742,4.757a8.1,8.1,0,0,1-2.6,12.655c-5.939,3.034-15.14,2.214-21.638,2.049-14.22-.36-28.377-1.169-42.565.326-8.629.909-17.069,3.027-25.776,3.108a115.812,115.812,0,0,1-18.411-1.481v32.374l298.614.064Z" fill="#cecece"/>
          <rect id="Rectángulo_32669" data-name="Rectángulo 32669" width="298.614" height="16.161" transform="translate(793.981 287.908)" fill="#afafaf"/>
          <path id="Trazado_111014" data-name="Trazado 111014" d="M881.322,131.516A21.951,21.951,0,0,1,860,104.377a22.02,22.02,0,0,1-5.415.695l.145,27.535h42.716l-.089-8.062A21.882,21.882,0,0,1,881.322,131.516Z" fill="#eaefef"/>
          <path id="Trazado_111015" data-name="Trazado 111015" d="M931.563,46.142H931.5a17.646,17.646,0,0,1-9.423,26.636,30.5,30.5,0,0,1,1.3,14.756,104.178,104.178,0,0,0,8.664,6.841,13.119,13.119,0,0,1,5.242,11.366c.272-2.549,1.595-11.258,7.172-15.093l1.295-49.717A21.85,21.85,0,0,1,931.563,46.142Z" fill="#eaefef"/>
          <path id="Trazado_111016" data-name="Trazado 111016" d="M919.68,103a14.613,14.613,0,0,1-1.918-2.132A30.421,30.421,0,0,1,903.177,111.5a21.867,21.867,0,0,1-.807,4.284l.187,16.823h6.232C912.583,130.457,925.7,108.45,919.68,103Z" fill="#eaefef"/>
          <path id="Trazado_111017" data-name="Trazado 111017" d="M943.371,132.607l.006-.229c-.381.052-1.549.152-5.074.229Z" fill="#b28797"/>
          <path id="Trazado_111018" data-name="Trazado 111018" d="M826.517,44.979q0,.514.024,1.023A21.966,21.966,0,0,0,841.2,65.687a21.9,21.9,0,0,0-8.635,17.445q0,.925.076,1.83A21.919,21.919,0,0,0,854.5,105.073h.087a22.02,22.02,0,0,0,5.415-.695,21.941,21.941,0,0,0,37.357,20.168l-.748-67.538a22.04,22.04,0,0,0,5.057-4.014l.7,62.791a21.867,21.867,0,0,0,.807-4.284,30.421,30.421,0,0,0,14.585-10.627c-4.438-5.984-5.349-16.038-1.534-25.195-.34,3.908,3.034,8.117,7.157,11.856a30.5,30.5,0,0,0-1.3-14.756A17.646,17.646,0,0,0,931.5,46.142h.059a21.85,21.85,0,0,0,14.2-5.211,22.071,22.071,0,0,0,4.709-5.588H828.741c-.063.13-.125.261-.187.393A21.865,21.865,0,0,0,826.517,44.979Z" fill="#fff"/>
          <path id="Trazado_111019" data-name="Trazado 111019" d="M937.291,105.741a13.119,13.119,0,0,0-5.242-11.366,104.178,104.178,0,0,1-8.664-6.841c-4.123-3.739-7.5-7.948-7.157-11.856-3.815,9.157-2.9,19.211,1.534,25.195A14.613,14.613,0,0,0,919.68,103c6.019,5.445-7.1,27.452-10.891,29.6l-.042.026c16.261.139,24.934.076,29.556-.026,3.525-.077,4.693-.177,5.074-.229a.79.79,0,0,0,.178-.033,34.555,34.555,0,0,0,6.129-9.243,16.736,16.736,0,0,0,1.425-9.776,12.12,12.12,0,0,0-.363-1.4c-.086-.269-.172-.534-.257-.8q-.291-.9-.566-1.777c-2.67-8.485-4.173-14.913-2.341-20.149a10.234,10.234,0,0,0-3.119,1.451C938.886,94.483,937.563,103.192,937.291,105.741Z" fill="#ff9d00"/>
          <path id="Trazado_111020" data-name="Trazado 111020" d="M1080.888,53.695a15.539,15.539,0,0,1-7.787-.71c.031.56.048,1.124.048,1.691a30.245,30.245,0,0,1-2.638,12.391,15.532,15.532,0,0,1,10.039-.385Z" fill="#eaefef"/>
          <path id="Trazado_111021" data-name="Trazado 111021" d="M1010.373,42.054a22.063,22.063,0,0,1,4.6.484,30.327,30.327,0,0,1,4.1-6.788l-29.367.161.107,20.416A21.948,21.948,0,0,1,1010.373,42.054Z" fill="#eaefef"/>
          <path id="Trazado_111022" data-name="Trazado 111022" d="M1073.9,96.807a30.661,30.661,0,0,1,.256,3.951,30.25,30.25,0,0,1-2.55,12.191,13.177,13.177,0,0,0,3.337,3.416c5.672,4.137.142,14.483-.558,15.739h4.461l.927-35.584a15.509,15.509,0,0,1-3.681.442A15.688,15.688,0,0,1,1073.9,96.807Z" fill="#eaefef"/>
          <path id="Trazado_111023" data-name="Trazado 111023" d="M990.136,118.458l.072,13.646h3.954C997.379,124.351,993.387,122.4,990.136,118.458Z" fill="#eaefef"/>
          <path id="Trazado_111024" data-name="Trazado 111024" d="M1074.943,116.365a13.177,13.177,0,0,1-3.337-3.416,8.419,8.419,0,0,1-1.448-6.152s-9.317,2.77-7.68,9.568-2.9,10.325-2.9,10.325a5.573,5.573,0,0,0-2.266-6.925c-4.155-2.77-8.436-4.029-8.562-8.436-6.169.882-5.791,6.673-5.414,11.332.328,4.04-4.552,5.428-5.854,5.726l.048,3.79c19.9.011,36.779.053,36.779.053s.026-.044.072-.126C1075.085,130.848,1080.615,120.5,1074.943,116.365Z" fill="#ff9d00"/>
          <path id="Trazado_111025" data-name="Trazado 111025" d="M997.61,101.391l.026-.008Z" fill="#ffb600"/>
          <path id="Trazado_111026" data-name="Trazado 111026" d="M1037.4,121.616l.076,6.041A8.492,8.492,0,0,0,1037.4,121.616Z" fill="#ffb600"/>
          <path id="Trazado_111027" data-name="Trazado 111027" d="M1025.713,104.53c-9.443,3.022-13.472,11.206-12.338,16.746-6.422-9.317-18.528-5.271-18.518-12.2.009-6.538,2.471-7.583,2.753-7.681-.408.133-5.8,1.941-8.7,5.459a6.936,6.936,0,0,0-1.477,6.746,13.906,13.906,0,0,0,2.7,4.862c3.251,3.942,7.243,5.893,4.026,13.646-.017.042-.033.083-.051.126,10.983-.048,25.044-.059,38.317-.055l-.14-14.754C1026.46,113.994,1024.775,107.461,1025.713,104.53Z" fill="#ff9d00"/>
          <path id="Trazado_111028" data-name="Trazado 111028" d="M1014.973,42.538a21.968,21.968,0,0,0-25.162,13.789,21.829,21.829,0,0,0-1.136,4.4,21.937,21.937,0,0,0-.125,43.793,21.768,21.768,0,0,0,.365,2.329c2.9-3.518,8.287-5.326,8.7-5.459l.026-.008-.026.008c-.282.1-2.744,1.143-2.753,7.681-.01,6.933,12.1,2.887,18.518,12.2-1.134-5.54,2.9-13.724,12.338-16.746-.938,2.931.747,9.464,6.575,12.891l-.329-34.388a30.111,30.111,0,0,0,4.977,1.427l.465,37.156a8.492,8.492,0,0,1,.076,6.041l.009.73c1.3-.3,6.182-1.686,5.854-5.726-.377-4.659-.755-10.45,5.414-11.332.126,4.407,4.407,5.666,8.562,8.436a5.573,5.573,0,0,1,2.266,6.925s4.533-3.526,2.9-10.325,7.68-9.568,7.68-9.568a8.419,8.419,0,0,0,1.448,6.152,30.25,30.25,0,0,0,2.55-12.191,30.661,30.661,0,0,0-.256-3.951,15.688,15.688,0,0,0,2.192.155,15.467,15.467,0,1,0-5.581-29.895,30.245,30.245,0,0,0,2.638-12.391c0-.567-.017-1.131-.048-1.691a15.487,15.487,0,0,0,19.494-8.5V35.343h-73.2q-.166.2-.328.407A30.327,30.327,0,0,0,1014.973,42.538Z" fill="#fff"/>
          <path id="Trazado_111029" data-name="Trazado 111029" d="M838.168,253.875c14.188-1.495,28.345-.686,42.565-.326,6.5.165,15.7.985,21.638-2.049a8.1,8.1,0,0,0,2.6-12.655c-3.013-3.368-8.528-4.125-12.742-4.757-8.552-1.282-17.2-1.731-25.74-3.219a77,77,0,0,1-18.526-5.352c-5.979-2.685-10.97-7.034-17.1-9.447-7.3-2.876-15.882-4.557-23.631-2.709-4.4,1.049-7.479,4.543-10.836,7.31a19.127,19.127,0,0,1-2.421,1.707V255.5a115.812,115.812,0,0,0,18.411,1.481C821.1,256.9,829.539,254.784,838.168,253.875Z" fill="#cdedfc"/>
        </g>
        <g id="Grupo_71887" data-name="Grupo 71887">
          <path id="Trazado_111030" data-name="Trazado 111030" d="M842.346,263.427c3.179-9.383,5.243-10.415,5.243-10.415s.272.043.731.146l.245-.764-3.44-1.249s-4,7.039-4.375,9.571l1.163.338s-5.05,10.974-5.05,22.49l1.753.468.253-.9c-.144-.012-.291-.028-.441-.055C838.953,279.044,839.167,272.81,842.346,263.427Z" fill="#12263f"/>
          <path id="Trazado_111031" data-name="Trazado 111031" d="M857.16,260.194l-2.1-.463A9.072,9.072,0,0,0,854,262.4a4.525,4.525,0,0,1,1.974.52,3.851,3.851,0,0,1,.411,4.019l3.945,1.227a29.868,29.868,0,0,1,1.349-6.971Z" fill="#ffd6ca"/>
          <path id="Trazado_111032" data-name="Trazado 111032" d="M855.974,262.916A4.525,4.525,0,0,0,854,262.4a9.072,9.072,0,0,1,1.059-2.665l2.1.463a8.1,8.1,0,0,0,.162-2.106c-2.509-3.2-7.2-4.525-9-4.93-.459-.1-.731-.146-.731-.146s-2.064,1.032-5.243,10.415-3.393,15.617-3.918,19.634c.15.027.3.043.441.055,3.5.267,5.273-4.077,7.306-9.246l.021-.038c2.517-4.625,6.911-5.773,8.451-5.433.669.147,1.339-.515,1.738-1.464A3.851,3.851,0,0,0,855.974,262.916Z" fill="#12263f"/>
          <path id="Trazado_111033" data-name="Trazado 111033" d="M945.107,273.144a58.434,58.434,0,0,0,8.348-.409l3.053-2.843a6.788,6.788,0,0,1,3.629-1.66l1.4-.313c-1.842-1.328-4.976-1.592-8.49-1.855l-.039-.009a9.763,9.763,0,0,1-5.926-3.919c-1.149-.275-2.228-.535-3.213-.773-2.768,2.567-6.03,5.3-9.432,7.969.019.451.046.84.073,1.147.042.486.082.768.082.768S936.078,272.961,945.107,273.144Z" fill="#12263f"/>
          <path id="Trazado_111034" data-name="Trazado 111034" d="M955.664,219.077a15.567,15.567,0,0,1-3.7,1.247l-.025-.01c-2.685,1.4-5.488,2.739-8.334,3.975-1.775.771-3.567,1.5-5.357,2.176.008.081.015.162.02.245l.212-.1c-1.111,7.054-2.021,14.331-2.649,19.8l1.745-1.392A8.038,8.038,0,0,1,944,243.385l.2.038,7.167.81a156.227,156.227,0,0,0,4.915-24.342A8.377,8.377,0,0,1,955.664,219.077Z" fill="#028d9e"/>
          <path id="Trazado_111035" data-name="Trazado 111035" d="M889.514,276.863c.009.04.016.081.024.122,3.293.523,6.62.944,9.838,1.194.009.032.02.066.029.1.18-.013.361-.032.543-.054.181.013.36.022.54.034l.281-.218a4.705,4.705,0,0,1,.111-3.744l15.17-12.1c-.387-6.17-1.225-15.98-1.861-23.148a28.306,28.306,0,0,0,6.428-3.473c2.214-1.087,4.483-2.239,6.785-3.413l3.013-7.458s1.307-3.385,4.092-3.828c.173-.133.364-.272.578-.419,1.879-1.29,4.087-2.868,6.42-4.566l-.129-.055a30.981,30.981,0,0,1,5.663-4.665q-.505-.224-1.01-.45l-.709,1.121s-3.921-2.032-9.525-5.277c-2.817.692-6.308,1.667-11.169,3.17-.033-2.831.049-6.2.253-9.816-4.062-2.609-8.265-5.482-12.135-8.446-14.078-10.784-21.293-33.2-21.892-35.9a10.467,10.467,0,0,1-.1-4.007c-11.271,24.047-7.734,74.651-7.734,74.651l.061-.007a66.349,66.349,0,0,0,.825,9.044c.085.508.177,1,.274,1.486,1.671,8.371,5.577,17.674,9.112,25.936a300.765,300.765,0,0,0-31.143-2.852s-.2.518-.464,1.368a29.868,29.868,0,0,0-1.349,6.971,15.858,15.858,0,0,0,.005,1.864c.641.272,6.889,2.225,15.226,4.18l.579-.495S880.945,269.286,889.514,276.863Z" fill="#028d9e"/>
          <path id="Trazado_111036" data-name="Trazado 111036" d="M931.24,167.024c-.188.31-.371.646-.551,1,5.539,9.626,14.512,19.7,16.317,20.494l.042-.014a41.965,41.965,0,0,0,15.026,8.147c1.184.324,2.368.654,3.552.982a21.869,21.869,0,0,1,6.354-2.972l.052.072a66.709,66.709,0,0,1,7.529-2.7,132.656,132.656,0,0,0-24.031-11.593c-1.308-2.495-12.513-23.889-13.971-27.113l-.058-.133c-.81-2.729-4.5-7.453-7.722-8.823C934.043,145.659,936.486,158.375,931.24,167.024Z" fill="#00bcd4"/>
          <path id="Trazado_111037" data-name="Trazado 111037" d="M922.16,305.763l-3.345,2.989a27.334,27.334,0,0,1-7.793-1.94c-.147,3.728-4.33,8-4.1,8.249s7.739,6.531,9.292,7.831c1.32-1.156,4.258-5.832,5.86-8.461,1.14-.725,2.828-1.964,4.807-3.549A12.651,12.651,0,0,1,922.16,305.763Z" fill="#f8d0c4"/>
          <path id="Trazado_111038" data-name="Trazado 111038" d="M990.493,248.654l-39.122-4.421-7.167-.81-.2-.038a8.038,8.038,0,0,0-6.431,1.635l-1.745,1.392L916.05,262.191l-15.17,12.1a4.705,4.705,0,0,0-.111,3.744,12.641,12.641,0,0,0,4.358,5.435c.219.165.44.322.66.47.081.052,3,2.012,3.082,2.061,1.167.63,14.155-7.7,25.571-16.672,3.4-2.673,6.664-5.4,9.432-7.969.985.238,2.064.5,3.213.773,5.955,1.425,13.776,3.257,19.934,4.561l-5.479,1.222-1.4.313a6.788,6.788,0,0,0-3.629,1.66l-3.053,2.843a58.434,58.434,0,0,1-8.348.409c-9.029-.183-10.512-1.9-10.512-1.9s-.04-.282-.082-.768l-.731,0-.1,3.8s7.237,1.737,9.534,1.3l-.04-1.256a49.485,49.485,0,0,0,8.3.259L922.011,302.02a4.709,4.709,0,0,0,.149,3.743,12.651,12.651,0,0,0,4.725,5.119c.231.149.462.291.692.423.084.046,3.132,1.8,3.217,1.842,1.73.784,26.378-18.458,36.378-30.6,9.905,2.069,34.1,6.822,46.478,6.644a11.054,11.054,0,0,0,8.82-4.567,34.077,34.077,0,0,0,6.4-19.315C1013.537,267.97,994.873,260.933,990.493,248.654Z" fill="#484444"/>
          <path id="Trazado_111039" data-name="Trazado 111039" d="M911.022,306.812a4.288,4.288,0,0,0-.172-1.439c-9.074-6.963-13.56-2.215-13.56-2.215l-1.49,1.466c4.135,10.118,18.884,20.386,18.884,20.386l1.815-1.882-.281-.236c-1.553-1.3-9.055-7.583-9.292-7.831S910.875,310.54,911.022,306.812Z" fill="#00bcd4"/>
          <path id="Trazado_111040" data-name="Trazado 111040" d="M900.769,278.038l-.281.218-3.263,2.532a27.36,27.36,0,0,1-7.64-2.477c-.406,3.708-4.876,7.684-4.66,7.944s7.267,7.053,8.726,8.458c1.4-1.061,4.653-5.523,6.433-8.034,1.189-.644,2.958-1.762,5.043-3.206A12.641,12.641,0,0,1,900.769,278.038Z" fill="#f8d0c4"/>
          <path id="Trazado_111041" data-name="Trazado 111041" d="M884.925,286.255c-.216-.26,4.254-4.236,4.66-7.944a4.36,4.36,0,0,0-.047-1.326c-.008-.041-.015-.082-.024-.122-8.569-7.577-13.374-3.152-13.374-3.152l-.579.495-1.009.864c3.421,10.381,17.421,21.648,17.421,21.648l1.942-1.751-.264-.254C892.192,293.308,885.145,286.519,884.925,286.255Z" fill="#00bcd4"/>
          <path id="Trazado_111042" data-name="Trazado 111042" d="M990.547,206.134c1.109.014,2.168.04,3.128.013A43.451,43.451,0,0,1,994.9,200.6c1.47-5.071,2.067-11.387,2.3-11.537l.021-.006a14.656,14.656,0,0,0-4.787-.016C992.238,192.959,990.873,203.624,990.547,206.134Z" fill="#ffd6ca"/>
          <path id="Trazado_111043" data-name="Trazado 111043" d="M979.07,207.344a40.9,40.9,0,0,1-7.451,1.244c-1.017,6.654.965,11.812,1.859,15.007,1.048,3.744-2.4,12.655-2.4,12.655l11.682,2.846s3.3-4.643,3.145-12.581-2.845-8.837-3.444-13.48a13.4,13.4,0,0,1,.787-5.8c-1.219.055-2.429.083-3.483.058,0,0,.909-13.181,1.3-15.71l-.275.083c-.393.12-.8.243-1.231.372a66.709,66.709,0,0,0-7.529,2.7A69.8,69.8,0,0,1,979.07,207.344Z" fill="#f5edf9"/>
          <path id="Trazado_111044" data-name="Trazado 111044" d="M954.7,206.088c.329.228.654.45.972.665l.054-.008-.436-1.1Z" fill="#f5edf9"/>
          <path id="Trazado_111045" data-name="Trazado 111045" d="M942.953,216.5c.242,2.6.452,5.193.648,7.789,2.846-1.236,5.649-2.578,8.334-3.975Z" fill="#f5edf9"/>
          <path id="Trazado_111046" data-name="Trazado 111046" d="M964.562,205.7l.78,3.236a7.022,7.022,0,0,1,1.258,1.522,3.389,3.389,0,0,1,.26.612c1.248-.949,2.366-1.873,3.33-2.753Z" fill="#f5edf9"/>
          <path id="Trazado_111047" data-name="Trazado 111047" d="M1022.562,191.09c.124-.515.253-1.03.385-1.541l-.464,1.505Z" fill="#f4c0b5"/>
          <path id="Trazado_111048" data-name="Trazado 111048" d="M1025.586,178.63a9.549,9.549,0,0,1-1.856,2.106,10.264,10.264,0,0,1,1.772.1c.28-.862.538-1.637.763-2.3a3.841,3.841,0,0,1-.587-.048Z" fill="#f4c0b5"/>
          <path id="Trazado_111049" data-name="Trazado 111049" d="M1032.35,197.729a3.7,3.7,0,0,1,3.165-.726,50.455,50.455,0,0,0-7.313-3.317c-.643-.258-1.273-.516-1.878-.775.125.067.249.135.374.2-4.475,5.795-6.882,11.853-15.626,9.885-7.988-1.8-4.419-14.153-4.419-14.153s.163-.021.467-.045c-3.571-.119-8.012-.325-9.9.259l-.021.006c-.238.15-.835,6.466-2.3,11.537a43.6,43.6,0,0,0-1.678,14.081c.12,2.618-.565,11.222-.215,14.843a111.5,111.5,0,0,1-2.75,18.4c.074.242.156.482.24.721,4.38,12.279,23.044,19.316,38.375,16.657l.027,0a56.9,56.9,0,0,0-.054-9.408c-.579-5.3.851-11.6,2.437-21.657.477-3.023,1.7-8.231,2.982-13.71C1026.032,206.846,1027.55,201.6,1032.35,197.729Z" fill="#12263f"/>
          <path id="Trazado_111050" data-name="Trazado 111050" d="M1054.974,230.048l.771,2.022A13.808,13.808,0,0,0,1054.974,230.048Z" fill="#ffd6ca"/>
          <path id="Trazado_111051" data-name="Trazado 111051" d="M1066.887,280.978c-1-.5-7.76-3.394-7.76-3.394l-9.771.293s-.061-.022-.168-.055c.3-1.374.663-3.025.93-4.242,1.407-6.427,2.611-10.411,4.895-21.3.182-.865.456-2.669.723-4.783a23.386,23.386,0,0,0-4.232-2.259c-2.35-.923-3.777-2.769-4.029-6.715s.336-4.868-.252-6.715-2.014-2.182-4.029-4.364-.251-5.624,1.175-6.631.756-3.274.588-4.953c-.154-1.543,2.457-2.235,3.271-2.14q-.4-.784-.834-1.555c-1.367-3.117-6.324-13.6-11.734-15.123-.048-.013-.1-.024-.145-.036a3.7,3.7,0,0,0-3.165.726c-4.8,3.872-6.318,9.117,1.91,22.8a174.627,174.627,0,0,0,10.428,15.072,20.823,20.823,0,0,0,1.277,1.97,71.468,71.468,0,0,0-2.086,15.836c.2-3.362.449-5.7.449-5.7s.818.944,2.958.629,1.952,3.085,1.952,3.085c-.881,4.344-.189,5.1.629,7.806s-1.133,3.462-2.77,3.4-2.014,3.21-3.21,5.854c-.027-.289-.052-.582-.074-.877a110.079,110.079,0,0,0,.851,11.7,9.917,9.917,0,0,0,.935,4.13c.606,1,8.728.158,10.273-.3s8.817.324,10.034.143S1067.887,281.479,1066.887,280.978Z" fill="#ffd6ca"/>
          <path id="Trazado_111052" data-name="Trazado 111052" d="M927.246,242.217c.123,1.112,1.915.961,2.507-.118s2.38-8.17,3.344-9.462a24.494,24.494,0,0,0,1.635-2.942,21.875,21.875,0,0,0-.046,4.808c.35.7,2.147,1.5,1.848-.2s1.2-3.295,1.647-5.891a7.14,7.14,0,0,0,.083-1.7c-.005-.083-.012-.164-.02-.245,1.79-.676,3.582-1.4,5.357-2.176-.2-2.6-.406-5.192-.648-7.789l-1.448-.614c-2.333,1.7-4.541,3.276-6.42,4.566-.214.147-.405.286-.578.419-2.785.443-4.092,3.828-4.092,3.828l-3.013,7.458-.649,1.6S927.123,241.106,927.246,242.217Z" fill="#ffd6ca"/>
          <path id="Trazado_111053" data-name="Trazado 111053" d="M951.935,220.314l.025.01a15.567,15.567,0,0,0,3.7-1.247c-.15-.223-.29-.45-.418-.674-.265-.464-.868-1.229-.617-1.774a1.136,1.136,0,0,1,.665-.58,15.188,15.188,0,0,1-1.769-2.222c-2.238-.848-4.387-1.736-6.486-2.661a30.981,30.981,0,0,0-5.663,4.665l.129.055,1.448.614Z" fill="#e8dcef"/>
          <path id="Trazado_111054" data-name="Trazado 111054" d="M955.156,205.3l.137.347.436,1.1c.3-.044.615-.077.935-.1a.426.426,0,0,1,.4-.5,10.822,10.822,0,0,1,8.128,2.647c.052.048.1.1.155.147l-.78-3.236,5.628,2.617.592.275c.268.008.549.006.837,0a40.9,40.9,0,0,0,7.451-1.244,69.8,69.8,0,0,0-7.038-12.609l-.052-.072a21.869,21.869,0,0,0-6.354,2.972,57.874,57.874,0,0,0-5.92,4.4Z" fill="#e8dcef"/>
          <path id="Trazado_111055" data-name="Trazado 111055" d="M979.769,207.294c1.054.025,2.264,0,3.483-.058,3.575-.164,7.226-.566,7.226-.566s.025-.193.069-.536c.326-2.51,1.691-13.175,1.888-17.089.006-.113.011-.222.015-.323-1.9-.3-10.984,2.246-11.283,2.446a1.216,1.216,0,0,0-.1.416C980.678,194.113,979.769,207.294,979.769,207.294Z" fill="#fff"/>
          <path id="Trazado_111056" data-name="Trazado 111056" d="M915.162,128.5a6.769,6.769,0,0,1,1.213,2.929c.133.9.073,1.812-.7,1.847a3.641,3.641,0,0,1-2.327-.777c-.494,2.762-2.827,10.062,4.011,12.967a18.17,18.17,0,0,0,2.2.771c5.858,1.646,10.57-.349,11.617-2.416.059-.117.118-.247.177-.384,1.114-2.609,2.136-8.861.159-11.372l-.036.024a7.109,7.109,0,0,1-1.8.807c.026.052.051.1.078.157a2.8,2.8,0,0,1,.308.845.7.7,0,0,1-.116.524.738.738,0,0,1-.523.243c-.5.047-1.58.134-1.826-.466a1.334,1.334,0,0,1-.064-.516c0-.09,0-.181,0-.271-2.4.418-5.232.414-7.011-.564-2.914-1.6-4.306-9.516-1.86-17.482a9.642,9.642,0,0,1,9.923,1.069,6.9,6.9,0,0,1,2.5,3.851c4.578,1.277,6.7-3.831,6.7-3.831s-5.636.468-6.306-3.074-6.065-7.319-11.155-6.247a8.578,8.578,0,0,0-2.994,1.311c-1.12-.671-2.94-.472-5.821,2.644-5.229,5.656-1.528,12.982-.287,15.072l0-.006C912.327,124.955,914.144,127.073,915.162,128.5Zm11.1,9.071a3.914,3.914,0,0,1,2.791.025c.37.143.208.745-.166.6a3.388,3.388,0,0,0-2.459-.025C926.053,138.306,925.892,137.7,926.265,137.567Z"/>
          <path id="Trazado_111057" data-name="Trazado 111057" d="M898.84,146.286c8.837.3,17.574,23.914,21.768,31.7,1.92,1.421,3.988,2.966,6.112,4.562.967-5.9,2.281-11.182,3.969-14.524.18-.356.363-.692.551-1,5.246-8.649,2.8-21.365,2.539-22.647-.014-.069-.023-.107-.023-.107s-.877-.348-2.409-.837c-.059.137-.118.267-.177.384-1.047,2.067-5.759,4.062-11.617,2.416a5.466,5.466,0,0,1-2.123,1.153,8.315,8.315,0,0,1-6.063-1.176,4.975,4.975,0,0,1-2.73-4.575,51.444,51.444,0,0,0-14.365,5.359A10.551,10.551,0,0,1,898.84,146.286Z" fill="#028d9e"/>
          <path id="Trazado_111058" data-name="Trazado 111058" d="M911.367,146.21a8.315,8.315,0,0,0,6.063,1.176,5.466,5.466,0,0,0,2.123-1.153,18.17,18.17,0,0,1-2.2-.771c-6.838-2.9-4.505-10.205-4.011-12.967a6.843,6.843,0,0,1-2.209-3.011,79.658,79.658,0,0,0-2.5,12.116c0,.012,0,.023,0,.035A4.975,4.975,0,0,0,911.367,146.21Z" fill="#f4c0b5"/>
          <path id="Trazado_111059" data-name="Trazado 111059" d="M931.351,126.547c.006.021.012.035.016.047C931.362,126.578,931.356,126.564,931.351,126.547Z" fill="#fad2c6"/>
          <path id="Trazado_111060" data-name="Trazado 111060" d="M928.586,116.431a9.642,9.642,0,0,0-9.923-1.069c-2.446,7.966-1.054,15.881,1.86,17.482,1.779.978,4.607.982,7.011.564.019-1.692.055-3.384.084-5.075a1.778,1.778,0,0,1,.04-.32c.062-.3.486-1.032.8-.481a.825.825,0,0,1,.078.369,12.061,12.061,0,0,0,1.135,4.991,7.109,7.109,0,0,0,1.8-.807,7.474,7.474,0,0,0-.563-1.6h0c.247-1.248.44-2.5.556-3.708a.807.807,0,0,1-.088-.165.247.247,0,0,0-.1-.059,1.453,1.453,0,0,0-.459-.061,1.547,1.547,0,0,0-.788.158c-.811.54-1.564-.766-.761-1.3a2.973,2.973,0,0,1,2.309-.283,15.933,15.933,0,0,0-.484-4.786A6.9,6.9,0,0,0,928.586,116.431Zm-6.21,10.6c-.4.883-1.7.116-1.3-.76.862-1.905,3.757-2.249,5.329-1.062.765.578.014,1.886-.76,1.3C924.688,125.79,922.921,125.825,922.376,127.031Zm2.275,3.019a.542.542,0,1,1,.367-.673A.542.542,0,0,1,924.651,130.05Zm5.255-1.081a.542.542,0,1,1-.367.673A.543.543,0,0,1,929.906,128.969Z" fill="#fad2c6"/>
          <path id="Trazado_111061" data-name="Trazado 111061" d="M925.643,126.51c.774.585,1.525-.723.76-1.3-1.572-1.187-4.467-.843-5.329,1.062-.4.876.9,1.643,1.3.76C922.921,125.825,924.688,125.79,925.643,126.51Z" fill="#4b3c4f"/>
          <path id="Trazado_111062" data-name="Trazado 111062" d="M929.265,125.351c-.8.535-.05,1.841.761,1.3a1.547,1.547,0,0,1,.788-.158,1.453,1.453,0,0,1,.459.061.247.247,0,0,1,.1.059.807.807,0,0,0,.088.165c.435.612,1.6.209,1.341-.632a1.679,1.679,0,0,0-1.23-1.079A2.973,2.973,0,0,0,929.265,125.351Zm2.1,1.243c0-.012-.01-.026-.016-.047C931.356,126.564,931.362,126.578,931.367,126.594Z" fill="#4b3c4f"/>
          <path id="Trazado_111063" data-name="Trazado 111063" d="M928.538,127.9a.825.825,0,0,0-.078-.369c-.316-.551-.74.185-.8.481a1.778,1.778,0,0,0-.04.32c-.029,1.691-.065,3.383-.084,5.075,0,.09,0,.181,0,.271a1.334,1.334,0,0,0,.064.516c.246.6,1.322.513,1.826.466a.738.738,0,0,0,.523-.243.7.7,0,0,0,.116-.524,2.8,2.8,0,0,0-.308-.845c-.027-.052-.052-.1-.078-.157A12.061,12.061,0,0,1,928.538,127.9Z" fill="#e2998d"/>
          <path id="Trazado_111064" data-name="Trazado 111064" d="M930.211,130.009a.542.542,0,1,0-.672-.367A.542.542,0,0,0,930.211,130.009Z" fill="#4b3c4f"/>
          <path id="Trazado_111065" data-name="Trazado 111065" d="M924.345,129.01a.542.542,0,1,0,.673.367A.542.542,0,0,0,924.345,129.01Z" fill="#4b3c4f"/>
          <path id="Trazado_111066" data-name="Trazado 111066" d="M913.345,132.495a3.641,3.641,0,0,0,2.327.777c.776-.035.836-.946.7-1.847a6.769,6.769,0,0,0-1.213-2.929c-1.018-1.423-2.835-3.541-3.929-2.345l0,.006c-.633.7-.591,2.015-.092,3.327A6.843,6.843,0,0,0,913.345,132.495Zm-.554-2.719a1.6,1.6,0,0,1,.862-.3c-.35-.486-1.005-1.207-1.633-1.213a.312.312,0,0,1,0-.623,2.9,2.9,0,0,1,1.919,1.2A4.81,4.81,0,0,1,914.974,131c.079.392-.521.558-.6.165a4.609,4.609,0,0,0-.33-1.022,1.019,1.019,0,0,0-.939.167C912.781,130.55,912.471,130.01,912.791,129.776Z" fill="#fad2c6"/>
          <path id="Trazado_111067" data-name="Trazado 111067" d="M913.1,130.314a1.019,1.019,0,0,1,.939-.167,4.609,4.609,0,0,1,.33,1.022c.079.393.679.227.6-.165a4.81,4.81,0,0,0-1.035-2.167,2.9,2.9,0,0,0-1.919-1.2.312.312,0,0,0,0,.623c.628.006,1.283.727,1.633,1.213a1.6,1.6,0,0,0-.862.3C912.471,130.01,912.781,130.55,913.1,130.314Z" fill="#ebb6a5"/>
          <path id="Trazado_111068" data-name="Trazado 111068" d="M953.525,213.827a15.188,15.188,0,0,0,1.769,2.222,1.451,1.451,0,0,1,.626-.085c.529.048.532.878,0,.83a.574.574,0,0,0-.493.151,9.145,9.145,0,0,0,1.794,2.734,3.054,3.054,0,0,0,3.24.725c1.015-.284,2.69-.583,2.786-1.889a1.3,1.3,0,0,0-.073-.528.409.409,0,0,1-.08-.19,8.227,8.227,0,0,0-2.184-2.1c-.407-.348.183-.932.587-.587a11,11,0,0,1,2.213,2.145c.959-.243.2-1.629-.222-2.054-.482-.488-1.047-.879-1.519-1.377-.368-.387.219-.975.587-.587a13.2,13.2,0,0,1,2.128,2.151,1.132,1.132,0,0,0,.346-1.542,4.961,4.961,0,0,0-.631-.753c-.469-.533-.932-1.071-1.4-1.6-.354-.4.231-.987.587-.587.429.483.851.971,1.277,1.457a9.661,9.661,0,0,1,.816.962,1.482,1.482,0,0,0,.574-1.118,3.412,3.412,0,0,0-.161-.731,2.566,2.566,0,0,0-.414-.9,8.686,8.686,0,0,0-1.365-1.463,10.111,10.111,0,0,0-7.25-2.143.359.359,0,0,1-.4-.327c-.32.023-.635.056-.935.1l-.054.008c-.318-.215-.643-.437-.972-.665-1.246-.864-2.567-1.822-3.943-2.853l-4.731,7.481q.5.227,1.01.45C949.138,212.091,951.287,212.979,953.525,213.827Z" fill="#fad2c6"/>
          <path id="Trazado_111069" data-name="Trazado 111069" d="M965.342,208.936c-.052-.05-.1-.1-.155-.147a10.822,10.822,0,0,0-8.128-2.647.426.426,0,0,0-.4.5.359.359,0,0,0,.4.327,10.111,10.111,0,0,1,7.25,2.143,8.686,8.686,0,0,1,1.365,1.463,2.566,2.566,0,0,1,.414.9,3.412,3.412,0,0,1,.161.731,1.482,1.482,0,0,1-.574,1.118,9.661,9.661,0,0,0-.816-.962c-.426-.486-.848-.974-1.277-1.457-.356-.4-.941.189-.587.587.472.531.935,1.069,1.4,1.6a4.961,4.961,0,0,1,.631.753,1.132,1.132,0,0,1-.346,1.542,13.2,13.2,0,0,0-2.128-2.151c-.368-.388-.955.2-.587.587.472.5,1.037.889,1.519,1.377.42.425,1.181,1.811.222,2.054a11,11,0,0,0-2.213-2.145c-.4-.345-.994.239-.587.587a8.227,8.227,0,0,1,2.184,2.1.409.409,0,0,0,.08.19,1.3,1.3,0,0,1,.073.528c-.1,1.306-1.771,1.6-2.786,1.889a3.054,3.054,0,0,1-3.24-.725,9.145,9.145,0,0,1-1.794-2.734.574.574,0,0,1,.493-.151c.532.048.529-.782,0-.83a1.451,1.451,0,0,0-.626.085,1.136,1.136,0,0,0-.665.58c-.251.545.352,1.31.617,1.774.128.224.268.451.418.674a8.377,8.377,0,0,0,.622.814,3.977,3.977,0,0,0,2.989,1.563,9.009,9.009,0,0,0,2.758-.669,3.044,3.044,0,0,0,1.782-1.314,1.976,1.976,0,0,0,.222-1.483,1.636,1.636,0,0,0,.938-1.812,1.968,1.968,0,0,0,1.032-2.037,2.469,2.469,0,0,0,1.065-2.05,5.006,5.006,0,0,0-.212-1.019,3.389,3.389,0,0,0-.26-.612A7.022,7.022,0,0,0,965.342,208.936Z" fill="#ebb6a5"/>
          <path id="Trazado_111070" data-name="Trazado 111070" d="M926.431,138.167a3.388,3.388,0,0,1,2.459.025c.374.145.536-.457.166-.6a3.914,3.914,0,0,0-2.791-.025C925.892,137.7,926.053,138.306,926.431,138.167Z" fill="#ebb6a5"/>
          <path id="Trazado_111071" data-name="Trazado 111071" d="M890.852,155.572c.6,2.7,7.814,25.112,21.892,35.9,3.87,2.964,8.073,5.837,12.135,8.446,3.913,2.513,7.692,4.78,10.916,6.646,5.6,3.245,9.525,5.277,9.525,5.277l.709-1.121,4.731-7.481,1-1.582s-13.367-10.329-25.041-19.1c-2.124-1.6-4.192-3.141-6.112-4.562-4.194-7.788-12.931-31.4-21.768-31.7a10.551,10.551,0,0,0-4.568.708,5.873,5.873,0,0,0-3.524,4.571A10.467,10.467,0,0,0,890.852,155.572Z" fill="#00bcd4"/>
          <path id="Trazado_111072" data-name="Trazado 111072" d="M1011.072,203c8.744,1.968,11.151-4.09,15.626-9.885-.125-.069-.249-.137-.374-.2-.185-.1-.37-.2-.555-.294-.532.544-5.306,5.376-7.5,5.613-2.329.252-5.666-1.762-5.666-4.28s2.9-3.526,4.91-4.911c1.649-1.133,1.064-4.2,1.9-6.146a16.316,16.316,0,0,1-4.294.973,10.284,10.284,0,0,1-2.579,4.83,1.647,1.647,0,0,0-.158.155,32.907,32.907,0,0,0-5.259-.049c-.3.024-.467.045-.467.045S1003.084,201.2,1011.072,203Z" fill="#f4c0b5"/>
          <path id="Trazado_111073" data-name="Trazado 111073" d="M1044.957,215.857c.168,1.679.839,3.945-.588,4.953s-3.189,4.448-1.175,6.631,3.442,2.518,4.029,4.364,0,2.77.252,6.715,1.679,5.792,4.029,6.715a23.386,23.386,0,0,1,4.232,2.259l.133.092s2.182-9.485,0-15.193l-.124-.323-.771-2.022c-2.383-6.25-6.133-16.068-6.575-16.289a.547.547,0,0,0-.171-.042C1047.414,213.622,1044.8,214.314,1044.957,215.857Z" fill="#ffa9a9"/>
          <path id="Trazado_111074" data-name="Trazado 111074" d="M1047.1,262.632c1.637.062,3.589-.693,2.77-3.4s-1.51-3.462-.629-7.806c0,0,.189-3.4-1.952-3.085s-2.958-.629-2.958-.629-.245,2.336-.449,5.7a110.642,110.642,0,0,0-.066,14.2c.022.295.047.588.074.877C1045.083,265.842,1045.461,262.569,1047.1,262.632Z" fill="#ffa9a9"/>
          <path id="Trazado_111075" data-name="Trazado 111075" d="M1023.73,180.736a9.5,9.5,0,0,1-3.192,1.777c-.381.123-.754.252-1.128.38-.837,1.942-.252,5.013-1.9,6.146-2.014,1.385-4.91,2.392-4.91,4.911s3.337,4.532,5.666,4.28c2.2-.237,6.972-5.069,7.5-5.613l.05-.052-3.257-1.475-.079-.036.464-1.505,2.683-8.694-.128-.02A10.264,10.264,0,0,0,1023.73,180.736Z" fill="#f29191"/>
          <path id="Trazado_111076" data-name="Trazado 111076" d="M1020.538,182.513a9.538,9.538,0,0,0,5.048-3.883l.092-.142a3.841,3.841,0,0,0,.587.048c3.5.022,7.213-4.562,6.123-6.749a1.38,1.38,0,0,0-.173-.268,2.256,2.256,0,0,1-.475.328l-1.424-.616a11.045,11.045,0,0,0-2.874,1.6,7.741,7.741,0,0,1-2.058-3.732l-3.535-1.529c-1.224.216-2.46.425-3.665.622a6,6,0,0,1,2.719,3.112c.174.441-.538.631-.71.195a5.255,5.255,0,0,0-2.772-2.867.292.292,0,0,1-.19-.285c-1.483.239-2.9.458-4.157.649-.005.059-.011.113-.019.156-.366,2.053-.722,4.108-1.1,6.158a1.507,1.507,0,0,1-.191.577c-.424.632-1.666.283-2.247.113a.89.89,0,0,1-.558-.4.8.8,0,0,1-.018-.628,3.187,3.187,0,0,1,.552-.9,12.831,12.831,0,0,0,2.389-4.9c-1.585.235-2.818.41-3.475.5q-.061.635-.109,1.273a1.558,1.558,0,0,0,.822.136,2.342,2.342,0,0,0,.655-.172c.235-.093.474-.22.77-.354a1.49,1.49,0,0,1-.437.837,1.535,1.535,0,0,1-.914.435,1.356,1.356,0,0,1-.939-.253,76.171,76.171,0,0,0,.243,11.71,23.826,23.826,0,0,0,6.623.577,16.316,16.316,0,0,0,4.294-.973C1019.784,182.765,1020.157,182.636,1020.538,182.513Zm10.163-9.8c.472.022.473.759,0,.737a3.586,3.586,0,0,0-3.233,1.645c-.257.4-.894.027-.636-.372A4.337,4.337,0,0,1,1030.7,172.717Zm-15.811-1.043a4.126,4.126,0,0,0,1.143.586,4.549,4.549,0,0,0,1.277.223,7.2,7.2,0,0,0,1.4-.111,2.643,2.643,0,0,1-1.347.7,3.083,3.083,0,0,1-1.564-.1,2.935,2.935,0,0,1-1.315-.871,2.249,2.249,0,0,1-.567-1.414A4.524,4.524,0,0,0,1014.89,171.674Zm-4.168,6.931a.369.369,0,0,1-.2-.71,11.277,11.277,0,0,1,5.343.325c.463.108.266.817-.2.71A10.472,10.472,0,0,0,1010.722,178.6Z" fill="#ffd6ca"/>
          <path id="Trazado_111077" data-name="Trazado 111077" d="M1025.384,169.1a7.741,7.741,0,0,0,2.058,3.732,11.045,11.045,0,0,1,2.874-1.6Z" fill="#4b3c4f"/>
          <path id="Trazado_111078" data-name="Trazado 111078" d="M1009.488,174.073a3.187,3.187,0,0,0-.552.9.8.8,0,0,0,.018.628.89.89,0,0,0,.558.4c.581.17,1.823.519,2.247-.113a1.507,1.507,0,0,0,.191-.577c.383-2.05.739-4.1,1.1-6.158.008-.043.014-.1.019-.156l-1.2.179A12.831,12.831,0,0,1,1009.488,174.073Z" fill="#f4c0b5"/>
          <path id="Trazado_111079" data-name="Trazado 111079" d="M1026.832,174.727c-.258.4.379.769.636.372a3.586,3.586,0,0,1,3.233-1.645c.473.022.472-.715,0-.737A4.337,4.337,0,0,0,1026.832,174.727Z" fill="#f2bbaa"/>
          <path id="Trazado_111080" data-name="Trazado 111080" d="M1017.421,168.632a5.255,5.255,0,0,1,2.772,2.867c.172.436.884.246.71-.195a6,6,0,0,0-2.719-3.112l-.953.155A.292.292,0,0,0,1017.421,168.632Z" fill="#4b3c4f"/>
          <path id="Trazado_111081" data-name="Trazado 111081" d="M1015.8,172.971a3.083,3.083,0,0,0,1.564.1,2.643,2.643,0,0,0,1.347-.7,7.2,7.2,0,0,1-1.4.111,4.549,4.549,0,0,1-1.277-.223,4.126,4.126,0,0,1-1.143-.586,4.524,4.524,0,0,1-.973-.988,2.249,2.249,0,0,0,.567,1.414A2.935,2.935,0,0,0,1015.8,172.971Z" fill="#4b3c4f"/>
          <path id="Trazado_111082" data-name="Trazado 111082" d="M1009.189,171.832a1.535,1.535,0,0,0,.914-.435,1.49,1.49,0,0,0,.437-.837c-.3.134-.535.261-.77.354a2.342,2.342,0,0,1-.655.172,1.558,1.558,0,0,1-.822-.136,3.76,3.76,0,0,1-.516-.3,1.121,1.121,0,0,0,.405.878c.022.019.045.035.068.052A1.356,1.356,0,0,0,1009.189,171.832Z" fill="#4b3c4f"/>
          <path id="Trazado_111083" data-name="Trazado 111083" d="M1015.869,178.22a11.277,11.277,0,0,0-5.343-.325.369.369,0,0,0,.2.71,10.472,10.472,0,0,1,4.952.325C1016.135,179.037,1016.332,178.328,1015.869,178.22Z" fill="#f2bbaa"/>
          <path id="Trazado_111084" data-name="Trazado 111084" d="M1021.849,167.57l3.535,1.529,4.932,2.132,1.424.616a2.256,2.256,0,0,0,.475-.328c1.838-1.617,2.521-6.561,2.521-6.561l-1.176-.455c-.008.052-.014.1-.022.155C1032.515,165.5,1027.307,166.606,1021.849,167.57Z" fill="#f5edf9"/>
          <path id="Trazado_111085" data-name="Trazado 111085" d="M1019.64,159.108c-2.626-1.021-5.073-1.974-6.831-2.665l-.439-.172a10.923,10.923,0,0,0-2.8,5.991C1010.681,161.239,1015.024,160.09,1019.64,159.108Z" fill="#f5edf9"/>
          <path id="Trazado_111086" data-name="Trazado 111086" d="M1013.074,169c1.26-.191,2.674-.41,4.157-.649l.953-.155c1.2-.2,2.441-.406,3.665-.622,5.458-.964,10.666-2.067,11.689-2.912.008-.052.014-.1.022-.155a14.514,14.514,0,0,0-1.021-7.733s-.25.038-.7.109a8.072,8.072,0,0,0-4.294-2.93c-3.333-.936-8.462-1.61-10.859-.749a9.776,9.776,0,0,0-3.879,3.243c1.758.691,4.2,1.644,6.831,2.665-4.616.982-8.959,2.131-10.066,3.154-2.6,2.4-1.7,7.488-1.7,7.488s.188-.025.526-.073c.657-.092,1.89-.267,3.475-.5Z" fill="#fff"/>
        </g>
      </g>
    </g>
    <g id="Rectángulo_32656" data-name="Rectángulo 32656" transform="translate(982 499)" fill="none" stroke="#12263f" stroke-width="6">
      <rect width="291" height="275" rx="20" stroke="none"/>
      <rect x="3" y="3" width="285" height="269" rx="17" fill="none"/>
    </g>
  </g>
</svg>
