<svg xmlns="http://www.w3.org/2000/svg" xmlns:xlink="http://www.w3.org/1999/xlink" width="291" height="275" viewBox="0 0 291 275">
  <defs>
    <clipPath id="clip-path">
      <rect id="Rectángulo_32663" data-name="Rectángulo 32663" width="291" height="275" rx="20" transform="translate(226 499)" fill="#fff" stroke="#707070" stroke-width="1"/>
    </clipPath>
  </defs>
  <g id="Grupo_71890" data-name="Grupo 71890" transform="translate(-624 -499)">
    <g id="Enmascarar_grupo_90" data-name="Enmascarar grupo 90" transform="translate(398)" clip-path="url(#clip-path)">
      <g id="Grupo_71885" data-name="Grupo 71885" transform="translate(-227.829 447.657)">
        <path id="Trazado_110708" data-name="Trazado 110708" d="M546.132,58.194h.632c-.177-.074-.35-.149-.516-.224A2.388,2.388,0,0,1,546.132,58.194Z" fill="#eaefef"/>
        <path id="Trazado_110709" data-name="Trazado 110709" d="M465.2,79.772H450.022V96.59l14.33.029Z" fill="#eaefef"/>
        <path id="Trazado_110710" data-name="Trazado 110710" d="M481.182,66.731l21.462.425-.088,5.486c5.25.654,8.8,1.9,8.8,3.319s-3.593,2.682-8.9,3.333l-.533,33.009,10.2.728,1.092,32.04,34.588.728-.914-82.3H528.14v-.164c-2.677-.475-4.626-1.928-4.626-3.647,0-2.1,2.92-3.811,6.524-3.811a10.154,10.154,0,0,1,3.449.576c.435-1.858,3.161-3.29,6.462-3.29a10.033,10.033,0,0,1,3.639.648,7.782,7.782,0,0,1,3.158-2.057L546.7,47.5l17.889-.112.026,1.034c3.1-.226,6.417-.349,9.863-.349,17.3,0,31.33,3.09,31.33,6.9a1.875,1.875,0,0,1-.412,1.119c1.778-.136,3.686-.21,5.673-.21,9.553,0,17.3,1.706,17.3,3.811,0,1.617-4.572,3-11.024,3.553V63.5H565l1.358,52.805,12.007.25,2.486-49.394,36.773.729-.468,29,45.067.287-.544-48.949,17.889-.111L680.834,97.3l18.59.118.85-28.069,30.948,2.913-.517,47.017,2.208.014a10.422,10.422,0,0,1,4.359.979l1.379-72.83H700.566v-.164c-2.677-.475-4.627-1.928-4.627-3.647,0-2.106,2.921-3.812,6.524-3.812a10.156,10.156,0,0,1,3.45.577c.435-1.859,3.161-3.291,6.462-3.291a10.04,10.04,0,0,1,3.639.648,9.188,9.188,0,0,1,4.062-2.41H450.022V64.535c2.385-.128,4.877-.2,7.441-.2C466.942,64.338,475.437,65.266,481.182,66.731Z" fill="#eaefef"/>
        <path id="Trazado_110711" data-name="Trazado 110711" d="M718.558,42.132h.632c-.178-.074-.351-.148-.516-.224C718.639,41.984,718.6,42.059,718.558,42.132Z" fill="#ffe3ec"/>
        <path id="Trazado_110712" data-name="Trazado 110712" d="M543.588,53.815a10.033,10.033,0,0,0-3.639-.648c-3.3,0-6.027,1.432-6.462,3.29a10.154,10.154,0,0,0-3.449-.576c-3.6,0-6.524,1.706-6.524,3.811,0,1.719,1.949,3.172,4.626,3.647V63.5h18.737l-.131-11.745A7.782,7.782,0,0,0,543.588,53.815Zm2.544,4.379a2.388,2.388,0,0,0,.116-.224c.166.075.339.15.516.224Z" fill="#fff"/>
        <path id="Trazado_110713" data-name="Trazado 110713" d="M617.341,63.5v-.258c6.452-.554,11.024-1.936,11.024-3.553,0-2.1-7.744-3.811-17.3-3.811-1.987,0-3.9.074-5.673.21a1.875,1.875,0,0,0,.412-1.119c0-3.813-14.027-6.9-31.33-6.9-3.446,0-6.761.123-9.863.349L565,63.5Z" fill="#eaefef"/>
        <path id="Trazado_110714" data-name="Trazado 110714" d="M511.351,75.961c0-1.424-3.545-2.665-8.8-3.319l-.107,6.652C507.758,78.643,511.351,77.395,511.351,75.961Z" fill="#fff"/>
        <path id="Trazado_110715" data-name="Trazado 110715" d="M465.872,66.428l15.31.3c-5.745-1.465-14.24-2.393-23.719-2.393-2.564,0-5.056.069-7.441.2V79.773H465.2Z" fill="#fff"/>
        <path id="Trazado_110716" data-name="Trazado 110716" d="M716.014,37.753a10.04,10.04,0,0,0-3.639-.648c-3.3,0-6.027,1.432-6.462,3.291a10.156,10.156,0,0,0-3.45-.577c-3.6,0-6.524,1.706-6.524,3.812,0,1.719,1.95,3.172,4.627,3.647v.164h38.085l.219-11.549,9.766.114v-.664h-28.56A9.188,9.188,0,0,0,716.014,37.753Zm2.544,4.379c.042-.073.081-.148.116-.224.165.076.338.15.516.224Z" fill="#fff"/>
        <path id="Trazado_110717" data-name="Trazado 110717" d="M484.222,172.948a21.9,21.9,0,0,1,6.706-2.275l1.391-20.094h12.929l-.729,20.732-7.783.181a7.787,7.787,0,0,1,1.946,1.456H568.1l.151-11.808h7.869l-.594,11.808h8.139l0-.554h-1.226V161.47h1.3l.008-1.294H581.2v-8.788s1.31-.029,2.6-.043l.349-54.661,4.836.031.159-6.273h2.875v6.292l3.379.022.157-6.215h2.876v6.234l3.377.022.159-6.256h2.875v6.275l3.378.021.158-6.2h2.875v6.217l5.9.037.468-29-36.773-.729-2.486,49.394-12.007-.25L565,63.5l-.388-15.085-.026-1.034L546.7,47.5l.047,4.262.131,11.745.914,82.3-34.588-.728-1.092-32.04-10.2-.728.533-33.009.107-6.652.088-5.486-21.462-.425-15.31-.3L465.2,79.773l-.848,16.846-14.33-.029v4.225h1.8l.075,3.6h-1.876v3h2.1l.075,3.6h-2.175v2.922h2.7l.075,3.6h-2.775v3.058h2.591l.075,3.6h-2.666v3h2.891l.075,3.6h-2.966v2.922h3.49l.075,3.6h-3.565v35.661Zm105.225-85.58.3-11.7h2.875v11.5Zm6.411.1.3-11.7h2.875v11.5Zm6.411,0,.3-11.7h2.875v11.5Zm-24.727,45.472h-1.23l-.449-3.6h1.861Zm-.631,6.518-.449-3.6h.933l-.181,3.6Zm1.144-16.706-.181,3.6h-1.862l-.449-3.6Zm-4.363,16.585h-3.821l-.45-3.6h4.2Zm-.6-6.518h-3.82l-.45-3.6h4.2Zm-.374-10.189.075,3.6h-3.821l-.45-3.6Zm-11.84-59.414-3.172.2.3-11.7h2.875Zm-9.286-11.6h2.875v11.5l-3.172.2Zm0,34.353h2.875v11.5l-3.172.2Zm-.3-5.781.3-11.7h2.875v11.5Zm11.5,92.074-8.559-.317.182-12.344h8.377ZM558,86.067h2.875v11.5l-3.172.2Zm-.3-5.781.3-11.7h2.875v11.5Zm1.9,55.529.075,3.6h-3.821l-.449-3.6Zm-4.345-2.922-.45-3.6h4.2l.075,3.6Zm3.446-10.189.075,3.6h-3.821l-.449-3.6ZM566.5,135.74l.074,3.6h-3.82l-.45-3.6Zm-.525-2.922h-3.821l-.449-3.6h4.2Zm-.3-6.593h-3.821l-.45-3.6H565.6Zm-25.1,33.216h8.376V172.1l-8.558-.316Zm-13.84-.158h8.377v12.661l-8.559-.316Zm-13.839-.158h8.377v12.661l-8.559-.317Zm-8.182-39.677h2.876v11.5l-3.173.2Zm-.121,14.688h2.875v11.5l-3.172.2Zm-20.287,37.175-13.657.317,1.457-21.049h12.929Zm-7.858-66.833v11.5l-3.173.2.3-11.7ZM473.87,101.4l.3-11.7h2.876v11.5Zm1.983,17.846v11.5l-3.173.2.3-11.7Zm-3,14.688h2.876v11.5l-3.173.2Zm11.193-58.906v11.5l-3.173.2.3-11.7Zm-4.363,41.244.3-11.7h2.875v11.5Zm2.578,3.073v11.5l-3.172.2.3-11.7ZM480.281,101.5l.3-11.7h2.875v11.5Zm-1.013,32.534h2.875v11.5l-3.173.2Zm9.286,11.5-3.173.2.3-11.7h2.875Zm.121-14.687-3.172.2.3-11.7h2.875Zm.6-14.773-3.172.2.3-11.7h2.875Zm.6-14.772-3.172.2.3-11.7h2.875Zm-2.578-14.574.3-11.7h2.875v11.5Zm7.678,58.906-3.172.2.3-11.7h2.875Zm.122-14.688-3.173.2.3-11.7h2.876Zm.594-14.773-3.172.2.3-11.7h2.875Zm.6-14.772-3.172.2.3-11.7h2.875Zm4.781,44.133-3.173.2.3-11.7h2.875Zm.121-14.687-3.172.2.3-11.7h2.875ZM474.762,74.933h2.875v11.5l-3.172.2Zm-14.925,42.71h-3.821l-.449-3.6h4.2Zm-.974-16.707.075,3.6h-3.821l-.449-3.6Zm-3.9,6.593h4.2l.075,3.6h-3.821Zm4.687,13.173.075,3.6h-3.821l-.45-3.6Zm-3.9,6.592h4.2l.074,3.6h-3.82Zm.6,6.518h4.2l.075,3.6h-3.821Z" fill="#afafaf"/>
        <path id="Trazado_110718" data-name="Trazado 110718" d="M477.638,86.434v-11.5h-2.875l-.3,11.7Z" fill="#eaefef"/>
        <path id="Trazado_110719" data-name="Trazado 110719" d="M480.876,86.731l3.173-.2v-11.5h-2.875Z" fill="#eaefef"/>
        <path id="Trazado_110720" data-name="Trazado 110720" d="M490.46,75.032h-2.875l-.3,11.7,3.173-.2Z" fill="#eaefef"/>
        <path id="Trazado_110721" data-name="Trazado 110721" d="M477.043,89.705h-2.875l-.3,11.7,3.173-.2Z" fill="#eaefef"/>
        <path id="Trazado_110722" data-name="Trazado 110722" d="M483.454,89.8h-2.875l-.3,11.7,3.173-.2Z" fill="#eaefef"/>
        <path id="Trazado_110723" data-name="Trazado 110723" d="M486.693,101.5l3.173-.2V89.8H486.99Z" fill="#eaefef"/>
        <path id="Trazado_110724" data-name="Trazado 110724" d="M493.1,101.6l3.173-.2V89.9H493.4Z" fill="#eaefef"/>
        <path id="Trazado_110725" data-name="Trazado 110725" d="M473.275,116.176l3.173-.2v-11.5h-2.875Z" fill="#eaefef"/>
        <path id="Trazado_110726" data-name="Trazado 110726" d="M482.859,104.577h-2.875l-.3,11.7,3.173-.2Z" fill="#eaefef"/>
        <path id="Trazado_110727" data-name="Trazado 110727" d="M486.1,116.276l3.173-.2v-11.5H486.4Z" fill="#eaefef"/>
        <path id="Trazado_110728" data-name="Trazado 110728" d="M492.509,116.375l3.172-.2v-11.5h-2.875Z" fill="#eaefef"/>
        <path id="Trazado_110729" data-name="Trazado 110729" d="M472.68,130.949l3.173-.2v-11.5h-2.875Z" fill="#eaefef"/>
        <path id="Trazado_110730" data-name="Trazado 110730" d="M479.092,131.048l3.173-.2v-11.5h-2.875Z" fill="#eaefef"/>
        <path id="Trazado_110731" data-name="Trazado 110731" d="M485.5,131.048l3.173-.2v-11.5H485.8Z" fill="#eaefef"/>
        <path id="Trazado_110732" data-name="Trazado 110732" d="M491.914,131.147l3.173-.2v-11.5h-2.875Z" fill="#eaefef"/>
        <path id="Trazado_110733" data-name="Trazado 110733" d="M498.006,131.048l3.173-.2v-11.5H498.3Z" fill="#eaefef"/>
        <path id="Trazado_110734" data-name="Trazado 110734" d="M507.59,119.448h-2.875l-.3,11.7,3.173-.2Z" fill="#eaefef"/>
        <path id="Trazado_110735" data-name="Trazado 110735" d="M554.467,63.116v-11.5h-2.875l-.3,11.7Z" fill="#eaefef"/>
        <path id="Trazado_110736" data-name="Trazado 110736" d="M558,51.714l-.3,11.7,3.173-.2v-11.5Z" fill="#eaefef"/>
        <path id="Trazado_110737" data-name="Trazado 110737" d="M554.467,68.488h-2.875l-.3,11.7,3.172-.2Z" fill="#eaefef"/>
        <path id="Trazado_110738" data-name="Trazado 110738" d="M560.878,68.587H558l-.3,11.7,3.173-.2Z" fill="#eaefef"/>
        <path id="Trazado_110739" data-name="Trazado 110739" d="M554.467,97.468v-11.5h-2.875l-.3,11.7Z" fill="#eaefef"/>
        <path id="Trazado_110740" data-name="Trazado 110740" d="M560.878,97.567v-11.5H558l-.3,11.7Z" fill="#eaefef"/>
        <path id="Trazado_110741" data-name="Trazado 110741" d="M475.732,145.438v-11.5h-2.875l-.3,11.7Z" fill="#eaefef"/>
        <path id="Trazado_110742" data-name="Trazado 110742" d="M482.143,134.037h-2.875l-.3,11.7,3.172-.2Z" fill="#eaefef"/>
        <path id="Trazado_110743" data-name="Trazado 110743" d="M485.382,145.736l3.173-.2v-11.5h-2.875Z" fill="#eaefef"/>
        <path id="Trazado_110744" data-name="Trazado 110744" d="M491.793,145.835l3.173-.2v-11.5H492.09Z" fill="#eaefef"/>
        <path id="Trazado_110745" data-name="Trazado 110745" d="M497.884,145.736l3.173-.2v-11.5h-2.875Z" fill="#eaefef"/>
        <path id="Trazado_110746" data-name="Trazado 110746" d="M507.468,134.136h-2.875l-.3,11.7,3.173-.2Z" fill="#eaefef"/>
        <path id="Trazado_110747" data-name="Trazado 110747" d="M554.962,126.3h3.821l-.075-3.6h-4.2Z" fill="#eaefef"/>
        <path id="Trazado_110748" data-name="Trazado 110748" d="M561.855,126.225h3.821l-.075-3.6h-4.2Z" fill="#eaefef"/>
        <path id="Trazado_110749" data-name="Trazado 110749" d="M572.793,126.225l-.075-3.6h-4.2l.45,3.6Z" fill="#eaefef"/>
        <path id="Trazado_110750" data-name="Trazado 110750" d="M554.812,129.3l.449,3.6h3.821l-.075-3.6Z" fill="#eaefef"/>
        <path id="Trazado_110751" data-name="Trazado 110751" d="M562.154,132.818h3.821l-.075-3.6h-4.2Z" fill="#eaefef"/>
        <path id="Trazado_110752" data-name="Trazado 110752" d="M569.272,132.818h3.821l-.075-3.6h-4.2Z" fill="#eaefef"/>
        <path id="Trazado_110753" data-name="Trazado 110753" d="M559.682,139.411l-.075-3.6h-4.2l.45,3.6Z" fill="#eaefef"/>
        <path id="Trazado_110754" data-name="Trazado 110754" d="M562.754,139.336h3.821l-.075-3.6h-4.2Z" fill="#eaefef"/>
        <path id="Trazado_110755" data-name="Trazado 110755" d="M569.871,139.336h3.821l-.075-3.6h-4.2Z" fill="#eaefef"/>
        <path id="Trazado_110756" data-name="Trazado 110756" d="M577.874,126.346l.181-3.6h-2.492l.45,3.6Z" fill="#eaefef"/>
        <path id="Trazado_110757" data-name="Trazado 110757" d="M576.312,132.939h1.23l.181-3.6h-1.861Z" fill="#eaefef"/>
        <path id="Trazado_110758" data-name="Trazado 110758" d="M576.462,135.861l.45,3.6h.3l.181-3.6Z" fill="#eaefef"/>
        <path id="Trazado_110759" data-name="Trazado 110759" d="M451.823,100.815h-1.8v3.6H451.9Z" fill="#efb9ca"/>
        <path id="Trazado_110760" data-name="Trazado 110760" d="M452.122,107.408h-2.1V111H452.2Z" fill="#efb9ca"/>
        <path id="Trazado_110761" data-name="Trazado 110761" d="M452.722,113.926h-2.7v3.6H452.8Z" fill="#efb9ca"/>
        <path id="Trazado_110762" data-name="Trazado 110762" d="M458.938,104.533l-.075-3.6h-4.2l.45,3.6Z" fill="#eaefef"/>
        <path id="Trazado_110763" data-name="Trazado 110763" d="M459.163,107.529h-4.2l.449,3.6h3.821Z" fill="#eaefef"/>
        <path id="Trazado_110764" data-name="Trazado 110764" d="M456.016,117.643h3.821l-.075-3.6h-4.2Z" fill="#eaefef"/>
        <path id="Trazado_110765" data-name="Trazado 110765" d="M452.613,120.58h-2.592v3.6h2.667Z" fill="#efb9ca"/>
        <path id="Trazado_110766" data-name="Trazado 110766" d="M452.913,127.173h-2.891v3.6h2.966Z" fill="#efb9ca"/>
        <path id="Trazado_110767" data-name="Trazado 110767" d="M453.513,133.691h-3.491v3.6h3.566Z" fill="#efb9ca"/>
        <path id="Trazado_110768" data-name="Trazado 110768" d="M459.729,124.3l-.075-3.6h-4.2l.45,3.6Z" fill="#eaefef"/>
        <path id="Trazado_110769" data-name="Trazado 110769" d="M459.954,127.294h-4.2l.45,3.6h3.821Z" fill="#eaefef"/>
        <path id="Trazado_110770" data-name="Trazado 110770" d="M460.553,133.812h-4.2l.449,3.6h3.821Z" fill="#eaefef"/>
        <path id="Trazado_110771" data-name="Trazado 110771" d="M470.649,171.628l13.657-.317.728-20.732H472.106Z" fill="#eaefef"/>
        <path id="Trazado_110772" data-name="Trazado 110772" d="M496.736,171.492l7.783-.181.729-20.732H492.319l-1.391,20.094A9.409,9.409,0,0,1,496.736,171.492Z" fill="#eaefef"/>
        <path id="Trazado_110773" data-name="Trazado 110773" d="M521.273,159.125H512.9l-.182,12.345,8.559.317Z" fill="#eaefef"/>
        <path id="Trazado_110774" data-name="Trazado 110774" d="M535.112,159.283h-8.377l-.182,12.345,8.559.316Z" fill="#eaefef"/>
        <path id="Trazado_110775" data-name="Trazado 110775" d="M548.951,159.441h-8.377l-.182,12.345,8.559.316Z" fill="#eaefef"/>
        <path id="Trazado_110776" data-name="Trazado 110776" d="M554.232,171.944l8.559.316V159.6h-8.376Z" fill="#eaefef"/>
        <path id="Trazado_110777" data-name="Trazado 110777" d="M576.123,161.14h-7.869l-.151,11.808h7.426Z" fill="#eaefef"/>
        <path id="Trazado_110778" data-name="Trazado 110778" d="M748.636,131.843v-.251l-.229,0Z" fill="#ffd4e0"/>
        <path id="Trazado_110779" data-name="Trazado 110779" d="M738.651,47.442l-1.379,72.83a9.241,9.241,0,0,1,2.969,2.185l3.835,4.287.439-10.549,4.121.047v-2.865l-4.394-.1.637-15.294,3.757.042V94.447l-4.332-.093.638-15.294,3.694.042V76.233l-3.967-.086.637-15.294,3.33.038V58.017l-3.6-.077.637-15.294,2.966.033V36.007l-9.766-.114Z" fill="#afafaf"/>
        <path id="Trazado_110780" data-name="Trazado 110780" d="M706.14,91.663l8.1.092-.273,15.385-4.344-.094-.019,2.868,4.272.048-.164,9.21h.04l3.108.02.384-9.229,8.1.091-.163,9.191,5.52.035.517-47.017-30.948-2.913-.85,28.069,6.474.042Zm11.47.092,8.1.09-.273,15.385-8.466-.182Z" fill="#afafaf"/>
        <path id="Trazado_110781" data-name="Trazado 110781" d="M666.574,86.7h2.875V97.227l3.27.021.266-10.445h2.875V97.268l4.974.032L679.57,48.121l-17.889.111.544,48.949,4.082.026Zm6.411-34.253h2.875v11.5l-3.172.2Zm0,16.872h2.875v11.5l-3.172.2Zm-6.411-16.972h2.875v11.5l-3.173.2Zm0,16.873h2.875v11.5l-3.173.2Z" fill="#afafaf"/>
        <path id="Trazado_110782" data-name="Trazado 110782" d="M592.619,75.669h-2.875l-.3,11.7,3.173-.2Z" fill="#eaefef"/>
        <path id="Trazado_110783" data-name="Trazado 110783" d="M599.031,75.768h-2.875l-.3,11.7,3.173-.2Z" fill="#eaefef"/>
        <path id="Trazado_110784" data-name="Trazado 110784" d="M605.442,75.768h-2.875l-.3,11.7,3.172-.2Z" fill="#eaefef"/>
        <path id="Trazado_110785" data-name="Trazado 110785" d="M592.024,96.734V90.442h-2.875l-.159,6.273Z" fill="#eaefef"/>
        <path id="Trazado_110786" data-name="Trazado 110786" d="M598.436,90.541H595.56l-.158,6.215,3.033.019Z" fill="#eaefef"/>
        <path id="Trazado_110787" data-name="Trazado 110787" d="M604.847,96.816V90.541h-2.875l-.159,6.256Z" fill="#eaefef"/>
        <path id="Trazado_110788" data-name="Trazado 110788" d="M611.258,96.857V90.64h-2.875l-.158,6.2Z" fill="#eaefef"/>
        <path id="Trazado_110789" data-name="Trazado 110789" d="M669.449,52.351h-2.875l-.3,11.7,3.173-.2Z" fill="#eaefef"/>
        <path id="Trazado_110790" data-name="Trazado 110790" d="M675.86,52.451h-2.875l-.3,11.7,3.172-.2Z" fill="#eaefef"/>
        <path id="Trazado_110791" data-name="Trazado 110791" d="M669.449,69.224h-2.875l-.3,11.7,3.173-.2Z" fill="#eaefef"/>
        <path id="Trazado_110792" data-name="Trazado 110792" d="M675.86,69.323h-2.875l-.3,11.7,3.172-.2Z" fill="#eaefef"/>
        <path id="Trazado_110793" data-name="Trazado 110793" d="M666.574,86.7l-.267,10.5,3.142.02V86.7Z" fill="#eaefef"/>
        <path id="Trazado_110794" data-name="Trazado 110794" d="M672.985,86.8l-.266,10.445,3.141.02V86.8Z" fill="#eaefef"/>
        <path id="Trazado_110795" data-name="Trazado 110795" d="M725.712,91.845l-8.1-.091-.637,15.294,8.466.182Z" fill="#eaefef"/>
        <path id="Trazado_110796" data-name="Trazado 110796" d="M714.242,91.755l-8.1-.091-.241,5.8,3.787.024-.061,9.562,4.344.093Z" fill="#eaefef"/>
        <path id="Trazado_110797" data-name="Trazado 110797" d="M717.246,109.962l-.385,9.229,8.324.053.163-9.191Z" fill="#eaefef"/>
        <path id="Trazado_110798" data-name="Trazado 110798" d="M709.606,109.914l-.064,10.106a10.384,10.384,0,0,1,4.172-.848l.164-9.21Z" fill="#eaefef"/>
        <path id="Trazado_110799" data-name="Trazado 110799" d="M745.033,57.94l3.6.078V42.679l-2.966-.033Z" fill="#efb9ca"/>
        <path id="Trazado_110800" data-name="Trazado 110800" d="M744.669,76.147l3.967.085V60.891l-3.33-.037Z" fill="#efb9ca"/>
        <path id="Trazado_110801" data-name="Trazado 110801" d="M744.3,94.354l4.332.093V79.1l-3.694-.041Z" fill="#efb9ca"/>
        <path id="Trazado_110802" data-name="Trazado 110802" d="M744.242,113.282l4.394.094V98.03l-3.757-.042Z" fill="#efb9ca"/>
        <path id="Trazado_110803" data-name="Trazado 110803" d="M744.076,126.744l4.332,4.843.229,0v-15.35l-4.121-.046Z" fill="#efb9ca"/>
        <path id="Trazado_110804" data-name="Trazado 110804" d="M489.125,319.1a52.2,52.2,0,0,1,16.159-9.149,53.748,53.748,0,0,1,27.589-2.541l2.1-3.284a1.826,1.826,0,0,1-.653-1.241,3.724,3.724,0,0,1,.383-1.675l-54.623-1.819.37.417c.505.567.168,1.43-.749,1.917l-1.112.589a2.26,2.26,0,0,1-2.585-.147l-2.67-3-7.317-.244a9.987,9.987,0,0,1-2.6,2.289,14.334,14.334,0,0,1-7.707,2,25.764,25.764,0,0,1-5.685-.694v31.439h28.613c.228-.71.489-1.42.788-2.129A34.853,34.853,0,0,1,489.125,319.1Z" fill="#cecece"/>
        <path id="Trazado_110805" data-name="Trazado 110805" d="M450.022,300.925v.169l.325.075C450.235,301.091,450.127,301.009,450.022,300.925Z" fill="#b28797"/>
        <path id="Trazado_110806" data-name="Trazado 110806" d="M657.887,202.185a136.869,136.869,0,0,1,17.943,1.989c-.659-6.651-4.278-14.5-6.935-21.036q-.854,1.851-1.983,3.851-.8-.082-1.544-.19c-.469,1.273-.947,2.544-1.464,3.8A130.34,130.34,0,0,1,657.887,202.185Z" fill="#cecece"/>
        <path id="Trazado_110807" data-name="Trazado 110807" d="M677.771,241.548c-.391.15-.822.3-1.268.438l1.161.078C677.7,241.889,677.734,241.716,677.771,241.548Z" fill="#b28797"/>
        <path id="Trazado_110808" data-name="Trazado 110808" d="M524.1,312.822a50.1,50.1,0,0,0-16.726,2.978c-10.537,3.76-18.77,10.533-22.1,18.158h30.618l13.326-20.829A42.663,42.663,0,0,0,524.1,312.822Z" fill="#cecece"/>
        <path id="Trazado_110809" data-name="Trazado 110809" d="M673.494,297.055c-.732,4.933,3.6,5.966,5.891,7.329l.01.016a58.457,58.457,0,0,1,1.79-15.445,17.03,17.03,0,0,0-4.795,2.912A8.522,8.522,0,0,0,673.494,297.055Z" fill="#cecece"/>
        <path id="Trazado_110810" data-name="Trazado 110810" d="M548.546,324.487c-2.379-5.158-7.847-8.95-15.394-10.678-.184-.042-.37-.079-.555-.118-4.543,7.065-9.89,15.3-13.287,20.267h30.05A14.257,14.257,0,0,0,548.546,324.487Z" fill="#cecece"/>
        <path id="Trazado_110811" data-name="Trazado 110811" d="M669.454,241.51l.568.039.256-.054.02.072,1.947.131a1.512,1.512,0,0,1-.095-.163c1.093-.255,3.688-1.958,5.682-3.569a6.141,6.141,0,0,1,2.628-1.129c.283-3.176.668-6.131,1.216-9.226-5.714-1.826-11.815-4-17.885-5.881C666.034,228.888,668.083,236.335,669.454,241.51Z" fill="#cecece"/>
        <path id="Trazado_110812" data-name="Trazado 110812" d="M614.949,237.835l7.384.5c-4.737-5.612-10.648-13.046-12.835-17.617-.762-1.265-1.46-2.588-2.1-3.925A82.846,82.846,0,0,1,600.284,224a27.455,27.455,0,0,1,.921,3.379c-4.205,3.086-8.182,5.925-11.459,8.234,6.328.828,12.624,1.658,17.546,2.321q.339.848.592,1.675c1.661-.047,3.428-.066,5.234-.042l.007-.121A1.712,1.712,0,0,1,614.949,237.835Z" fill="#cecece"/>
        <path id="Trazado_110813" data-name="Trazado 110813" d="M472.815,295.823l1.111-.59a2.263,2.263,0,0,1,2.586.148l.588.661,59.64,1.581c.736-1.106,1.548-2.223,2.3-3.216l-69.3-15.027-6.484,9.4a9.034,9.034,0,0,1,3.971,4.551,5.312,5.312,0,0,1,.208,2.458l5.212.139C472.7,295.889,472.755,295.855,472.815,295.823Z" fill="#cecece"/>
        <path id="Trazado_110814" data-name="Trazado 110814" d="M453.374,278.776a25.582,25.582,0,0,1-1.04,2.963c-.323.769-.691,1.533-1.094,2.291,1.69.465,3.287.946,4.766,1.449q1.346.457,2.522.931l5.348-7.594Z" fill="#cecece"/>
        <path id="Trazado_110815" data-name="Trazado 110815" d="M451.006,292.32a12.511,12.511,0,0,1,3.767-2.1,13.929,13.929,0,0,1,1.362-.41l1.569-2.228q-1.011-.4-2.147-.784c-1.548-.527-3.232-1.029-5.022-1.516q-.249.418-.513.833v.138l1.236,5.131A1.113,1.113,0,0,1,451.006,292.32Z" fill="#cecece"/>
        <path id="Trazado_110816" data-name="Trazado 110816" d="M450.459,292.806a2.676,2.676,0,0,1-.437.223v.222C450.16,293.1,450.307,292.952,450.459,292.806Z" fill="#b28797"/>
        <path id="Trazado_110817" data-name="Trazado 110817" d="M748.636,316.949a12.141,12.141,0,0,1-2.495-1.678,13.943,13.943,0,0,1-1.757-1.823,84.2,84.2,0,0,0-13.644.745c-.626,1.694-1.519,3.036-2.791,3.335-3.161.744-28.851.1-39.661-.211a9.178,9.178,0,0,1-8.2-6.185c-.025-.121-.048-.243-.072-.365-.88-.2-1.925-.461-3.169-.792-6.187-1.648-11.133-10.46-8.247-16.176,5.92-11.726,15.95-10.988,15.95-10.988s1.3-2.127,23.434-1.5c21.089.6,20.976,1.612,20.919,1.707,4.625.3,9.816,1.542,13.164,5.136,6.067,6.51,3.858,14.13,6.572,19.151V251.391a4.355,4.355,0,0,0-1.759-1.113c-.444-.085-.791-.629-1.061-1.39l-2.866,1.033a14.829,14.829,0,0,1,.238,1.667c-1.046.64-19.422,9.412-35.508,13.1,0,.031-.01.064-.014.1-.17.013-.343.02-.517.025-1.9.423-3.762.769-5.56,1.023a3.42,3.42,0,0,1-.452.066c.15-.02.3-.045.452-.066-.208.013-3.234.38-3.246.378-2.688.174-4.627-1.919-5.928-4.182a3.6,3.6,0,0,1-1.693.982.846.846,0,0,1-.225.017c-3.591-.2-7.485-2.256-10.326-4.443l-.331,3.144a1.712,1.712,0,0,1-1.8,1.529l-12.615-.7a1.887,1.887,0,0,1-1.714,1.1,93.846,93.846,0,0,1-9.436-.7,1.891,1.891,0,0,1-1.508-1.1l-15.287-.845a1.888,1.888,0,0,1-1.615.916,94.135,94.135,0,0,1-9.436-.7,1.889,1.889,0,0,1-1.405-.906l-11.927-.659a1.712,1.712,0,0,1-1.614-1.8l.164-2.964c-.173-.143-.339-.29-.494-.441l-.161,0c-1.561.378-3.261.724-4.969,1.034a19.648,19.648,0,0,1-2.7,3.78l-40.729-4.429a5.042,5.042,0,0,1-2.994,1.084,83.388,83.388,0,0,1-18.767-2.34l-.093.067s-.03-.04-.079-.109a89.19,89.19,0,0,1-34.422-17.219c-2.147,3.416-4,6.272-4.67,7.08q-.875-.444-1.738-.887a39.285,39.285,0,0,1-2.995,5.365c5.8,3.787,12.533,10.7,15.778,13.1q.659.488,1.335.953c.135-.317.228-.495.228-.495l1.552.577a4.405,4.405,0,0,1,.949-.845,19.644,19.644,0,0,0,4.623-3.825c1.112,1.08-.388,3.338-1.564,4.776,1.667.175,3.767.608,4.587.785h0s11.012-.242,9.508,1.686a1.308,1.308,0,0,1-1.063.484l-7.515-.186q.06.27.113.564c.022,0,9.728-.175,8.987,1.835a.817.817,0,0,1-.773.514l-8.058-.055c-.01.165-.025.331-.045.5,2.478-.068,8.363-.062,7.625,1.569a.951.951,0,0,1-.857.54l-7.486.067c-.041.068-.085.135-.13.2,2.453-.087,6.934-.068,5.625,1.324a1.822,1.822,0,0,1-1.4.554l-6.544-.368c-3.643.029-5.722-1.028-6.9-2.381-.446-.141-1.15-.337-2.256-.594-.043-.177-.079-.353-.111-.528-12.04-3.755-24.039-8.266-27.873-13.873-3.2-2.97-1.312-11.437,1.471-19.351-.672-.379-1.047-.593-1.047-.593,1.285-5.947,3.488-14.291,5.108-18.995.02-.14.042-.283.068-.428.762-4.318,4.351-9.75,6.368-12.757-.28-.669-.574-1.335-.86-1.959q-.594-.1-1.174-.241c-4.91-1.208-6.489-3.3-7.072-4.911a5.357,5.357,0,0,1-2.073-.325,11.85,11.85,0,0,1-3.875,2.962c-3.6,1.357-9.2-.295-8.732-3.009.318-1.827,5.1-4.7,8.193-6.377-.32-.236-11.016-8.239,1.306-15.1.464-.259.917-.5,1.361-.721h-34.2v87.528a21.122,21.122,0,0,1,2.36,3.917,20.081,20.081,0,0,1,1.58,11.723l11.939-.177,4.171-5.922a13.846,13.846,0,0,1-5.893-2.583c-2.62-1.967-.58-5.762,3.661-6.657.138-.029.273-.054.4-.074,2.35-.367,23.339,5.343,25.293,7.238s-3.622,4.24-4.815,3.6c-.993-.529-6.909-1.181-12.673-1.316l-3.831,5.551,69.5,15.245c.028-.04.054-.081.079-.122l.616-1.051a2.189,2.189,0,0,1,.753-.733.43.43,0,0,1,.044-.194l1.2-2.522a3.021,3.021,0,0,1,3.061-1.361l6.759,1.127,1.828-3.332a3.774,3.774,0,0,1-2.375-1.716c-.736-1.321-.446-3.18.794-5.1.049-.077.094-.178.071-.231a.732.732,0,0,0-.526-.261c-1.05-.179-1.753-.3-2.235-.387a3.776,3.776,0,0,1-1.94.4c-2.1-.148-5.352-.4-8.443-.744-1.59-.176-2.224-1.449-1.218-2.547a4.373,4.373,0,0,1,1.715-1.087c.48-.14,6.491.395,9.557.68,1.119.1,1.813.758,1.737,1.56l1.154.2a2.537,2.537,0,0,1,1.985,1.4,2.169,2.169,0,0,1-.218,2.074c-.636.985-1.162,2.315-.729,3.093.4.712,1.694,1.086,3.65,1.049a12.035,12.035,0,0,0,9.734-5.287,6.3,6.3,0,0,1,4.559-2.414l.125-.011a4.154,4.154,0,0,1,1.134-.705c.468-.171,6.648-.08,9.8-.022,1.349.025,2.215.828,1.935,1.817l-.022.077a3.186,3.186,0,0,1-3.03,1.827c-2.15.005-5.493-.01-8.68-.121a2.1,2.1,0,0,1-1.751-.815,4.222,4.222,0,0,0-2.476,1.489,13.983,13.983,0,0,1-10.47,6.075l-2.056,4.177a1.138,1.138,0,0,1-.012,1.1l-.517,1.031a2.905,2.905,0,0,1-2.322,1.355,40.682,40.682,0,0,1-6.215.149,1.6,1.6,0,0,1-.114.216c-2.034,3.174-6.715,10.086-8.459,12.656a2.815,2.815,0,0,1-1.961,1.078l-2.089,3.269c8.647,2.349,15.02,7.181,18.04,13.726a20.121,20.121,0,0,1,1.52,12.073H748.636Zm-109.118-22c-3.083,2.313-16.428,2.8-16.428,2.8s-2.37-2.363-3.984-2.683-1.471,1.558-3.49,1.329-9.817-2.55-9.5-4.164a5.522,5.522,0,0,1,1.87-2.709,5.358,5.358,0,0,1-.5-1.194,8.505,8.505,0,0,1-.334-2.525c.029-2.516,1.321-9.191,2.9-9.868,1.975-.846.86,2.171,2.9,3.782s4.706-.3,7.047-1.7c.868-.517,1.583.1,2.443,1.206.3.387.621.835.971,1.313a6.187,6.187,0,0,1,.633-.071c.828-.043.951,1.037.38,1.4q.293.362.615.727a6.475,6.475,0,0,1,.767-.145c.8-.1.93.914.416,1.342.192.173.391.342.6.507a3.728,3.728,0,0,1,.89-.18.722.722,0,0,1,.588,1.179,10.564,10.564,0,0,0,1.232.6c5.971,2.423,6.234,1.1,9.8,2.219a1.694,1.694,0,0,1,.926,2.766C640.917,291.8,641.564,293.412,639.518,294.948Z" fill="#cecece"/>
        <path id="Trazado_110818" data-name="Trazado 110818" d="M746.262,183.845a13.462,13.462,0,1,1-26.809-1.822h-5.07s0-.054,0-.152c-1.859-.015-3.627-.029-5.28-.044,3.875,15.411,7.594,33.4,7.594,33.4-.256.078-.509.155-.761.23a60.209,60.209,0,0,1,.288,6.775q-.013.734-.051,1.433c-.4,8.089-2.77,17.366-4.936,25.614a285.167,285.167,0,0,1,28.834-7.019s.4.709.912,1.829a21.371,21.371,0,0,1,3.94-.8c-.021-.351-.029-.562-.029-.562s1.73-.843,3.744-1.738V182.051l-2.486-.007A13.559,13.559,0,0,1,746.262,183.845Z" fill="#cecece"/>
        <path id="Trazado_110819" data-name="Trazado 110819" d="M732.2,305.241a40.1,40.1,0,0,1-.336,4.017c.727-.108,1.411-.23,2.045-.367a41.142,41.142,0,0,1,7.89-.843c-1.125-4.343-.995-9.126-4.558-14.249A9.125,9.125,0,0,0,732,290.625,93.951,93.951,0,0,1,732.2,305.241Z" fill="#cecece"/>
        <path id="Trazado_110820" data-name="Trazado 110820" d="M688.04,245.855q.639-.133,1.27-.287c-.318-4.517-.635-9.614-.894-13.956-.956,2.138-1.914,4.2-2.858,6.069C687.374,238.968,689.006,241.377,688.04,245.855Z" fill="#b28797"/>
        <path id="Trazado_110821" data-name="Trazado 110821" d="M647.447,222.409c-3.708,4.774-7.745,10.117-11.377,14.246a6.519,6.519,0,0,1,1.186,2.064c.494.071.951.14,1.354.2a1.883,1.883,0,0,1,1.093.582l14.636.987A146.592,146.592,0,0,1,647.447,222.409Z" fill="#cecece"/>
        <path id="Trazado_110822" data-name="Trazado 110822" d="M501.5,178.742c-.171.048-.39.125-.648.226a30.854,30.854,0,0,1,2.481,4.82,1.664,1.664,0,0,1,.368.068.312.312,0,0,1-.093.609c.652,1.636,1.22,3.345,1.71,5.037l.075-.038a14.91,14.91,0,0,1,1.761,3.837,30.457,30.457,0,0,1,3.461-2.818,7.735,7.735,0,0,1,9.809,1.762c6.244,6.866,12.128,13.222,20.822,16.911l.334.141c8.594,3.591,17.8,5.351,26.982,6.667.918.131,4.082-.017,4.712.559a4.138,4.138,0,0,1,1.061,2.071c6.22-4.7,13.93-10.433,13.93-10.433a25.685,25.685,0,0,1,2.6,2.065,74.615,74.615,0,0,1,11.288-9.8c.146-.1.413-.28.776-.509a28.818,28.818,0,0,1,3.76-2.064,6.454,6.454,0,0,1,1.524-.478c2.082-.651,4.262-.827,5.791.367,2.709,2.115,12.493,22.461,18.165,34.579a108.4,108.4,0,0,1,4.931-11.047c2.345-4.6,5.972-16.076,10.185-22.37,1.233-2.979,3.472-7.832,4.584-10.635q1.074-2.712,2.294-5.379l-.014-.011s.137-.588.4-1.56l-19.149-.122c.018.157.025.244.025.244h-6.213c.009.216.014.433.013.652a13.462,13.462,0,0,1-26.924-.172c0-.161.008-.321.015-.48h-4.58s0-.174.013-.484l-14.136-.09.051-7.916H498.682A11.393,11.393,0,0,1,501.5,178.742Z" fill="#cecece"/>
        <path id="Trazado_110823" data-name="Trazado 110823" d="M627.56,238.44a17.336,17.336,0,0,1-1.909.117l1.791.12C627.481,238.6,627.521,238.518,627.56,238.44Z" fill="#b26b5e"/>
        <path id="Trazado_110824" data-name="Trazado 110824" d="M607.4,216.791c.637,1.337,1.335,2.66,2.1,3.925,2.187,4.571,8.1,12,12.835,17.617l1.94.131c-1.094-.166-1.975-.579-2.149-1.45,1.122.029,4.062-.968,6.4-2.026a6.157,6.157,0,0,1,2.827-.432q.406-1.139.825-2.238c-5.672-12.118-15.456-32.464-18.165-34.579-1.529-1.194-3.709-1.018-5.791-.367a6.454,6.454,0,0,0-1.524.478,28.818,28.818,0,0,0-3.76,2.064c-.363.229-.63.409-.776.509a74.615,74.615,0,0,0-11.288,9.8A33.365,33.365,0,0,1,600.284,224,82.846,82.846,0,0,0,607.4,216.791Z" fill="#b26b5e"/>
        <path id="Trazado_110825" data-name="Trazado 110825" d="M661.76,124.748c.04-.21.077-.421.112-.635s.067-.426.1-.636c-.114-.009-.239-.017-.373-.022s-.274-.007-.418-.007c-.125,0-.278.005-.46.015s-.373.028-.572.056a5.706,5.706,0,0,0-.6.115,2.493,2.493,0,0,0-.534.195,1.244,1.244,0,0,0-.385.291.606.606,0,0,0-.041.743.9.9,0,0,0,.295.273,1.34,1.34,0,0,0,.437.161,1.5,1.5,0,0,0,.527,0,9.453,9.453,0,0,0,1.057-.257C661.236,124.941,661.521,124.842,661.76,124.748Z" fill="#fff"/>
        <path id="Trazado_110826" data-name="Trazado 110826" d="M660.365,144.841a2.758,2.758,0,0,1-1.365.929l-.082,2.158,3.569-.336a1.433,1.433,0,0,1,.119-.3,27.965,27.965,0,0,1-1.364-3.02,2.754,2.754,0,0,1-.48-.109A2.759,2.759,0,0,1,660.365,144.841Z" fill="#fff"/>
        <path id="Trazado_110828" data-name="Trazado 110828" d="M639.721,142.961a3.472,3.472,0,0,0-.993-.658,5.506,5.506,0,0,0-1.308-.394,7.47,7.47,0,0,0-1.5-.112,6.067,6.067,0,0,0-1.488.19,2.886,2.886,0,0,0-.993.473,1.835,1.835,0,0,0-.565.715,2.485,2.485,0,0,0-.2.913,1.2,1.2,0,0,0,.265.858,2.136,2.136,0,0,0,.793.584,4.53,4.53,0,0,0,1.145.334,8.152,8.152,0,0,0,1.331.107,5.906,5.906,0,0,0,1.539-.26,5.347,5.347,0,0,0,.659-.246,4.684,4.684,0,0,0,.677-.375,4.234,4.234,0,0,0,.635-.524,3.975,3.975,0,0,0,.552-.7A1.969,1.969,0,0,0,639.721,142.961Z" fill="#fff"/>
        <path id="Trazado_110829" data-name="Trazado 110829" d="M692.174,120.967a1.662,1.662,0,0,0-.243-.448,1.514,1.514,0,0,0-.321-.31,1.877,1.877,0,0,0-.355-.2,2.272,2.272,0,0,0-.941-.157,1.708,1.708,0,0,0-.8.28,1.525,1.525,0,0,0-.475.546,2.307,2.307,0,0,0-.228.721,5.511,5.511,0,0,0-.059.806l3.548-.627A2.335,2.335,0,0,0,692.174,120.967Z" fill="#fff"/>
        <path id="Trazado_110830" data-name="Trazado 110830" d="M675.44,156.714l.25-.11-.018-.07C675.6,156.594,675.519,156.654,675.44,156.714Z" fill="#fff"/>
        <path id="Trazado_110832" data-name="Trazado 110832" d="M672.914,123.235l.053-.531c.014-.152.024-.29.029-.414s.008-.259.008-.4a3.705,3.705,0,0,0-.052-.631,1.563,1.563,0,0,0-.183-.519,1,1,0,0,0-.344-.355,1.1,1.1,0,0,0-.527-.146,2.559,2.559,0,0,0-.627.179,5.311,5.311,0,0,0-1.577,1.061l-.1,1.483a2.769,2.769,0,0,1,2.841,1.422,2.7,2.7,0,0,1,.4-.389v-.009C672.867,123.686,672.894,123.436,672.914,123.235Z" fill="#fff"/>
        <path id="Trazado_110833" data-name="Trazado 110833" d="M657.589,172.394H632.295a22.716,22.716,0,0,1,3.109,8.8l19.149.122A71.844,71.844,0,0,1,657.589,172.394Z" fill="#fff"/>
        <path id="Trazado_110834" data-name="Trazado 110834" d="M583.617,180.864l14.136.09a20.649,20.649,0,0,1,2.4-8.56H583.671l0,.554Z" fill="#fff"/>
        <path id="Trazado_110835" data-name="Trazado 110835" d="M748.35,172.394q.147.2.286.407v-.407Z" fill="#fff"/>
        <path id="Trazado_110837" data-name="Trazado 110837" d="M746.15,182.044l2.486.007v-.028h-2.489Z" fill="#fff"/>
        <path id="Trazado_110838" data-name="Trazado 110838" d="M709.1,181.827c1.653.015,3.421.029,5.28.044a17.583,17.583,0,0,1,2.967-9.477H706.6C707.417,175.279,708.263,178.492,709.1,181.827Z" fill="#fff"/>
        <path id="Trazado_110839" data-name="Trazado 110839" d="M600.148,172.394c2.278-4.144,6.71-8.19,15.338-8.379,9.14-.2,14.113,4.035,16.809,8.379h25.294c1.606-3.784,3.727-7.5,6.255-9.046l-.02-.084s1.027-.73,2.736-1.794H582.445v10.924h17.7Z" fill="#12263f"/>
        <path id="Trazado_110840" data-name="Trazado 110840" d="M702.811,161.47a65.374,65.374,0,0,1,3.789,10.924h10.748c2.419-3.493,6.8-6.676,14.756-7.017,8.526-.364,13.432,3.135,16.246,7.017h.286V161.47Z" fill="#12263f"/>
        <path id="Trazado_110841" data-name="Trazado 110841" d="M748.35,172.394c-2.814-3.882-7.72-7.381-16.246-7.017-7.951.341-12.337,3.524-14.756,7.017a17.583,17.583,0,0,0-2.967,9.477c0,.1,0,.152,0,.152h5.07a13.459,13.459,0,0,1,26.694,0h2.489V172.8Q748.5,172.6,748.35,172.394Z" fill="#e8e8e8"/>
        <path id="Trazado_110842" data-name="Trazado 110842" d="M632.295,172.394c-2.7-4.344-7.669-8.579-16.809-8.379-8.628.189-13.06,4.235-15.338,8.379a20.649,20.649,0,0,0-2.4,8.56c-.015.31-.013.484-.013.484h4.58a13.46,13.46,0,0,1,26.9,0h6.213s-.007-.087-.025-.244A22.716,22.716,0,0,0,632.295,172.394Z" fill="#e8e8e8"/>
        <path id="Trazado_110843" data-name="Trazado 110843" d="M732.714,197.221a13.444,13.444,0,0,0,13.436-15.177l0-.021a13.461,13.461,0,1,0-13.433,15.2Zm.137-21.5a8.034,8.034,0,1,1-8.085,7.983A8.033,8.033,0,0,1,732.851,175.725Z" fill="#12263f"/>
        <circle id="Elipse_4179" data-name="Elipse 4179" cx="8.034" cy="8.034" r="8.034" transform="matrix(1, -0.019, 0.019, 1, 724.613, 175.881)" fill="#eff1f1"/>
        <path id="Trazado_110844" data-name="Trazado 110844" d="M615.852,168.542a13.46,13.46,0,0,0-13.532,12.9c-.007.159-.014.319-.015.48a13.462,13.462,0,0,0,26.924.172c0-.219,0-.436-.013-.652A13.461,13.461,0,0,0,615.852,168.542Zm7.948,13.513a8.034,8.034,0,1,1-7.982-8.085A8.034,8.034,0,0,1,623.8,182.055Z" fill="#12263f"/>
        <path id="Trazado_110845" data-name="Trazado 110845" d="M615.818,173.97a8.034,8.034,0,1,0,7.982,8.085A8.034,8.034,0,0,0,615.818,173.97Z" fill="#eff1f1"/>
        <path id="Trazado_110846" data-name="Trazado 110846" d="M737.267,124.882a1.389,1.389,0,0,0-1.027-.479l-21.5-.356a1.389,1.389,0,0,0-1.412,1.4l.115,22.419a1.39,1.39,0,0,0,1.4,1.382l33.792-.2V137.961C743.806,132.429,738.716,126.555,737.267,124.882Z" fill="#f3f9ff"/>
        <path id="Trazado_110858" data-name="Trazado 110858" d="M653.585,142.206l.14.9.519-.1A3.94,3.94,0,0,1,653.585,142.206Z" fill="#ef4d70"/>
        <rect id="Rectángulo_32664" data-name="Rectángulo 32664" width="6.632" height="6.292" rx="2.238" transform="translate(698.907 100.051)" fill="#ff9d00"/>
        <rect id="Rectángulo_32665" data-name="Rectángulo 32665" width="6.632" height="6.292" rx="2.238" transform="translate(588.376 100.051)" fill="#eaefef"/>
        <path id="Trazado_110860" data-name="Trazado 110860" d="M586.661,160.176s-.606-8.623-.346-8.788a17.9,17.9,0,0,0-2.51-.043c-1.295.014-2.6.043-2.6.043v8.788h5.461Z" fill="#ff9d00"/>
        <path id="Trazado_110861" data-name="Trazado 110861" d="M744.921,243.29a.666.666,0,0,1,.311.046c3.021,2.755,1.167,5.341,1.167,5.341l-.583.211c.27.761.617,1.3,1.061,1.39a4.355,4.355,0,0,1,1.759,1.113v-10.4c-2.014.895-3.744,1.738-3.744,1.738S744.9,242.939,744.921,243.29Z" fill="#efb9ca"/>
        <path id="Trazado_110862" data-name="Trazado 110862" d="M745.232,243.336a.666.666,0,0,0-.311-.046,21.371,21.371,0,0,0-3.94.8,27.222,27.222,0,0,1,1.969,5.828l2.866-1.033.583-.211S748.253,246.091,745.232,243.336Z" fill="#fad4c8"/>
        <path id="Trazado_110863" data-name="Trazado 110863" d="M663.791,221.73c6.07,1.881,12.171,4.055,17.885,5.881.29-1.636.624-3.31,1.015-5.08.452-2.047.824-5.247,1.273-8.8a21.4,21.4,0,0,1-8.058-8.616c-.017-.31-.044-.622-.076-.937a136.869,136.869,0,0,0-17.943-1.989q-.243.444-.475.874a42.6,42.6,0,0,1-1.888,6.421,34.014,34.014,0,0,1-4.56,8.476c-1.119,1.381-2.3,2.887-3.517,4.453a146.592,146.592,0,0,0,6.892,18.082l.882.06a1.892,1.892,0,0,1,1.644-.881,78.53,78.53,0,0,1,9.591.983,1.881,1.881,0,0,1,1.224.738l1.774.119C668.083,236.335,666.034,228.888,663.791,221.73Z" fill="#00bcd4"/>
        <path id="Trazado_110864" data-name="Trazado 110864" d="M740.069,242.264a285.167,285.167,0,0,0-28.834,7.019c2.166-8.248,4.536-17.525,4.936-25.614q.037-.7.051-1.433a60.209,60.209,0,0,0-.288-6.775c-8.855,2.625-15.891,2.964-21.432,2.094-1.918,4.329-4,9.383-6.086,14.057.259,4.342.576,9.439.894,13.956,3.864-.949,7.4-2.507,9.218-5a.83.83,0,0,0,.052-.079l2.573-4.372a.871.871,0,0,1,1.489-.023,2.956,2.956,0,0,1,.113,3.409.925.925,0,0,0-.153.623,10.508,10.508,0,0,1-4.208,9.683c-1.358,1.106-2.925,9.277-5.979,12.21,1.3,2.263,3.24,4.356,5.928,4.182.012,0,3.038-.365,3.246-.378,1.8-.254,3.66-.6,5.56-1.023.174,0,.347-.012.517-.025,0-.031.01-.064.014-.1,16.086-3.684,34.462-12.456,35.508-13.1a14.829,14.829,0,0,0-.238-1.667,27.222,27.222,0,0,0-1.969-5.828C740.467,242.973,740.069,242.264,740.069,242.264Zm-45.534-19.717a5.657,5.657,0,0,0-.054-.585l.27-.287C694.679,221.955,694.608,222.246,694.535,222.547Zm-.092-.8v.028c-.088.016-.193.033-.311.049Z" fill="#00bcd4"/>
        <path id="Trazado_110865" data-name="Trazado 110865" d="M701.589,265.827c-.15.021-.3.046-.452.066A3.42,3.42,0,0,0,701.589,265.827Z" fill="#4b3c4f"/>
        <path id="Trazado_110866" data-name="Trazado 110866" d="M694.443,221.751l-.31.077c.118-.016.223-.033.311-.049Z" fill="#4b3c4f"/>
        <path id="Trazado_110867" data-name="Trazado 110867" d="M694.481,221.962a5.657,5.657,0,0,1,.054.585c.073-.3.144-.592.216-.872Z" fill="#4b3c4f"/>
        <path id="Trazado_110868" data-name="Trazado 110868" d="M670.022,241.549l.276.018-.02-.072Z" fill="#614b68"/>
        <path id="Trazado_110869" data-name="Trazado 110869" d="M647.447,222.409c1.217-1.566,2.4-3.072,3.517-4.453a34.014,34.014,0,0,0,4.56-8.476,42.6,42.6,0,0,0,1.888-6.421q.231-.431.475-.874A130.34,130.34,0,0,0,663.9,190.6c.517-1.257.995-2.528,1.464-3.8-7.427-1.06-10.962-3.726-11.2-3.912q-1.224,2.664-2.294,5.379c-1.112,2.8-3.351,7.656-4.584,10.635-4.213,6.294-7.84,17.773-10.185,22.37a108.4,108.4,0,0,0-4.931,11.047q-.418,1.1-.825,2.238a6.157,6.157,0,0,0-2.827.432c-2.335,1.058-5.275,2.055-6.4,2.026.174.871,1.055,1.284,2.149,1.45l1.378.093a17.336,17.336,0,0,0,1.909-.117c-.039.078-.079.157-.118.237l.03,0a1.9,1.9,0,0,1,1.547-.74,71.982,71.982,0,0,1,8.237.779,6.519,6.519,0,0,0-1.186-2.064C639.7,232.526,643.739,227.183,647.447,222.409Z" fill="#fad4c8"/>
        <path id="Trazado_110870" data-name="Trazado 110870" d="M663.824,163.264l.02.084c-2.528,1.544-4.649,5.262-6.255,9.046a71.844,71.844,0,0,0-3.036,8.922c-.263.972-.4,1.56-.4,1.56l.014.011c.239.186,3.774,2.852,11.2,3.912q.747.106,1.544.19,1.134-2,1.983-3.851c2.657,6.531,6.276,14.385,6.935,21.036.032.315.059.627.076.937a21.4,21.4,0,0,0,8.058,8.616c.656-5.2,1.478-11.162,2.96-15.408.444-3.193,1.391-8.454,1.762-11.446q.359-2.9.868-5.783l-.016-.007s-.542-21.574,7.053-22.762c6.306,1.368,10.23,8.96,6.331,23.535-.529.08-1.043.147-1.542.2-.135,1.35-.278,2.7-.462,4.046-.567,4.142-2.124,9.5-3.151,13.691a42.6,42.6,0,0,1-.213,6.69,34.014,34.014,0,0,1-2.282,9.351q-.379.836-.77,1.717c5.541.87,12.577.531,21.432-2.094.252-.075.505-.152.761-.23,0,0-3.719-17.993-7.594-33.4-.838-3.335-1.684-6.548-2.5-9.433a65.374,65.374,0,0,0-3.789-10.924,5.038,5.038,0,0,0-.621-.938,20.663,20.663,0,0,0-18.532-6.567,3.6,3.6,0,0,1,.247,1.827c-1.689,7.617-8.382,5.55-8.024,2.962a5.711,5.711,0,0,0-.191-2.15l-.25.11a23.564,23.564,0,0,1-4.206,2.475c-.084-.091-.169-.184-.254-.279-1.726.926-3.236,1.823-4.42,2.56C664.851,162.534,663.824,163.264,663.824,163.264Zm16.711,14.416-9.44,1.18-1.18-6.214,9.833-1.258Z" fill="#028d9e"/>
        <path id="Trazado_110871" data-name="Trazado 110871" d="M680.851,146.783a8.438,8.438,0,0,1-1.505,5.439,16.855,16.855,0,0,1-3.674,4.312l.018.07a5.711,5.711,0,0,1,.191,2.15c-.358,2.588,6.335,4.655,8.024-2.962a3.6,3.6,0,0,0-.247-1.827l-.021-.068c-.861-2.86-1.578-5.548-2.126-7.73a3.437,3.437,0,0,1-.671.465C680.844,146.683,680.848,146.734,680.851,146.783Z" fill="#f2beb3"/>
        <path id="Trazado_110873" data-name="Trazado 110873" d="M669.6,152.209a1.319,1.319,0,0,0-.172-.511c-.821-1.654-1.664-3.3-2.5-4.947a1.791,1.791,0,0,0-.182-.28c-.194-.248-.93-.738-.982-.079a.83.83,0,0,0,.092.381,12.125,12.125,0,0,1,1.169,5.362,2.856,2.856,0,0,0,.088.931.717.717,0,0,0,.348.435.792.792,0,0,0,.608-.014C668.573,153.3,669.638,152.882,669.6,152.209Z" fill="#f2beb3"/>
        <path id="Trazado_110874" data-name="Trazado 110874" d="M670.8,147.139a.569.569,0,1,0-.791.148A.569.569,0,0,0,670.8,147.139Z" fill="#4b3c4f"/>
        <path id="Trazado_110875" data-name="Trazado 110875" d="M665.248,149.171a.569.569,0,1,0,.148.791A.569.569,0,0,0,665.248,149.171Z" fill="#4b3c4f"/>
        <path id="Trazado_110876" data-name="Trazado 110876" d="M668.62,144.6a3.446,3.446,0,0,1,3.268-.73c.394.148.564-.482.174-.629a4.028,4.028,0,0,0-3.772.8C667.95,144.274,668.276,144.84,668.62,144.6Z" fill="#dda678"/>
        <path id="Trazado_110877" data-name="Trazado 110877" d="M664.269,146.837c.385-.153.217-.784-.174-.629a2.716,2.716,0,0,0-1.489,1.079,1.433,1.433,0,0,0-.119.3,1.587,1.587,0,0,0-.05.268.28.28,0,0,0,.33.31.363.363,0,0,0,.247-.122.333.333,0,0,0,.076-.188C663.143,147.282,663.807,147.02,664.269,146.837Z" fill="#dda678"/>
        <path id="Trazado_110878" data-name="Trazado 110878" d="M670.337,154.267c-.283.309.177.772.461.462a7.884,7.884,0,0,1,3.884-2.338.326.326,0,0,0-.173-.629A8.5,8.5,0,0,0,670.337,154.267Z" fill="#efb9a8"/>
        <path id="Trazado_110880" data-name="Trazado 110880" d="M681.353,139.852a3.839,3.839,0,0,0-1.7,3.467c.03.416.683.42.653,0a3.18,3.18,0,0,1,1.378-2.9C682.027,140.18,681.7,139.614,681.353,139.852Z" fill="#efb9a8"/>
        <path id="Trazado_110881" data-name="Trazado 110881" d="M679.748,171.388l-9.833,1.258,1.18,6.214,9.439-1.18Z" fill="#fff"/>
        <path id="Trazado_110882" data-name="Trazado 110882" d="M624.156,294.327a69.487,69.487,0,0,1-11.177-1.793c-2.935-.824-4.281-1.8-4.99-3.009a5.522,5.522,0,0,0-1.87,2.709c-.32,1.614,7.478,3.936,9.5,4.164s1.876-1.649,3.49-1.329.714,2.035,3.984,2.683,13.345-.491,16.428-2.8c2.046-1.536,1.4-3.15.732-4.063C638.906,293,634.015,295.322,624.156,294.327Z" fill="#12263f"/>
        <path id="Trazado_110883" data-name="Trazado 110883" d="M612.979,292.534a69.487,69.487,0,0,0,11.177,1.793c9.859.995,14.75-1.328,16.094-3.442a1.694,1.694,0,0,0-.926-2.766c-3.562-1.12-3.825.2-9.8-2.219a10.564,10.564,0,0,1-1.232-.6.755.755,0,0,1-.588.34,1.8,1.8,0,0,0-1.58,1.285c-.313.922-1.78.524-1.464-.4a3.388,3.388,0,0,1,2.154-2.22c-.208-.165-.407-.334-.6-.507a.8.8,0,0,1-.416.177,4.163,4.163,0,0,0-2.988,1.891.76.76,0,0,1-1.312-.767,5.6,5.6,0,0,1,3.533-2.5q-.323-.365-.615-.727a.772.772,0,0,1-.38.117c-1.837.1-3.252,1.364-4.554,2.534-.726.651-1.8-.42-1.075-1.074a10.156,10.156,0,0,1,5-2.908c-.35-.478-.67-.926-.971-1.313-.86-1.105-1.575-1.723-2.443-1.206-2.341,1.393-5.006,3.313-7.047,1.7s-.92-4.628-2.9-3.782c-1.58.677-2.872,7.352-2.9,9.868a8.505,8.505,0,0,0,.334,2.525,5.358,5.358,0,0,0,.5,1.194C608.7,290.733,610.044,291.71,612.979,292.534Z" fill="#ff9d00"/>
        <path id="Trazado_110884" data-name="Trazado 110884" d="M619.487,284.524c1.3-1.17,2.717-2.437,4.554-2.534a.772.772,0,0,0,.38-.117c.571-.365.448-1.445-.38-1.4a6.187,6.187,0,0,0-.633.071,10.156,10.156,0,0,0-5,2.908C617.684,284.1,618.761,285.175,619.487,284.524Z" fill="#fff"/>
        <path id="Trazado_110885" data-name="Trazado 110885" d="M621.5,285.1a.76.76,0,0,0,1.312.767,4.163,4.163,0,0,1,2.988-1.891.8.8,0,0,0,.416-.177c.514-.428.382-1.442-.416-1.342a6.475,6.475,0,0,0-.767.145A5.6,5.6,0,0,0,621.5,285.1Z" fill="#fff"/>
        <path id="Trazado_110886" data-name="Trazado 110886" d="M624.664,286.524c-.316.928,1.151,1.326,1.464.4a1.8,1.8,0,0,1,1.58-1.285.755.755,0,0,0,.588-.34.722.722,0,0,0-.588-1.179,3.728,3.728,0,0,0-.89.18A3.388,3.388,0,0,0,624.664,286.524Z" fill="#fff"/>
        <path id="Trazado_110887" data-name="Trazado 110887" d="M476.005,302.167a2.26,2.26,0,0,0,2.585.147l1.112-.589c.917-.487,1.254-1.35.749-1.917l-.37-.417-6.746-.224Z" fill="#727997"/>
        <path id="Trazado_110888" data-name="Trazado 110888" d="M473.926,295.233l-1.111.59c-.06.032-.118.066-.173.1l4.458.118-.588-.661A2.263,2.263,0,0,0,473.926,295.233Z" fill="#4b3d51"/>
        <path id="Trazado_110889" data-name="Trazado 110889" d="M576.214,274.247a.975.975,0,0,1-.887,1.057l-1.834.16a4.886,4.886,0,0,0-.657.1,2.1,2.1,0,0,0,1.751.815c3.187.111,6.53.126,8.68.121a3.186,3.186,0,0,0,3.03-1.827l.022-.077c.28-.989-.586-1.792-1.935-1.817-3.154-.058-9.334-.149-9.8.022a4.154,4.154,0,0,0-1.134.705l1.709-.15A.975.975,0,0,1,576.214,274.247Z" fill="#12263f"/>
        <path id="Trazado_110890" data-name="Trazado 110890" d="M463.876,278.816l-5.348,7.594a27.326,27.326,0,0,1,4.723,2.366l6.484-9.4,69.3,15.027c-.752.993-1.564,2.11-2.3,3.216l-59.64-1.581-4.458-.118-5.212-.139a6.72,6.72,0,0,1-1.412,3.138l7.317.244,6.746.224L534.7,301.21a3.724,3.724,0,0,0-.383,1.675,1.826,1.826,0,0,0,.653,1.241,4.71,4.71,0,0,0,2.876.785,2.913,2.913,0,0,0,.384-.021,2.815,2.815,0,0,0,1.961-1.078c1.744-2.57,6.425-9.482,8.459-12.656a1.6,1.6,0,0,0,.114-.216,5.145,5.145,0,0,1-.735-.122c-1.9-.492-4.853-.853-4.869-1.7a2.189,2.189,0,0,0-.753.733l-.616,1.051c-.025.041-.051.082-.079.122l-69.5-15.245,3.831-5.551c-1.158-.027-2.311-.034-3.416-.014a13.429,13.429,0,0,1-2.56-.2l-4.171,5.922-11.939.177a23.074,23.074,0,0,1-.588,2.66Z" fill="#12263f"/>
        <path id="Trazado_110891" data-name="Trazado 110891" d="M462.265,289.8a27.46,27.46,0,0,0-4.561-2.222l-1.569,2.228A12.183,12.183,0,0,1,462.265,289.8Z" fill="#cecece"/>
        <path id="Trazado_110892" data-name="Trazado 110892" d="M459.174,299.757c3.162-1.129,4.951-3.723,3.995-5.794s-4.294-2.835-7.456-1.707-4.951,3.723-4,5.794S456.012,300.885,459.174,299.757Z" fill="#727997"/>
        <path id="Trazado_110893" data-name="Trazado 110893" d="M463.414,301.212a9.987,9.987,0,0,0,2.6-2.289,6.72,6.72,0,0,0,1.412-3.138,5.312,5.312,0,0,0-.208-2.458,9.034,9.034,0,0,0-3.971-4.551,27.326,27.326,0,0,0-4.723-2.366q-1.179-.474-2.522-.931c-1.479-.5-3.076-.984-4.766-1.449q-.336.629-.7,1.251c1.79.487,3.474.989,5.022,1.516q1.135.387,2.147.784a27.46,27.46,0,0,1,4.561,2.222,12.183,12.183,0,0,0-6.13.006,13.929,13.929,0,0,0-1.362.41,12.511,12.511,0,0,0-3.767,2.1,2.1,2.1,0,0,1-.547.486c-.152.146-.3.294-.437.445v7.674c.105.084.213.166.325.244l-.325-.075v1.425a25.764,25.764,0,0,0,5.685.694A14.334,14.334,0,0,0,463.414,301.212Zm-7.7-8.956c3.162-1.128,6.5-.364,7.456,1.707s-.833,4.665-3.995,5.794-6.5.364-7.456-1.707S452.551,293.385,455.713,292.256Z" fill="#b0c0d2"/>
        <path id="Trazado_110894" data-name="Trazado 110894" d="M472.632,270.216c1.105-.02,2.258-.013,3.416.014,5.764.135,11.68.787,12.673,1.316,1.193.635,6.77-1.709,4.815-3.6s-22.943-7.605-25.293-7.238c-.13.02-.265.045-.4.074-4.241.895-6.281,4.69-3.661,6.657a13.846,13.846,0,0,0,5.893,2.583A13.429,13.429,0,0,0,472.632,270.216Z" fill="#727997"/>
        <path id="Trazado_110895" data-name="Trazado 110895" d="M451.24,284.03c.4-.758.771-1.522,1.094-2.291a25.582,25.582,0,0,0,1.04-2.963,23.074,23.074,0,0,0,.588-2.66,20.081,20.081,0,0,0-1.58-11.723,21.122,21.122,0,0,0-2.36-3.917v25.638q.264-.416.513-.833Q450.906,284.66,451.24,284.03Z" fill="#4b3d51"/>
        <path id="Trazado_110896" data-name="Trazado 110896" d="M554.185,321.885c-3.02-6.545-9.393-11.377-18.04-13.726-1.08,1.689-2.283,3.565-3.548,5.532.185.039.371.076.555.118,7.547,1.728,13.015,5.52,15.394,10.678a14.257,14.257,0,0,1,.814,9.471h6.345A20.121,20.121,0,0,0,554.185,321.885Z" fill="#727997"/>
        <path id="Trazado_110897" data-name="Trazado 110897" d="M507.372,315.8a50.1,50.1,0,0,1,16.726-2.978,42.663,42.663,0,0,1,5.116.307l3.659-5.719a53.748,53.748,0,0,0-27.589,2.541,52.2,52.2,0,0,0-16.159,9.149,34.853,34.853,0,0,0-9.7,12.729c-.3.709-.56,1.419-.788,2.129h6.635C488.6,326.333,496.835,319.56,507.372,315.8Z" fill="#727997"/>
        <path id="Trazado_110898" data-name="Trazado 110898" d="M536.145,308.159l2.089-3.269a2.913,2.913,0,0,1-.384.021,4.71,4.71,0,0,1-2.876-.785l-2.1,3.284-3.659,5.719-13.326,20.829h3.422c3.4-4.969,8.744-13.2,13.287-20.267C533.862,311.724,535.065,309.848,536.145,308.159Z" fill="#12263f"/>
        <path id="Trazado_110899" data-name="Trazado 110899" d="M548.033,290.818a5.145,5.145,0,0,0,.735.122,40.682,40.682,0,0,0,6.215-.149,2.905,2.905,0,0,0,2.322-1.355l.517-1.031a1.138,1.138,0,0,0,.012-1.1l2.056-4.177a13.983,13.983,0,0,0,10.47-6.075,4.222,4.222,0,0,1,2.476-1.489,4.886,4.886,0,0,1,.657-.1l1.834-.16a.976.976,0,0,0-.17-1.944l-1.709.15-.125.011a6.3,6.3,0,0,0-4.559,2.414,12.035,12.035,0,0,1-9.734,5.287c-1.956.037-3.253-.337-3.65-1.049-.433-.778.093-2.108.729-3.093a2.169,2.169,0,0,0,.218-2.074,2.537,2.537,0,0,0-1.985-1.4l-1.154-.2a1.45,1.45,0,0,1-.106.423l-.032.076a2.653,2.653,0,0,1-1.27,1.235c.482.089,1.185.208,2.235.387a.732.732,0,0,1,.526.261c.023.053-.022.154-.071.231-1.24,1.92-1.53,3.779-.794,5.1a3.774,3.774,0,0,0,2.375,1.716l-1.828,3.332-6.759-1.127A3.021,3.021,0,0,0,544.4,286.4l-1.2,2.522a.43.43,0,0,0-.044.194C543.18,289.965,546.13,290.326,548.033,290.818Z" fill="#12263f"/>
        <path id="Trazado_110900" data-name="Trazado 110900" d="M553.05,273.908l.032-.076a1.45,1.45,0,0,0,.106-.423c.076-.8-.618-1.457-1.737-1.56-3.066-.285-9.077-.82-9.557-.68a4.373,4.373,0,0,0-1.715,1.087c-1.006,1.1-.372,2.371,1.218,2.547,3.091.341,6.346.6,8.443.744a3.776,3.776,0,0,0,1.94-.4A2.653,2.653,0,0,0,553.05,273.908Z" fill="#12263f"/>
        <path id="Trazado_110901" data-name="Trazado 110901" d="M451.006,292.32a1.113,1.113,0,0,0,.252-.937l-1.236-5.131v6.777a2.676,2.676,0,0,0,.437-.223A2.1,2.1,0,0,0,451.006,292.32Z" fill="#4b3d51"/>
        <path id="Trazado_110902" data-name="Trazado 110902" d="M482.381,191.926c.118-.8.883-1,1.826-.925a30.584,30.584,0,0,1-2.244-2.446c2.413-1.3,15.087-8.11,18.892-9.587.258-.1.477-.178.648-.226a11.393,11.393,0,0,0-2.821-5.794,7.787,7.787,0,0,0-1.946-1.456,9.409,9.409,0,0,0-5.808-.819,21.9,21.9,0,0,0-6.706,2.275c-.444.224-.9.462-1.361.721-12.322,6.858-1.626,14.861-1.306,15.1-3.092,1.681-7.875,4.55-8.193,6.377-.472,2.714,5.133,4.366,8.732,3.009a11.85,11.85,0,0,0,3.875-2.962C484.054,194.535,482.214,193.053,482.381,191.926Zm11.689-11.473s-1.593-4.365,1.593-5.073a3.821,3.821,0,0,1,4.365,2.36Z" fill="#00bcd4"/>
        <path id="Trazado_110903" data-name="Trazado 110903" d="M639.7,239.5a1.887,1.887,0,0,1,.484,1.594c-.032.2-.066.408-.1.628,4.843.578,9.677,1.222,14.137,1.855a14.143,14.143,0,0,1,.9-2.846,1.726,1.726,0,0,1,.1-.184l-.882-.06Z" fill="#e95500"/>
        <path id="Trazado_110904" data-name="Trazado 110904" d="M625.651,238.557l-1.378-.093-1.94-.131-7.384-.5a1.712,1.712,0,0,0-1.824,1.613l-.007.121c1.561.021,3.15.075,4.724.175l.027.015c2.722.109,5.73.312,8.9.582a9.929,9.929,0,0,1,.5-1.336,1.87,1.87,0,0,1,.2-.325l-.03,0Z" fill="#e95500"/>
        <path id="Trazado_110905" data-name="Trazado 110905" d="M674.466,246.816c.624.053,1.463.091,2.454.1.049-.142.077-.22.077-.22h0c.09-.847.326-2.89.667-4.63l-1.161-.078c-1.68.509-3.563.768-4.258-.288l-1.947-.131-.276-.018-.568-.039-1.774-.119a1.887,1.887,0,0,1,.353,1.438c-.123.754-.276,1.7-.444,2.781C670.982,246.163,673.432,246.6,674.466,246.816Z" fill="#e95500"/>
        <path id="Trazado_110906" data-name="Trazado 110906" d="M639.039,248.561l14.276.963a54.61,54.61,0,0,1,.907-5.943c-4.46-.633-9.294-1.277-14.137-1.855C639.8,243.456,639.419,245.917,639.039,248.561Z" fill="#d08d83"/>
        <path id="Trazado_110907" data-name="Trazado 110907" d="M698.394,249.813a10.508,10.508,0,0,0,4.208-9.683.925.925,0,0,1,.153-.623,2.956,2.956,0,0,0-.113-3.409.871.871,0,0,0-1.489.023l-2.573,4.372a.83.83,0,0,1-.052.079c-1.818,2.489-5.354,4.047-9.218,5q-.63.155-1.27.287a17.442,17.442,0,0,1-.541,1.937l-1.9,7.079a2.037,2.037,0,0,1-1.078,1.289c-1.937.9-.387-3.863.565-6.437-.086.024-.173.047-.259.067l-2.695,7.926a1.061,1.061,0,0,1-.873.721c-1.992.212.064-6.039,1.005-8.648q-.274-.054-.543-.126l-.987,3.062a1.686,1.686,0,0,1,.011.427l-.571,5.427c2.841,2.187,6.735,4.245,10.326,4.443a.846.846,0,0,0,.225-.017,3.6,3.6,0,0,0,1.693-.982C695.469,259.09,697.036,250.919,698.394,249.813Z" fill="#d08d83"/>
        <path id="Trazado_110908" data-name="Trazado 110908" d="M679.337,248.694c-.2-.1-.383-.212-.56-.317l-.849,2.806.6.041C678.958,249.776,679.334,248.7,679.337,248.694Z" fill="#d08d83"/>
        <path id="Trazado_110909" data-name="Trazado 110909" d="M676.92,246.914c-.991-.007-1.83-.045-2.454-.1-1.034-.218-3.484-.653-6.877-1.206-.225,1.433-.476,3.093-.725,4.827l8.761.591C676.149,249.177,676.718,247.5,676.92,246.914Z" fill="#d08d83"/>
        <path id="Trazado_110910" data-name="Trazado 110910" d="M485.18,254.75c3.834,5.607,15.833,10.118,27.873,13.873a12.33,12.33,0,0,1,.9-6.7q-.675-.465-1.335-.953c-3.245-2.4-9.98-9.312-15.778-13.1a39.285,39.285,0,0,0,2.995-5.365c-5.809-2.988-11.027-5.9-13.181-7.111C483.868,243.313,481.981,251.78,485.18,254.75Z" fill="#d08d83"/>
        <path id="Trazado_110911" data-name="Trazado 110911" d="M540.741,253.645l.093-.067-.172-.042C540.711,253.6,540.741,253.645,540.741,253.645Z" fill="#4b3c4f"/>
        <path id="Trazado_110912" data-name="Trazado 110912" d="M612,248.474a1.712,1.712,0,0,1,1.824-1.613l11.657.786a42.644,42.644,0,0,1,1.285-7.306c-3.171-.27-6.179-.473-8.9-.582l-.027-.015c-1.574-.1-3.163-.154-4.724-.175-1.806-.024-3.573-.005-5.234.042a19.9,19.9,0,0,1-1.858,15.872c1.708-.31,3.408-.656,4.969-1.034l.161,0c.155.151.321.3.494.441Z" fill="#d08d83"/>
        <path id="Trazado_110913" data-name="Trazado 110913" d="M607.884,239.611q-.253-.826-.592-1.675c-4.922-.663-11.218-1.493-17.546-2.321,3.277-2.309,7.254-5.148,11.459-8.234a27.455,27.455,0,0,0-.921-3.379,33.365,33.365,0,0,0-9.415-13.776,25.685,25.685,0,0,0-2.6-2.065s-7.71,5.736-13.93,10.433c1.963,7.8-4.391,30.951-11.743,36.24l40.729,4.429a19.648,19.648,0,0,0,2.7-3.78A19.9,19.9,0,0,0,607.884,239.611Z" fill="#0b648d"/>
        <path id="Trazado_110914" data-name="Trazado 110914" d="M574.338,218.594a4.138,4.138,0,0,0-1.061-2.071c-.63-.576-3.794-.428-4.712-.559-9.181-1.316-18.388-3.076-26.982-6.667l-.334-.141c-8.694-3.689-14.578-10.045-20.822-16.911a7.735,7.735,0,0,0-9.809-1.762,30.457,30.457,0,0,0-3.461,2.818,12.831,12.831,0,0,1,.562,3.53c.014,1.251-1.007,2.27-2.585,2.978a6.256,6.256,0,0,1-1.476,7.287c-.067.06-.135.117-.2.172a3.3,3.3,0,0,1-5.207-1.673c-.273-.9-.669-1.939-1.1-2.969-2.017,3.007-5.606,8.439-6.368,12.757-.026.145-.048.288-.068.428-1.62,4.7-3.823,13.048-5.108,18.995,0,0,.375.214,1.047.593,2.154,1.215,7.372,4.123,13.181,7.111q.863.442,1.738.887c.674-.808,2.523-3.664,4.67-7.08a89.19,89.19,0,0,0,34.422,17.219l.172.042a83.388,83.388,0,0,0,18.767,2.34,5.042,5.042,0,0,0,2.994-1.084C569.947,249.545,576.3,226.392,574.338,218.594ZM522.2,198.417s9.557,5.132,8.849,9.38-10.795.177-13.981-2.124Z" fill="#12263f"/>
        <path id="Trazado_110915" data-name="Trazado 110915" d="M503.455,207.268c.068-.055.136-.112.2-.172a6.256,6.256,0,0,0,1.476-7.287,16.477,16.477,0,0,1-8.846.858c.286.624.58,1.29.86,1.959.431,1.03.827,2.067,1.1,2.969A3.3,3.3,0,0,0,503.455,207.268Z" fill="#b26b5e"/>
        <path id="Trazado_110916" data-name="Trazado 110916" d="M505.134,199.809c1.578-.708,2.6-1.727,2.585-2.978a12.831,12.831,0,0,0-.562-3.53,14.91,14.91,0,0,0-1.761-3.837l-.075.038c-.1.052-.308.154-.593.291.014.019.028.038.041.058a.684.684,0,0,1,.118.521.714.714,0,0,1-.376.431c-.445.246-1.4.759-1.884.315a1.027,1.027,0,0,1-.212-.3c-.415.171-.856.343-1.309.509a51.289,51.289,0,0,1-9.971,1.953,4.815,4.815,0,0,0-1.131.191,1.952,1.952,0,0,1-1.962,2.043c.583,1.606,2.162,3.7,7.072,4.911q.579.143,1.174.241A16.477,16.477,0,0,0,505.134,199.809Zm-7.7-6.033a7,7,0,0,1,3.854-.414c.4.066.227.668-.166.6a6.406,6.406,0,0,0-3.522.414C497.229,194.531,497.068,193.926,497.436,193.776Z"/>
        <path id="Trazado_110917" data-name="Trazado 110917" d="M504.121,189.211a12.167,12.167,0,0,1-3.334-4.17.844.844,0,0,0-.231-.3c-.528-.371-.6.466-.532.759a1.763,1.763,0,0,0,.1.306c.738,1.625,1.47,3.254,2.221,4.874.022.048.045.1.069.142a1.027,1.027,0,0,0,.212.3c.485.444,1.439-.069,1.884-.315a.714.714,0,0,0,.376-.431.684.684,0,0,0-.118-.521c-.013-.02-.027-.039-.041-.058A3.042,3.042,0,0,0,504.121,189.211Z" fill="#b26b5e"/>
        <path id="Trazado_110918" data-name="Trazado 110918" d="M498.672,188.365a.566.566,0,0,0-.506-.6.525.525,0,0,0-.587.48.565.565,0,0,0,.506.6A.523.523,0,0,0,498.672,188.365Z" fill="#4b3d51"/>
        <path id="Trazado_110919" data-name="Trazado 110919" d="M503.467,186.683a.523.523,0,0,0,.587-.479.566.566,0,0,0-.506-.6.525.525,0,0,0-.587.48A.566.566,0,0,0,503.467,186.683Z" fill="#4b3d51"/>
        <path id="Trazado_110920" data-name="Trazado 110920" d="M495.325,188.116a1.706,1.706,0,0,1,1.037-1.44,8.55,8.55,0,0,1,1.7-.828c.375-.125.214-.722-.164-.6a8.28,8.28,0,0,0-2.307,1.2,2.016,2.016,0,0,0-.881,1.665C494.687,188.512,495.3,188.511,495.325,188.116Z" fill="#844f4f"/>
        <path id="Trazado_110921" data-name="Trazado 110921" d="M503.7,183.856a1.664,1.664,0,0,0-.368-.068,3.944,3.944,0,0,0-1.366.223.309.309,0,0,0,.164.6,2.459,2.459,0,0,1,1.406-.155.494.494,0,0,0,.071.014A.312.312,0,0,0,503.7,183.856Z" fill="#844f4f"/>
        <path id="Trazado_110922" data-name="Trazado 110922" d="M490,193.472a4.815,4.815,0,0,1,1.131-.191,51.289,51.289,0,0,0,9.971-1.953c.453-.166.894-.338,1.309-.509-.024-.047-.047-.094-.069-.142-.751-1.62-1.483-3.249-2.221-4.874a1.763,1.763,0,0,1-.1-.306c-.07-.293,0-1.13.532-.759a.844.844,0,0,1,.231.3,12.167,12.167,0,0,0,3.334,4.17,3.042,3.042,0,0,1,.607.582c.285-.137.49-.239.593-.291-.49-1.692-1.058-3.4-1.71-5.037a.494.494,0,0,1-.071-.014,2.459,2.459,0,0,0-1.406.155.309.309,0,0,1-.164-.6,3.944,3.944,0,0,1,1.366-.223,30.854,30.854,0,0,0-2.481-4.82c-3.805,1.477-16.479,8.286-18.892,9.587A30.584,30.584,0,0,0,484.207,191c-.943-.078-1.708.122-1.826.925-.167,1.127,1.673,2.609,3.588,3.264a5.357,5.357,0,0,0,2.073.325A1.952,1.952,0,0,0,490,193.472Zm13.544-7.866a.566.566,0,0,1,.506.6.523.523,0,0,1-.587.479.566.566,0,0,1-.506-.6A.525.525,0,0,1,503.548,185.606Zm-5.969,2.642a.525.525,0,0,1,.587-.48.566.566,0,0,1,.506.6.523.523,0,0,1-.587.48A.565.565,0,0,1,497.579,188.248Zm-1.99-1.8a8.28,8.28,0,0,1,2.307-1.2c.378-.127.539.47.164.6a8.55,8.55,0,0,0-1.7.828,1.706,1.706,0,0,0-1.037,1.44c-.021.4-.638.4-.617,0A2.016,2.016,0,0,1,495.589,186.451Zm-11.4,6.425c-.382.13-.545-.474-.166-.6a3.812,3.812,0,0,1,3.681.712c.312.255-.133.694-.442.442A3.17,3.17,0,0,0,484.184,192.876Z" fill="#d08d83"/>
        <path id="Trazado_110923" data-name="Trazado 110923" d="M487.257,193.427c.309.252.754-.187.442-.442a3.812,3.812,0,0,0-3.681-.712c-.379.129-.216.733.166.6A3.17,3.17,0,0,1,487.257,193.427Z" fill="#ebb6a5"/>
        <path id="Trazado_110924" data-name="Trazado 110924" d="M497.6,194.379a6.406,6.406,0,0,1,3.522-.414c.393.065.563-.537.166-.6a7,7,0,0,0-3.854.414C497.068,193.926,497.229,194.531,497.6,194.379Z" fill="#ebb6a5"/>
        <path id="Trazado_110925" data-name="Trazado 110925" d="M513.053,268.623c.032.175.068.351.111.528,1.106.257,1.81.453,2.256.594,1.173,1.353,3.252,2.41,6.9,2.381l6.544.368a1.822,1.822,0,0,0,1.4-.554c1.309-1.392-3.172-1.411-5.625-1.324.045-.067.089-.134.13-.2l7.486-.067a.951.951,0,0,0,.857-.54c.738-1.631-5.147-1.637-7.625-1.569.02-.165.035-.331.045-.5l8.058.055a.817.817,0,0,0,.773-.514c.741-2.01-8.965-1.836-8.987-1.835q-.052-.294-.113-.564l7.515.186a1.308,1.308,0,0,0,1.063-.484c1.5-1.928-9.508-1.686-9.508-1.686h0c-.82-.177-2.92-.61-4.587-.785,1.176-1.438,2.676-3.7,1.564-4.776a19.644,19.644,0,0,1-4.623,3.825,4.405,4.405,0,0,0-.949.845l-1.552-.577s-.093.178-.228.495A12.33,12.33,0,0,0,513.053,268.623Z" fill="#12263f"/>
        <path id="Trazado_110926" data-name="Trazado 110926" d="M653.315,249.524l-14.276-.963c-.589,4.1-1.16,8.644-1.286,11.556a1.88,1.88,0,0,1-.27.892l15.287.845a1.88,1.88,0,0,1-.168-.831C652.67,258.575,652.852,253.9,653.315,249.524Z" fill="#e95500"/>
        <path id="Trazado_110927" data-name="Trazado 110927" d="M625.485,247.647l-11.657-.786A1.712,1.712,0,0,0,612,248.474l-.354,6.42-.164,2.964a1.712,1.712,0,0,0,1.614,1.8l11.927.659a1.885,1.885,0,0,1-.271-1.027C624.825,256.817,625.01,252.066,625.485,247.647Z" fill="#e95500"/>
        <path id="Trazado_110928" data-name="Trazado 110928" d="M680.742,253.152a1.686,1.686,0,0,0-.011-.427l-1.778,5.516a.915.915,0,0,1-.817.64c-1.62.056-.5-4.622.4-7.657l-.6-.041-1.586,5.239a1.458,1.458,0,0,1-.887.959c-1.5.537-.732-3.162.17-6.353l-8.761-.591c-.581,4.066-1.141,8.533-1.265,11.411a1.868,1.868,0,0,1-.171.706l12.615.7a1.712,1.712,0,0,0,1.8-1.529l.331-3.144Z" fill="#e95500"/>
        <path id="Trazado_110929" data-name="Trazado 110929" d="M639.039,248.561c.38-2.644.766-5.105,1.046-6.835.036-.22.07-.432.1-.628a1.9,1.9,0,0,0-1.577-2.176c-.4-.063-.86-.132-1.354-.2a71.982,71.982,0,0,0-8.237-.779,1.9,1.9,0,0,0-1.547.74,1.87,1.87,0,0,0-.2.325,9.929,9.929,0,0,0-.5,1.336,42.644,42.644,0,0,0-1.285,7.306c-.475,4.419-.66,9.17-.729,11.646a1.9,1.9,0,0,0,1.676,1.933,94.135,94.135,0,0,0,9.436.7,1.894,1.894,0,0,0,1.885-1.808C637.879,257.2,638.45,252.665,639.039,248.561Z" fill="#fff"/>
        <path id="Trazado_110930" data-name="Trazado 110930" d="M666.864,250.437c.249-1.734.5-3.394.725-4.827.168-1.077.321-2.027.444-2.781a1.9,1.9,0,0,0-1.577-2.176,78.53,78.53,0,0,0-9.591-.983,1.892,1.892,0,0,0-1.644.881,1.726,1.726,0,0,0-.1.184,14.143,14.143,0,0,0-.9,2.846,54.61,54.61,0,0,0-.907,5.943c-.463,4.377-.645,9.051-.713,11.5a1.9,1.9,0,0,0,1.676,1.934,93.846,93.846,0,0,0,9.436.7,1.887,1.887,0,0,0,1.714-1.1,1.868,1.868,0,0,0,.171-.706C665.723,258.97,666.283,254.5,666.864,250.437Z" fill="#fff"/>
        <path id="Trazado_110931" data-name="Trazado 110931" d="M495.663,175.38c-3.186.708-1.593,5.073-1.593,5.073l5.958-2.713A3.821,3.821,0,0,0,495.663,175.38Z" fill="#d08d83"/>
        <path id="Trazado_110932" data-name="Trazado 110932" d="M531.044,207.8c.708-4.248-8.849-9.38-8.849-9.38l-5.132,7.256C520.249,207.974,530.336,212.044,531.044,207.8Z" fill="#81d4fa"/>
        <path id="Trazado_110933" data-name="Trazado 110933" d="M701.38,182.06c.5-.057,1.013-.124,1.542-.2,3.9-14.575-.025-22.167-6.331-23.535-7.6,1.188-7.053,22.762-7.053,22.762l.016.007C689.833,181.21,693.924,182.9,701.38,182.06Z" fill="#aed0e0"/>
        <path id="Trazado_110934" data-name="Trazado 110934" d="M697.554,206.487a42.6,42.6,0,0,0,.213-6.69c1.027-4.189,2.584-9.549,3.151-13.691.184-1.346.327-2.7.462-4.046-7.456.841-11.547-.85-11.826-.97q-.515,2.886-.868,5.783c-.371,2.992-1.318,8.253-1.762,11.446-1.482,4.246-2.3,10.209-2.96,15.408-.449,3.557-.821,6.757-1.273,8.8-.391,1.77-.725,3.444-1.015,5.08-.548,3.1-.933,6.05-1.216,9.226a6.141,6.141,0,0,0-2.628,1.129c-1.994,1.611-4.589,3.314-5.682,3.569a1.512,1.512,0,0,0,.095.163c.7,1.056,2.578.8,4.258.288.446-.135.877-.288,1.268-.438-.037.168-.072.341-.107.516-.341,1.74-.577,3.783-.667,4.63h0s-.028.078-.077.22c-.2.584-.771,2.263-1.295,4.114-.9,3.191-1.666,6.89-.17,6.353a1.458,1.458,0,0,0,.887-.959l1.586-5.239.849-2.806c.177.1.364.212.56.317,0,.008-.379,1.082-.806,2.53-.9,3.035-2.015,7.713-.4,7.657a.915.915,0,0,0,.817-.64l1.778-5.516.987-3.062q.268.072.543.126c-.941,2.609-3,8.86-1.005,8.648a1.061,1.061,0,0,0,.873-.721l2.695-7.926c.086-.02.173-.043.259-.067-.952,2.574-2.5,7.339-.565,6.437a2.037,2.037,0,0,0,1.078-1.289l1.9-7.079a17.442,17.442,0,0,0,.541-1.937c.966-4.478-.666-6.887-2.482-8.174.944-1.872,1.9-3.931,2.858-6.069,2.089-4.674,4.168-9.728,6.086-14.057q.39-.88.77-1.717A34.014,34.014,0,0,0,697.554,206.487Z" fill="#fad4c8"/>
        <path id="Trazado_110935" data-name="Trazado 110935" d="M728.9,283.021l-.006.007c1.748.612,2.655,3.81,3.105,7.6a9.125,9.125,0,0,1,5.245,3.174c3.563,5.123,3.433,9.906,4.558,14.249a41.142,41.142,0,0,0-7.89.843c-.634.137-1.318.259-2.045.367a24,24,0,0,1-1.127,4.935,84.2,84.2,0,0,1,13.644-.745,13.943,13.943,0,0,0,1.757,1.823,12.141,12.141,0,0,0,2.495,1.678v-9.641c-2.714-5.021-.505-12.641-6.572-19.151C738.716,284.563,733.525,283.319,728.9,283.021Z" fill="#12263f"/>
        <path id="Trazado_110936" data-name="Trazado 110936" d="M679.385,304.384c-2.288-1.363-6.623-2.4-5.891-7.329a8.522,8.522,0,0,1,2.9-5.188,17.03,17.03,0,0,1,4.795-2.912c.948-3.507,2.16-5.932,3.362-6.144,0,0-10.03-.738-15.95,10.988-2.886,5.716,2.06,14.528,8.247,16.176,1.244.331,2.289.591,3.169.792a38.311,38.311,0,0,1-.618-6.367Z" fill="#12263f"/>
        <path id="Trazado_110937" data-name="Trazado 110937" d="M732.2,305.241a93.951,93.951,0,0,0-.2-14.616c-.45-3.787-1.357-6.985-3.105-7.6,0,0,1.379,8.133-1.615,8.369-.46.036-1.747.046-3.6.035l-.008.52a1.254,1.254,0,0,1-1.276,1.235l-.955-.017a1.253,1.253,0,0,1-1.232-1.235l-.009-.54c-7.85-.11-20.257-.426-27.888-.784l-.01.632a1.253,1.253,0,0,1-1.275,1.235l-.956-.017a1.253,1.253,0,0,1-1.232-1.235l-.012-.8a15.284,15.284,0,0,1-3.219-.364c-.867-.709-1.064-7.247-1.064-7.247-1.2.212-2.414,2.637-3.362,6.144A58.457,58.457,0,0,0,679.4,304.4a38.311,38.311,0,0,0,.618,6.367c.024.122.047.244.072.365a9.178,9.178,0,0,0,8.2,6.185c10.81.309,36.5.955,39.661.211,1.272-.3,2.165-1.641,2.791-3.335a24,24,0,0,0,1.127-4.935A40.1,40.1,0,0,0,732.2,305.241Zm-40.479-5.981c1.005.005,29.858.194,29.858.194s1.923,11.316-.791,12.745c-2.351,1.238-20.156,1.232-26.545.118a4.266,4.266,0,0,1-3.393-3.114C690.11,306.366,690.663,302.359,691.724,299.26Z" fill="#aed0e0"/>
        <path id="Trazado_110938" data-name="Trazado 110938" d="M690.853,309.2a4.266,4.266,0,0,0,3.393,3.114c6.389,1.114,24.194,1.12,26.545-.118,2.714-1.429.791-12.745.791-12.745s-28.853-.189-29.858-.194C690.663,302.359,690.11,306.366,690.853,309.2Z" fill="#cdedfc"/>
        <path id="Trazado_110939" data-name="Trazado 110939" d="M685.611,290.058a15.284,15.284,0,0,0,3.219.364l-.009-.624a1.253,1.253,0,0,1,1.3-1.272l1,.034a1.253,1.253,0,0,1,1.212,1.272l-.012.779c7.631.358,20.038.674,27.888.784l-.013-.888a1.255,1.255,0,0,1,1.3-1.272l1,.033a1.255,1.255,0,0,1,1.213,1.273l-.014.891c1.849.011,3.136,0,3.6-.035,2.994-.236,1.615-8.369,1.615-8.369l.006-.007c.057-.1.17-1.106-20.919-1.707-22.134-.63-23.434,1.5-23.434,1.5S684.744,289.349,685.611,290.058Z" fill="#cdedfc"/>
        <path id="Trazado_110940" data-name="Trazado 110940" d="M691.115,288.56l-1-.034a1.253,1.253,0,0,0-1.3,1.272l.009.624.012.8a1.253,1.253,0,0,0,1.232,1.235l.956.017a1.253,1.253,0,0,0,1.275-1.235l.01-.632.012-.779A1.253,1.253,0,0,0,691.115,288.56Z" fill="#12263f"/>
        <path id="Trazado_110941" data-name="Trazado 110941" d="M722.484,289.268l-1-.033a1.255,1.255,0,0,0-1.3,1.272l.013.888.009.54a1.253,1.253,0,0,0,1.232,1.235l.955.017a1.254,1.254,0,0,0,1.276-1.235l.008-.52.014-.891A1.255,1.255,0,0,0,722.484,289.268Z" fill="#12263f"/>
        <path id="Trazado_110872" data-name="Trazado 110872" d="M675.44,156.714c.079-.06.157-.12.232-.18a16.855,16.855,0,0,0,3.674-4.312,8.438,8.438,0,0,0,1.505-5.439c0-.049-.007-.1-.011-.151a3.437,3.437,0,0,0,.671-.465,6.641,6.641,0,0,0,1.771-5.467,2.945,2.945,0,0,0-1.262-2.385c-1.51-.754-2.548,1.963-3.048,3.727a2.77,2.77,0,0,1-4.4-2.421,2.77,2.77,0,0,1-3.4-2.9,2.76,2.76,0,0,1-.443-.061,2.766,2.766,0,0,1-3.271,1.907,2.77,2.77,0,0,1-3.1,3.331,2.762,2.762,0,0,1-3.115,2.368,27.965,27.965,0,0,0,1.364,3.02,2.716,2.716,0,0,1,1.489-1.079c.391-.155.559.476.174.629-.462.183-1.126.445-1.179,1.023a.333.333,0,0,1-.076.188,61.192,61.192,0,0,0,7.966,10.862c.085.1.17.188.254.279A23.564,23.564,0,0,0,675.44,156.714Zm-.931-4.952a.326.326,0,0,1,.173.629,7.884,7.884,0,0,0-3.884,2.338c-.284.31-.744-.153-.461-.462A8.5,8.5,0,0,1,674.509,151.762Zm-4.495-4.475a.569.569,0,1,1,.791-.148A.568.568,0,0,1,670.014,147.287Zm11.668-6.872a3.18,3.18,0,0,0-1.378,2.9c.03.42-.623.416-.653,0a3.839,3.839,0,0,1,1.7-3.467C681.7,139.614,682.027,140.18,681.682,140.415Zm-13.392,3.619a4.028,4.028,0,0,1,3.772-.8c.39.147.22.777-.174.629a3.446,3.446,0,0,0-3.268.73C668.276,144.84,667.95,144.274,668.29,144.034Zm-2.894,5.928a.569.569,0,1,1-.148-.791A.57.57,0,0,1,665.4,149.962Zm2.067,3.539a.717.717,0,0,1-.348-.435,2.856,2.856,0,0,1-.088-.931,12.125,12.125,0,0,0-1.169-5.362.83.83,0,0,1-.092-.381c.052-.659.788-.169.982.079a1.791,1.791,0,0,1,.182.28c.835,1.648,1.678,3.293,2.5,4.947a1.319,1.319,0,0,1,.172.511c.037.673-1.028,1.088-1.53,1.278A.792.792,0,0,1,667.463,153.5Z" fill="#fad4c8"/>
        <text id="AMBULANCIA" transform="translate(595.828 134.343)" fill="#12263f" font-size="16" font-family="Roboto-Bold, Roboto" font-weight="700"><tspan x="0" y="0">AMBULANCIA</tspan></text>
        <path id="Trazado_110879" data-name="Trazado 110879" d="M659,145.77a2.764,2.764,0,0,0,1.762-1.612,2.764,2.764,0,0,0,3.595-2.259,2.77,2.77,0,0,0,3.1-3.331,2.766,2.766,0,0,0,3.271-1.907,2.76,2.76,0,0,0,.443.061,2.77,2.77,0,0,0,3.4,2.9,2.77,2.77,0,0,0,4.4,2.421c.5-1.764,1.538-4.481,3.048-3.727a2.945,2.945,0,0,1,1.262,2.385,2.765,2.765,0,0,0,.618-3.935c.052-.055.1-.111.15-.171a2.773,2.773,0,0,0-.45-3.9,2.839,2.839,0,0,0-.523-.325,2.769,2.769,0,0,0-2.362-3.851,2.77,2.77,0,0,0-2.973-3.583,2.742,2.742,0,0,0-.628.153,2.761,2.761,0,0,0-1.754-1.584,2.775,2.775,0,0,0-2.529.483,2.7,2.7,0,0,0-.4.389,2.778,2.778,0,0,0-4.613-.4c-.017.023-.032.047-.049.069a2.725,2.725,0,0,0-.4-.154,2.77,2.77,0,0,0-2.959.935c-.05.063-.1.129-.139.2a2.679,2.679,0,0,0-.4-.2,2.77,2.77,0,0,0-3.781,3.036,2.772,2.772,0,0,0-3.364,4.03,2.771,2.771,0,0,0-2.052,4.924c.022.018.045.032.068.049a3.932,3.932,0,0,0-.5,6.149c.079.074.16.145.246.213a3.915,3.915,0,0,0,1.018.585A2.77,2.77,0,0,0,659,145.77Z"/>
      </g>
    </g>
    <g id="Rectángulo_32670" data-name="Rectángulo 32670" transform="translate(624 499)" fill="none" stroke="#12263f" stroke-width="6">
      <rect width="291" height="275" rx="20" stroke="none"/>
      <rect x="3" y="3" width="285" height="269" rx="17" fill="none"/>
    </g>
  </g>
</svg>
