<svg xmlns="http://www.w3.org/2000/svg" xmlns:xlink="http://www.w3.org/1999/xlink" width="291" height="275" viewBox="0 0 291 275">
  <defs>
    <clipPath id="clip-path">
      <rect id="Rectángulo_32654" data-name="Rectángulo 32654" width="291" height="275" rx="20" transform="translate(226 499)" fill="#fff" stroke="#707070" stroke-width="1"/>
    </clipPath>
    <linearGradient id="linear-gradient" x1="0.5" x2="0.5" y2="1" gradientUnits="objectBoundingBox">
      <stop offset="0.25" stop-color="#f5f5f5"/>
      <stop offset="1" stop-color="#e6eded"/>
    </linearGradient>
  </defs>
  <g id="Grupo_71891" data-name="Grupo 71891" transform="translate(-266 -499)">
    <g id="Enmascarar_grupo_89" data-name="Enmascarar grupo 89" transform="translate(40)" clip-path="url(#clip-path)">
      <g id="Grupo_71884" data-name="Grupo 71884" transform="translate(116.323 440.042)">
        <path id="Trazado_110489" data-name="Trazado 110489" d="M340.323,38.46V49.066l8.52.321v9.3l8.5-.054.069-22.927,8.094.948-.079-1.315h-34.28V38.46Z" fill="url(#linear-gradient)"/>
        <path id="Trazado_110490" data-name="Trazado 110490" d="M382.691,50.026V42.483l21.986-1.558V35.343H374.827V50.026Z" fill="url(#linear-gradient)"/>
        <path id="Trazado_110491" data-name="Trazado 110491" d="M245.231,49.431v9.92l37.315-.238-.341-23.77H239.7v14.5Z" fill="url(#linear-gradient)"/>
        <path id="Trazado_110492" data-name="Trazado 110492" d="M219,40.493v38.72h4.588V50.2l5.2-.554.378,9.052,6.743.79-1.445-24.141H210.479v4.829Z" fill="url(#linear-gradient)"/>
        <path id="Trazado_110493" data-name="Trazado 110493" d="M171.055,42.059V35.343h-5.124l-.282,6.716Z" fill="#ffd4e0"/>
        <path id="Trazado_110494" data-name="Trazado 110494" d="M194.911,66.063l-.418-30.72H178.709l1.841,30.963Z" fill="url(#linear-gradient)"/>
        <path id="Trazado_110495" data-name="Trazado 110495" d="M115.386,40.537V63.959h7.864V56.416l25.493-1.807L150.7,68.984l2.261-.612-.473-33.028H109.853V40.95Z" fill="url(#linear-gradient)"/>
        <path id="Trazado_110496" data-name="Trazado 110496" d="M300.9,50.953V38.7l7.31-.244,1.218,20.482,15.109-.1-.32-23.5H296.149l-.654,15.609Z" fill="url(#linear-gradient)"/>
        <path id="Trazado_110497" data-name="Trazado 110497" d="M106.063,50.528v.062h0Z" fill="#ffd4e0"/>
        <path id="Trazado_110498" data-name="Trazado 110498" d="M177.091,120.606l.082,1.229a11.2,11.2,0,0,0,1.872-1.233Z" fill="#ffe3ec"/>
        <path id="Trazado_110499" data-name="Trazado 110499" d="M171.027,123.244l-.175-2.624-26.564.057L106.063,113v19.978h54.35C160.486,127.756,165.161,123.509,171.027,123.244Z" fill="#737373"/>
        <path id="Trazado_110500" data-name="Trazado 110500" d="M168.821,90.14l-.441-6.612,6.213-.414.468,7.032,31.376.029,1.015-1.135a11.8,11.8,0,0,1,8.71-3.76l22.77-.145a12.354,12.354,0,0,1,5.006,1.009l-.171-26.784,1.464-.009v-9.92l-5.534.412v-14.5h-5.231l1.445,24.142-6.743-.79-.378-9.052-5.2.554V79.213H219V40.493l-8.52-.321V35.343H194.493l.419,30.72-14.362.243-1.841-30.963h-7.654v6.716h-5.4l.281-6.716H152.489l.473,33.028-2.261.613-1.958-14.375L123.25,56.416v7.543h-7.864V40.537l-5.534.413V35.343h-3.789V50.528l0,.063h0V82.1l38.818,8.017Z" fill="#5c5959"/>
        <path id="Trazado_110501" data-name="Trazado 110501" d="M175.856,102.071l.44,6.609,13.617-.029,5.868-6.561Z" fill="#737373"/>
        <path id="Trazado_110502" data-name="Trazado 110502" d="M170.057,108.693l-.442-6.628-23.549-.022-40-8.033V101.1l37.04,7.65Z" fill="#737373"/>
        <path id="Trazado_110503" data-name="Trazado 110503" d="M348.843,58.691v-9.3l-8.52-.321V38.46h-9.175V35.343h-6.931l.32,23.5Z" fill="#afafaf"/>
        <path id="Trazado_110504" data-name="Trazado 110504" d="M309.428,58.942,308.21,38.46l-7.31.244V50.953h-5.405l.654-15.609H282.206l.341,23.77Z" fill="#afafaf"/>
        <path id="Trazado_110505" data-name="Trazado 110505" d="M393.371,123.372c1.539.018,3.1.052,3.1.052v9.555h8.21V120.115l-11.327.025Z" fill="#f6f6f6"/>
        <path id="Trazado_110506" data-name="Trazado 110506" d="M393.274,108.213l11.4-.025v-5.9l-11.441-.011Z" fill="#f6f6f6"/>
        <path id="Trazado_110507" data-name="Trazado 110507" d="M357.413,35.71l-.069,22.927,35.613-.227.2,31.941,11.516.011V40.924l-21.986,1.558v7.543h-7.864V35.343h-9.4l.079,1.315Z" fill="#afafaf"/>
        <path id="Trazado_110508" data-name="Trazado 110508" d="M393.236,102.276l11.441.011V90.362l-11.516-.011Z" fill="#e8e8e8"/>
        <path id="Trazado_110509" data-name="Trazado 110509" d="M170.852,120.62l.175,2.624c.165-.007.332-.013.5-.014h0a12.336,12.336,0,0,0,5.647-1.4l-.082-1.229,1.954,0a10.54,10.54,0,0,0,1.191-1.132l9.677-10.82-13.617.03-.44-6.609,19.925.019,10.656-11.915-31.376-.029-.468-7.032-6.213.414.441,6.612-23.94-.023L106.063,82.1V94.01l40,8.033,23.549.022.441,6.628-26.955.058-37.039-7.65V113l38.225,7.676Z" fill="#989898"/>
        <path id="Trazado_110510" data-name="Trazado 110510" d="M393.35,120.14l11.327-.024V108.189l-11.4.025Z" fill="#e8e8e8"/>
        <path id="Trazado_110511" data-name="Trazado 110511" d="M404.677,259.219H387.072l6.269,33.759.294,1.407h4.821a1.908,1.908,0,0,1,1.9,1.9h0a1.908,1.908,0,0,1-1.9,1.9H394.4a1.084,1.084,0,0,1-1.084,1.069l-42.685-.039-.178-1.03H321.518c-4.507,2.946-8.48,5.05-10.441,4.954-.02-.561-.036-1.035-.051-1.436l-.074.012a3.972,3.972,0,0,1-.991.156l-.012-.011a37.109,37.109,0,0,1-13.008-.578,56.366,56.366,0,0,1-8.57-3.1h-13.3l.248,2.007-43.523.4-.382-2.407H205.953l.208,1.691-43.523.4-.331-2.09h-7.283a1.908,1.908,0,0,1-1.9-1.9h0a1.908,1.908,0,0,1,1.9-1.9h6.516l-1.052-6.632c-7.046.2-14.958-.674-15.271-1.533a7.025,7.025,0,0,1-.044-2.259c.009-.112.02-.228.03-.346.3-3.3,1.264-8.328,1.264-8.328s.383-.088.982-.2a17.243,17.243,0,0,1-.2-3.453,34.471,34.471,0,0,1-3.642-.951s1.1-4.8,2.866-11.462H128.23c6.511,10.728,13.452,22.166,14.663,23.966.217.273,1.463,1.425,1.443,4.676-.048,7.5-10.572,4.463-10.572,4.463h0q-.334-.081-.672-.166a283.825,283.825,0,0,1-27.03-8.751v50.552H404.677ZM297.741,316.358s7.73-3.691,12.554-1.165S303.373,319.817,297.741,316.358Z" fill="#afafaf" opacity="0.609"/>
        <path id="Trazado_110512" data-name="Trazado 110512" d="M149.175,249.57q-.316-.252-.636-.511h-1.317c-2.2,1.187-4.443,2.391-6.68,3.577h7.743C148.572,251.629,148.869,250.6,149.175,249.57Z" fill="#cecece"/>
        <path id="Trazado_110513" data-name="Trazado 110513" d="M153.59,272.226l-.278,2.437a1.463,1.463,0,0,1,1.13.647,4.673,4.673,0,0,0,1.61,1.541c.154-.131.313-.257.481-.376.612-.432,1.191.574.586,1l-.022.017c.324.183.67.366,1.033.547.141-.15.286-.3.437-.441a.569.569,0,0,1,.286-.15l-1.091-6.876a5.012,5.012,0,0,1-.363.792A10.075,10.075,0,0,1,153.59,272.226Z" fill="#cecece"/>
        <path id="Trazado_110514" data-name="Trazado 110514" d="M127.529,235.855c1.21-.462,2.664-1.027,4.283-1.661-.66-.736-1.34-1.548-1.95-2.336A26.635,26.635,0,0,1,127.529,235.855Z" fill="#cecece"/>
        <path id="Trazado_110515" data-name="Trazado 110515" d="M120.1,181.057a4.644,4.644,0,0,1,.543.052c3.174-.7,8.384.4,12.132,1.408.6.163,1.165.323,1.677.474a2.859,2.859,0,0,1,.208-.5c2.213-4.087,4.1-8.305,5.013-10.429-.9-2.564.215-6.285,2-6.64a1.054,1.054,0,0,1,.7.08c1.61-3.666,7.177-8.308,10.878-6.923a3.168,3.168,0,0,1,2.189,1.97,18.991,18.991,0,0,1,1.914,1.4c7.949,6.554,7.265,13.988,1.671,16.731q-.193-.179-.382-.377-.276.324-.568.645a1.4,1.4,0,0,1-.234.837.334.334,0,0,1-.556-.007,40.2,40.2,0,0,1-3.544,3.139l.035.091-7.485,5.336a19.989,19.989,0,0,1-3.676-3.741,6.335,6.335,0,0,0-.376,2.7c0,.023,0,.046.006.068.259.268.566.58.907.928,1.468,1.5,3.611,2.964,5.159,4.675,5.054,2.88,10.771,10.169,12.574,19.208-.539.376-1.08.718-1.618,1.032.976,3.041,1.767,6.3,2.91,9.326l.182-.047c.332-.107,1.8-.746,4.885.284s2.531,5.381,2.531,5.381q-.144.756-.312,1.53-.2.945-.424,1.911c3.706,3.875,8.348,8.644,12.024,12.494l7.232.04a6.171,6.171,0,0,0,1.542-.371,1.2,1.2,0,0,1-.017.379l6.338.035.3,1.077h24.316l-.127-.6,9.283.051c-1.455-4.17-2.276-10.4-1.845-11.022.411-.6,2.537-.93,2.738-.961,1.413-.354,4.424-.059,7.252.777a15.435,15.435,0,0,1,2.272.86,14.868,14.868,0,0,1,.588-2.554s2.783-.188,6.983-.319c-.1-2.329,0-4.2.267-4.494.479-.543,2.629-.624,2.833-.631a13.571,13.571,0,0,1,5,.836l1.379-1.828a18.578,18.578,0,0,1,1.333-1.952c1.7-3.775.627-10.829.637-12.662.153-.04.3-.076.454-.11-3.142-12.069,1.628-27.805,1.628-27.805h.017c.586-1.927,4.671-15,10.2-23.608l-18.5.118a5.916,5.916,0,0,1-1.53.176c-3.63.043-8.24.085-13.448.126,0,.117,0,.181,0,.181l-6.019.013a16,16,0,1,1-31.746.071l-7.142.015.005-.055c-17.689.04-32.016,0-32.241-.2-.355-.309-.532-4.4-.611-9.738h-2.9s.16-3.574.3-7.394H106.063v62.536c2.7-6.182,5.221-11.84,7.084-15.835C113.806,184.611,116.246,181.761,120.1,181.057Zm109.15,6.4,8.819-.326,1.306,4.9-16,.653Zm-6.376-1.849c7.8,2.414-8.953,8.7-18.2,5.133C204.671,190.743,215.07,183.2,222.872,185.61ZM187.122,209.7s16.454-5.782,19.567-4.447,1.779,13.341-3.113,13.341-19.567-2.223-19.567-2.223Z" fill="#afafaf" opacity="0.609"/>
        <path id="Trazado_110516" data-name="Trazado 110516" d="M341.47,227.681l-.218-.111Z" fill="#b28797"/>
        <path id="Trazado_110517" data-name="Trazado 110517" d="M394.988,148.389H393.53l.064,10.066-16.8.107c.018.368.016.574.016.574h-5.44c.008.19.014.38.015.571a16,16,0,0,1-32,.2q0-.39.014-.775h-7.384s.009-.1.031-.289l-20.653.131c.1,2.1.522,3.707,1.427,4.432,2.442,1.955,2.956,4.512,1.834,6.326a136.034,136.034,0,0,1,5.933,23.625l.086,0s5.608,12.695,7.557,18.517c.218-.063.439-.123.669-.177.814,1.525,3.026,7.877,6.1,10.281a17.627,17.627,0,0,1,1.97,1.041l6.073,2.853a1.269,1.269,0,0,1,.342.254l3.28,3.44a.375.375,0,0,1-.23.634,2.557,2.557,0,0,1-.728-.037l.6.665c.372.413,1.475,1.258,1.323,1.889-.17.7-.91.707-1.565.564a.293.293,0,0,1,.063.293.345.345,0,0,1-.032.088c-1.026,1.941-4.057-.716-5.058-1.422a10.57,10.57,0,0,0-1.351-.875,4.771,4.771,0,0,0-1.293-.282,22.538,22.538,0,0,1-3.206-.927,6,6,0,0,1,1.839,2.151c.541.937.2,1.941-.292,1.57a28.823,28.823,0,0,0-4.227-3.041,4.158,4.158,0,0,1-1.067-.9c-.8-1.6-1.53-2.986-1.932-4.064l-.015,0s-1.515-2.177-3.033-4.05-4.6-5.882-4.6-5.882-9.8-11.186-10.875-16.6a164.765,164.765,0,0,1-5.423-18.7,4.349,4.349,0,0,1-2.973.6c-.619-.064-1.085,1.991-1.205,2.385-.164.539-1.185,7.976-2.094,14.4l6.6,35.945a12.121,12.121,0,0,1-2.068,10.783l25.465.142.1.363h12.05l-.027-.126,43.638-.4.071.528h4.155a1.9,1.9,0,0,1,0,3.8h-3.639l.484,3.577h18.568V212.821l-20.809-.262a2.936,2.936,0,0,1-2.85-3.475l.674-3.611a2.938,2.938,0,0,1,2.917-2.4l2.137.023.8-2.841,1.282-4.555.86-3.054,1.271-4.517.869-3.087,1.966-6.984a1.321,1.321,0,0,1,2.554.039l1.722,6.911.779,3.13L400,192.768l.777,3.119L402,200.8l.614,2.466,1.856.019c.069,0,.137.005.205.01V142.547h-9.689Z" fill="#afafaf" opacity="0.609"/>
        <path id="Trazado_110518" data-name="Trazado 110518" d="M265.821,224.351l-.015.005c.093.725.132,1.61.156,2.613.671.053,1.4.113,2.175.181-.432-3.307-.824-6.731-1.109-10.023-.132.716-.258,1.384-.365,1.924C266.165,221.558,265.821,224.351,265.821,224.351Z" fill="#afafaf"/>
        <path id="Trazado_110519" data-name="Trazado 110519" d="M334.94,230.012l.032.016a.333.333,0,0,1-.034-.052Z" fill="#b28797"/>
        <path id="Trazado_110520" data-name="Trazado 110520" d="M165.931,244.01l4.929.028q-2.178-1.539-4.131-3.03Q166.336,242.513,165.931,244.01Z" fill="#afafaf"/>
        <path id="Trazado_110521" data-name="Trazado 110521" d="M270.477,187.034c.222,1.863-.189,5.919-.777,10.205l.2-.149c1.585-4.916,5.046-15.394,6.155-18.941a56.663,56.663,0,0,1-5.6,8.736C270.462,186.934,270.471,186.983,270.477,187.034Z" fill="#afafaf"/>
        <path id="Trazado_110522" data-name="Trazado 110522" d="M151,221.644q-1.252-2.517-2.25-5.147c-.5.034-.783.032-.783.032s-1.684-3.184-3.4-7.289c-2.389,3.7-5.807,8.545-8.826,13.036.158.572.309,1.151.444,1.723a55.036,55.036,0,0,1,5.958,6.126c3.808-1.5,7.673-3.021,11.014-4.308C152.315,224.352,151.607,222.868,151,221.644Z" fill="#cecece"/>
        <path id="Trazado_110523" data-name="Trazado 110523" d="M334.916,229.619l0,.056a.343.343,0,0,1,.02-.048Z" fill="#b28797"/>
        <path id="Trazado_110524" data-name="Trazado 110524" d="M250.271,244.122c-4.943-1.516-8.391-2.774-8.787-2.982a6.682,6.682,0,0,1-.442-.754,2.863,2.863,0,0,0-1.612.9c-.075.077-.15.157-.225.245a3.463,3.463,0,0,0-.318.445c.421.357.052,1.066-.42.93a6.17,6.17,0,0,0-.2.76c.514.16.353.909-.131.99,0,.033-.005.065-.007.1l12.45.069c-.024-.048-.049-.1-.072-.144Q250.383,244.4,250.271,244.122Z" fill="#afafaf"/>
        <path id="Trazado_110525" data-name="Trazado 110525" d="M342.051,232.215c.352.255.729.516,1.1.745C342.846,232.742,342.464,232.48,342.051,232.215Z" fill="#b28797"/>
        <path id="Trazado_110526" data-name="Trazado 110526" d="M106.063,268.291v.894q.784.227,1.594.463Q106.85,268.969,106.063,268.291Z" fill="#b28797"/>
        <path id="Trazado_110527" data-name="Trazado 110527" d="M157.943,133.455a9.737,9.737,0,0,1,2.465-.089c0-.11,0-.221,0-.329,0-.02,0-.039,0-.058h-54.35V138.6h51.891A37.893,37.893,0,0,0,157.943,133.455Z" fill="#afafaf"/>
        <path id="Trazado_110528" data-name="Trazado 110528" d="M396.467,133.868h-3.03l.01,1.537h1.54v3.2h9.689v-5.624h-8.209Z" fill="#afafaf"/>
        <rect id="Rectángulo_32657" data-name="Rectángulo 32657" width="9.689" height="3.945" transform="translate(394.987 138.602)" fill="#fff"/>
        <path id="Trazado_110529" data-name="Trazado 110529" d="M157.954,138.6H106.063v3.945h51.764C157.875,141.215,157.92,139.853,157.954,138.6Z" fill="#fff"/>
        <path id="Trazado_110530" data-name="Trazado 110530" d="M140.542,252.636c-4.112,2.181-8.183,4.3-11.8,6.163-.2.1-.4.2-.59.294l.076.126h18.243c.545-2.047,1.153-4.27,1.812-6.583Z" fill="#fff"/>
        <path id="Trazado_110531" data-name="Trazado 110531" d="M386.811,257.814l.261,1.4h17.6v-6.583H386.109Z" fill="#fff"/>
        <path id="Trazado_110532" data-name="Trazado 110532" d="M335.852,90.226q-.24-.009-.5-.009-.222,0-.546.018t-.679.067a6.53,6.53,0,0,0-.71.137,3.086,3.086,0,0,0-.635.231,1.5,1.5,0,0,0-.457.347.717.717,0,0,0-.049.883,1.106,1.106,0,0,0,.35.324,1.581,1.581,0,0,0,.52.191,1.8,1.8,0,0,0,.626,0,11.15,11.15,0,0,0,1.256-.307q.591-.182,1.017-.351c.047-.248.092-.5.133-.754s.08-.506.116-.755Q336.09,90.235,335.852,90.226Z" fill="#fff"/>
        <path id="Trazado_110533" data-name="Trazado 110533" d="M270.308,84.215l-2.149,4.661h4.652Z" fill="#fff"/>
        <path id="Trazado_110534" data-name="Trazado 110534" d="M372.193,87.27a1.972,1.972,0,0,0-.289-.533,1.791,1.791,0,0,0-.381-.369,2.341,2.341,0,0,0-.422-.235,2.716,2.716,0,0,0-1.119-.186,2.012,2.012,0,0,0-.95.333,1.815,1.815,0,0,0-.564.648,2.759,2.759,0,0,0-.271.857,6.463,6.463,0,0,0-.071.959L372.344,88A2.781,2.781,0,0,0,372.193,87.27Z" fill="#fff"/>
        <path id="Trazado_110535" data-name="Trazado 110535" d="M301.89,86.049a3.132,3.132,0,0,0-.573.373,3.375,3.375,0,0,0-.519.528q-.1.827-.16,1.625t-.062,1.518a3.764,3.764,0,0,0,.177,1.168,3.406,3.406,0,0,0,.475.954,2.32,2.32,0,0,0,.693.644,1.58,1.58,0,0,0,.821.235,1.816,1.816,0,0,0,1.661-.968A6.331,6.331,0,0,0,305,89.108a5.743,5.743,0,0,0-.186-1.674,2.871,2.871,0,0,0-.5-1.012,1.591,1.591,0,0,0-.67-.5,2.376,2.376,0,0,0-.675-.151,1.769,1.769,0,0,0-.506.062A2.89,2.89,0,0,0,301.89,86.049Z" fill="#fff"/>
        <path id="Trazado_110536" data-name="Trazado 110536" d="M309.854,113.408a4.134,4.134,0,0,0-1.18-.782,6.609,6.609,0,0,0-1.554-.469,9,9,0,0,0-1.785-.132,7.172,7.172,0,0,0-1.77.226,3.388,3.388,0,0,0-1.179.562,2.185,2.185,0,0,0-.672.849,2.947,2.947,0,0,0-.237,1.086,1.429,1.429,0,0,0,.314,1.019,2.555,2.555,0,0,0,.942.695,5.421,5.421,0,0,0,1.362.4,9.6,9.6,0,0,0,1.581.127,7,7,0,0,0,1.83-.309,6.026,6.026,0,0,0,.782-.292,5.438,5.438,0,0,0,.8-.446,4.913,4.913,0,0,0,.755-.623,4.706,4.706,0,0,0,.656-.832A2.336,2.336,0,0,0,309.854,113.408Z" fill="#fff"/>
        <path id="Trazado_110537" data-name="Trazado 110537" d="M376.794,158.562l16.8-.107-.064-10.066H373.948A24.521,24.521,0,0,1,376.794,158.562Z" fill="#fff"/>
        <path id="Trazado_110538" data-name="Trazado 110538" d="M294.7,156.463c-.14-.087-.274-.18-.4-.278C294.43,156.283,294.564,156.376,294.7,156.463Z" fill="#fff"/>
        <path id="Trazado_110539" data-name="Trazado 110539" d="M295.138,156.707c-.15-.076-.294-.157-.434-.244C294.844,156.55,294.988,156.631,295.138,156.707Z" fill="#fff"/>
        <path id="Trazado_110540" data-name="Trazado 110540" d="M335.743,148.389H312.419a51.13,51.13,0,0,0-1.024,10.589l20.653-.131A26.973,26.973,0,0,1,335.743,148.389Z" fill="#fff"/>
        <path id="Trazado_110541" data-name="Trazado 110541" d="M281.406,151.625a15.187,15.187,0,0,1,1.651-.334c.294-.9.638-1.866,1.035-2.9H234.661a20.905,20.905,0,0,1,3.526,11.262c5.208-.041,9.818-.083,13.448-.126a5.916,5.916,0,0,0,1.53-.176l18.5-.118C274.6,154.65,277.954,151.332,281.406,151.625Z" fill="#fff"/>
        <path id="Trazado_110542" data-name="Trazado 110542" d="M293.248,155.176a6.313,6.313,0,0,0,1.051,1.009A6.313,6.313,0,0,1,293.248,155.176Z" fill="#fff"/>
        <path id="Trazado_110543" data-name="Trazado 110543" d="M293.1,154.985q-.15-.193-.288-.4Q292.945,154.791,293.1,154.985Z" fill="#fff"/>
        <path id="Trazado_110544" data-name="Trazado 110544" d="M296.1,157.087c-.17-.05-.335-.108-.495-.171C295.762,156.979,295.927,157.037,296.1,157.087Z" fill="#fff"/>
        <path id="Trazado_110545" data-name="Trazado 110545" d="M295.6,156.916c-.16-.063-.314-.133-.464-.209C295.288,156.783,295.442,156.853,295.6,156.916Z" fill="#fff"/>
        <path id="Trazado_110546" data-name="Trazado 110546" d="M197.8,148.389H164.022v1.552H160.43c.079,5.336.256,9.429.611,9.738.225.2,14.552.237,32.241.2A25.631,25.631,0,0,1,197.8,148.389Z" fill="#fff"/>
        <path id="Trazado_110548" data-name="Trazado 110548" d="M315.4,135.4c-.029.165-.064.328-.1.49h0l-.005.018c-.041.169-.088.336-.139.5-.436,1.591-1.776,6.636-2.74,11.976h23.324c3.2-5.164,9.114-10.2,19.977-9.959,10.253.225,15.521,5.033,18.228,9.959h21.04V135.4H315.4Z" fill="#12263f"/>
        <path id="Trazado_110549" data-name="Trazado 110549" d="M289.867,135.4H164.022v12.984H197.8c3.376-4.62,9.226-8.772,19.326-8.34,9.45.4,14.662,4.188,17.538,8.34h49.431C285.444,144.858,287.386,140.537,289.867,135.4Z" fill="#12263f"/>
        <path id="Trazado_110550" data-name="Trazado 110550" d="M234.661,148.389c-2.876-4.152-8.088-7.935-17.538-8.34-10.1-.432-15.95,3.72-19.326,8.34a25.631,25.631,0,0,0-4.515,11.487l-.005.055,7.142-.015a16,16,0,0,1,31.746-.071l6.019-.013s0-.064,0-.181A20.905,20.905,0,0,0,234.661,148.389Z" fill="#afafaf"/>
        <path id="Trazado_110551" data-name="Trazado 110551" d="M355.72,138.43c-10.863-.238-16.774,4.8-19.977,9.959a26.973,26.973,0,0,0-3.7,10.458c-.022.186-.031.289-.031.289H339.4a16,16,0,0,1,31.969,0h5.44s0-.206-.016-.574a24.521,24.521,0,0,0-2.846-10.173C371.241,143.463,365.973,138.655,355.72,138.43Z" fill="#afafaf"/>
        <path id="Trazado_110552" data-name="Trazado 110552" d="M216.2,145.9a15.995,15.995,0,1,0,15.97,13.949A16,16,0,0,0,216.2,145.9Zm9.65,15.939a9.548,9.548,0,1,1-9.609-9.487A9.548,9.548,0,0,1,225.845,161.835Z" fill="#12263f"/>
        <path id="Trazado_110553" data-name="Trazado 110553" d="M216.236,152.348a9.548,9.548,0,1,0,9.609,9.487A9.547,9.547,0,0,0,216.236,152.348Z" fill="url(#linear-gradient)"/>
        <path id="Trazado_110554" data-name="Trazado 110554" d="M355.284,143.81A16,16,0,0,0,339.4,159.136q-.016.386-.014.775a16,16,0,0,0,32-.2c0-.191-.007-.381-.015-.571A16,16,0,0,0,355.284,143.81Zm9.65,15.938a9.548,9.548,0,1,1-9.609-9.487A9.549,9.549,0,0,1,364.934,159.748Z" fill="#12263f"/>
        <path id="Trazado_110555" data-name="Trazado 110555" d="M355.325,150.261a9.548,9.548,0,1,0,9.609,9.487A9.549,9.549,0,0,0,355.325,150.261Z" fill="url(#linear-gradient)"/>
        <path id="Trazado_110556" data-name="Trazado 110556" d="M237.637,120.875a1.65,1.65,0,0,0,1.66-1.642l.138-26.644a1.652,1.652,0,0,0-1.679-1.659l-25.549.424a1.643,1.643,0,0,0-1.219.568c-2.777,3.206-16.811,19.4-22.644,25.925a1.651,1.651,0,0,0,1.222,2.751Z" fill="#f3f9ff"/>
        <path id="Trazado_110569" data-name="Trazado 110569" d="M164.022,148.389V133.455s-1.928-.067-3.614-.089a9.737,9.737,0,0,0-2.465.089,37.893,37.893,0,0,1,.011,5.147c-.034,1.251-.079,2.613-.127,3.945-.136,3.82-.3,7.394-.3,7.394h6.491Z" fill="#ff9d00"/>
        <rect id="Rectángulo_32658" data-name="Rectángulo 32658" width="7.882" height="7.477" rx="2.659" transform="translate(248.695 62.411)" fill="#ff9d00"/>
        <path id="Rectángulo_32659" data-name="Rectángulo 32659" d="M2.659,0H5.222A2.659,2.659,0,0,1,7.882,2.659V4.818a2.66,2.66,0,0,1-2.66,2.66H2.66A2.66,2.66,0,0,1,0,4.818V2.659A2.659,2.659,0,0,1,2.659,0Z" transform="translate(380.057 62.411)" fill="#ff9d00"/>
        <path id="Trazado_110570" data-name="Trazado 110570" d="M390.389,123.424c.309.2-.413,10.444-.413,10.444h6.491V123.424s-1.557-.034-3.1-.052A21.107,21.107,0,0,0,390.389,123.424Z" fill="#ff9d00"/>
        <path id="Trazado_110571" data-name="Trazado 110571" d="M402.616,203.263l.16.644.767,3.079a1.04,1.04,0,0,1-.459,1.134h0a15.373,15.373,0,0,1-16.168.057l-.694-.425a1.04,1.04,0,0,1-.457-1.168l.81-2.879.171-.607-2.137-.023a2.938,2.938,0,0,0-2.917,2.4l-.674,3.611a2.936,2.936,0,0,0,2.85,3.475l20.809.262v-9.529c-.068-.005-.136-.009-.205-.01Z" fill="#ffc033"/>
        <path id="Trazado_110572" data-name="Trazado 110572" d="M400,192.768l-1.153-4.628a9.544,9.544,0,0,1-7.89-.009l-1.271,4.517C391.413,193.206,395.8,194.308,400,192.768Z" fill="#ffcf57"/>
        <path id="Trazado_110573" data-name="Trazado 110573" d="M387.458,200.707A19.11,19.11,0,0,0,402,200.8l-1.223-4.91a13.7,13.7,0,0,1-11.951-.185l-1.282,4.555C387.611,200.245,387.458,200.707,387.458,200.707Z" fill="#ffcf57"/>
        <path id="Trazado_110574" data-name="Trazado 110574" d="M398.07,185.01l-1.722-6.911a1.321,1.321,0,0,0-2.554-.039l-1.966,6.984A11.236,11.236,0,0,0,398.07,185.01Z" fill="#ffcf57"/>
        <path id="Trazado_110575" data-name="Trazado 110575" d="M386.575,203.705l-.81,2.879a1.04,1.04,0,0,0,.457,1.168l.694.425a15.373,15.373,0,0,0,16.168-.057h0a1.04,1.04,0,0,0,.459-1.134l-.767-3.079A19.439,19.439,0,0,1,386.575,203.705Z" fill="#ffcf57"/>
        <path id="Trazado_110576" data-name="Trazado 110576" d="M398.849,188.14l-.779-3.13a11.236,11.236,0,0,1-6.242.034l-.869,3.087A9.544,9.544,0,0,0,398.849,188.14Z" fill="#fff"/>
        <path id="Trazado_110577" data-name="Trazado 110577" d="M400.779,195.887,400,192.768c-4.2,1.54-8.589.438-10.314-.12l-.86,3.054A13.7,13.7,0,0,0,400.779,195.887Z" fill="#fff"/>
        <path id="Trazado_110578" data-name="Trazado 110578" d="M402.776,203.907l-.16-.644L402,200.8a19.11,19.11,0,0,1-14.544-.09s.153-.462.088-.45l-.8,2.841-.171.607A19.439,19.439,0,0,0,402.776,203.907Z" fill="#fff"/>
        <path id="Trazado_110579" data-name="Trazado 110579" d="M206.689,205.252c-3.113-1.335-19.567,4.447-19.567,4.447l-3.113,6.671s14.676,2.223,19.567,2.223S209.8,206.586,206.689,205.252Z" fill="#b24763"/>
        <path id="Trazado_110580" data-name="Trazado 110580" d="M239.373,192.032l-1.306-4.9-8.818.327-5.879,5.226Z" fill="#ff9d00"/>
        <path id="Trazado_110581" data-name="Trazado 110581" d="M222.872,185.61c-7.8-2.414-18.2,5.133-18.2,5.133C213.919,194.314,230.674,188.024,222.872,185.61Z" fill="#ff9d00"/>
        <path id="Trazado_110582" data-name="Trazado 110582" d="M310.3,315.193c-4.824-2.526-12.554,1.165-12.554,1.165C303.373,319.817,315.118,317.718,310.3,315.193Z" fill="#ff9d00"/>
        <path id="Trazado_110583" data-name="Trazado 110583" d="M170.86,244.038l2.957.016a1.9,1.9,0,0,1,.539-1.08,4.96,4.96,0,0,1,3.32,1.1l3.385.019c-3.676-3.85-8.318-8.619-12.024-12.494-.689,3.045-1.476,6.226-2.308,9.407Q168.679,242.5,170.86,244.038Z" fill="#d08d83"/>
        <path id="Trazado_110584" data-name="Trazado 110584" d="M189.835,243.764a6.171,6.171,0,0,1-1.542.371l1.525.008A1.2,1.2,0,0,0,189.835,243.764Z" fill="#d08d83"/>
        <path id="Trazado_110585" data-name="Trazado 110585" d="M151,221.644c.61,1.224,1.318,2.708,2.156,4.173,4.282-1.649,7.7-2.917,9.022-3.275-1.143-3.028-1.934-6.285-2.91-9.326a25,25,0,0,1-10.518,3.281Q149.748,219.122,151,221.644Z" fill="#d08d83"/>
        <path id="Trazado_110586" data-name="Trazado 110586" d="M250.217,226.685a1.223,1.223,0,0,1,.795-.324c-.2.007-2.354.088-2.833.631-.263.3-.365,2.165-.267,4.494.653-.02,1.34-.039,2.056-.056C249.836,229.053,249.864,227.115,250.217,226.685Z" fill="#12263f"/>
        <path id="Trazado_110587" data-name="Trazado 110587" d="M250.271,244.122q.112.282.238.554c.023.049.048.1.072.144l1.949.011-.027-.038C251.731,244.565,250.985,244.341,250.271,244.122Z" fill="#4b3c4f"/>
        <path id="Trazado_110588" data-name="Trazado 110588" d="M252.53,244.831h.1l-.132-.039Z" fill="#7c658e"/>
        <path id="Trazado_110589" data-name="Trazado 110589" d="M250.217,226.685c-.353.43-.381,2.368-.249,4.745.942-.022,1.934-.039,2.965-.051a1.376,1.376,0,0,1,.17-.33l2.907-3.852a13.571,13.571,0,0,0-5-.836A1.223,1.223,0,0,0,250.217,226.685Z" fill="#aed0e0"/>
        <path id="Trazado_110590" data-name="Trazado 110590" d="M266,229.125a4.427,4.427,0,0,1-.558,1.368c-.168.294-.381.671-.612,1.087,1.326.067,2.649.151,3.951.256-.22-1.516-.439-3.087-.648-4.686-.776-.068-1.5-.128-2.175-.181C265.978,227.64,265.988,228.363,266,229.125Z" fill="#aed0e0"/>
        <path id="Trazado_110591" data-name="Trazado 110591" d="M262.581,230.543l-.019.021a.469.469,0,0,1,.044.034Z" fill="#88c6d1"/>
        <path id="Trazado_110592" data-name="Trazado 110592" d="M262.753,230.923l-.009-.021a.268.268,0,0,1,0,.041Z" fill="#88c6d1"/>
        <path id="Trazado_110593" data-name="Trazado 110593" d="M286.93,221.967l-.544.2,3,22.505,1.961.011Z" fill="#aed0e0"/>
        <path id="Trazado_110594" data-name="Trazado 110594" d="M262.324,231.474l.126.005c.052-.119.1-.217.144-.3Z" fill="#88c6d1"/>
        <path id="Trazado_110595" data-name="Trazado 110595" d="M159.65,282.475c-.129.339-.254.675-.385,1-.279.683-1.4.382-1.119-.308.37-.907.7-1.9,1.168-2.8l-.255-1.608a10.006,10.006,0,0,0-2.3,3.807c-.235.706-1.355.4-1.118-.308a11.294,11.294,0,0,1,2.493-4.209c-.363-.181-.709-.364-1.033-.547a10.658,10.658,0,0,0-3.032,4.317c-.324.673-1.324.084-1-.585a12.663,12.663,0,0,1,2.988-4.374,4.673,4.673,0,0,1-1.61-1.541,1.463,1.463,0,0,0-1.13-.647l-.124,1.085s-2.044,1.644-5.552-.237a.811.811,0,0,1-.187-.426c-.6.114-.982.2-.982.2s-.96,5.03-1.264,8.328c-.01.118-.021.234-.03.346a7.025,7.025,0,0,0,.044,2.259c.313.859,8.225,1.734,15.271,1.533Z" fill="#12263f"/>
        <path id="Trazado_110596" data-name="Trazado 110596" d="M153.188,275.748l.124-1.085.278-2.437a25.668,25.668,0,0,1-6.341-.594,17.243,17.243,0,0,0,.2,3.453.811.811,0,0,0,.187.426C151.144,277.392,153.188,275.748,153.188,275.748Z" fill="#d08d83"/>
        <path id="Trazado_110597" data-name="Trazado 110597" d="M159.265,283.471c.131-.321.256-.657.385-1l-.336-2.117c-.466.9-.8,1.9-1.168,2.8C157.864,283.853,158.986,284.154,159.265,283.471Z" fill="#fff"/>
        <path id="Trazado_110598" data-name="Trazado 110598" d="M158.13,278.04a11.294,11.294,0,0,0-2.493,4.209c-.237.709.883,1.014,1.118.308a10.006,10.006,0,0,1,2.3-3.807l-.206-1.3a.569.569,0,0,0-.286.15C158.416,277.742,158.271,277.89,158.13,278.04Z" fill="#fff"/>
        <path id="Trazado_110599" data-name="Trazado 110599" d="M156.533,276.475c-.168.119-.327.245-.481.376a12.663,12.663,0,0,0-2.988,4.374c-.323.669.677,1.258,1,.585a10.658,10.658,0,0,1,3.032-4.317l.022-.017C157.724,277.049,157.145,276.043,156.533,276.475Z" fill="#fff"/>
        <path id="Trazado_110600" data-name="Trazado 110600" d="M230.067,233.137a1.225,1.225,0,0,1,.75-.415c-.2.031-2.327.365-2.738.961-.431.623.39,6.852,1.845,11.022l1.926.011C230.783,240.424,229.486,234.045,230.067,233.137Z" fill="#12263f"/>
        <path id="Trazado_110601" data-name="Trazado 110601" d="M230.067,233.137c-.581.908.716,7.287,1.783,11.579l6.281.035c0-.033.005-.065.007-.1a.547.547,0,0,1-.2,0,5.652,5.652,0,0,0-3.4,0c-.609.263-1.138-.633-.525-.9a6.767,6.767,0,0,1,4.2-.1c.02,0,.037.012.056.017a6.17,6.17,0,0,1,.2-.76.55.55,0,0,1-.153-.071,6.23,6.23,0,0,0-3.662-.784.52.52,0,0,1,0-1.04,7.215,7.215,0,0,1,4.188.926.6.6,0,0,1,.047.039,3.463,3.463,0,0,1,.318-.445c.075-.088.15-.168.225-.245-1.1-2.5-1.889-5.186-1.361-7.784-2.828-.836-5.839-1.131-7.252-.777A1.225,1.225,0,0,0,230.067,233.137Z" fill="#aed0e0"/>
        <path id="Trazado_110602" data-name="Trazado 110602" d="M239.43,241.283a2.863,2.863,0,0,1,1.612-.9,10.431,10.431,0,0,1-.7-6.027,15.435,15.435,0,0,0-2.272-.86C237.541,236.1,238.325,238.779,239.43,241.283Z" fill="#fad4c8"/>
        <path id="Trazado_110603" data-name="Trazado 110603" d="M255.473,231.968l.15-.212C255.573,231.825,255.523,231.9,255.473,231.968Z" fill="#74b3ba"/>
        <path id="Trazado_110604" data-name="Trazado 110604" d="M257.149,236.548c-.249.443-.472.867-.65,1.216C256.732,237.372,256.951,236.951,257.149,236.548Z" fill="#74b3ba"/>
        <path id="Trazado_110605" data-name="Trazado 110605" d="M241.042,240.386a6.682,6.682,0,0,0,.442.754c.4.208,3.844,1.466,8.787,2.982.714.219,1.46.443,2.232.671l.132.039,10.794.06.1.363h23.086l-.127-.6,2.9.016-3-22.505.544-.2,4.421,22.714,12.46.069a12.121,12.121,0,0,0,2.068-10.783l-6.6-35.945c.909-6.42,1.93-13.857,2.094-14.4.12-.394.586-2.449,1.205-2.385a4.349,4.349,0,0,0,2.973-.6,3.209,3.209,0,0,0,1.159-1.482c.513-1.281,1.981-2.935,1.64-7.124l-.01-.125c-5.754-.777-8.858-6.616-9.141-11.275a24.381,24.381,0,0,1,.089-3.751,4.878,4.878,0,0,1-.648.228,4.74,4.74,0,0,1-1.263.167,4.509,4.509,0,0,1-1.285-.19c-.17-.05-.335-.108-.495-.171s-.314-.133-.464-.209-.294-.157-.434-.244-.274-.18-.4-.278a6.313,6.313,0,0,1-1.051-1.009c-.052-.063-.1-.126-.153-.191q-.15-.193-.288-.4a8.843,8.843,0,0,1-.507-.854,11.112,11.112,0,0,1-.523-1.165c-1.9,1.037-4.662.978-8.684-1.279v0l-.037.006a15.187,15.187,0,0,0-1.651.334l.05,0c4.105,3.7-.116,16.616-5.4,26.521-1.109,3.547-4.57,14.025-6.155,18.941l-.2.149c-.791,5.76-1.9,11.933-2.24,13.763a6.039,6.039,0,0,1,.613.253s-.562,3.258-1.045,5.872c.285,3.292.677,6.716,1.109,10.023.209,1.6.428,3.17.648,4.686-1.3-.1-2.625-.189-3.951-.256a21.069,21.069,0,0,0-1.849,3.858c-.278.591-1.095-.182-1.051-1.329a6.815,6.815,0,0,1,.516-2.63l-.126-.005a22.316,22.316,0,0,1-2.294,2.174,4.7,4.7,0,0,0-1.114.975,13.6,13.6,0,0,0-.789,1.429c-.58,1.142-2.12,5.128-4.023,3.82a.321.321,0,0,1-.034-.029.3.3,0,0,1-.135-.347c-.543.458-1.235.814-1.744.244-.213-.238-.162-.449-.1-.749.122-.582.271-1.159.418-1.735.072-.285.144-.574.217-.863a2.738,2.738,0,0,1-.666.4.4.4,0,0,1-.53-.482l1.376-4.849c.008-.027.017-.053.026-.079-1.031.012-2.023.029-2.965.051-.716.017-1.4.036-2.056.056-4.2.131-6.983.319-6.983.319a14.868,14.868,0,0,0-.588,2.554A10.431,10.431,0,0,0,241.042,240.386Zm42.84-69.4,10.628,3.529-.555,1.909-10.627-3.529Z" fill="#028d9e"/>
        <path id="Trazado_110606" data-name="Trazado 110606" d="M238.887,241.973a.6.6,0,0,0-.047-.039,7.215,7.215,0,0,0-4.188-.926.52.52,0,0,0,0,1.04,6.23,6.23,0,0,1,3.662.784.55.55,0,0,0,.153.071C238.939,243.039,239.308,242.33,238.887,241.973Z" fill="#fff"/>
        <path id="Trazado_110607" data-name="Trazado 110607" d="M238.269,243.663c-.019,0-.036-.013-.056-.017a6.767,6.767,0,0,0-4.2.1c-.613.265-.084,1.161.525.9a5.652,5.652,0,0,1,3.4,0,.547.547,0,0,0,.2,0C238.622,244.572,238.783,243.823,238.269,243.663Z" fill="#fff"/>
        <path id="Trazado_110608" data-name="Trazado 110608" d="M318.377,259.957c.029-.082.058-.164.086-.245C318.435,259.793,318.406,259.875,318.377,259.957Z" fill="#db3e67"/>
        <path id="Trazado_110609" data-name="Trazado 110609" d="M317.273,263.057c-.18.538-.347,1.076-.49,1.613C316.926,264.133,317.093,263.6,317.273,263.057Z" fill="#db3e67"/>
        <path id="Trazado_110610" data-name="Trazado 110610" d="M317.895,261.3l.074-.2Z" fill="#db3e67"/>
        <path id="Trazado_110611" data-name="Trazado 110611" d="M317.575,262.185q.094-.267.191-.534Q317.67,261.918,317.575,262.185Z" fill="#db3e67"/>
        <path id="Trazado_110612" data-name="Trazado 110612" d="M318.1,260.739l.073-.2Z" fill="#db3e67"/>
        <path id="Trazado_110613" data-name="Trazado 110613" d="M316.7,265q-.1.39-.172.778Q316.6,265.391,316.7,265Z" fill="#db3e67"/>
        <path id="Trazado_110614" data-name="Trazado 110614" d="M316.455,266.174a10.981,10.981,0,0,0-.145,1.448v0A10.981,10.981,0,0,1,316.455,266.174Z" fill="#db3e67"/>
        <path id="Trazado_110615" data-name="Trazado 110615" d="M315.381,275.681c-.007-.025-.013-.05-.02-.076C315.368,275.631,315.374,275.656,315.381,275.681Z" fill="#db3e67"/>
        <path id="Trazado_110616" data-name="Trazado 110616" d="M319.39,256.328l.013-.084Z" fill="#db3e67"/>
        <path id="Trazado_110617" data-name="Trazado 110617" d="M319.228,257.145c.009-.04.019-.08.027-.12Z" fill="#db3e67"/>
        <path id="Trazado_110618" data-name="Trazado 110618" d="M318.738,258.894l-.058.178Z" fill="#db3e67"/>
        <path id="Trazado_110619" data-name="Trazado 110619" d="M319.018,257.968c.039-.139.076-.277.111-.415C319.094,257.691,319.057,257.829,319.018,257.968Z" fill="#db3e67"/>
        <path id="Trazado_110620" data-name="Trazado 110620" d="M313.96,256.995l.007-.167h0Z" fill="#db3e67"/>
        <path id="Trazado_110621" data-name="Trazado 110621" d="M394.4,298.189h4.054a1.908,1.908,0,0,0,1.9-1.9h0a1.908,1.908,0,0,0-1.9-1.9h-4.821l.745,3.567A1.068,1.068,0,0,1,394.4,298.189Z" fill="#12263f"/>
        <path id="Trazado_110622" data-name="Trazado 110622" d="M349.794,294.385h-22.77c-1.859,1.344-3.724,2.64-5.506,3.8h28.937Z" fill="#12263f"/>
        <path id="Trazado_110623" data-name="Trazado 110623" d="M161.7,294.385h-6.68a1.908,1.908,0,0,0-1.9,1.9h0a1.908,1.908,0,0,0,1.9,1.9h7.283Z" fill="#12263f"/>
        <path id="Trazado_110624" data-name="Trazado 110624" d="M230.806,294.385H205.483l.47,3.8h25.456Z" fill="#12263f"/>
        <path id="Trazado_110625" data-name="Trazado 110625" d="M279.976,294.385H274.6l.47,3.8h13.3C285.508,296.942,282.64,295.569,279.976,294.385Z" fill="#12263f"/>
        <path id="Trazado_110626" data-name="Trazado 110626" d="M389.264,249.059a1.9,1.9,0,0,0,0-3.8h-4.155l.516,3.8Z" fill="#12263f"/>
        <path id="Trazado_110627" data-name="Trazado 110627" d="M148.015,248.63l-.793.429h1.317Z" fill="#7c658e"/>
        <path id="Trazado_110628" data-name="Trazado 110628" d="M263.529,245.255l1.046,3.8h22.847l-.807-3.8Z" fill="#12263f"/>
        <path id="Trazado_110629" data-name="Trazado 110629" d="M197.5,249.059h24.077l-.807-3.8H196.452Z" fill="#12263f"/>
        <path id="Trazado_110630" data-name="Trazado 110630" d="M330.422,249.059h11.811l-.807-3.8h-12.05Z" fill="#12263f"/>
        <path id="Trazado_110631" data-name="Trazado 110631" d="M274.6,294.385h5.38q-.863-.383-1.694-.736c-2.519.879-5.8.345-8.289-.336-.084-.006-.188-.011-.306-.016a5.241,5.241,0,0,0-1.039.416c-.728.387-1.357.94-2.1,1.3a2.452,2.452,0,0,1-2.365.054,19.025,19.025,0,0,0,2.368-1.536,6.628,6.628,0,0,0-.86.309c-1.664.736-4.406,1.932-5.1,2.136a2.518,2.518,0,0,1-1.855-.237.314.314,0,0,1-.12-.579c.2-.107.4-.218.6-.33a2.4,2.4,0,0,1-1.126-.278.314.314,0,0,1-.176-.581c1.182-.638,2.323-1.348,3.457-2.069-1,.081-1.869.137-2.211.125-1.018-.035-2.384-1.11-1.276-1.272,1.075-.158,7.149-1.9,8.835-2.332,1.862-.662,10.789.261,10.83.267a1.726,1.726,0,0,1,.4.143c.24.02.509.051.811.1,8.053,1.208,20.384,2.42,29.454,2.963l12.128-13.346c-.707-.107-1.39-.21-2.037-.3q-.324-.606-.589-1.229.266.624.589,1.229c-.787-.116-1.525-.222-2.2-.312-.128-.349-.247-.7-.362-1.051.115.352.234.7.362,1.051-.3-.041-.59-.079-.862-.113-10.757-1.342-14.447-1.33-18.746.384a13.027,13.027,0,0,0-3.548,2.282c-4.7,5.4-14.107,9.27-24.757,4.27-12.835,2.271-26.994-.916-31.564-2.1-4.651,1.556-10.426,3.382-12.925,3.746-4.508.656-29.568-.809-29.568-.809a17.691,17.691,0,0,1,4.731-2.324c2.635-.8,17.654,1.113,21.979.245a11.147,11.147,0,0,0,1.292-.35q-1.1-.009-2.283-.056c-7.738-.311-18.085-1.942-31.775-6.069a2.358,2.358,0,0,1-1.252-.93c-.314.233-.669.494-1.051.772-2.209,1.609-5.284,3.744-6.109,3.8-1.327.089-10.937-18.029-8.31-20.8a5.269,5.269,0,0,1,5.312,2.748,24.725,24.725,0,0,0,3.838,4.663c1.835,1.731,3.83,2.982,5.353,2.745a4.135,4.135,0,0,1,.339-.662c7.448-.381,20.577-.641,32.574-.761,2.167-.022,4.295-.039,6.348-.052-.657-.135-1.248-.243-1.754-.316l20.972-.325c-2.251-1.525-4.274-3.017-5.955-4.314-6.047,2.509-20.025,5-48.857-3.339-.041-.118-.087-.238-.135-.36-.343.21-1.258.768-2.383,1.427-2.358,1.381-5.63,3.2-6.456,3.173-1.207-.039-7.718-15.695-6.742-20.445l-2.957-.016-4.929-.028c-.746,2.764-1.515,5.492-2.271,8.1.111.129.206.241.283.332h0s8.437,5.9,6.113,6.676a1.178,1.178,0,0,1-1.1-.186l-5.541-4.321c-.08.172-.168.35-.263.532.017.012,7.429,5.248,5.629,6.512a.77.77,0,0,1-.9,0l-5.774-4.321-.154.506c2.065,1.462,5.777,4.342,4.325,5.225a.888.888,0,0,1-.979-.026l-4.047-2.919q-.066.213-.132.423c1.423,1.193,2.576,2.441,1.544,2.7-.393.1-1.65-.741-2.06-1.058-1.263,3.989-2.294,7.008-2.845,8.391l1.091,6.876.206,1.3.255,1.608.336,2.117.838,5.278,1.052,6.632h.164l.6,3.8.331,2.09,43.523-.4-.208-1.691-.47-3.8h25.323l.6,3.8.382,2.407,43.523-.4-.248-2.007Z" fill="#12263f"/>
        <path id="Trazado_110632" data-name="Trazado 110632" d="M386.109,252.636l-.484-3.577-.516-3.8-.071-.528-43.638.4.027.126.807,3.8H330.422l-1.045-3.8-.1-.363-25.465-.142-12.46-.069-1.961-.011-2.9-.016.127.6.807,3.8H264.575l-1.046-3.8-.1-.363-10.794-.06h-.1l-1.949-.011-12.45-.069-6.281-.035-1.926-.011-9.283-.051.127.6.807,3.8H197.5l-1.046-3.8-.3-1.077-6.338-.035-1.525-.008-7.232-.04-3.385-.019a6.183,6.183,0,0,1,1.693,2.161,24.759,24.759,0,0,0,3.356,5.021c1.629,1.876,3.459,3.3,4.984,3.265-.026-.222-.05-.449-.067-.686,13.312-.831,42.147-2.876,52.7-2.6,12.179-2.15,37.182,4.942,43.419,6.8l.085-.01c.02-.085.038-.171.058-.257,1.088-.193,2.276-.408,3.536-.635,4.028-3.155,12.7-8.741,22.326-8.187a89.381,89.381,0,0,1,8.975.445c2.086-2.243,6.055-2.314,8.861-.422a3.423,3.423,0,0,0,.313.184l13.8,5.495a1.712,1.712,0,0,1,.324-.13c.829-.228,4.74.214,8.306.692a22.307,22.307,0,0,1,1.078-4.407,68.957,68.957,0,0,1,10.721,1.152,1.391,1.391,0,0,0,.1-.393c.1-1,1.543-1.088,1.543-1.088a1.475,1.475,0,0,0-1.119,1.416c0,.058-.008.113-.012.168q.785.162,1.558.349a.426.426,0,0,1,.216-.3.477.477,0,0,1,.647.17,1.988,1.988,0,0,1,.127.387c1.025.276,2.017.589,2.957.944.193-.255.357-.391.483-.383,1.585.1,8.667,4.939,8.664,6.84a2.812,2.812,0,0,1-.051.45,6.135,6.135,0,0,1,.457.747C379.9,265.4,376.69,270.771,372,273.7a3.535,3.535,0,0,1-.852,1.087c-1.441.87-8.191,3.344-11.409.627,0,0-3.552,4.889-.39,8.644s-3.162,8.3-7.312,3.459c-1.395-1.628-3.377-8.2-2.489-13.212l-3.362.371a3.915,3.915,0,0,1-1.066-.029c-.146,2.311-.615,5.131-1.951,6.65s-8.684,7.691-16.145,13.086h22.77l.661,3.8.178,1.03,42.685.039a1.084,1.084,0,0,0,1.084-1.069,1.068,1.068,0,0,0-.022-.237l-.745-3.567-.294-1.407-6.269-33.759-.261-1.4Z" fill="#12263f"/>
        <path id="Trazado_110633" data-name="Trazado 110633" d="M180.078,254.064c.675,3.33,2.836,7.2,6.937,7.262,1.125-.659,2.04-1.217,2.383-1.427a18.055,18.055,0,0,1-1.689-5.376c-1.525.039-3.355-1.389-4.984-3.265C181.816,252.417,179.78,252.561,180.078,254.064Z" fill="#ffd6ca"/>
        <path id="Trazado_110634" data-name="Trazado 110634" d="M174.356,242.974a1.9,1.9,0,0,0-.539,1.08c-.976,4.75,5.535,20.406,6.742,20.445.826.027,4.1-1.792,6.456-3.173-4.1-.066-6.262-3.932-6.937-7.262-.3-1.5,1.738-1.647,2.647-2.806a24.759,24.759,0,0,1-3.356-5.021,6.183,6.183,0,0,0-1.693-2.161A4.96,4.96,0,0,0,174.356,242.974Z" fill="#afafaf"/>
        <path id="Trazado_110635" data-name="Trazado 110635" d="M185.866,270.028c-1.523.237-3.518-1.014-5.353-2.745-.789,1.243-2.8,1.589-2.355,3.055,1,3.247,3.537,6.879,7.624,6.537.382-.278.737-.539,1.051-.772A6.673,6.673,0,0,1,185.866,270.028Z" fill="#ffd6ca"/>
        <path id="Trazado_110636" data-name="Trazado 110636" d="M178.158,270.338c-.446-1.466,1.566-1.812,2.355-3.055a24.725,24.725,0,0,1-3.838-4.663,5.269,5.269,0,0,0-5.312-2.748c-2.627,2.773,6.983,20.891,8.31,20.8.825-.055,3.9-2.19,6.109-3.8C181.7,277.217,179.161,273.585,178.158,270.338Z" fill="#afafaf"/>
        <path id="Trazado_110637" data-name="Trazado 110637" d="M189.4,259.9c.048.122.094.242.135.36,28.832,8.342,42.81,5.848,48.857,3.339,1.681,1.3,3.7,2.789,5.955,4.314l1.446-.022a227.811,227.811,0,0,1,24.554-2.951,20.249,20.249,0,0,1,8.614-5.866,26.621,26.621,0,0,1,4.8-1.036c-6.237-1.862-31.24-8.954-43.419-6.8-10.549-.272-39.384,1.773-52.7,2.6.017.237.041.464.067.686A18.055,18.055,0,0,0,189.4,259.9Z" fill="#ff9d00"/>
        <path id="Trazado_110638" data-name="Trazado 110638" d="M310.95,299.517s3-5.723,7.308-6.344,5.415-1.53,6.043-4.654a6.3,6.3,0,0,1,5.2-4.569c-4.858.036-5.856.8-7.021,1.807s-2.505,4.372-5.633,3.793c-4.1-.849-5.632,3.793-5.632,3.793l-3.069-1.367.074-.082c-9.07-.543-21.4-1.755-29.454-2.963-.3-.045-.571-.076-.811-.1a1.726,1.726,0,0,0-.4-.143c-.041-.006-8.968-.929-10.83-.267-1.686.43-7.76,2.174-8.835,2.332-1.108.162.258,1.237,1.276,1.272.342.012,1.21-.044,2.211-.125,1.484-.942,2.957-1.9,4.5-2.742.355-.194.672.348.317.542-2.723,1.482-5.229,3.339-7.957,4.811a.313.313,0,0,1-.141.039,2.4,2.4,0,0,0,1.126.278c2.5-1.413,4.838-3.107,7.361-4.481.355-.193.671.348.317.542-2.723,1.482-5.229,3.339-7.958,4.811a.3.3,0,0,1-.2.037,2.518,2.518,0,0,0,1.855.237c.7-.2,3.438-1.4,5.1-2.136a6.628,6.628,0,0,1,.86-.309,19.025,19.025,0,0,1-2.368,1.536,2.452,2.452,0,0,0,2.365-.054c.741-.362,1.37-.915,2.1-1.3a5.241,5.241,0,0,1,1.039-.416c.118.005.222.01.306.016,2.491.681,5.77,1.215,8.289.336q.829.353,1.694.736c2.664,1.184,5.532,2.557,8.395,3.8a56.366,56.366,0,0,0,8.57,3.1,37.109,37.109,0,0,0,13.008.578l.012.011a3.972,3.972,0,0,0,.991-.156l.074-.012Z" fill="#ffd6ca"/>
        <path id="Trazado_110639" data-name="Trazado 110639" d="M258.736,295.741a.3.3,0,0,0,.2-.037c2.729-1.472,5.235-3.329,7.958-4.811.354-.194.038-.735-.317-.542-2.523,1.374-4.861,3.068-7.361,4.481-.2.112-.4.223-.6.33A.314.314,0,0,0,258.736,295.741Z" fill="#e9b4a3"/>
        <path id="Trazado_110640" data-name="Trazado 110640" d="M258.086,294.554a.313.313,0,0,0,.141-.039c2.728-1.472,5.234-3.329,7.957-4.811.355-.194.038-.736-.317-.542-1.543.84-3.016,1.8-4.5,2.742-1.134.721-2.275,1.431-3.457,2.069A.314.314,0,0,0,258.086,294.554Z" fill="#e9b4a3"/>
        <path id="Trazado_110641" data-name="Trazado 110641" d="M270.345,264.939a227.811,227.811,0,0,0-24.554,2.951l-1.446.022-20.972.325c.506.073,1.1.181,1.754.316,5.2,1.075,14.52,3.928,18.718,5.242a57.057,57.057,0,0,0-6.56,1.916c-4.16,1.578-10.729,5.989-15.142,7.447a11.147,11.147,0,0,1-1.292.35c-4.325.868-19.344-1.04-21.979-.245a17.691,17.691,0,0,0-4.731,2.324s25.06,1.465,29.568.809c2.5-.364,8.274-2.19,12.925-3.746,4.57,1.188,18.729,4.375,31.564,2.1,10.65,5,20.053,1.126,24.757-4.27-.493.422-1,.895-1.533,1.428,0,0-9.912-13.5-7.58-23.885l-.085.01a26.621,26.621,0,0,0-4.8,1.036A20.249,20.249,0,0,0,270.345,264.939Z" fill="#ff9d00"/>
        <path id="Trazado_110642" data-name="Trazado 110642" d="M327.024,294.385c7.461-5.4,14.806-11.564,16.145-13.086s1.8-4.339,1.951-6.65a3.961,3.961,0,0,1-2.555-1.578,21.318,21.318,0,0,1-3.458-6.736H339c-1.721-6.806,1.041-10.837,2.708-11.684l-13.8-5.495a3.423,3.423,0,0,1-.313-.184c-2.806-1.892-6.775-1.821-8.861.422a7.061,7.061,0,0,1,1.823.421c1.632.6,7.491,2.972,8.544,3.241,1.085.277-.386,1.2-1.4,1.133-.342-.024-1.2-.172-2.191-.356,1.045.829,2.1,1.649,3.2,2.4a.321.321,0,0,1-.222.585,2.438,2.438,0,0,1-1.129.152c.175.125.348.251.525.372a.327.327,0,0,1-.175.6,2.553,2.553,0,0,1-1.847.028c-.67-.276-3.273-1.752-4.851-2.657a6.7,6.7,0,0,0-.823-.4,19.028,19.028,0,0,0,2.2,1.775,2.448,2.448,0,0,1-2.346-.3c-.7-.438-1.268-1.053-1.951-1.514a5.289,5.289,0,0,0-.99-.522c-.118-.008-.222-.013-.306-.016a24.839,24.839,0,0,1-2.717.3q-.055,1.093-.106,2.2l-.007.167.007-.167q.049-1.1.106-2.2a11.355,11.355,0,0,1-5.931-1.018c-6.215.89-14.364,2.374-20.706,3.521-1.26.227-2.448.442-3.536.635-.02.086-.038.172-.058.257-2.332,10.38,7.58,23.885,7.58,23.885.53-.533,1.04-1.006,1.533-1.428A13.027,13.027,0,0,1,296.5,278.2c4.3-1.714,7.989-1.726,18.746-.384.272.034.561.072.862.113-.128-.349-.247-.7-.362-1.051.115.352.234.7.362,1.051.67.09,1.408.2,2.2.312q-.324-.606-.589-1.229.266.624.589,1.229c.647.1,1.33.2,2.037.3l-12.128,13.346-.074.082,3.069,1.367s1.534-4.642,5.632-3.793c3.128.579,4.468-2.789,5.633-3.793s2.163-1.771,7.021-1.807a6.3,6.3,0,0,0-5.2,4.569c-.628,3.124-1.736,4.032-6.043,4.654s-7.308,6.344-7.308,6.344l.076,2.19c.015.4.031.875.051,1.436,1.961.1,5.934-2.008,10.441-4.954C323.3,297.025,325.165,295.729,327.024,294.385ZM319.4,256.244l-.013.084Zm-.148.781c-.008.04-.018.08-.027.12Zm-.126.528c-.035.138-.072.276-.111.415C319.057,257.829,319.094,257.691,319.129,257.553Zm-.449,1.519.058-.178Zm-3.319,16.533c.007.026.013.051.02.076C315.374,275.656,315.368,275.631,315.361,275.605Zm.949-7.983a10.981,10.981,0,0,1,.145-1.448,10.981,10.981,0,0,0-.145,1.448v0Zm1.265-5.437q.094-.267.191-.534Q317.67,261.918,317.575,262.185Zm-1.049,3.6q.076-.389.172-.778Q316.6,265.392,316.526,265.78Zm.257-1.11c.143-.537.31-1.075.49-1.613C317.093,263.6,316.926,264.133,316.783,264.67Zm1.68-4.958c-.028.081-.057.163-.086.245C318.406,259.875,318.435,259.793,318.463,259.712Zm-.293.826-.073.2Zm-.2.555-.074.2Z" fill="#81d4fa"/>
        <path id="Trazado_110643" data-name="Trazado 110643" d="M354.151,268.534a4.405,4.405,0,0,1-.366-2.136l-4.013-.017a18.393,18.393,0,0,0-.6-5.3c-.284-.462-2.679-.468-4.046-.432a1.4,1.4,0,0,0-1.347,1.188,14.035,14.035,0,0,0,.245,4.517l-4.913-.021a21.318,21.318,0,0,0,3.458,6.736,3.961,3.961,0,0,0,2.555,1.578,3.915,3.915,0,0,0,1.066.029l3.362-.371C350.034,271.563,351.379,269.284,354.151,268.534Z" fill="#fff"/>
        <path id="Trazado_110644" data-name="Trazado 110644" d="M339,266.334h.1l4.913.021a14.035,14.035,0,0,1-.245-4.517,1.4,1.4,0,0,1,1.347-1.188c1.367-.036,3.762-.03,4.046.432a18.393,18.393,0,0,1,.6,5.3l4.013.017a3.177,3.177,0,0,1,.109-.556l-.115-.093a8.2,8.2,0,0,1-2.891-4.686,15.178,15.178,0,0,1-.548-5.851c-3.566-.478-7.477-.92-8.306-.692a1.712,1.712,0,0,0-.324.13C340.043,255.5,337.281,259.528,339,266.334Z" fill="#eef"/>
        <path id="Trazado_110645" data-name="Trazado 110645" d="M350.888,261.063a8.2,8.2,0,0,0,2.891,4.686l.115.093a3.177,3.177,0,0,0-.109.556,4.405,4.405,0,0,0,.366,2.136c.943,2.264,3.4,4.22,4.933,3.7,1.622-.548.256-3.216-.679-4.726a35.426,35.426,0,0,1,4.4-1.035c1.893-5.317,4.177-11.318,5.353-12.87-.94-.355-1.932-.668-2.957-.944a3.908,3.908,0,0,1-.075,1.557c-.105.6-1.017.344-.911-.252a2.152,2.152,0,0,0,.042-1.215.588.588,0,0,1-.046-.343q-.773-.187-1.558-.349c-.08.96-.3,1.467-.692,1.689a.325.325,0,0,1-.336-.014c-.627-.432.2-1.024.513-1.778a68.957,68.957,0,0,0-10.721-1.152,22.307,22.307,0,0,0-1.078,4.407A15.178,15.178,0,0,0,350.888,261.063Zm7.536,9.692c-.067.4-.682.232-.615-.169a3.046,3.046,0,0,0-1.16-2.888c-.32-.258.134-.707.451-.451A3.678,3.678,0,0,1,358.424,270.755Zm1.748-8.484-.005-.009a4.211,4.211,0,0,1-.418-3.608c.764-1.8.806-2.5,1.467-2.184,0,0,.509.976-.542,3-.985,1.9-.563,2.7-.507,2.795Zm1.99.419c-.6.1-.849-.807-.251-.912a1.709,1.709,0,0,0,1.338-1.139,8.339,8.339,0,0,0,.672-1.791c.138-.593,1.049-.34.911.252C364.495,260.553,363.8,262.406,362.162,262.69ZM358.1,252.029a.732.732,0,0,1,.551.053,2.866,2.866,0,0,1,.731.564,12.34,12.34,0,0,0,4.666,2.794.854.854,0,0,1,.338.193c.44.478-.418.655-.729.622a1.782,1.782,0,0,1-.327-.062c-1.759-.532-3.522-1.056-5.277-1.6a1.378,1.378,0,0,1-.486-.225c-.51-.426-.08-1.438.127-1.91A.753.753,0,0,1,358.1,252.029Zm-4.66,2.236a3.023,3.023,0,0,1,.976-2.585c.448-.177.668.331.668.331l0,.023a.585.585,0,0,1,.871-.22.357.357,0,0,1,.035.029s.684.57.178,1.123c.411.747-.6,1.644-.963,2.325a17.349,17.349,0,0,0-.772,1.774A5.992,5.992,0,0,1,353.44,254.265Z" fill="#ffd6ca"/>
        <path id="Trazado_110646" data-name="Trazado 110646" d="M357.567,254.367a1.378,1.378,0,0,0,.486.225c1.755.545,3.518,1.069,5.277,1.6a1.782,1.782,0,0,0,.327.062c.311.033,1.169-.144.729-.622a.854.854,0,0,0-.338-.193,12.34,12.34,0,0,1-4.666-2.794,2.866,2.866,0,0,0-.731-.564.732.732,0,0,0-.551-.053.753.753,0,0,0-.406.428C357.487,252.929,357.057,253.941,357.567,254.367Z" fill="#f2beb3"/>
        <path id="Trazado_110647" data-name="Trazado 110647" d="M363.921,258.848a8.339,8.339,0,0,1-.672,1.791,1.709,1.709,0,0,1-1.338,1.139c-.6.1-.345,1.016.251.912,1.633-.284,2.333-2.137,2.67-3.59C364.97,258.508,364.059,258.255,363.921,258.848Z" fill="#4b3d51"/>
        <path id="Trazado_110648" data-name="Trazado 110648" d="M364.258,252.752a2.152,2.152,0,0,1-.042,1.215c-.106.6.806.851.911.252a3.908,3.908,0,0,0,.075-1.557,1.988,1.988,0,0,0-.127-.387.477.477,0,0,0-.647-.17.426.426,0,0,0-.216.3A.588.588,0,0,0,364.258,252.752Z" fill="#4b3d51"/>
        <path id="Trazado_110649" data-name="Trazado 110649" d="M354.43,257.065a17.583,17.583,0,0,1,.634-5c.005-.011.012-.02.017-.031l0-.023s-.22-.508-.668-.331a3.023,3.023,0,0,0-.976,2.585A5.992,5.992,0,0,0,354.43,257.065Z" fill="#a0104e"/>
        <path id="Trazado_110650" data-name="Trazado 110650" d="M354.43,257.065a17.349,17.349,0,0,1,.772-1.774c.368-.681,1.374-1.578.963-2.325.506-.553-.178-1.123-.178-1.123a.357.357,0,0,0-.035-.029.585.585,0,0,0-.871.22c-.005.011-.012.02-.017.031A17.583,17.583,0,0,0,354.43,257.065Z" fill="#c42f62"/>
        <path id="Trazado_110651" data-name="Trazado 110651" d="M361.626,253.735a.325.325,0,0,0,.336.014c.388-.222.612-.729.692-1.689,0-.055.008-.11.012-.168a1.475,1.475,0,0,1,1.119-1.416s-1.441.084-1.543,1.088a1.391,1.391,0,0,1-.1.393C361.828,252.711,361,253.3,361.626,253.735Z" fill="#4b3d51"/>
        <path id="Trazado_110652" data-name="Trazado 110652" d="M360.167,262.262l.005.009Z" fill="#4b3d51"/>
        <path id="Trazado_110653" data-name="Trazado 110653" d="M360.674,259.467c1.051-2.021.542-3,.542-3-.661-.32-.7.379-1.467,2.184a4.211,4.211,0,0,0,.418,3.608C360.111,262.17,359.689,261.364,360.674,259.467Z" fill="#4b3d51"/>
        <path id="Trazado_110654" data-name="Trazado 110654" d="M377.712,261.26a6.135,6.135,0,0,0-.457-.747A64.468,64.468,0,0,1,372,273.7C376.69,270.771,379.9,265.4,377.712,261.26Z" fill="#7c5c2a"/>
        <path id="Trazado_110655" data-name="Trazado 110655" d="M362.806,266.476a35.426,35.426,0,0,0-4.4,1.035c.935,1.51,2.3,4.178.679,4.726-1.532.517-3.99-1.439-4.933-3.7-2.772.75-4.117,3.029-4.6,5.773-.888,5.016,1.094,11.584,2.489,13.212,4.15,4.842,10.474.3,7.312-3.459s.39-8.644.39-8.644S361.117,271.219,362.806,266.476Z" fill="#7c5c2a"/>
        <path id="Trazado_110656" data-name="Trazado 110656" d="M357.1,267.247c-.317-.256-.771.193-.451.451a3.046,3.046,0,0,1,1.16,2.888c-.067.4.548.574.615.169A3.678,3.678,0,0,0,357.1,267.247Z" fill="#e9b4a3"/>
        <path id="Trazado_110657" data-name="Trazado 110657" d="M362.806,266.476c-1.689,4.743-3.067,8.94-3.067,8.94,3.218,2.717,9.968.243,11.409-.627A3.535,3.535,0,0,0,372,273.7a64.468,64.468,0,0,0,5.255-13.189,2.812,2.812,0,0,0,.051-.45c0-1.9-7.079-6.737-8.664-6.84-.126-.008-.29.128-.483.383C366.983,255.158,364.7,261.159,362.806,266.476Zm5.286-8.563c-.008-1.206,2.95-.841,3.582-.1s-.1,2.236.23,3.489,1.177,2.027.193,3.483a3.492,3.492,0,0,1-3.991,1.726c-1.854-.371-2.579-2.176-2.14-3.982S368.123,262.647,368.092,257.913Z" fill="#fff"/>
        <path id="Trazado_110658" data-name="Trazado 110658" d="M365.966,262.527c-.439,1.806.286,3.611,2.14,3.982a3.492,3.492,0,0,0,3.991-1.726c.984-1.456.132-2.23-.193-3.483s.4-2.75-.23-3.489-3.59-1.1-3.582.1C368.123,262.647,366.4,260.721,365.966,262.527Z" fill="#b24763"/>
        <path id="Trazado_110659" data-name="Trazado 110659" d="M218.779,268.605c-12,.12-25.126.38-32.574.761a4.135,4.135,0,0,0-.339.662,6.673,6.673,0,0,0,.967,6.075,2.358,2.358,0,0,0,1.252.93c13.69,4.127,24.037,5.758,31.775,6.069A39.439,39.439,0,0,0,218.779,268.605Zm-29.952,2.286c.3-.395,1.038-.148,1.482.2s-.181,1.238-.79,1.185C188.382,272.176,188.531,271.286,188.827,270.891ZM216.3,278.3c-1.976.939-5.138-.247-8.053-.84s-5.089,0-7.165-.049-4.3-2.421-6.324-2.52c-1.688-.082-4.371.144-4.618-1.208a1.046,1.046,0,0,1,.807-1.177c1.788-.43,6.893-1.494,9.394-.283,3.064,1.482,3.953.84,6.226.84a14.138,14.138,0,0,1,7.065,1.383C216,275.733,218.274,277.363,216.3,278.3Z" fill="#fff"/>
        <path id="Trazado_110660" data-name="Trazado 110660" d="M237.285,275.711a57.057,57.057,0,0,1,6.56-1.916c-4.2-1.314-13.522-4.167-18.718-5.242-2.053.013-4.181.03-6.348.052a39.439,39.439,0,0,1,1.081,14.5q1.182.048,2.283.056C226.556,281.7,233.125,277.289,237.285,275.711Z" fill="#ffd6ca"/>
        <path id="Trazado_110661" data-name="Trazado 110661" d="M314.073,254.632q-.055,1.093-.106,2.2h0q.049-1.1.106-2.2a24.839,24.839,0,0,0,2.717-.3c.084,0,.188.008.306.016a5.289,5.289,0,0,1,.99.522c.683.461,1.251,1.076,1.951,1.514a2.448,2.448,0,0,0,2.346.3,19.028,19.028,0,0,1-2.2-1.775,6.7,6.7,0,0,1,.823.4c1.578.905,4.181,2.381,4.851,2.657a2.553,2.553,0,0,0,1.847-.028.3.3,0,0,1-.141-.053c-2.56-1.749-4.858-3.858-7.412-5.616-.331-.228-.016-.772.317-.542,2.377,1.637,4.535,3.573,6.886,5.244a2.438,2.438,0,0,0,1.129-.152.281.281,0,0,1-.094-.043c-2.56-1.749-4.858-3.858-7.412-5.616-.33-.228-.016-.772.317-.542,1.455,1,2.827,2.117,4.212,3.215.989.184,1.849.332,2.191.356,1.016.071,2.487-.856,1.4-1.133-1.053-.269-6.912-2.637-8.544-3.241a7.061,7.061,0,0,0-1.823-.421,89.381,89.381,0,0,0-8.975-.445c-9.627-.554-18.3,5.032-22.326,8.187,6.342-1.147,14.491-2.631,20.706-3.521A11.355,11.355,0,0,0,314.073,254.632Z" fill="#ffd6ca"/>
        <path id="Trazado_110662" data-name="Trazado 110662" d="M320.473,251.726c-.333-.23-.648.314-.317.542,2.554,1.758,4.852,3.867,7.412,5.616a.3.3,0,0,0,.141.053.327.327,0,0,0,.175-.6c-.177-.121-.35-.247-.525-.372C325.008,255.3,322.85,253.363,320.473,251.726Z" fill="#e9b4a3"/>
        <path id="Trazado_110663" data-name="Trazado 110663" d="M321.3,250.617c-.333-.23-.647.314-.317.542,2.554,1.758,4.852,3.867,7.412,5.616a.281.281,0,0,0,.094.043.321.321,0,0,0,.222-.585c-1.1-.752-2.154-1.572-3.2-2.4C324.126,252.734,322.754,251.619,321.3,250.617Z" fill="#e9b4a3"/>
        <path id="Trazado_110664" data-name="Trazado 110664" d="M213.63,274.448a14.138,14.138,0,0,0-7.065-1.383c-2.273,0-3.162.642-6.226-.84-2.5-1.211-7.606-.147-9.394.283a1.046,1.046,0,0,0-.807,1.177c.247,1.352,2.93,1.126,4.618,1.208,2.026.1,4.249,2.47,6.324,2.52s4.249-.544,7.165.049,6.077,1.779,8.053.84S216,275.733,213.63,274.448Z" fill="#b24763"/>
        <path id="Trazado_110665" data-name="Trazado 110665" d="M190.309,271.089c-.444-.346-1.185-.593-1.482-.2s-.445,1.285.692,1.383C190.128,272.327,190.754,271.435,190.309,271.089Z" fill="#b24763"/>
        <path id="Trazado_110666" data-name="Trazado 110666" d="M153.59,272.226a10.075,10.075,0,0,0,3.809-.861,5.012,5.012,0,0,0,.363-.792c.551-1.383,1.582-4.4,2.845-8.391-.028-.021-.052-.041-.072-.057l-3.394-2.826c-2.5-1.7-3.632-3.428-3.994-5.017l-3.276-3.065.582-.654q-.633-.48-1.278-.993c-.306,1.034-.6,2.059-.89,3.066-.659,2.313-1.267,4.536-1.812,6.583-1.771,6.662-2.866,11.462-2.866,11.462a34.471,34.471,0,0,0,3.642.951A25.668,25.668,0,0,0,153.59,272.226Z" fill="#00bcd4"/>
        <path id="Trazado_110667" data-name="Trazado 110667" d="M161.512,257.525q.206.141.444.31l.154-.506-.257-.193C161.743,257.269,161.63,257.4,161.512,257.525Z" fill="#74b3ba"/>
        <path id="Trazado_110668" data-name="Trazado 110668" d="M159.627,258.94c-.12.056-.242.107-.368.153.567.412,1.241.923,1.864,1.445q.066-.21.132-.423Z" fill="#74b3ba"/>
        <path id="Trazado_110669" data-name="Trazado 110669" d="M142.139,230.125c2.1,2.462,3.978,4.92,5.4,6.725a103.382,103.382,0,0,1,6.7,9.467l.873-.98,1.335,2.256a5.98,5.98,0,0,1,2.817-.842,19.08,19.08,0,0,0,5.843-.624c.17,1.516-2.355,2.567-4.129,3.113a39.224,39.224,0,0,1,2.685,2.865c.756-2.6,1.525-5.331,2.271-8.1q.405-1.5.8-3c.832-3.181,1.619-6.362,2.308-9.407q.219-.965.424-1.911.168-.774.312-1.53s.552-4.352-2.531-5.381-4.553-.391-4.885-.284l-.182.047c-1.323.358-4.74,1.626-9.022,3.275C149.812,227.1,145.947,228.623,142.139,230.125Z" fill="#00bcd4"/>
        <path id="Trazado_110670" data-name="Trazado 110670" d="M133.765,292.323h0s10.524,3.039,10.572-4.463c.02-3.251-1.226-4.4-1.443-4.676-1.211-1.8-8.152-13.238-14.663-23.966l-.076-.126c.195-.094.391-.191.59-.294,3.615-1.859,7.686-3.982,11.8-6.163,2.237-1.186,4.485-2.39,6.68-3.577l.793-.429c-4.531-3.734-9.4-8.424-14.074-12.309a22.675,22.675,0,0,1-2.129-2.127c-1.619.634-3.073,1.2-4.283,1.661-.474.7-.976,1.4-1.476,2.067-.69,2.133-10.249,8.719-19.99,10.71v19.659q.786.678,1.594,1.357-.809-.237-1.594-.463v14.221a283.825,283.825,0,0,0,27.03,8.751Q133.43,292.242,133.765,292.323Z" fill="#00bcd4"/>
        <path id="Trazado_110671" data-name="Trazado 110671" d="M134.383,184.349c1.6,7.417,8.071,5.532,7.86,3.024,0-.022,0-.045-.006-.068a6.335,6.335,0,0,1,.376-2.7,10.958,10.958,0,0,1-2.4-6.079l-.033-1.07a8.345,8.345,0,0,1-.044-1.431l-.1-3.171a4.28,4.28,0,0,1-.367-.79c-.916,2.124-2.8,6.342-5.013,10.429a2.859,2.859,0,0,0-.208.5A2.683,2.683,0,0,0,134.383,184.349Z" fill="#af6b66"/>
        <path id="Trazado_110672" data-name="Trazado 110672" d="M144.113,169.451l1.528,4.807c1.661,1.283,4.838,3.777,6.23,5.146l1.9-2.1a1.793,1.793,0,0,1,.245-.218c.247-.184,1.071-.458.95.18a.828.828,0,0,1-.186.336,14.045,14.045,0,0,0-1.965,3.161c.415.886.807,1.856.924,2.151a40.2,40.2,0,0,0,3.544-3.139.27.27,0,0,1,0-.316c.342-.52.024-1.1-.239-1.574-.2-.362.354-.684.552-.323a3.216,3.216,0,0,1,.473,1.383q.293-.321.568-.645c-2.956-3.11-4.981-9.722-5.762-12.625C151.324,166.76,146.924,169.621,144.113,169.451Zm11.334,10.928a.558.558,0,1,1-.71-.345A.557.557,0,0,1,155.447,180.379Zm-4.733-3.361a.558.558,0,1,1,.344-.709A.557.557,0,0,1,150.714,177.018Zm2.33-2.938a3.388,3.388,0,0,0-3.2-.735c-.388.144-.553-.475-.17-.617a3.95,3.95,0,0,1,3.7.8C153.7,173.765,153.38,174.32,153.044,174.08Z" fill="#d08d83"/>
        <path id="Trazado_110673" data-name="Trazado 110673" d="M140.179,177.455l-.044-1.431A8.345,8.345,0,0,0,140.179,177.455Z" fill="#d08d83"/>
        <path id="Trazado_110674" data-name="Trazado 110674" d="M143.3,167.008l-.01-.156.825,2.6c2.811.17,7.211-2.691,8.766-3.772.781,2.9,2.806,9.515,5.762,12.625q.189.2.382.377c5.594-2.743,6.278-10.177-1.671-16.731a18.991,18.991,0,0,0-1.914-1.4,3.168,3.168,0,0,0-2.189-1.97c-3.7-1.385-9.268,3.257-10.878,6.923A2.231,2.231,0,0,1,143.3,167.008Z"/>
        <path id="Trazado_110675" data-name="Trazado 110675" d="M152.515,180.155c.1.192.2.4.3.612a14.045,14.045,0,0,1,1.965-3.161.828.828,0,0,0,.186-.336c.121-.638-.7-.364-.95-.18a1.793,1.793,0,0,0-.245.218l-1.9,2.1A3.85,3.85,0,0,1,152.515,180.155Z" fill="#af6b66"/>
        <path id="Trazado_110676" data-name="Trazado 110676" d="M150.349,175.964a.558.558,0,1,0,.709.345A.557.557,0,0,0,150.349,175.964Z" fill="#4b3c4f"/>
        <path id="Trazado_110677" data-name="Trazado 110677" d="M154.737,180.034a.558.558,0,1,0,.71.345A.558.558,0,0,0,154.737,180.034Z" fill="#4b3c4f"/>
        <path id="Trazado_110678" data-name="Trazado 110678" d="M131.292,204.985s-.142.087-.42.227q.27.984.524,1.971c.742,2.891,2.366,8.016,3.148,10.946.306,1.147.771,2.621,1.193,4.147,3.019-4.491,6.437-9.337,8.826-13.036,1.717,4.1,3.4,7.289,3.4,7.289s.281,0,.783-.032a25,25,0,0,0,10.518-3.281c.538-.314,1.079-.656,1.618-1.032-1.8-9.039-7.52-16.328-12.574-19.208-1.548-1.711-3.691-3.174-5.159-4.675-.341-.348-.648-.66-.907-.928.211,2.508-6.264,4.393-7.86-3.024a2.683,2.683,0,0,1,.067-1.358c-.512-.151-1.075-.311-1.677-.474-3.748-1.012-8.958-2.109-12.132-1.408C128.718,182.309,131.292,204.985,131.292,204.985Z" fill="#028d9e"/>
        <path id="Trazado_110679" data-name="Trazado 110679" d="M126.053,237.922c.5-.669,1-1.37,1.476-2.067a26.635,26.635,0,0,0,2.333-4,18.83,18.83,0,0,1-1.768-2.629,80.553,80.553,0,0,1-4.116-9.693v0a122.145,122.145,0,0,1-4.261-11.586c-.023-.085-.045-.17-.068-.256-.926.041-1.9.055-2.942.031-3.138-7.653-4.207-13.923-3.56-18.472-1.863,3.995-4.38,9.653-7.084,15.835v43.549C115.8,246.641,125.363,240.055,126.053,237.922Z" fill="#028d9e"/>
        <path id="Trazado_110680" data-name="Trazado 110680" d="M149.672,172.728c-.383.142-.218.761.17.617a3.388,3.388,0,0,1,3.2.735c.336.24.656-.315.323-.552A3.95,3.95,0,0,0,149.672,172.728Z" fill="#4b3c4f"/>
        <path id="Trazado_110681" data-name="Trazado 110681" d="M157.6,177.566c-.2-.361-.751-.039-.552.323.263.479.581,1.054.239,1.574a.27.27,0,0,0,0,.316.334.334,0,0,0,.556.007,1.4,1.4,0,0,0,.234-.837A3.216,3.216,0,0,0,157.6,177.566Z" fill="#4b3c4f"/>
        <path id="Trazado_110682" data-name="Trazado 110682" d="M131.292,204.985s-2.574-22.676-10.651-23.876a4.644,4.644,0,0,0-.543-.052c-3.852.7-6.292,3.554-6.951,8.191-.647,4.549.422,10.819,3.56,18.472,1.038.024,2.016.01,2.942-.031a28.16,28.16,0,0,0,11.223-2.477C131.15,205.072,131.292,204.985,131.292,204.985Z" fill="#00bcd4"/>
        <path id="Trazado_110683" data-name="Trazado 110683" d="M149.175,249.57q.645.513,1.278.993l3.783-4.246a103.382,103.382,0,0,0-6.7-9.467c-1.423-1.805-3.3-4.263-5.4-6.725A55.036,55.036,0,0,0,136.181,224c-.135-.572-.286-1.151-.444-1.723-.422-1.526-.887-3-1.193-4.147-.782-2.93-2.406-8.055-3.148-10.946q-.252-.987-.524-1.971a28.16,28.16,0,0,1-11.223,2.477c.023.086.045.171.068.256a122.145,122.145,0,0,0,4.261,11.586v0a80.553,80.553,0,0,0,4.116,9.693,18.83,18.83,0,0,0,1.768,2.629c.61.788,1.29,1.6,1.95,2.336a22.675,22.675,0,0,0,2.129,2.127c4.672,3.885,9.543,8.575,14.074,12.309l.524.429Q148.858,249.318,149.175,249.57Z" fill="#d08d83"/>
        <path id="Trazado_110684" data-name="Trazado 110684" d="M152.515,180.155a3.85,3.85,0,0,0-.644-.751c-1.392-1.369-4.569-3.863-6.23-5.146l-1.528-4.807-.825-2.6.01.156a13.281,13.281,0,0,1,.291,3.334l.507,3.572c-.5.505-1.4,1.491-2.829,3.271l-.394-3.388a3.382,3.382,0,0,1-.835-.944l.1,3.171.044,1.431.033,1.07a10.958,10.958,0,0,0,2.4,6.079,19.989,19.989,0,0,0,3.676,3.741l7.485-5.336-.035-.091c-.117-.295-.509-1.265-.924-2.151C152.715,180.555,152.614,180.347,152.515,180.155Z" fill="#fff"/>
        <path id="Trazado_110685" data-name="Trazado 110685" d="M140.873,173.8l.394,3.388c1.428-1.78,2.332-2.766,2.829-3.271l-.507-3.572a13.281,13.281,0,0,0-.291-3.334,2.231,2.231,0,0,0-.927-1.5,1.054,1.054,0,0,0-.7-.08c-1.786.355-2.9,4.076-2,6.64a4.28,4.28,0,0,0,.367.79A3.382,3.382,0,0,0,140.873,173.8Zm1.031-6.75a3.777,3.777,0,0,1,.716,3.724c-.135.388-.753.22-.618-.17a3.122,3.122,0,0,0-.551-3.1C141.187,167.187,141.637,166.732,141.9,167.047Z" fill="#d08d83"/>
        <path id="Trazado_110686" data-name="Trazado 110686" d="M142,170.6c-.135.39.483.558.618.17a3.777,3.777,0,0,0-.716-3.724c-.267-.315-.717.14-.453.453A3.122,3.122,0,0,1,142,170.6Z" fill="#efb9a8"/>
        <path id="Trazado_110687" data-name="Trazado 110687" d="M160.975,249.24c1.774-.546,4.3-1.6,4.129-3.113a19.08,19.08,0,0,1-5.843.624,5.98,5.98,0,0,0-2.817.842l-1.335-2.256-.873.98-3.783,4.246-.582.654,3.276,3.065c.362,1.589,1.491,3.322,3.994,5.017l3.394,2.826c.02.016.044.036.072.057.41.317,1.667,1.158,2.06,1.058,1.032-.261-.121-1.509-1.544-2.7-.623-.522-1.3-1.033-1.864-1.445.126-.046.248-.1.368-.153l1.628,1.175,4.047,2.919a.888.888,0,0,0,.979.026c1.452-.883-2.26-3.763-4.325-5.225q-.238-.17-.444-.31c.118-.127.231-.256.341-.389l.257.193,5.774,4.321a.77.77,0,0,0,.9,0c1.8-1.264-5.612-6.5-5.629-6.512.1-.182.183-.36.263-.532l5.541,4.321a1.178,1.178,0,0,0,1.1.186c2.324-.772-6.113-6.676-6.113-6.676h0c-.077-.091-.172-.2-.283-.332A39.224,39.224,0,0,0,160.975,249.24Z" fill="#fff"/>
        <path id="Trazado_110688" data-name="Trazado 110688" d="M346.982,232.518s0,.014,0,.026C347,232.515,347.012,232.492,346.982,232.518Z" fill="#fff"/>
        <path id="Trazado_110689" data-name="Trazado 110689" d="M340.4,226.035c-.412-.135-.589.514-.179.649,1.968.647,3.324,2.158,4.7,3.637.653.7,1.258,1.452,1.921,2.141.037.039.068.089.105.131l-.005.01c-.107.007-.235.084-.364.087a3.26,3.26,0,0,1-1.154-.305.279.279,0,0,0-.222,0,29.871,29.871,0,0,0-2.6-2.758,11.935,11.935,0,0,0-3.373-2.063c-.4-.163-.575.487-.179.649a11.587,11.587,0,0,1,3.5,2.268c1.024.933,1.829,2.053,2.794,3.037-.433.351-1.306-.011-2.2-.558-.375-.229-.752-.49-1.1-.745-.681-.494-1.26-.964-1.511-1.125a6.768,6.768,0,0,0-2.415-.752,25.934,25.934,0,0,1-2.821-.851.281.281,0,0,0-.364.14.343.343,0,0,0-.02.048.376.376,0,0,0,.018.3.333.333,0,0,0,.034.052.341.341,0,0,0,.153.107l.06.022a22.538,22.538,0,0,0,3.206.927,4.771,4.771,0,0,1,1.293.282,10.57,10.57,0,0,1,1.351.875c1,.706,4.032,3.363,5.058,1.422a.345.345,0,0,0,.032-.088.293.293,0,0,0-.063-.293c.655.143,1.395.138,1.565-.564.152-.631-.951-1.476-1.323-1.889l-.6-.665C344.192,228.473,342.6,226.757,340.4,226.035Zm6.579,6.483c.03-.026.018,0,0,.026C346.979,232.532,346.978,232.523,346.982,232.518Z" fill="#eaeaea"/>
        <path id="Trazado_110690" data-name="Trazado 110690" d="M321.854,215.947s3.086,4.01,4.6,5.882,3.033,4.05,3.033,4.05l.015,0c.4,1.078,1.13,2.461,1.932,4.064a4.158,4.158,0,0,0,1.067.9,28.823,28.823,0,0,1,4.227,3.041c.492.371.833-.633.292-1.57a6,6,0,0,0-1.839-2.151l-.06-.022a.341.341,0,0,1-.153-.107l-.032-.016,0-.036a.376.376,0,0,1-.018-.3l0-.056.024.008a.281.281,0,0,1,.364-.14,25.934,25.934,0,0,0,2.821.851,6.768,6.768,0,0,1,2.415.752c.251.161.83.631,1.511,1.125.413.265.8.527,1.1.745.894.547,1.767.909,2.2.558-.965-.984-1.77-2.1-2.794-3.037a11.587,11.587,0,0,0-3.5-2.268c-.4-.162-.221-.812.179-.649a11.935,11.935,0,0,1,3.373,2.063,29.871,29.871,0,0,1,2.6,2.758.279.279,0,0,1,.222,0,3.26,3.26,0,0,0,1.154.305c.129,0,.257-.08.364-.087l.005-.01c-.037-.042-.068-.092-.105-.131-.663-.689-1.268-1.441-1.921-2.141-1.379-1.479-2.735-2.99-4.7-3.637-.41-.135-.233-.784.179-.649,2.195.722,3.789,2.438,5.3,4.129a2.557,2.557,0,0,0,.728.037.375.375,0,0,0,.23-.634l-3.28-3.44a1.269,1.269,0,0,0-.342-.254l-6.073-2.853a17.627,17.627,0,0,0-1.97-1.041c-3.074-2.4-5.286-8.756-6.1-10.281-.23.054-.451.114-.669.177A12.333,12.333,0,0,0,321.854,215.947Zm19.4,11.623.218.111Z" fill="#fff"/>
        <path id="Trazado_110691" data-name="Trazado 110691" d="M309.135,171.985c-.27-.014-.532-.042-.79-.077l.01.125c.341,4.189-1.127,5.843-1.64,7.124a3.209,3.209,0,0,1-1.159,1.482,164.765,164.765,0,0,0,5.423,18.7c1.079,5.417,10.875,16.6,10.875,16.6a12.333,12.333,0,0,1,6.378-4.072c-1.949-5.822-7.557-18.517-7.557-18.517l-.086,0a136.034,136.034,0,0,0-5.933-23.625C313.776,171.161,311.888,172.127,309.135,171.985Z" fill="#00bcd4"/>
        <path id="Trazado_110692" data-name="Trazado 110692" d="M292.988,151.658a5.428,5.428,0,0,1-1.211.91,11.112,11.112,0,0,0,.523,1.165,8.843,8.843,0,0,0,.507.854q.138.2.288.4c.05.065.1.128.153.191a6.313,6.313,0,0,0,1.051,1.009c.131.1.265.191.4.278s.284.168.434.244.3.146.464.209.325.121.495.171a4.509,4.509,0,0,0,1.285.19,4.74,4.74,0,0,0,1.263-.167,4.878,4.878,0,0,0,.648-.228c.063-.667.147-1.322.244-1.955C297.778,155.967,294.556,156.488,292.988,151.658Z" fill="#aed0e0"/>
        <path id="Trazado_110693" data-name="Trazado 110693" d="M299.537,154.927a38.1,38.1,0,0,1,1.283-5.6c-2.748-2.045-4.344-4.433-4.545-5.274l-.384-1.068c-.108,2.268-.629,6.415-2.9,8.668C294.556,156.488,297.778,155.967,299.537,154.927Z" fill="#f4c0b5"/>
        <path id="Trazado_110694" data-name="Trazado 110694" d="M294.51,174.513l-10.628-3.529-.555,1.909,10.628,3.529Z" fill="#aed0e0"/>
        <path id="Trazado_110695" data-name="Trazado 110695" d="M267.46,211c.336-1.83,1.449-8,2.24-13.763.588-4.286,1-8.342.777-10.205-.006-.051-.015-.1-.022-.149a56.663,56.663,0,0,0,5.6-8.736c5.285-9.9,9.506-22.816,5.4-26.521l-.05,0c-3.452-.293-6.8,3.025-9.746,7.606-5.531,8.612-9.616,21.681-10.2,23.608h-.017s-4.77,15.736-1.628,27.805A13.747,13.747,0,0,1,267.46,211Z" fill="#00bcd4"/>
        <path id="Trazado_110696" data-name="Trazado 110696" d="M252.933,231.379c-.009.026-.018.052-.026.079l-1.376,4.849a.4.4,0,0,0,.53.482,2.738,2.738,0,0,0,.666-.4c.585-2.331,1.227-4.73,2.926-6.49.32-.331.823.174.5.5-1.526,1.581-2.052,3.658-2.615,5.728-.268.988-.4,2.09-.762,3.046-.018.047-.03.079-.038.1.014.009.026.015.031.012.111-.066.329-.068.47-.154a3.9,3.9,0,0,0,.834-.793.316.316,0,0,1,.216-.114,31.291,31.291,0,0,1,1.063-3.849,12.7,12.7,0,0,1,2.145-3.623c.295-.352.8.155.505.5a12.2,12.2,0,0,0-2.15,3.81c-.509,1.4-.712,2.87-1.139,4.29.584.114,1.22-.655,1.782-1.6.178-.349.4-.773.65-1.216.382-.777.682-1.482.835-1.756a4.669,4.669,0,0,1,.669-.994c.357-.367.839-.616,1.229-.952a27.478,27.478,0,0,0,2.262-2.227.312.312,0,0,1,.418-.055l.019-.021.025.055a.386.386,0,0,1,.138.3l.009.021-.014.02a.356.356,0,0,1-.09.181l-.055.059c-.043.079-.092.177-.144.3a6.815,6.815,0,0,0-.516,2.63c-.044,1.147.773,1.92,1.051,1.329a21.069,21.069,0,0,1,1.849-3.858c.231-.416.444-.793.612-1.087a4.427,4.427,0,0,0,.558-1.368c-.016-.762-.026-1.485-.042-2.156-.024-1-.063-1.888-.156-2.613l.015-.005s.344-2.793.842-5.3c.107-.54.233-1.208.365-1.924.483-2.614,1.045-5.872,1.045-5.872a6.039,6.039,0,0,0-.613-.253,13.747,13.747,0,0,0-7.647-.357c-.15.034-.3.07-.454.11-.01,1.833,1.058,8.887-.637,12.662a18.578,18.578,0,0,0-1.333,1.952L256.01,227.2l-2.907,3.852A1.376,1.376,0,0,0,252.933,231.379Zm2.69.377-.15.212C255.523,231.9,255.573,231.825,255.623,231.756Z" fill="#fff"/>
        <path id="Trazado_110697" data-name="Trazado 110697" d="M252.7,239.237c-.011,0,.007.019.028.035C252.724,239.253,252.717,239.236,252.7,239.237Z" fill="#fff"/>
        <path id="Trazado_110698" data-name="Trazado 110698" d="M262.649,231.124a.356.356,0,0,0,.09-.181.268.268,0,0,0,0-.041.386.386,0,0,0-.138-.3.469.469,0,0,0-.044-.034.312.312,0,0,0-.418.055,27.478,27.478,0,0,1-2.262,2.227c-.39.336-.872.585-1.229.952a4.669,4.669,0,0,0-.669.994c-.153.274-.453.979-.835,1.756-.2.4-.417.824-.65,1.216-.562.947-1.2,1.716-1.782,1.6.427-1.42.63-2.889,1.139-4.29a12.2,12.2,0,0,1,2.15-3.81c.292-.349-.21-.856-.505-.5a12.7,12.7,0,0,0-2.145,3.623,31.291,31.291,0,0,0-1.063,3.849.316.316,0,0,0-.216.114,3.9,3.9,0,0,1-.834.793c-.141.086-.359.088-.47.154,0,0-.017,0-.031-.012.008-.023.02-.055.038-.1.359-.956.494-2.058.762-3.046.563-2.07,1.089-4.147,2.615-5.728.319-.33-.184-.835-.5-.5-1.7,1.76-2.341,4.159-2.926,6.49-.073.289-.145.578-.217.863-.147.576-.3,1.153-.418,1.735-.063.3-.114.511.1.749.509.57,1.2.214,1.744-.244a.3.3,0,0,0,.135.347.321.321,0,0,0,.034.029c1.9,1.308,3.443-2.678,4.023-3.82a13.6,13.6,0,0,1,.789-1.429,4.7,4.7,0,0,1,1.114-.975,22.316,22.316,0,0,0,2.294-2.174l.27-.291Zm-9.951,8.113c.019,0,.026.016.028.035C252.705,239.256,252.687,239.237,252.7,239.237Z" fill="#eaeaea"/>
        <path id="Trazado_110699" data-name="Trazado 110699" d="M312.419,148.389c.964-5.34,2.3-10.385,2.74-11.976.051-.165.1-.332.139-.5l.005-.018h0c.039-.162.074-.325.1-.49.72-4.03-1.495-8.725-7.132-10.853a9.577,9.577,0,0,0-5.238-.651c-.548-.43-5.638-3.893-12.325,9.769-.289.589-.568,1.165-.843,1.735-2.481,5.132-4.423,9.453-5.775,12.984-.4,1.036-.741,2-1.035,2.9l.037-.006v0c4.022,2.257,6.785,2.316,8.684,1.279a5.428,5.428,0,0,0,1.211-.91c2.274-2.253,2.795-6.4,2.9-8.668l-.786-2.187c-2.11-1.663-2.624-5.909-1.062-6.909,1.661-1.064,3.171,3.155,3.485,4.1l.024-.087.418.2c2.121-.773,5.187-7.219,5.577-8.055,1.465,2.014,5.5,7.24,9.193,9.1-.191.541-.4,1.086-.629,1.63a3.445,3.445,0,0,0-1.159-.815c-.419-.221-.79.413-.371.634a2.245,2.245,0,0,1,1.047.777.34.34,0,0,0,.16.153c-.451,1.013-.954,2.022-1.487,3.006a4.884,4.884,0,0,1,.332.528s-1.408,4.669-4.817,6.855a16.969,16.969,0,0,1-5-2.586,38.1,38.1,0,0,0-1.283,5.6c-.1.633-.181,1.288-.244,1.955a24.381,24.381,0,0,0-.089,3.751c.283,4.659,3.387,10.5,9.141,11.275.258.035.52.063.79.077,2.753.142,4.641-.824,5.521-2.249,1.122-1.814.608-4.371-1.834-6.326-.9-.725-1.326-2.336-1.427-4.432A51.13,51.13,0,0,1,312.419,148.389Z"/>
        <path id="Trazado_110700" data-name="Trazado 110700" d="M307.494,142.528c.314-.83.631-1.659.945-2.488a1.735,1.735,0,0,1,.138-.27c.15-.241.766-.754.876-.165a.763.763,0,0,1-.046.352,13.436,13.436,0,0,0-.617,3.163,4.867,4.867,0,0,1,1.511,1.415c.533-.984,1.036-1.993,1.487-3.006a.34.34,0,0,1-.16-.153,2.245,2.245,0,0,0-1.047-.777c-.419-.221-.048-.855.371-.634a3.445,3.445,0,0,1,1.159.815c.228-.544.438-1.089.629-1.63-3.694-1.858-7.728-7.084-9.193-9.1-.39.836-3.456,7.282-5.577,8.055C299.535,138.84,305.087,141.437,307.494,142.528Zm-2.448-2.493a.515.515,0,1,1-.058.726A.515.515,0,0,1,305.046,140.035Zm5.809,2.806a.515.515,0,1,1,.058-.726A.515.515,0,0,1,310.855,142.841Zm-3.9-4.037c-.92-.417-2.455-.992-3.312-.249-.356.309-.878-.209-.52-.519,1.2-1.041,2.9-.459,4.2.134C307.758,138.365,307.384,139,306.956,138.8Z" fill="#ffd6ca"/>
        <path id="Trazado_110701" data-name="Trazado 110701" d="M309.407,139.957a.763.763,0,0,0,.046-.352c-.11-.589-.726-.076-.876.165a1.735,1.735,0,0,0-.138.27c-.314.829-.631,1.658-.945,2.488.433.2.765.344.953.423a3.31,3.31,0,0,1,.343.169A13.436,13.436,0,0,1,309.407,139.957Z" fill="#f4c0b5"/>
        <path id="Trazado_110702" data-name="Trazado 110702" d="M305.714,140.819a.515.515,0,1,0-.726-.058A.516.516,0,0,0,305.714,140.819Z" fill="#4b3c4f"/>
        <path id="Trazado_110703" data-name="Trazado 110703" d="M310.913,142.115a.515.515,0,1,0-.058.726A.516.516,0,0,0,310.913,142.115Z" fill="#4b3c4f"/>
        <path id="Trazado_110704" data-name="Trazado 110704" d="M307.327,138.17c-1.308-.593-3-1.175-4.2-.134-.358.31.164.828.52.519.857-.743,2.392-.168,3.312.249C307.384,139,307.758,138.365,307.327,138.17Z" fill="#4b3c4f"/>
        <path id="Trazado_110705" data-name="Trazado 110705" d="M300.82,149.332a16.969,16.969,0,0,0,5,2.586c3.409-2.186,4.817-6.855,4.817-6.855a5.271,5.271,0,0,0-1.843-1.943,3.31,3.31,0,0,0-.343-.169c-.188-.079-.52-.227-.953-.423-2.407-1.091-7.959-3.688-9.524-4.421l-.418-.2-.024.087c.039.118.06.186.06.186l-.6,1.837c-.169.664-.345,1.4-.483,2.058l-.323-.715a3.13,3.13,0,0,1-1.078-.561l.786,2.187.384,1.068C296.476,144.9,298.072,147.287,300.82,149.332Z" fill="#fff"/>
        <path id="Trazado_110706" data-name="Trazado 110706" d="M296.183,141.364l.323.715c.138-.662.314-1.394.483-2.058l.6-1.837s-.021-.068-.06-.186c-.314-.949-1.824-5.168-3.485-4.1-1.562,1-1.048,5.246,1.062,6.909A3.13,3.13,0,0,0,296.183,141.364Zm-1.364-6.136a3.475,3.475,0,0,1,1.839,2.975c.013.381-.578.379-.591,0a2.877,2.877,0,0,0-1.546-2.465C294.185,135.559,294.484,135.049,294.819,135.228Z" fill="#ffd6ca"/>
        <path id="Trazado_110707" data-name="Trazado 110707" d="M294.521,135.738a2.877,2.877,0,0,1,1.546,2.465c.013.379.6.381.591,0a3.475,3.475,0,0,0-1.839-2.975C294.484,135.049,294.185,135.559,294.521,135.738Z" fill="#f2bbaa"/>
        <text id="AMBULANCIA" transform="translate(270.677 102.958)" fill="#12263f" font-size="16" font-family="Roboto-Bold, Roboto" font-weight="700"><tspan x="0" y="0">AMBULANCIA</tspan></text>
      </g>
    </g>
    <g id="Rectángulo_32671" data-name="Rectángulo 32671" transform="translate(266 499)" fill="none" stroke="#12263f" stroke-width="6">
      <rect width="291" height="275" rx="20" stroke="none"/>
      <rect x="3" y="3" width="285" height="269" rx="17" fill="none"/>
    </g>
  </g>
</svg>
